<svg xmlns="http://www.w3.org/2000/svg" viewBox="0 0 750 500"><g id="freepik--background-complete--inject-66"><polygon points="275.9 393.62 243.32 484.39 336.21 484.39 300.96 393.62 275.9 393.62" style="fill:#e0e0e0"></polygon><rect x="40.76" y="331.54" width="3.56" height="53.48" style="fill:#ebebeb"></rect><path d="M56,311.61c-.94-3.26-1-6.79-2.38-9.88a12.08,12.08,0,0,0-11-7,11.55,11.55,0,0,0-10.47,7.58c-.89,2.62-.77,5.51-1.66,8.14-1.15,3.42-3.89,6.09-5.24,9.44a12.87,12.87,0,0,0,3.46,14.16A12.47,12.47,0,0,0,43.55,353.2l1.63-1.26c4,1.17,7.91-2.28,9.48-6.09s1.68-8.09,3.16-11.94c.88-2.29,2.24-4.42,2.66-6.84C61.4,321.71,57.52,316.83,56,311.61Z" style="fill:#ebebeb"></path><rect x="634.47" y="331.6" width="3.56" height="53.48" style="fill:#e0e0e0"></rect><path d="M649.72,311.67c-.94-3.26-1-6.79-2.38-9.88a12.09,12.09,0,0,0-11-7,11.58,11.58,0,0,0-10.47,7.58c-.89,2.63-.77,5.51-1.66,8.14-1.15,3.42-3.89,6.09-5.24,9.44a12.87,12.87,0,0,0,3.46,14.16,12.47,12.47,0,0,0,14.78,19.15l1.63-1.26c4,1.17,7.92-2.29,9.48-6.1s1.68-8.09,3.16-11.94c.88-2.29,2.24-4.42,2.66-6.83C655.11,321.78,651.23,316.9,649.72,311.67Z" style="fill:#e0e0e0"></path><rect x="683.86" y="331.6" width="3.56" height="53.48" style="fill:#e0e0e0"></rect><path d="M699.1,311.67c-.94-3.26-1-6.79-2.38-9.88a12.07,12.07,0,0,0-11-7,11.58,11.58,0,0,0-10.47,7.58c-.89,2.63-.77,5.51-1.66,8.14-1.15,3.42-3.89,6.09-5.23,9.44a12.87,12.87,0,0,0,3.46,14.16,12.47,12.47,0,0,0,14.77,19.15l1.64-1.26c4,1.17,7.91-2.29,9.48-6.1s1.67-8.09,3.15-11.94c.88-2.29,2.24-4.42,2.66-6.83C704.49,321.78,700.62,316.9,699.1,311.67Z" style="fill:#e0e0e0"></path><path d="M699.71,121.65c.77-5.63-7.17-10.26-13.14-10.74-2.85-.23-5.81.2-8.5-.74-5.85-2-8.18-9.58-13.88-12-4.26-1.8-9.17-.2-13.3,1.88s-8.22,4.7-12.84,5c-4,.25-8.37-1.24-11.89.73-2.62,1.46-4,4.47-6.4,6.25s-5.44,2.11-8.37,2.27-6,.19-8.63,1.41-4.87,4-4.32,6.93Z" style="fill:#ebebeb"></path><path d="M435.91,100.85c.53-3.85-4.9-7-9-7.34-1.95-.16-4,.14-5.81-.5-4-1.4-5.6-6.56-9.5-8.2-2.91-1.23-6.27-.14-9.09,1.29s-5.62,3.21-8.78,3.41c-2.74.17-5.73-.84-8.13.5-1.79,1-2.73,3.06-4.38,4.28a10.44,10.44,0,0,1-5.72,1.55,16.24,16.24,0,0,0-5.9,1c-1.82.84-3.33,2.77-2.95,4.74Z" style="fill:#e0e0e0"></path><path d="M639.58,197c.53-3.85-4.91-7-9-7.34-1.94-.16-4,.14-5.81-.51-4-1.39-5.59-6.55-9.49-8.2-2.92-1.22-6.27-.13-9.1,1.29s-5.62,3.21-8.77,3.42c-2.75.17-5.73-.85-8.13.49-1.79,1-2.73,3.07-4.38,4.28a10.4,10.4,0,0,1-5.73,1.56,16.28,16.28,0,0,0-5.9,1c-1.82.84-3.33,2.76-2.95,4.73Z" style="fill:#e0e0e0"></path><path d="M210.32,107.35c.47-3.35-4.27-6.11-7.83-6.4-1.69-.13-3.45.13-5.06-.43-3.48-1.22-4.87-5.72-8.27-7.15-2.54-1.07-5.47-.12-7.93,1.12s-4.9,2.8-7.65,3c-2.39.15-5-.74-7.08.43-1.56.87-2.38,2.67-3.82,3.73a9,9,0,0,1-5,1.35,14.33,14.33,0,0,0-5.14.84c-1.59.73-2.9,2.41-2.57,4.13Z" style="fill:#e0e0e0"></path><path d="M559,45.71c.61-4.43-5.64-8.07-10.33-8.45-2.24-.18-4.56.16-6.68-.57-4.59-1.61-6.43-7.54-10.91-9.43-3.35-1.41-7.21-.16-10.46,1.48s-6.45,3.69-10.08,3.92c-3.16.21-6.59-1-9.35.58-2.06,1.15-3.14,3.52-5,4.92s-4.28,1.66-6.58,1.78-4.69.15-6.79,1.11-3.83,3.18-3.39,5.44Z" style="fill:#f5f5f5"></path><path d="M147.43,55.63c.61-4.43-5.63-8.07-10.33-8.45-2.23-.18-4.56.17-6.68-.57-4.59-1.6-6.43-7.54-10.91-9.43-3.35-1.41-7.21-.15-10.45,1.48S102.6,42.35,99,42.59c-3.16.2-6.59-1-9.35.57-2.06,1.15-3.13,3.52-5,4.92S80.31,49.74,78,49.86,73.32,50,71.23,51s-3.84,3.18-3.4,5.44Z" style="fill:#f5f5f5"></path></g><g id="freepik--monument-2--inject-66"><path d="M563.62,385,555,162.31h1.12a1.11,1.11,0,1,0,0-2.22h-1.39v-3.77a11,11,0,0,0,.48-20.41v-8.23h1.29v-2.32h-3.27l-2.36-66.42-2.35,66.42h-3.27v2.32h1.28v8.23a11,11,0,0,0,.49,20.41v3.77h-1.39a1.11,1.11,0,1,0,0,2.22h1.25l-6.46,222.87Z" style="fill:#e0e0e0"></path></g><g id="freepik--monument-1--inject-66"><rect x="235.12" y="264.1" width="112.73" height="121.36" style="fill:#ebebeb"></rect><path d="M319.6,348.78h-63a4.05,4.05,0,0,1-4.06-4V311.3a33.65,33.65,0,0,1,33.65-33.64H290a33.64,33.64,0,0,1,33.64,33.64v33.43A4,4,0,0,1,319.6,348.78Z" style="fill:#e0e0e0"></path><path d="M319.6,348.78s.22,0,.64-.08A4.07,4.07,0,0,0,322,348a3.92,3.92,0,0,0,1.55-2.54,13.91,13.91,0,0,0,.05-2c0-.7,0-1.46,0-2.25,0-6.4-.05-15.62-.08-27,0-1.42,0-2.89-.09-4.36-.05-.74,0-1.5-.15-2.25l-.35-2.27a32.68,32.68,0,0,0-3.08-9.09,34.31,34.31,0,0,0-6-8.35,35,35,0,0,0-8.82-6.38,32.12,32.12,0,0,0-11-3.3,10.17,10.17,0,0,0-1.47-.13l-1.48-.07c-1-.08-2-.06-3-.06s-2,0-3,.06l-1.51.08-.76,0-.75.11a33.06,33.06,0,0,0-11.77,3.74,33.77,33.77,0,0,0-9.81,8.08,33.31,33.31,0,0,0-6.1,11.16c-.3,1-.53,2-.8,3s-.33,2.06-.51,3.08a52.8,52.8,0,0,0-.26,6.16c0,8.21,0,16.12,0,23.66v7a6.33,6.33,0,0,0,.06,1.32,3.83,3.83,0,0,0,1.21,2.18,3.74,3.74,0,0,0,2.27,1c.85,0,1.74,0,2.6,0H264l18.65,0,27,.08,7.35.05,1.91,0,.65,0-.65,0-1.91,0-7.35.05-27,.09L264,349h-5.12c-.87,0-1.72,0-2.63,0a4.28,4.28,0,0,1-3.91-3.51,7.42,7.42,0,0,1-.07-1.4v-1.37c0-1.84,0-3.7,0-5.59,0-7.54,0-15.45,0-23.66a54.56,54.56,0,0,1,.26-6.23c.18-1,.28-2.09.52-3.12s.5-2.06.81-3.08a33.46,33.46,0,0,1,6.19-11.34,34,34,0,0,1,10-8.2,33.46,33.46,0,0,1,12-3.8l.77-.11.77,0,1.54-.08c1-.07,2,0,3,0s2,0,3,0l1.5.08a10.58,10.58,0,0,1,1.49.14,32.51,32.51,0,0,1,11.1,3.36,33.62,33.62,0,0,1,15,15,33.29,33.29,0,0,1,3.09,9.22c.12.78.23,1.54.35,2.3s.09,1.52.14,2.27c.1,1.5.06,3,.07,4.38,0,11.4-.07,20.62-.09,27,0,.79,0,1.55,0,2.25a14.4,14.4,0,0,1-.07,2A4.09,4.09,0,0,1,322,348a3.89,3.89,0,0,1-1.77.71A2.66,2.66,0,0,1,319.6,348.78Z" style="fill:#263238"></path><rect x="135.15" y="237.65" width="76.19" height="147.82" style="fill:#e0e0e0"></rect><polygon points="132.2 244.56 134.82 249.84 211.87 249.84 214.36 244.56 132.2 244.56" style="fill:#ebebeb"></polygon><path d="M132.2,244.56h.39l1.22,0,4.72,0,17.49-.07,58.34-.13h.41l-.18.37c-.44,1-.92,2-1.41,3L212.11,250l-.07.15h-.17c-35.31,0-65.21-.07-77.05-.16h-.06l0-.06c-.83-1.74-1.47-3.07-1.92-4-.2-.42-.35-.75-.47-1a2.06,2.06,0,0,1-.14-.33s.07.12.18.35.3.58.53,1c.46.9,1.12,2.2,2,3.89l-.08-.05c11.84-.1,41.74-.16,77.05-.17l-.23.15,1.07-2.29c.49-1,1-2,1.41-3l.24.37-58.1-.12-17.57-.08-4.79,0h-1.26Z" style="fill:#263238"></path><rect x="135.15" y="259.7" width="76.19" height="5.65" style="fill:#ebebeb"></rect><rect x="150.12" y="265.35" width="6.77" height="120.12" style="fill:#f5f5f5"></rect><rect x="188.33" y="265.35" width="7.73" height="120.12" style="fill:#f5f5f5"></rect><polygon points="173.25 302.62 148.62 317.45 197.53 317.45 173.25 302.62" style="fill:#e0e0e0"></polygon><path d="M173.24,302.62a2.25,2.25,0,0,1,.45.23l1.32.77,5,3,17.67,10.68.71.42h-.83l-24.6,0-24.31,0h-.84l.72-.42,17.92-10.68,5-3,1.33-.77a2.63,2.63,0,0,1,.45-.23,3.5,3.5,0,0,1-.45.31l-1.33.83-5,3.09-17.72,10.8-.12-.43,24.31,0,24.6,0-.12.43-17.47-10.8L175,303.76l-1.31-.83Z" style="fill:#263238"></path><rect x="144.41" y="317.45" width="56.08" height="10.21" style="fill:#e0e0e0"></rect><path d="M200.49,327.67a1.7,1.7,0,0,1,0-.19l0-.52,0-2c0-1.76,0-4.29-.08-7.52l.14.14c-11.56.07-32.37.12-56.08.12h0c.52-.52.14-.14.26-.25h0v5.17c0,1.71,0,3.39,0,5l-.25-.26,39.88.11,11.85.08,3.21,0,.84,0,.3,0h-.26l-.81,0-3.16,0-11.79.07-40.06.11h-.26V317.47h0c.11-.12-.26.25.26-.27h0c23.71,0,44.52.05,56.08.13h.14v.13c0,3.26-.06,5.82-.08,7.6l0,2v.5C200.5,327.62,200.5,327.67,200.49,327.67Z" style="fill:#263238"></path><rect x="163.23" y="327.67" width="18.45" height="57.8" style="fill:#455a64"></rect><path d="M172.24,269.24h.84a7.34,7.34,0,0,1,7.34,7.34v22.15a0,0,0,0,1,0,0H164.9a0,0,0,0,1,0,0V276.58A7.34,7.34,0,0,1,172.24,269.24Z" style="fill:#455a64"></path><path d="M172.66,298.56c-.14,0-.26-6.52-.26-14.58s.12-14.58.26-14.58.26,6.53.26,14.58S172.8,298.56,172.66,298.56Z" style="fill:#fff"></path><path d="M180.38,279.41a60.72,60.72,0,0,1-7.88.26,60.72,60.72,0,0,1-7.88-.26,60.72,60.72,0,0,1,7.88-.26A60.72,60.72,0,0,1,180.38,279.41Z" style="fill:#fff"></path><path d="M180.14,288.08a52.86,52.86,0,0,1-7.48.26,52.86,52.86,0,0,1-7.48-.26,54.72,54.72,0,0,1,7.48-.26A54.72,54.72,0,0,1,180.14,288.08Z" style="fill:#fff"></path><path d="M211.34,265.35c0,.14-17.14.26-38.27.26s-38.27-.12-38.27-.26,17.13-.26,38.27-.26S211.34,265.21,211.34,265.35Z" style="fill:#263238"></path><rect x="69.81" y="237.65" width="76.19" height="147.82" style="fill:#e0e0e0"></rect><rect x="92.01" y="164.62" width="32.19" height="69.93" style="fill:#f5f5f5"></rect><path d="M107.57,113.82c-22.57,0-27.92,26.93-27.92,26.93h55.64C134.89,134,130.14,113.82,107.57,113.82Z" style="fill:#455a64"></path><g style="opacity:0.1"><path d="M120.74,124.67c-3.13-4.87-6.9-9-12.37-10.89a26.3,26.3,0,0,0-13.12,10.89A49.78,49.78,0,0,0,89,140.79h38A49.78,49.78,0,0,0,120.74,124.67Z" style="fill:#fff"></path></g><rect x="82.07" y="141.93" width="48.83" height="19.59" style="fill:#ebebeb"></rect><path d="M108.37,113.78a40.22,40.22,0,0,0-4.47,2.37,28.85,28.85,0,0,0-8.43,8.66,46.69,46.69,0,0,0-5,11.11c-.47,1.5-.81,2.72-1,3.57a7.37,7.37,0,0,1-.41,1.3,7.19,7.19,0,0,1,.21-1.35c.18-.86.46-2.11.89-3.62A42.6,42.6,0,0,1,95,124.53a27.83,27.83,0,0,1,8.67-8.69,19.87,19.87,0,0,1,3.36-1.66A5.61,5.61,0,0,1,108.37,113.78Z" style="fill:#263238"></path><path d="M108.25,113.78a5.48,5.48,0,0,1,1.3.4,17.62,17.62,0,0,1,3.28,1.7,29.2,29.2,0,0,1,8.34,8.81,39.24,39.24,0,0,1,4.76,11.18c.4,1.5.67,2.73.84,3.59a7,7,0,0,1,.21,1.33,5.88,5.88,0,0,1-.4-1.29c-.23-.83-.56-2.05-1-3.53a42.78,42.78,0,0,0-4.85-11,30.59,30.59,0,0,0-8.11-8.78A31.58,31.58,0,0,0,108.25,113.78Z" style="fill:#263238"></path><rect x="106.48" y="81.46" width="2.86" height="32.44" style="fill:#455a64"></rect><path d="M113.56,96.55a5.65,5.65,0,1,1-5.65-5.65A5.65,5.65,0,0,1,113.56,96.55Z" style="fill:#455a64"></path><rect x="76.21" y="139.83" width="63.4" height="4.19" rx="1.98" style="fill:#e0e0e0"></rect><polygon points="109 146.29 88.94 160.94 128.36 160.94 109 146.29" style="fill:#e0e0e0"></polygon><path d="M109,146.3s.12.06.36.23l1,.75,4,2.93,14.12,10.55.55.41h-.69l-20,0-19.43,0h-.73l.59-.43,14.61-10.53,4.13-2.93,1.08-.76c.25-.17.38-.25.38-.23l-.38.31-1.08.82-4.08,3.06L89.07,161.13l-.13-.42,19.43,0,20,0-.14.42-13.89-10.64-3.93-3.06c-.43-.34-.78-.61-1-.83Z" style="fill:#263238"></path><path d="M109.07,171.32h.84a7.34,7.34,0,0,1,7.34,7.34v26.7a0,0,0,0,1,0,0H101.72a0,0,0,0,1,0,0v-26.7A7.34,7.34,0,0,1,109.07,171.32Z" style="fill:#455a64"></path><rect x="68.55" y="211.89" width="79.62" height="21.82" style="fill:#e0e0e0"></rect><rect x="75.56" y="205.36" width="65.82" height="6.53" style="fill:#e0e0e0"></rect><rect x="87.99" y="161.51" width="8.03" height="72.2" style="fill:#ebebeb"></rect><rect x="121.46" y="161.51" width="8.03" height="72.2" style="fill:#ebebeb"></rect><path d="M114.71,222.8a6.85,6.85,0,1,1-6.84-6.84A6.84,6.84,0,0,1,114.71,222.8Z" style="fill:#455a64"></path><rect x="66.09" y="233.72" width="135.13" height="3.94" style="fill:#263238"></rect><polygon points="66.86 244.56 69.48 249.84 146.54 249.84 149.02 244.56 66.86 244.56" style="fill:#ebebeb"></polygon><path d="M66.86,244.56h.4l1.21,0,4.72,0,17.49-.07L149,244.3h.41l-.17.37-1.41,3c-.37.77-.73,1.55-1.08,2.28l-.07.15h-.16c-35.32,0-65.21-.07-77.06-.16h-.06l0-.06-1.92-4-.47-1a1.77,1.77,0,0,1-.15-.33l.19.35.52,1,2,3.89-.09-.05c11.85-.1,41.74-.16,77.06-.17l-.24.15c.35-.73.71-1.51,1.08-2.29l1.41-3,.23.37-58.1-.12-17.57-.08-4.79,0H67.3Z" style="fill:#263238"></path><rect x="69.81" y="259.7" width="76.19" height="5.65" style="fill:#ebebeb"></rect><rect x="84.79" y="265.35" width="6.77" height="120.12" style="fill:#f5f5f5"></rect><rect x="122.99" y="265.35" width="7.73" height="120.12" style="fill:#f5f5f5"></rect><polygon points="107.91 302.62 83.29 317.45 132.2 317.45 107.91 302.62" style="fill:#e0e0e0"></polygon><path d="M107.91,302.62a2.63,2.63,0,0,1,.45.23l1.31.77,5,3,17.68,10.68.7.42h-.82l-24.6,0-24.31,0h-.84l.72-.42,17.91-10.68,5-3,1.33-.77a2.44,2.44,0,0,1,.46-.23,4.34,4.34,0,0,1-.46.31l-1.32.83-5,3.09-17.71,10.8-.12-.43,24.31,0,24.6,0-.12.43-17.48-10.8-4.94-3.09-1.3-.83A3.5,3.5,0,0,1,107.91,302.62Z" style="fill:#263238"></path><rect x="79.07" y="317.45" width="56.08" height="10.21" style="fill:#e0e0e0"></rect><path d="M135.16,327.67a.86.86,0,0,1,0-.19V327l0-2c0-1.76,0-4.29-.08-7.52l.14.14c-11.57.07-32.37.12-56.08.12h0c.52-.52.15-.14.26-.25h0v10.2l-.26-.26,39.88.11,11.86.08,3.21,0,.84,0,.3,0h-.27l-.8,0-3.16,0-11.8.07-40.06.11h-.25V317.47h0c.12-.12-.26.25.26-.27h0c23.71,0,44.51.05,56.08.13h.14v.13c0,3.26-.06,5.82-.08,7.6l0,2c0,.21,0,.37,0,.5A.92.92,0,0,1,135.16,327.67Z" style="fill:#263238"></path><rect x="97.89" y="327.67" width="18.45" height="57.8" style="fill:#455a64"></rect><rect x="78.99" y="153.54" width="9.33" height="51.82" style="fill:#e0e0e0"></rect><path d="M88.32,205.36a1.73,1.73,0,0,1,0-.28v-.77c0-.72,0-1.71,0-3,0-2.6,0-6.33-.07-11,0-9.29-.07-22.2-.12-36.83l.26.26H79c.51-.52.14-.13.25-.25V169.4c0,5,0,9.85,0,14.29,0,8.86-.07,16.32-.09,21.67l-.14-.14,6.87.08,1.82,0,.47,0h.17a4.08,4.08,0,0,1-.59,0l-1.79,0-7,.08h-.13v-.14c0-5.35-.06-12.81-.09-21.67,0-4.44,0-9.24,0-14.29V153.55c.12-.12-.26.25.27-.27h9.58v.26c0,14.71-.09,27.68-.12,37,0,4.6,0,8.3-.07,10.9,0,1.24,0,2.21,0,2.91v.75A1,1,0,0,1,88.32,205.36Z" style="fill:#263238"></path><path d="M88,148.78A4.76,4.76,0,1,1,83.23,144,4.76,4.76,0,0,1,88,148.78Z" style="fill:#e0e0e0"></path><path d="M88,148.78s0-.42-.25-1.13a4.78,4.78,0,0,0-1.74-2.5,4.54,4.54,0,1,0,0,7.27,4.78,4.78,0,0,0,1.74-2.5c.2-.71.2-1.14.25-1.14s0,.11,0,.31a3.58,3.58,0,0,1-.09.88,4.77,4.77,0,0,1-1.72,2.74,4.94,4.94,0,0,1-4.69.77,5,5,0,0,1,0-9.39,4.91,4.91,0,0,1,4.69.76,4.79,4.79,0,0,1,1.72,2.75,3.5,3.5,0,0,1,.09.88C88,148.68,88,148.78,88,148.78Z" style="fill:#263238"></path><rect x="129.49" y="153.54" width="9.33" height="51.82" style="fill:#e0e0e0"></rect><path d="M138.82,205.36a1.73,1.73,0,0,1,0-.28v-.77c0-.72,0-1.71,0-3,0-2.6,0-6.33-.07-11,0-9.29-.07-22.2-.12-36.83l.26.26H129.5c.51-.52.14-.13.26-.25V169.4c0,5,0,9.85,0,14.29,0,8.86-.07,16.32-.09,21.67l-.14-.14,6.87.08,1.82,0,.47,0h.17a4.08,4.08,0,0,1-.59,0l-1.79,0-6.95.08h-.13v-.14c0-5.35-.06-12.81-.09-21.67,0-4.44,0-9.24,0-14.29v-7.77c0-1.32,0-2.66,0-4v-4.07l.27-.27h9.58v.26c-.05,14.71-.09,27.68-.12,37,0,4.6-.05,8.3-.07,10.9,0,1.24,0,2.21,0,2.91,0,.31,0,.55,0,.75A1,1,0,0,1,138.82,205.36Z" style="fill:#263238"></path><path d="M138.49,148.78a4.76,4.76,0,1,1-4.76-4.76A4.76,4.76,0,0,1,138.49,148.78Z" style="fill:#e0e0e0"></path><path d="M138.49,148.78c-.05,0-.05-.42-.25-1.13a4.78,4.78,0,0,0-1.74-2.5,4.54,4.54,0,1,0,0,7.27,4.78,4.78,0,0,0,1.74-2.5c.2-.71.2-1.14.25-1.14s0,.11,0,.31a3.58,3.58,0,0,1-.09.88,4.77,4.77,0,0,1-1.72,2.74,4.94,4.94,0,0,1-4.69.77,5,5,0,0,1,0-9.39,4.91,4.91,0,0,1,4.69.76,4.79,4.79,0,0,1,1.72,2.75,3.5,3.5,0,0,1,.09.88C138.52,148.68,138.51,148.78,138.49,148.78Z" style="fill:#263238"></path><path d="M137.3,144c0,.15-13.29.26-29.68.26s-29.68-.11-29.68-.26,13.28-.26,29.68-.26S137.3,143.88,137.3,144Z" style="fill:#263238"></path><rect x="73.03" y="160.94" width="71.24" height="5.04" rx="2.38" style="fill:#e0e0e0"></rect><path d="M141.88,166a2.69,2.69,0,0,0,1.38-.5,2.3,2.3,0,0,0,.89-1.49,3.59,3.59,0,0,0,0-1.13,2.29,2.29,0,0,0-.6-1.11,2.23,2.23,0,0,0-1.23-.65,12.24,12.24,0,0,0-1.62,0l-3.72,0-9.06,0-52.49.07a2.27,2.27,0,0,0-.15,4.51l7.35,0H96.55l23.59.06,15.91.08,4.33.05,1.12,0,.38,0a1.88,1.88,0,0,1-.38,0l-1.12,0-4.33.05-15.91.09-23.59.05-13.94,0H75.22a2.61,2.61,0,0,1-1.81-.91,2.78,2.78,0,0,1,2-4.64l52.49.08,9.06,0,3.72,0a15.11,15.11,0,0,1,1.66.05,2.47,2.47,0,0,1,2,1.95,3.66,3.66,0,0,1,0,1.19,2.41,2.41,0,0,1-1,1.55,2.17,2.17,0,0,1-1,.41A1.15,1.15,0,0,1,141.88,166Z" style="fill:#263238"></path><path d="M88.32,199.31c.14,0,.26,7.56.26,16.87s-.12,16.87-.26,16.87-.26-7.55-.26-16.87S88.18,199.31,88.32,199.31Z" style="fill:#263238"></path><path d="M129.49,199.09c.15,0,.27,7.55.27,16.87s-.12,16.87-.27,16.87-.26-7.55-.26-16.87S129.35,199.09,129.49,199.09Z" style="fill:#263238"></path><path d="M121.46,166c.14,0,.26,15,.26,33.58s-.12,33.58-.26,33.58-.26-15-.26-33.58S121.32,166,121.46,166Z" style="fill:#263238"></path><path d="M96,166c.15,0,.26,15,.26,33.58s-.11,33.58-.26,33.58-.26-15-.26-33.58S95.88,166,96,166Z" style="fill:#263238"></path><path d="M75.56,232.83c-.15,0-.26-6.08-.26-13.57s.11-13.58.26-13.58.26,6.08.26,13.58S75.7,232.83,75.56,232.83Z" style="fill:#263238"></path><path d="M141.38,232.83c-.15,0-.26-6.08-.26-13.57s.11-13.58.26-13.58.26,6.08.26,13.58S141.52,232.83,141.38,232.83Z" style="fill:#263238"></path><rect x="69.81" y="265.35" width="9.26" height="120.12" style="fill:#ebebeb"></rect><rect x="65.43" y="356.53" width="16.81" height="6.35" rx="3" style="fill:#ebebeb"></rect><rect x="69.81" y="265.35" width="9.26" height="10.45" style="fill:#f5f5f5"></rect><rect x="69.81" y="349.51" width="9.26" height="3.94" style="fill:#f5f5f5"></rect><path d="M79.22,363.05a23.3,23.3,0,0,1-5,.26,23.23,23.23,0,0,1-5-.26,24,24,0,0,1,5-.26A24.12,24.12,0,0,1,79.22,363.05Z" style="fill:#263238"></path><path d="M78.81,356.47a22.67,22.67,0,0,1-4.8.26,22.53,22.53,0,0,1-4.79-.26,22.53,22.53,0,0,1,4.79-.26A22.67,22.67,0,0,1,78.81,356.47Z" style="fill:#263238"></path><path d="M69.74,356.68c-.14,0-.26-23.81-.26-53.17s.12-53.17.26-53.17.26,23.8.26,53.17S69.89,356.68,69.74,356.68Z" style="fill:#263238"></path><path d="M78.81,385.47a2,2,0,0,1,0-.4l0-1.16c0-1.05,0-2.55,0-4.45,0-3.9,0-9.46-.09-16.28V363h.21a3.19,3.19,0,0,0,3.24-2.84,3.12,3.12,0,0,0-.71-2.35,3.37,3.37,0,0,0-1-.79,5.24,5.24,0,0,0-1.31-.35l-.19,0v-.19c0-8.57,0-18.53,0-29.12,0-17.1.06-32.58.08-43.82,0-5.58.06-10.11.08-13.28l0-3.61,0-.94a1.14,1.14,0,0,1,0-.32,1.34,1.34,0,0,1,0,.32l0,.94,0,3.61.09,13.28c0,11.24,0,26.72.07,43.82l0,29.11-.18-.22a5.72,5.72,0,0,1,1.41.39,3.72,3.72,0,0,1,1.16.91,3.59,3.59,0,0,1,.8,2.69,3.49,3.49,0,0,1-1.27,2.36,3.69,3.69,0,0,1-2.41.82l.2-.19c0,6.82-.06,12.38-.09,16.28,0,1.9,0,3.4,0,4.45l0,1.16A2,2,0,0,1,78.81,385.47Z" style="fill:#263238"></path><rect x="135.21" y="264.9" width="9.26" height="120.12" transform="translate(279.68 649.92) rotate(180)" style="fill:#ebebeb"></rect><rect x="132.04" y="356.08" width="16.81" height="6.35" rx="3" transform="translate(280.89 718.5) rotate(180)" style="fill:#ebebeb"></rect><rect x="135.21" y="264.9" width="9.26" height="10.45" transform="translate(279.68 540.25) rotate(180)" style="fill:#f5f5f5"></rect><rect x="135.21" y="349.06" width="9.26" height="3.94" transform="translate(279.68 702.06) rotate(180)" style="fill:#f5f5f5"></rect><path d="M135.07,356a22,22,0,0,1,4.73-.26,22.09,22.09,0,0,1,4.74.26,22.09,22.09,0,0,1-4.74.26A22,22,0,0,1,135.07,356Z" style="fill:#263238"></path><path d="M135.07,362.6a1.93,1.93,0,0,1,.39,0l1.13,0,4.35-.06,3.14,0a9.61,9.61,0,0,0,1.77-.1,4.33,4.33,0,0,0,1.71-.71,3.22,3.22,0,0,0,.89-3.69,2.69,2.69,0,0,0-1.56-1.45,5.66,5.66,0,0,0-2.33-.31l-.22,0V356c0-11.13,0-25.93-.06-42.14,0-17.66.06-33.64.08-45.25,0-5.77.06-10.44.08-13.71,0-1.6,0-2.85.05-3.73,0-.41,0-.73,0-1a1.39,1.39,0,0,1,0-.33,1.39,1.39,0,0,1,0,.33c0,.24,0,.56,0,1,0,.88,0,2.13,0,3.73,0,3.27.05,7.94.08,13.71,0,11.61.05,27.59.08,45.25,0,16.21-.05,31-.06,42.14l-.22-.19a5.72,5.72,0,0,1,2.51.35,3,3,0,0,1,1.75,1.66,3.55,3.55,0,0,1-1,4.07,5.7,5.7,0,0,1-3.67.83l-3.14,0-4.35,0-1.13,0Z" style="fill:#263238"></path><path d="M106.91,269.24h.84a7.34,7.34,0,0,1,7.34,7.34v22.15a0,0,0,0,1,0,0H99.56a0,0,0,0,1,0,0V276.58A7.34,7.34,0,0,1,106.91,269.24Z" style="fill:#455a64"></path><path d="M107.33,298.56c-.15,0-.26-6.52-.26-14.58s.11-14.58.26-14.58.26,6.53.26,14.58S107.47,298.56,107.33,298.56Z" style="fill:#fff"></path><path d="M115,279.41a60.49,60.49,0,0,1-7.87.26,60.72,60.72,0,0,1-7.88-.26,60.72,60.72,0,0,1,7.88-.26A60.49,60.49,0,0,1,115,279.41Z" style="fill:#fff"></path><path d="M114.81,288.08a52.86,52.86,0,0,1-7.48.26,52.75,52.75,0,0,1-7.48-.26,54.6,54.6,0,0,1,7.48-.26A54.72,54.72,0,0,1,114.81,288.08Z" style="fill:#fff"></path><path d="M135.47,385a1.93,1.93,0,0,1,0-.39l0-1.16c0-1.06,0-2.55,0-4.46,0-3.89-.05-9.46-.09-16.28l.21.2a3.61,3.61,0,0,1-2.41-.83,3.47,3.47,0,0,1-1.27-2.36,3.52,3.52,0,0,1,1.95-3.59,5.41,5.41,0,0,1,1.42-.4L135,356c0-8.57,0-18.53,0-29.11,0-17.1.06-32.57.08-43.82,0-5.58.06-10.11.08-13.28,0-1.54,0-2.75,0-3.61l0-.94a1.77,1.77,0,0,1,0-.31,1.2,1.2,0,0,1,0,.31l0,.94c0,.86,0,2.07,0,3.61,0,3.17.05,7.7.09,13.28,0,11.25,0,26.72.07,43.82,0,10.59,0,20.55,0,29.13v.18l-.19,0a4.78,4.78,0,0,0-1.3.35,3,3,0,0,0-1,.79,3.1,3.1,0,0,0-.7,2.35,3.17,3.17,0,0,0,3.24,2.83h.2v.21c0,6.82-.06,12.39-.09,16.28,0,1.91,0,3.4-.05,4.46,0,.48,0,.87,0,1.16A1.93,1.93,0,0,1,135.47,385Z" style="fill:#263238"></path><path d="M146,265.35c0,.14-17.13.26-38.27.26s-38.27-.12-38.27-.26,17.13-.26,38.27-.26S146,265.21,146,265.35Z" style="fill:#263238"></path><rect x="370.32" y="237.65" width="76.19" height="147.82" transform="translate(816.83 623.12) rotate(180)" style="fill:#e0e0e0"></rect><polygon points="449.46 244.56 446.84 249.84 369.79 249.84 367.3 244.56 449.46 244.56" style="fill:#ebebeb"></polygon><path d="M449.46,244.56l-.44,0h-1.26l-4.79,0-17.57.08-58.1.12.24-.37c.44,1,.92,2,1.4,3,.37.78.73,1.56,1.08,2.29l-.24-.15c35.32,0,65.22.07,77.06.17l-.08.05c.87-1.69,1.53-3,2-3.89l.52-1,.19-.35a2.06,2.06,0,0,1-.14.33l-.48,1c-.44.93-1.08,2.26-1.92,4l0,.06h-.06c-11.84.09-41.74.16-77.06.16h-.16l-.07-.15c-.35-.73-.71-1.51-1.08-2.28l-1.41-3-.17-.37h.41l58.34.13,17.49.07,4.72,0,1.21,0Z" style="fill:#263238"></path><rect x="370.32" y="259.7" width="76.19" height="5.65" transform="translate(816.83 525.05) rotate(180)" style="fill:#ebebeb"></rect><rect x="424.76" y="265.35" width="6.77" height="120.12" transform="translate(856.3 650.82) rotate(180)" style="fill:#f5f5f5"></rect><rect x="385.6" y="265.35" width="7.73" height="120.12" transform="translate(778.93 650.82) rotate(180)" style="fill:#f5f5f5"></rect><polygon points="408.41 302.62 433.04 317.45 384.13 317.45 408.41 302.62" style="fill:#e0e0e0"></polygon><path d="M408.41,302.62a3.5,3.5,0,0,1-.45.31l-1.3.83-4.94,3.09-17.47,10.8-.12-.43,24.59,0,24.32,0-.12.43-17.72-10.8-5-3.09-1.32-.83a4.34,4.34,0,0,1-.46-.31,2.44,2.44,0,0,1,.46.23l1.33.77,5,3,17.92,10.68.71.42H433l-24.32,0-24.59,0h-.83l.71-.42,17.67-10.68,5-3c.55-.32,1-.57,1.31-.77A2.63,2.63,0,0,1,408.41,302.62Z" style="fill:#263238"></path><rect x="381.17" y="317.45" width="56.08" height="10.21" style="fill:#e0e0e0"></rect><path d="M381.17,327.67s0-.05,0-.16,0-.29,0-.5l0-2c0-1.78,0-4.34-.07-7.6v-.13h.14c11.56-.08,32.37-.13,56.08-.13h0c.52.52.14.15.26.27h0v10.45h-.26l-40.06-.11-11.8-.07-3.15,0-.81,0h-.26l.29,0,.84,0,3.22,0,11.85-.08,39.88-.11-.26.26v-10.2h0c.12.11-.26-.27.26.25h0c-23.71,0-44.52,0-56.08-.12l.13-.14c0,3.23-.06,5.76-.07,7.52l0,2v.52C381.17,327.6,381.17,327.66,381.17,327.67Z" style="fill:#263238"></path><rect x="399.98" y="327.67" width="18.45" height="57.8" transform="translate(818.42 713.14) rotate(180)" style="fill:#455a64"></rect><path d="M401.24,269.24h15.52a0,0,0,0,1,0,0v22.15a7.34,7.34,0,0,1-7.34,7.34h-.84a7.34,7.34,0,0,1-7.34-7.34V269.24A0,0,0,0,1,401.24,269.24Z" transform="translate(818 567.97) rotate(180)" style="fill:#455a64"></path><path d="M409,298.56c-.15,0-.26-6.52-.26-14.58s.11-14.58.26-14.58.26,6.53.26,14.58S409.14,298.56,409,298.56Z" style="fill:#fff"></path><path d="M401.28,279.41a119.39,119.39,0,0,1,15.75,0,119.39,119.39,0,0,1-15.75,0Z" style="fill:#fff"></path><path d="M401.52,288.08a107.73,107.73,0,0,1,15,0,107.73,107.73,0,0,1-15,0Z" style="fill:#fff"></path><path d="M370.32,265.35c0-.14,17.13-.26,38.27-.26s38.27.12,38.27.26-17.13.26-38.27.26S370.32,265.49,370.32,265.35Z" style="fill:#263238"></path><rect x="435.65" y="237.65" width="76.19" height="147.82" transform="translate(947.5 623.12) rotate(180)" style="fill:#e0e0e0"></rect><rect x="457.46" y="164.62" width="32.19" height="69.93" transform="translate(947.12 399.16) rotate(180)" style="fill:#f5f5f5"></rect><path d="M474.09,113.82c22.57,0,27.91,26.93,27.91,26.93H446.37C446.77,134,451.52,113.82,474.09,113.82Z" style="fill:#455a64"></path><g style="opacity:0.1"><path d="M460.92,124.67c3.13-4.87,6.89-9,12.37-10.89a26.3,26.3,0,0,1,13.12,10.89,49.78,49.78,0,0,1,6.24,16.12h-38A49.78,49.78,0,0,1,460.92,124.67Z" style="fill:#fff"></path></g><rect x="450.76" y="141.93" width="48.83" height="19.59" transform="translate(950.34 303.44) rotate(180)" style="fill:#ebebeb"></rect><path d="M473.29,113.78a5.61,5.61,0,0,1,1.31.4,19.48,19.48,0,0,1,3.35,1.66,27.75,27.75,0,0,1,8.68,8.69,42.6,42.6,0,0,1,4.92,11.29c.42,1.51.71,2.76.89,3.62a7.19,7.19,0,0,1,.21,1.35,6.44,6.44,0,0,1-.41-1.3c-.24-.85-.58-2.07-1.05-3.57a46.61,46.61,0,0,0-5-11.11,29.08,29.08,0,0,0-8.43-8.66A41.31,41.31,0,0,0,473.29,113.78Z" style="fill:#263238"></path><path d="M473.41,113.78a31.58,31.58,0,0,0-4.37,2.41,30.59,30.59,0,0,0-8.11,8.78,42.78,42.78,0,0,0-4.85,11c-.44,1.48-.77,2.7-1,3.53a6.66,6.66,0,0,1-.4,1.29,7.4,7.4,0,0,1,.2-1.33c.17-.86.44-2.09.85-3.59a39.24,39.24,0,0,1,4.76-11.18,29.08,29.08,0,0,1,8.34-8.81,17.62,17.62,0,0,1,3.28-1.7A5.48,5.48,0,0,1,473.41,113.78Z" style="fill:#263238"></path><rect x="472.32" y="81.46" width="2.86" height="32.44" transform="translate(947.5 195.36) rotate(180)" style="fill:#455a64"></rect><path d="M468.1,96.55a5.65,5.65,0,1,0,5.65-5.65A5.65,5.65,0,0,0,468.1,96.55Z" style="fill:#455a64"></path><rect x="442.05" y="139.83" width="63.4" height="4.19" rx="1.98" transform="translate(947.49 283.86) rotate(180)" style="fill:#e0e0e0"></rect><polygon points="472.66 146.29 492.72 160.94 453.3 160.94 472.66 146.29" style="fill:#e0e0e0"></polygon><path d="M472.66,146.3l-.36.3-1,.83-3.93,3.06-13.89,10.64-.14-.42,20,0,19.43,0-.14.42L478.2,150.49l-4.08-3.06-1.09-.82-.37-.31s.13.06.37.23l1.09.76,4.13,2.93,14.61,10.53.58.43h-.72l-19.43,0-20,0h-.7l.56-.41,14.12-10.55,4-2.93,1.05-.75C472.54,146.36,472.66,146.28,472.66,146.3Z" style="fill:#263238"></path><path d="M464.41,171.32h15.52a0,0,0,0,1,0,0V198a7.34,7.34,0,0,1-7.34,7.34h-.84a7.34,7.34,0,0,1-7.34-7.34v-26.7A0,0,0,0,1,464.41,171.32Z" transform="translate(944.35 376.68) rotate(180)" style="fill:#455a64"></path><rect x="433.48" y="211.89" width="79.62" height="21.82" transform="translate(946.59 445.61) rotate(180)" style="fill:#e0e0e0"></rect><rect x="440.28" y="205.36" width="65.82" height="6.53" transform="translate(946.38 417.25) rotate(180)" style="fill:#e0e0e0"></rect><rect x="485.64" y="161.51" width="8.03" height="72.2" transform="translate(979.3 395.23) rotate(180)" style="fill:#ebebeb"></rect><rect x="452.16" y="161.51" width="8.03" height="72.2" transform="translate(912.36 395.23) rotate(180)" style="fill:#ebebeb"></rect><path d="M467,222.8a6.85,6.85,0,1,0,6.84-6.84A6.84,6.84,0,0,0,467,222.8Z" style="fill:#455a64"></path><rect x="380.44" y="233.72" width="135.13" height="3.94" transform="translate(896 471.37) rotate(180)" style="fill:#263238"></rect><polygon points="514.8 244.56 512.17 249.84 435.12 249.84 432.63 244.56 514.8 244.56" style="fill:#ebebeb"></polygon><path d="M514.8,244.56l-.45,0H513.1l-4.79,0-17.58.08-58.09.12.23-.37,1.41,3c.37.78.73,1.56,1.08,2.29l-.24-.15c35.31,0,65.21.07,77,.17l-.08.05,2-3.89.52-1,.19-.35-.15.33-.47,1c-.44.93-1.08,2.26-1.92,4l0,.06h-.06c-11.84.09-41.74.16-77,.16H435l-.07-.15-1.07-2.28-1.41-3-.17-.37h.41l58.34.13,17.49.07,4.71,0,1.22,0Z" style="fill:#263238"></path><rect x="435.65" y="259.7" width="76.19" height="5.65" transform="translate(947.5 525.05) rotate(180)" style="fill:#ebebeb"></rect><rect x="490.1" y="265.35" width="6.77" height="120.12" transform="translate(986.97 650.82) rotate(180)" style="fill:#f5f5f5"></rect><rect x="450.94" y="265.35" width="7.73" height="120.12" transform="translate(909.61 650.82) rotate(180)" style="fill:#f5f5f5"></rect><polygon points="473.75 302.62 498.37 317.45 449.46 317.45 473.75 302.62" style="fill:#e0e0e0"></polygon><path d="M473.75,302.62a3.5,3.5,0,0,1-.45.31l-1.31.83-4.93,3.09-17.48,10.8-.12-.43,24.6,0,24.31,0-.12.43-17.71-10.8-5-3.09-1.33-.83a3.5,3.5,0,0,1-.45-.31,2.63,2.63,0,0,1,.45.23l1.33.77,5.05,3,17.91,10.68.72.42h-.84l-24.31,0-24.6,0h-.82l.7-.42L467,306.58l5-3,1.31-.77A2.63,2.63,0,0,1,473.75,302.62Z" style="fill:#263238"></path><rect x="446.5" y="317.45" width="56.08" height="10.21" style="fill:#e0e0e0"></rect><path d="M446.5,327.67a.92.92,0,0,1,0-.16l0-.5,0-2c0-1.78,0-4.34-.08-7.6v-.13h.14c11.56-.08,32.37-.13,56.08-.13h0l.27.27h0v5.17c0,1.71,0,3.39,0,5v.25h-.25l-40.07-.11-11.79-.07-3.16,0-.81,0h-.26l.3,0,.84,0,3.21,0,11.86-.08,39.88-.11-.26.26v-10.2h0l.25.25h0c-23.71,0-44.52,0-56.08-.12l.14-.14c0,3.23-.06,5.76-.08,7.52l0,2,0,.52A.63.63,0,0,1,446.5,327.67Z" style="fill:#263238"></path><rect x="465.32" y="327.67" width="18.45" height="57.8" transform="translate(949.09 713.14) rotate(180)" style="fill:#455a64"></rect><rect x="493.34" y="153.54" width="9.33" height="51.82" style="fill:#e0e0e0"></rect><path d="M493.34,205.36a1,1,0,0,1,0-.24c0-.2,0-.44,0-.75q0-1.05,0-2.91c0-2.6,0-6.3-.08-10.9,0-9.34-.06-22.31-.11-37v-.26h9.58c.53.52.15.15.26.27v8.08q0,4,0,7.77c0,5,0,9.85,0,14.29,0,8.86-.07,16.32-.09,21.67v.14h-.14l-6.94-.08-1.79,0a4.08,4.08,0,0,1-.59,0h.17l.47,0,1.82,0,6.86-.08-.13.14c0-5.35-.06-12.81-.09-21.67,0-4.44,0-9.24,0-14.29v-7.77c0-1.32,0-2.66,0-4v-4.07c.12.12-.25-.27.26.25h-9.32l.25-.26c0,14.63-.08,27.54-.11,36.83,0,4.63-.06,8.36-.07,11,0,1.27,0,2.26,0,3l0,.77C493.35,205.26,493.34,205.35,493.34,205.36Z" style="fill:#263238"></path><path d="M493.67,148.78a4.76,4.76,0,1,0,4.76-4.76A4.76,4.76,0,0,0,493.67,148.78Z" style="fill:#e0e0e0"></path><path d="M493.67,148.78s0-.1,0-.3a3.5,3.5,0,0,1,.09-.88,4.79,4.79,0,0,1,1.72-2.75,4.91,4.91,0,0,1,4.69-.76,5,5,0,0,1,0,9.39,4.93,4.93,0,0,1-4.69-.77,4.77,4.77,0,0,1-1.72-2.74,3.58,3.58,0,0,1-.09-.88c0-.2,0-.31,0-.31s0,.43.25,1.14a4.72,4.72,0,0,0,1.74,2.5,4.54,4.54,0,1,0,0-7.27,4.72,4.72,0,0,0-1.74,2.5C493.71,148.36,493.72,148.78,493.67,148.78Z" style="fill:#263238"></path><rect x="442.84" y="153.54" width="9.33" height="51.82" style="fill:#e0e0e0"></rect><path d="M442.84,205.36a1,1,0,0,1,0-.24l0-.75q0-1.05,0-2.91c0-2.6,0-6.3-.08-10.9,0-9.34-.07-22.31-.11-37v-.26h9.58c.53.52.15.15.26.27v8.08q0,4,0,7.77c0,5,0,9.85,0,14.29,0,8.86-.07,16.32-.09,21.67v.14h-.14l-6.94-.08-1.79,0a4.08,4.08,0,0,1-.59,0H443l.47,0,1.82,0,6.86-.08-.13.14c0-5.35-.06-12.81-.09-21.67,0-4.44,0-9.24,0-14.29v-7.77c0-1.32,0-2.66,0-4v-4.07c.12.12-.25-.27.26.25h-9.32l.25-.26c0,14.63-.08,27.54-.11,36.83,0,4.63-.06,8.36-.07,11,0,1.27,0,2.26,0,3,0,.32,0,.57,0,.77S442.84,205.35,442.84,205.36Z" style="fill:#263238"></path><path d="M443.17,148.78a4.76,4.76,0,1,0,4.76-4.76A4.76,4.76,0,0,0,443.17,148.78Z" style="fill:#e0e0e0"></path><path d="M443.17,148.78s0-.1,0-.3a3.5,3.5,0,0,1,.09-.88,4.79,4.79,0,0,1,1.72-2.75,4.91,4.91,0,0,1,4.69-.76,5,5,0,0,1,0,9.39,4.93,4.93,0,0,1-4.69-.77,4.71,4.71,0,0,1-1.72-2.74,3.58,3.58,0,0,1-.09-.88c0-.2,0-.31,0-.31s0,.43.25,1.14a4.72,4.72,0,0,0,1.74,2.5,4.61,4.61,0,0,0,4.31.61,4.54,4.54,0,1,0-4.31-7.88,4.72,4.72,0,0,0-1.74,2.5C443.21,148.36,443.22,148.78,443.17,148.78Z" style="fill:#263238"></path><path d="M444.36,144c0-.14,13.29-.26,29.68-.26s29.68.12,29.68.26-13.29.26-29.68.26S444.36,144.17,444.36,144Z" style="fill:#263238"></path><rect x="437.39" y="160.94" width="71.24" height="5.04" rx="2.38" style="fill:#e0e0e0"></rect><path d="M439.77,166a1.1,1.1,0,0,1-.38,0,2.23,2.23,0,0,1-1.06-.41,2.41,2.41,0,0,1-1-1.55,4,4,0,0,1,0-1.19,2.53,2.53,0,0,1,.63-1.21,2.5,2.5,0,0,1,1.34-.74,15.11,15.11,0,0,1,1.66-.05l3.72,0,9.06,0,52.48-.08a2.65,2.65,0,0,1,2.65,2.72,2.71,2.71,0,0,1-.64,1.92,2.61,2.61,0,0,1-1.81.91h-7.39l-13.94,0-23.6-.05-15.9-.09-4.33-.05-1.12,0a1.93,1.93,0,0,1-.39,0l.39,0,1.12,0,4.33-.05,15.9-.08,23.6-.06h13.94l7.35,0a2.27,2.27,0,0,0-.16-4.51l-52.48-.07-9.06,0-3.72,0a12.21,12.21,0,0,0-1.62,0,2.23,2.23,0,0,0-1.23.65,2.29,2.29,0,0,0-.6,1.11,3.93,3.93,0,0,0,0,1.13,2.3,2.3,0,0,0,.9,1.49A2.67,2.67,0,0,0,439.77,166Z" style="fill:#263238"></path><path d="M493.34,199.31c.14,0,.26,7.56.26,16.87s-.12,16.87-.26,16.87-.26-7.55-.26-16.87S493.19,199.31,493.34,199.31Z" style="fill:#263238"></path><path d="M452.16,199.09c.15,0,.26,7.55.26,16.87s-.11,16.87-.26,16.87-.26-7.55-.26-16.87S452,199.09,452.16,199.09Z" style="fill:#263238"></path><path d="M460.2,166c.14,0,.26,15,.26,33.58s-.12,33.58-.26,33.58-.26-15-.26-33.58S460.05,166,460.2,166Z" style="fill:#263238"></path><path d="M485.64,166c.14,0,.26,15,.26,33.58s-.12,33.58-.26,33.58-.26-15-.26-33.58S485.49,166,485.64,166Z" style="fill:#263238"></path><path d="M506.1,232.83c-.14,0-.26-6.08-.26-13.57s.12-13.58.26-13.58.26,6.08.26,13.58S506.25,232.83,506.1,232.83Z" style="fill:#263238"></path><path d="M440.28,232.83c-.14,0-.26-6.08-.26-13.57s.12-13.58.26-13.58.26,6.08.26,13.58S440.43,232.83,440.28,232.83Z" style="fill:#263238"></path><rect x="502.59" y="265.35" width="9.26" height="120.12" transform="translate(1014.43 650.82) rotate(180)" style="fill:#ebebeb"></rect><rect x="499.42" y="356.53" width="16.81" height="6.35" rx="3" transform="translate(1015.64 719.4) rotate(180)" style="fill:#ebebeb"></rect><rect x="502.59" y="265.35" width="9.26" height="10.45" transform="translate(1014.43 541.16) rotate(180)" style="fill:#f5f5f5"></rect><rect x="502.59" y="349.51" width="9.26" height="3.94" transform="translate(1014.43 702.96) rotate(180)" style="fill:#f5f5f5"></rect><path d="M502.44,363.05a47.25,47.25,0,0,1,9.9,0,47.25,47.25,0,0,1-9.9,0Z" style="fill:#263238"></path><path d="M502.85,356.47a44.35,44.35,0,0,1,9.59,0,44.35,44.35,0,0,1-9.59,0Z" style="fill:#263238"></path><path d="M511.91,356.68c-.14,0-.26-23.81-.26-53.17s.12-53.17.26-53.17.26,23.8.26,53.17S512.06,356.68,511.91,356.68Z" style="fill:#263238"></path><path d="M502.85,385.47a2,2,0,0,1,0-.4c0-.29,0-.67,0-1.16,0-1.05,0-2.55-.06-4.45,0-3.9-.05-9.46-.08-16.28l.2.19a3.65,3.65,0,0,1-2.41-.82,3.49,3.49,0,0,1-1.27-2.36,3.55,3.55,0,0,1,.8-2.69,3.72,3.72,0,0,1,1.16-.91,5.72,5.72,0,0,1,1.41-.39l-.18.22c0-8.57,0-18.53,0-29.11,0-17.1.05-32.58.07-43.82,0-5.58.06-10.11.08-13.28,0-1.54,0-2.75,0-3.61,0-.39,0-.7,0-.94a1.34,1.34,0,0,1,0-.32s0,.11,0,.32,0,.55,0,.94c0,.86,0,2.07.05,3.61,0,3.17,0,7.7.08,13.28,0,11.24.05,26.72.08,43.82,0,10.59,0,20.55,0,29.12v.19l-.18,0a5.24,5.24,0,0,0-1.31.35,3.25,3.25,0,0,0-1,.79,3.08,3.08,0,0,0-.71,2.35,3.19,3.19,0,0,0,3.24,2.84h.21v.21c0,6.82-.06,12.38-.08,16.28,0,1.9,0,3.4-.06,4.45,0,.49,0,.87,0,1.16A2,2,0,0,1,502.85,385.47Z" style="fill:#263238"></path><rect x="437.19" y="264.9" width="9.26" height="120.12" style="fill:#ebebeb"></rect><rect x="432.81" y="356.08" width="16.81" height="6.35" rx="3" style="fill:#ebebeb"></rect><rect x="437.19" y="264.9" width="9.26" height="10.45" style="fill:#f5f5f5"></rect><rect x="437.19" y="349.06" width="9.26" height="3.94" style="fill:#f5f5f5"></rect><path d="M446.59,362.6a5.17,5.17,0,0,1-1.22.1l-3.31.09-4.91,0a5.48,5.48,0,0,1-2.94-.59,3.22,3.22,0,0,1-1.65-2.77,3.3,3.3,0,0,1,1.26-3,4.79,4.79,0,0,1,2.93-.73l4.91.06,3.31.08a5.27,5.27,0,0,1,1.22.1,5.27,5.27,0,0,1-1.22.1l-3.32.08-4.92.06a4.27,4.27,0,0,0-2.61.67,2.77,2.77,0,0,0-1,2.52,2.69,2.69,0,0,0,1.38,2.35,5,5,0,0,0,2.68.56l4.92.06,3.31.08A6,6,0,0,1,446.59,362.6Z" style="fill:#263238"></path><path d="M437.12,356c-.15,0-.26-23.76-.26-53.07s.11-53.06.26-53.06.26,23.75.26,53.06S437.26,356,437.12,356Z" style="fill:#263238"></path><path d="M466.57,269.24H482.1a0,0,0,0,1,0,0v22.15a7.34,7.34,0,0,1-7.34,7.34h-.84a7.34,7.34,0,0,1-7.34-7.34V269.24A0,0,0,0,1,466.57,269.24Z" transform="translate(948.67 567.97) rotate(180)" style="fill:#455a64"></path><path d="M474.33,298.56c-.14,0-.26-6.52-.26-14.58s.12-14.58.26-14.58.26,6.53.26,14.58S474.48,298.56,474.33,298.56Z" style="fill:#fff"></path><path d="M466.61,279.41a119.54,119.54,0,0,1,15.76,0,119.54,119.54,0,0,1-15.76,0Z" style="fill:#fff"></path><path d="M466.85,288.08a107.73,107.73,0,0,1,15,0,107.73,107.73,0,0,1-15,0Z" style="fill:#fff"></path><path d="M446.18,385a1.65,1.65,0,0,1,0-.39c0-.29,0-.68,0-1.16,0-1.06,0-2.55-.06-4.46,0-3.89-.05-9.46-.08-16.28v-.21h.21a3.17,3.17,0,0,0,3.24-2.83,3.07,3.07,0,0,0-.71-2.35,3,3,0,0,0-1-.79,4.85,4.85,0,0,0-1.31-.35l-.18,0V356c0-8.58,0-18.54,0-29.13,0-17.1.06-32.57.08-43.82,0-5.58.06-10.11.08-13.28,0-1.54,0-2.75.05-3.61,0-.39,0-.7,0-.94s0-.31,0-.31a1.2,1.2,0,0,1,0,.31l0,.94c0,.86,0,2.07.05,3.61,0,3.17,0,7.7.08,13.28,0,11.25.05,26.72.08,43.82,0,10.58,0,20.54,0,29.11l-.19-.22a5.24,5.24,0,0,1,1.41.4,3.45,3.45,0,0,1,1.16.91,3.59,3.59,0,0,1-.47,5,3.61,3.61,0,0,1-2.41.83l.2-.2c0,6.82-.06,12.39-.08,16.28,0,1.91,0,3.4-.06,4.46,0,.48,0,.87,0,1.16A1.93,1.93,0,0,1,446.18,385Z" style="fill:#263238"></path><path d="M435.65,265.35c0-.14,17.14-.26,38.27-.26s38.28.12,38.28.26-17.14.26-38.28.26S435.65,265.49,435.65,265.35Z" style="fill:#263238"></path><rect x="217.22" y="150.28" width="145.38" height="82.06" style="fill:#e0e0e0"></rect><rect x="272.94" y="201.63" width="35.35" height="31.88" style="fill:#f5f5f5"></rect><path d="M362.61,150.28l-.45-2.55a73.4,73.4,0,0,0-144.4-.46l-.54,3Z" style="fill:#455a64"></path><rect x="216.58" y="150.28" width="146.02" height="7.9" style="fill:#455a64"></rect><path d="M362.83,150.28c0,.14-32.65.26-72.92.26s-72.92-.12-72.92-.26,32.64-.26,72.92-.26S362.83,150.13,362.83,150.28Z" style="fill:#263238"></path><rect x="235.12" y="237.43" width="109.32" height="26.68" style="fill:#e0e0e0"></rect><rect x="239.27" y="233.51" width="123.34" height="6.05" style="fill:#ebebeb"></rect><rect x="277.81" y="72.3" width="23.01" height="20.61" style="fill:#455a64"></rect><rect x="235.12" y="213.61" width="37.82" height="19.9" style="fill:#e0e0e0"></rect><path d="M272.94,233.51a3.18,3.18,0,0,1,0-.38c0-.26,0-.61,0-1,0-1,0-2.29,0-4,0-3.46-.06-8.41-.11-14.48l.2.19-37.82.07c-.24.23.31-.32.26-.26h0v5.19c0,1.72,0,3.41,0,5.08,0,3.32,0,6.54,0,9.62l-.24-.25,27.12.12,7.85.07,2.1,0h.55l.2,0a5.77,5.77,0,0,1-.69,0l-2.06,0-7.79.06-27.28.12h-.25v-.24c0-3.08,0-6.3,0-9.62V213.62h0c-.06,0,.49-.5.26-.26l37.82.06h.2v.2c-.05,6.12-.08,11.11-.11,14.6,0,1.69,0,3,0,3.95,0,.42,0,.75,0,1A2.14,2.14,0,0,1,272.94,233.51Z" style="fill:#263238"></path><rect x="241.4" y="218.31" width="24.44" height="10.52" style="fill:#FFC100"></rect><path d="M258.54,144.45c-.49-.32-1.19-.21-1.62-.6-.61-.55-.22-1.52,0-2.32a4.14,4.14,0,0,0-1.64-4.29c-1.08-.07-1.73-1.25-1.89-2.32a9.78,9.78,0,0,0-.58-3.16,2.85,2.85,0,0,0-4.23-.75c-1.49,1.33-1.1,3.71-.6,5.64l1.5,5.75a7.19,7.19,0,0,1,.33,2.1,7.66,7.66,0,0,1-.44,1.95q-.79,2.45-1.58,4.87l9.62,2.55a24.09,24.09,0,0,0,1.77-7.43C259.2,145.71,259.15,144.84,258.54,144.45Z" style="fill:#263238"></path><rect x="243.19" y="150.5" width="20.81" height="63.1" style="fill:#e0e0e0"></rect><path d="M264,213.61s0-.12,0-.33,0-.54,0-.93c0-.83,0-2,0-3.55,0-3.11,0-7.6-.07-13.21,0-11.23-.07-27-.12-45.09l.25.25h-20.8c.51-.52.14-.13.26-.24v18.39c0,5.92,0,11.6,0,17,0,10.72,0,20.17-.06,27.74l-.17-.18,15.25.1,4.11,0,1.07,0a1.53,1.53,0,0,1,.37,0h-.34l-1,0-4.07,0-15.35.1H243v-.17c0-7.57,0-17-.06-27.74,0-5.36,0-11,0-17V150.52c.12-.12-.26.24.27-.28h21.06v.25c0,18.19-.08,34-.11,45.27,0,5.58-.06,10-.07,13.14,0,1.51,0,2.68,0,3.51,0,.37,0,.67,0,.89A1.71,1.71,0,0,1,264,213.61Z" style="fill:#263238"></path><path d="M264,184c0,.14-4.75.26-10.62.26s-10.63-.12-10.63-.26,4.76-.26,10.63-.26A106.23,106.23,0,0,1,264,184Z" style="fill:#263238"></path><path d="M264,171.48c0,.14-4.64.26-10.36.26s-10.35-.12-10.35-.26,4.63-.26,10.35-.26S264,171.34,264,171.48Z" style="fill:#263238"></path><path d="M247.89,213.31c-.14,0-.26-6.47-.26-14.45s.12-14.45.26-14.45.26,6.47.26,14.45S248,213.31,247.89,213.31Z" style="fill:#263238"></path><path d="M259.34,213.62c-.15,0-.27-6.58-.27-14.68s.12-14.68.27-14.68.26,6.57.26,14.68S259.48,213.62,259.34,213.62Z" style="fill:#263238"></path><rect x="243.38" y="159.93" width="20.48" height="7.96" style="fill:#f5f5f5"></rect><rect x="308.29" y="214.29" width="37.82" height="19.9" style="fill:#e0e0e0"></rect><path d="M308.29,234.19s0-.1,0-.33,0-.59,0-1c0-.94,0-2.26-.05-3.94,0-3.5-.06-8.48-.1-14.61v-.19h.2l37.82-.07.26.26h0v10.26c0,3.33,0,6.55,0,9.62v.25h-.25l-27.28-.12-7.79-.07-2.06,0a5.77,5.77,0,0,1-.69,0h.2l.55,0,2.11,0,7.84-.06,27.12-.12-.24.24c0-3.07,0-6.29,0-9.62,0-1.66,0-3.36,0-5.07v-5.19h0c-.05-.06.5.49.26.26l-37.82-.06.2-.2c-.05,6.08-.08,11-.11,14.49,0,1.7,0,3-.05,4,0,.43,0,.78,0,1A1.61,1.61,0,0,1,308.29,234.19Z" style="fill:#263238"></path><rect x="315.39" y="219" width="24.44" height="10.52" transform="translate(655.22 448.51) rotate(180)" style="fill:#FFC100"></rect><path d="M322.69,145.13c.49-.31,1.19-.2,1.62-.6.61-.54.22-1.52,0-2.31a4.16,4.16,0,0,1,1.64-4.3c1.08-.06,1.73-1.24,1.89-2.31a9.84,9.84,0,0,1,.58-3.17,2.87,2.87,0,0,1,4.23-.75c1.49,1.33,1.11,3.71.6,5.65l-1.5,5.74a7.26,7.26,0,0,0-.33,2.11,7.76,7.76,0,0,0,.44,1.95l1.59,4.86-9.63,2.56a24.15,24.15,0,0,1-1.77-7.44A2.13,2.13,0,0,1,322.69,145.13Z" style="fill:#263238"></path><rect x="317.24" y="151.19" width="20.81" height="63.1" style="fill:#e0e0e0"></rect><path d="M317.24,214.29a1.38,1.38,0,0,1,0-.29c0-.23,0-.52,0-.9,0-.82,0-2,0-3.5,0-3.1,0-7.56-.07-13.15,0-11.28-.07-27.08-.11-45.26v-.25H338l.27.27v4.7c0,1.56,0,3.11,0,4.64v9.06c0,5.92,0,11.6,0,17,0,10.72,0,20.16-.06,27.73v.17h-.17l-15.36-.09-4.07,0-1,0a2,2,0,0,1-.34,0l.37,0h1.07l4.11,0,15.26-.09-.17.17c0-7.57,0-17-.07-27.73,0-5.36,0-11,0-17V151.2l.25.25h-20.8l.25-.25c-.05,18.12-.09,33.85-.12,45.09,0,5.61-.05,10.09-.07,13.2,0,1.53,0,2.72,0,3.56,0,.39,0,.69,0,.93S317.24,214.29,317.24,214.29Z" style="fill:#263238"></path><path d="M317.24,184.68c0-.14,4.76-.26,10.62-.26s10.63.12,10.63.26-4.76.26-10.63.26S317.24,184.83,317.24,184.68Z" style="fill:#263238"></path><path d="M317.21,172.16c0-.14,4.64-.26,10.36-.26s10.35.12,10.35.26a99.07,99.07,0,0,1-10.35.27A99.35,99.35,0,0,1,317.21,172.16Z" style="fill:#263238"></path><path d="M333.34,214c-.15,0-.26-6.47-.26-14.45s.11-14.46.26-14.46.26,6.47.26,14.46S333.48,214,333.34,214Z" style="fill:#263238"></path><path d="M321.9,214.3c-.15,0-.26-6.57-.26-14.68s.11-14.68.26-14.68.26,6.57.26,14.68S322,214.3,321.9,214.3Z" style="fill:#263238"></path><rect x="317.37" y="160.62" width="20.48" height="7.96" transform="translate(655.22 329.19) rotate(180)" style="fill:#f5f5f5"></rect><rect x="276.35" y="201.63" width="28.3" height="31.88" style="fill:#ebebeb"></rect><path d="M290.1,206h1A9.07,9.07,0,0,1,300.2,215v18.47a0,0,0,0,1,0,0H281a0,0,0,0,1,0,0V215A9.07,9.07,0,0,1,290.1,206Z" style="fill:#455a64"></path><rect x="241.05" y="248.83" width="99.2" height="3.66" style="fill:#ebebeb"></rect><path d="M319.37,344.5H256.82v-33a29.59,29.59,0,0,1,29.59-29.6h3.37a29.59,29.59,0,0,1,29.59,29.6Z" style="fill:#ebebeb"></path><path d="M319.37,344.5s0-.21,0-.6,0-1,0-1.72c0-1.52,0-3.74-.05-6.57,0-5.7,0-13.9-.1-24a29.56,29.56,0,0,0-4.55-15.65,29,29,0,0,0-14.39-11.79,28.33,28.33,0,0,0-10-1.92,40.66,40.66,0,0,0-10.63.81,29.32,29.32,0,0,0-17.86,12.67A29.7,29.7,0,0,0,257.31,308a55.29,55.29,0,0,0-.24,6.43v6.34c0,8.35,0,16.32,0,23.74l-.23-.24,45.14.12,12.81.06,3.41,0h.88l.31,0h-1.14l-3.36,0-12.76.06-45.29.12h-.24v-.23c0-7.42,0-15.39,0-23.74v-6.34a52.51,52.51,0,0,1,.24-6.49,29.82,29.82,0,0,1,22.68-25.4,41.44,41.44,0,0,1,10.76-.81,28.75,28.75,0,0,1,10.17,2,31,31,0,0,1,8.5,5,30.26,30.26,0,0,1,6.08,7,29.84,29.84,0,0,1,4.56,15.88c0,10.18-.07,18.42-.1,24.14,0,2.82,0,5,0,6.53,0,.73,0,1.28,0,1.68S319.37,344.5,319.37,344.5Z" style="fill:#263238"></path><rect x="243.32" y="316.79" width="11.56" height="68.68" style="fill:#e0e0e0"></rect><path d="M252.08,293.58a14.94,14.94,0,0,1-1.25-.82c-.66-.64-.68-1.72-1.29-2.41a2.23,2.23,0,0,0-2.14-.57,4.06,4.06,0,0,0-1.93,1.23,7.35,7.35,0,0,0-.65,9c-.42,1.19.51,2.39,1.28,3.4s.49,4.63.63,4.87l2.71.19a9.9,9.9,0,0,1-.08-3,6.08,6.08,0,0,1,1.17-1.86,15.22,15.22,0,0,0,2.17-5.83C253,296.31,253.24,294.51,252.08,293.58Z" style="fill:#fafafa"></path><rect x="254.88" y="319.3" width="68.78" height="66.17" style="fill:#e0e0e0"></rect><rect x="256.82" y="335.27" width="9.8" height="9.8" style="fill:#455a64"></rect><rect x="257.1" y="353.06" width="9.24" height="32.41" style="fill:#455a64"></rect><rect x="309.91" y="335.27" width="9.8" height="9.8" style="fill:#455a64"></rect><rect x="310.19" y="353.06" width="9.24" height="32.41" style="fill:#455a64"></rect><rect x="269.79" y="329.16" width="6.11" height="56.31" style="fill:#fafafa"></rect><rect x="300.96" y="329.16" width="6.11" height="56.31" style="fill:#fafafa"></rect><path d="M287.64,356.41h.9a7.89,7.89,0,0,1,7.89,7.89v21.16a0,0,0,0,1,0,0H279.75a0,0,0,0,1,0,0V364.31A7.89,7.89,0,0,1,287.64,356.41Z" style="fill:#455a64"></path><rect x="288.62" y="164.26" width="2.28" height="24.81" style="fill:#455a64"></rect><rect x="284.33" y="169.97" width="10.8" height="2.15" style="fill:#455a64"></rect><path d="M289.92,186.76c-.65.52-20.94,14.87-20.94,14.87h41.49Z" style="fill:#e0e0e0"></path><path d="M289.92,186.76l.38.24,1.11.77,4.22,3,15,10.7.59.42h-.73l-20.89,0-20.6,0h-.74l.61-.42,15.24-10.69,4.3-3,1.13-.77a2.14,2.14,0,0,1,.4-.24,3.46,3.46,0,0,1-.39.32l-1.13.84-4.26,3.1-15,10.8-.13-.42,20.6,0,20.89,0-.13.42L295.59,191l-4.18-3.1-1.11-.83A2.77,2.77,0,0,1,289.92,186.76Z" style="fill:#263238"></path><path d="M363.09,167.67c0,.14-32.7.26-73,.26s-73-.12-73-.26,32.7-.26,73-.26S363.09,167.52,363.09,167.67Z" style="fill:#263238"></path><path d="M363.09,158.17c0,.15-32.7.26-73,.26s-73-.11-73-.26,32.7-.26,73-.26S363.09,158,363.09,158.17Z" style="fill:#263238"></path><path d="M235.8,156.69a1.24,1.24,0,0,1,0-.42c0-.32,0-.72,0-1.23,0-1.14,0-2.73-.06-4.76h0a104,104,0,0,1,3.54-16.12,95.31,95.31,0,0,1,9.32-21.52,61.37,61.37,0,0,1,11.36-14,45.81,45.81,0,0,1,12.39-8,45.19,45.19,0,0,1,5.35-1.91c1.62-.4,3-.73,4.18-.94l2.68-.35.7-.08a.62.62,0,0,1,.24,0l-.23.06-.69.13-2.66.45c-1.15.24-2.54.6-4.14,1a49.1,49.1,0,0,0-5.28,2,46.26,46.26,0,0,0-12.22,8A62.09,62.09,0,0,0,249,112.88a97.44,97.44,0,0,0-9.34,21.39,111,111,0,0,0-3.71,16h0c0,2-.05,3.62-.07,4.76,0,.51,0,.91,0,1.23A2.24,2.24,0,0,1,235.8,156.69Z" style="fill:#263238"></path><g style="opacity:0.1"><circle cx="289.32" cy="106.03" r="3.99" style="fill:#fff"></circle></g><g style="opacity:0.1"><path d="M296,128.89a6.66,6.66,0,1,1-6.66-6.66A6.66,6.66,0,0,1,296,128.89Z" style="fill:#fff"></path></g><g style="opacity:0.1"><circle cx="245.37" cy="108.55" r="3.65" style="fill:#fff"></circle></g><g style="opacity:0.1"><path d="M238.91,129.46a6.09,6.09,0,1,1-6.09-6.09A6.09,6.09,0,0,1,238.91,129.46Z" style="fill:#fff"></path></g><g style="opacity:0.1"><circle cx="336.04" cy="108.55" r="3.65" style="fill:#fff"></circle></g><g style="opacity:0.1"><path d="M353,129.46a6.09,6.09,0,1,1-6.09-6.09A6.09,6.09,0,0,1,353,129.46Z" style="fill:#fff"></path></g><path d="M264,153.34a3.54,3.54,0,0,1-.09-.73c-.05-.52-.1-1.22-.17-2.08,0-.46-.08-1-.12-1.51s0-1.15,0-1.79c0-1.29-.08-2.76,0-4.38,0-.81.06-1.66.1-2.55s.15-1.8.23-2.75c.13-1.91.46-3.93.76-6.05a88.09,88.09,0,0,1,8.78-26.42c1-1.89,2-3.7,3-5.31.51-.81,1-1.61,1.46-2.34s1-1.43,1.45-2.1c.89-1.36,1.83-2.49,2.61-3.52.39-.51.75-1,1.1-1.41l1-1.14,1.39-1.57a5,5,0,0,1,.5-.52,3.47,3.47,0,0,1-.42.59c-.34.41-.77.95-1.31,1.62l-.95,1.17c-.34.43-.69.92-1.07,1.44-.76,1-1.67,2.18-2.54,3.55l-1.41,2.11c-.49.73-.94,1.54-1.43,2.35-1,1.6-1.94,3.41-2.95,5.3a99.37,99.37,0,0,0-5.38,12.8,100.4,100.4,0,0,0-3.36,13.48c-.31,2.11-.65,4.11-.8,6-.09.95-.21,1.86-.26,2.74s-.09,1.72-.13,2.53c-.12,1.62-.08,3.08-.1,4.36,0,.65,0,1.25,0,1.8s.05,1,.07,1.5c0,.86.05,1.56.07,2.08A3.9,3.9,0,0,1,264,153.34Z" style="fill:#263238"></path><path d="M344.18,150.28a6.53,6.53,0,0,1-.17-.86c-.12-.61-.27-1.44-.46-2.47-.42-2.14-1.08-5.23-2.12-9a111.26,111.26,0,0,0-4.4-13c-.95-2.39-2.11-4.84-3.36-7.34a80.14,80.14,0,0,0-4.38-7.47,57.66,57.66,0,0,0-11-12.52,43.88,43.88,0,0,0-11.59-7.1c-.45-.19-.88-.4-1.31-.55l-1.28-.43c-.84-.27-1.61-.58-2.36-.77-1.5-.35-2.78-.73-3.86-.91l-2.47-.42a4.79,4.79,0,0,1-.86-.18,5.15,5.15,0,0,1,.87.08l2.5.32c1.08.15,2.38.51,3.9.83.76.18,1.54.48,2.38.73l1.3.42c.44.15.87.36,1.33.54a43.51,43.51,0,0,1,11.76,7.07,57.3,57.3,0,0,1,11.13,12.6,79,79,0,0,1,4.4,7.53c1.26,2.52,2.41,5,3.36,7.39a105.71,105.71,0,0,1,4.3,13c1,3.79,1.61,6.89,2,9,.18,1.08.29,1.92.36,2.49A4.45,4.45,0,0,1,344.18,150.28Z" style="fill:#263238"></path><path d="M316,153.34a5.37,5.37,0,0,1,0-.74c0-.52.05-1.22.08-2.08q0-.69.06-1.5c0-.55,0-1.15,0-1.8,0-1.28,0-2.74-.09-4.36,0-.81-.09-1.65-.13-2.53s-.17-1.79-.26-2.74c-.15-1.9-.49-3.9-.81-6a100.4,100.4,0,0,0-3.36-13.48,99.38,99.38,0,0,0-5.37-12.8c-1-1.89-1.94-3.7-2.95-5.3-.5-.81-.95-1.62-1.43-2.35l-1.41-2.11c-.87-1.37-1.79-2.51-2.54-3.55-.39-.52-.73-1-1.07-1.44s-.66-.81-.95-1.17c-.55-.67-1-1.21-1.31-1.62a5.52,5.52,0,0,1-.43-.59,4.39,4.39,0,0,1,.51.52l1.38,1.57,1,1.14c.35.42.71.9,1.11,1.41.78,1,1.72,2.16,2.61,3.52l1.44,2.1c.5.73,1,1.53,1.47,2.34,1,1.61,2,3.42,3,5.31a95.09,95.09,0,0,1,5.43,12.86,94.08,94.08,0,0,1,3.34,13.56c.31,2.12.64,4.14.77,6.05.08.95.19,1.87.23,2.75s.07,1.74.1,2.55c.1,1.62,0,3.09,0,4.38,0,.64,0,1.24,0,1.79s-.08,1-.11,1.51c-.07.86-.13,1.56-.17,2.08A3.9,3.9,0,0,1,316,153.34Z" style="fill:#263238"></path><path d="M305.49,88.7a4.92,4.92,0,0,1-1.19-.15c-.76-.14-1.86-.31-3.23-.5a86.51,86.51,0,0,0-10.71-.73,73.81,73.81,0,0,0-10.72.63c-2.72.38-4.36.84-4.39.75a6.3,6.3,0,0,1,1.14-.4,30,30,0,0,1,3.2-.71,60.4,60.4,0,0,1,10.77-.79,68.66,68.66,0,0,1,10.77.89c1.36.23,2.46.46,3.21.66A5.44,5.44,0,0,1,305.49,88.7Z" style="fill:#263238"></path><rect x="201.27" y="260.64" width="35.82" height="124.83" style="fill:#e0e0e0"></rect><path d="M237.09,385.47s0-.22,0-.63,0-1,0-1.83c0-1.62,0-4,0-7,0-6.14,0-15-.07-26.18,0-22.25-.07-53.42-.12-89.15l.25.26H201.27l.26-.26c0,50.71-.07,95.92-.09,124.83l-.17-.16,26.35.09,7,0h1.82l.62,0-.59,0h-1.79l-7,0-26.44.09h-.16v-.16c0-28.91-.06-74.12-.1-124.83v-.26h36.34v.25c0,35.8-.09,67-.12,89.33,0,11.11,0,20-.07,26.11,0,3,0,5.39,0,7,0,.78,0,1.38,0,1.8S237.09,385.47,237.09,385.47Z" style="fill:#263238"></path><rect x="211.28" y="262.01" width="16.82" height="120.12" style="fill:#ebebeb"></rect><rect x="198.45" y="240.36" width="42.6" height="21.82" style="fill:#e0e0e0"></rect><path d="M241.05,262.18s0-.14,0-.4,0-.67,0-1.15c0-1,0-2.51,0-4.38,0-3.79-.06-9.21-.1-15.89l.19.19-42.6.07.26-.26h0v11.25c0,3.65,0,7.18,0,10.55l-.25-.24,30.55.11,8.84.07,2.37,0,.62,0h.22s-.06,0-.19,0h-.59l-2.32,0-8.78.07-30.72.12h-.24v-.25c0-3.37,0-6.9,0-10.55V240.38h0l.26-.26,42.6.06h.2v.2c-.05,6.73-.08,12.19-.11,16,0,1.86,0,3.31,0,4.33,0,.47,0,.84,0,1.12A1.34,1.34,0,0,1,241.05,262.18Z" style="fill:#263238"></path><rect x="206.62" y="205.29" width="26.37" height="23.98" style="fill:#e0e0e0"></rect><path d="M233,229.27a2.93,2.93,0,0,1,0-.46c0-.33,0-.76,0-1.3,0-1.17,0-2.82-.05-4.89,0-4.22-.07-10.18-.12-17.33l.23.22-26.37,0c-.06,0,.49-.49.26-.26h0v12.61c0,4,0,7.83,0,11.35l-.22-.23,19,.12,5.39.06,1.44,0a3.2,3.2,0,0,1,.52,0,2.7,2.7,0,0,1-.47,0l-1.39,0-5.34.06-19.17.12h-.23v-.23c0-3.52,0-7.33,0-11.35V205.31h0c-.24.23.31-.32.26-.26l26.37,0h.22v.22c-.05,7.21-.09,13.22-.12,17.47,0,2.05,0,3.68-.05,4.84,0,.52,0,.94,0,1.26S233,229.28,233,229.27Z" style="fill:#263238"></path><rect x="201.27" y="229.27" width="38" height="11.09" style="fill:#e0e0e0"></rect><path d="M239.27,240.36a1.07,1.07,0,0,1,0-.21v-.57c0-.54,0-1.26,0-2.19,0-1.93-.06-4.67-.09-8.12l.16.16-38,.1c.11-.11-.27.26.25-.26h0v11.07l-.26-.25,27.09.11,8,.07,2.16,0,.77,0a6,6,0,0,1-.71,0l-2.1,0-7.93.07-27.26.11H201v-5.69c0-.92,0-1.86,0-2.8v-2.83h0c.52-.52.15-.14.27-.26l38,.1h.16v.16c0,3.49-.07,6.27-.09,8.22,0,.91,0,1.62,0,2.15A6.07,6.07,0,0,1,239.27,240.36Z" style="fill:#263238"></path><path d="M207.34,359.93H232.4s-2.43-8.56-12.53-8.56S207.34,359.93,207.34,359.93Z" style="fill:#455a64"></path><rect x="210.63" y="359.93" width="17.41" height="25.54" style="fill:#e0e0e0"></rect><path d="M228,385.47a3.62,3.62,0,0,1,0-.51q0-.54,0-1.41c0-1.28,0-3.05-.06-5.28,0-4.53-.07-10.87-.12-18.34l.24.24-17.41,0c-.06.06.49-.49.26-.25h0v3.56c0,1.17,0,2.33,0,3.48,0,2.29,0,4.52,0,6.67,0,4.3,0,8.28,0,11.82l-.21-.21,12.61.11,3.53.05.93,0a.25.25,0,1,1,.05,0l-.9,0-3.48.05-12.74.11h-.21v-.21c0-3.54,0-7.52,0-11.82,0-2.15,0-4.38,0-6.67v-7h0l.26-.27,17.41,0h.24v.24c-.05,7.53-.09,13.93-.12,18.5,0,2.2,0,4-.07,5.22,0,.56,0,1,0,1.37A2.42,2.42,0,0,1,228,385.47Z" style="fill:#263238"></path><rect x="214.09" y="365.6" width="11.41" height="13.49" style="fill:#FFC100"></rect><path d="M219.79,285h.43a3.74,3.74,0,0,1,3.74,3.74v16.05a0,0,0,0,1,0,0h-7.9a0,0,0,0,1,0,0V288.77A3.74,3.74,0,0,1,219.79,285Z" style="fill:#455a64"></path><rect x="209.75" y="313.22" width="19.16" height="7.13" style="fill:#e0e0e0"></rect><rect x="216.95" y="325.6" width="5.47" height="26.93" style="fill:#455a64"></rect><path d="M210.6,205.29s.73-16.68,9.2-17,9.76,17,9.76,17Z" style="fill:#263238"></path><path d="M211.45,240.36c-.15,0-.26-7.81-.26-17.45s.11-17.44.26-17.44.26,7.81.26,17.44S211.59,240.36,211.45,240.36Z" style="fill:#263238"></path><path d="M228.5,240.36c-.15,0-.26-7.81-.26-17.45s.11-17.44.26-17.44.26,7.81.26,17.44S228.64,240.36,228.5,240.36Z" style="fill:#263238"></path><path d="M228.15,278.54l-.69-.63-1.8-1.67c-1.53-1.43-3.66-3.38-6.12-5.75h.33l-6,5.9-2.39,2.33-.18-.44c4.73,0,8.87.09,11.92.15l3.6.07c.86,0,1.34,0,1.37,0s-.39,0-1.21,0l-3.51.06c-3,.06-7.3.15-12.17.15h-.63l.45-.44,2.39-2.33,6.07-5.87.17-.16.16.16c2.54,2.49,4.63,4.64,6.07,6.11l1.67,1.7A7.41,7.41,0,0,1,228.15,278.54Z" style="fill:#263238"></path><path d="M211.42,354.19c-.14,0-.26-20.54-.26-45.87s.12-45.87.26-45.87.26,20.54.26,45.87S211.57,354.19,211.42,354.19Z" style="fill:#263238"></path><path d="M228,353.52c-.15,0-.26-20.54-.26-45.86s.11-45.87.26-45.87.26,20.53.26,45.87S228.18,353.52,228,353.52Z" style="fill:#263238"></path><rect x="343.07" y="260.4" width="35.82" height="125.07" style="fill:#e0e0e0"></rect><path d="M378.89,385.47s0-.22,0-.63,0-1,0-1.84c0-1.62,0-4,0-7.05,0-6.15,0-15.07-.07-26.23,0-22.3-.07-53.53-.12-89.32l.25.25H343.07l.26-.26c0,50.81-.07,96.12-.09,125.07l-.17-.16,26.35.09,7,0h1.82l.62,0-.59,0h-1.79l-7,0-26.44.09h-.16v-.16c0-29-.06-74.26-.1-125.07v-.26h36.34v.26c0,35.86-.09,67.16-.12,89.5,0,11.13,0,20-.07,26.17,0,3,0,5.39,0,7,0,.78,0,1.38,0,1.8S378.89,385.47,378.89,385.47Z" style="fill:#263238"></path><rect x="353.07" y="261.77" width="16.82" height="120.35" style="fill:#ebebeb"></rect><rect x="340.25" y="240.08" width="42.6" height="21.86" style="fill:#e0e0e0"></rect><path d="M382.85,261.94s0-.14,0-.41,0-.67,0-1.15c0-1,0-2.5-.05-4.38,0-3.8-.06-9.24-.1-15.92l.19.19-42.6.07.26-.26h0v11.28c0,3.65,0,7.19,0,10.57l-.24-.25,30.55.12,8.84.07,2.37,0,.62,0h0l-.59,0-2.32,0-8.78.07-30.72.11H340v-.25c0-3.38,0-6.92,0-10.57V240.09h0c-.06,0,.49-.5.26-.27l42.6.07h.2v.2c-.05,6.73-.08,12.21-.11,16,0,1.86,0,3.31-.05,4.34,0,.46,0,.83,0,1.11A1.39,1.39,0,0,1,382.85,261.94Z" style="fill:#263238"></path><rect x="348.41" y="204.93" width="26.37" height="24.03" style="fill:#e0e0e0"></rect><path d="M374.78,229s0-.17,0-.47,0-.76,0-1.3c0-1.17,0-2.82-.05-4.9,0-4.23-.07-10.2-.12-17.37l.22.23-26.36,0,.25-.25h0v12.65c0,4,0,7.85,0,11.38l-.23-.23,19,.11,5.39.06,1.44,0,.51,0-.46,0-1.39,0-5.35.06-19.17.11h-.22V229c0-3.53,0-7.35,0-11.38v-6.2c0-1.06,0-2.13,0-3.2v-3.25h0l.27-.27,26.36,0H375v.22c-.05,7.23-.09,13.25-.12,17.51,0,2.06,0,3.69-.06,4.85,0,.52,0,.94,0,1.26A2.24,2.24,0,0,1,374.78,229Z" style="fill:#263238"></path><rect x="343.07" y="228.97" width="38" height="11.11" style="fill:#e0e0e0"></rect><path d="M381.07,240.08a1.07,1.07,0,0,1,0-.21c0-.16,0-.35,0-.58,0-.53,0-1.26,0-2.19,0-1.93-.05-4.68-.09-8.13l.17.16-38,.1c.11-.12-.27.26.25-.26h0v11.11l-.26-.26,27.09.12,8,.07,2.16,0a4.46,4.46,0,0,1,.77,0,6,6,0,0,1-.71,0l-2.1,0-7.93.07-27.26.12h-.25v-.25c0-1.78,0-3.59,0-5.45V229h0l.27-.27,38,.1h.16V229c0,3.49-.07,6.27-.09,8.23,0,.91,0,1.63,0,2.16A6.29,6.29,0,0,1,381.07,240.08Z" style="fill:#263238"></path><path d="M349.14,359.88H374.2a13.44,13.44,0,0,0-25.06,0Z" style="fill:#455a64"></path><rect x="352.43" y="359.88" width="17.41" height="25.59" style="fill:#e0e0e0"></rect><path d="M369.84,385.47a3.62,3.62,0,0,1,0-.51c0-.36,0-.83,0-1.42,0-1.27,0-3.05-.06-5.28,0-4.54-.07-10.9-.12-18.38l.24.24-17.41,0c-.06.06.49-.49.26-.25h0v3.56c0,1.18,0,2.35,0,3.49,0,2.3,0,4.54,0,6.69,0,4.31,0,8.3,0,11.84l-.21-.21,12.61.11,3.53.05.93,0a1.37,1.37,0,0,1,.34,0l-.29,0-.9,0-3.48.05-12.74.11h-.21v-.21c0-3.54,0-7.53,0-11.84,0-2.15,0-4.39,0-6.69v-7.05h0c-.24.23.31-.33.26-.27l17.41,0h.24v.24c0,7.54-.08,13.95-.11,18.53,0,2.21,0,4-.07,5.23q0,.86,0,1.38A2.1,2.1,0,0,1,369.84,385.47Z" style="fill:#263238"></path><rect x="355.89" y="365.56" width="11.41" height="13.52" style="fill:#FFC100"></rect><path d="M361.59,284.84H362a3.74,3.74,0,0,1,3.74,3.74v16.09a0,0,0,0,1,0,0h-7.9a0,0,0,0,1,0,0V288.57A3.74,3.74,0,0,1,361.59,284.84Z" style="fill:#455a64"></path><rect x="351.55" y="313.08" width="19.16" height="7.14" style="fill:#e0e0e0"></rect><rect x="358.75" y="325.49" width="5.47" height="26.99" style="fill:#455a64"></rect><path d="M352.4,204.93s.72-16.71,9.2-17,9.76,17,9.76,17Z" style="fill:#263238"></path><path d="M353.24,240.08c-.14,0-.26-7.83-.26-17.48s.12-17.48.26-17.48.27,7.82.27,17.48S353.39,240.08,353.24,240.08Z" style="fill:#263238"></path><path d="M370.32,240.08c-.15,0-.26-7.83-.26-17.48s.11-17.48.26-17.48.26,7.82.26,17.48S370.46,240.08,370.32,240.08Z" style="fill:#263238"></path><path d="M370,278.33l-.69-.63-1.8-1.68c-1.54-1.42-3.66-3.38-6.12-5.76h.33l-6,5.91-2.4,2.34-.18-.44c4.73,0,8.87.09,11.91.15l3.61.07c.86,0,1.34,0,1.37,0s-.4,0-1.21,0l-3.51.07c-3,.05-7.3.14-12.17.14h-.63l.45-.44,2.4-2.34,6.06-5.88.17-.16.16.16c2.54,2.5,4.63,4.65,6.07,6.13l1.67,1.7A7.41,7.41,0,0,1,370,278.33Z" style="fill:#263238"></path><path d="M353.22,354.12c-.14,0-.26-20.57-.26-45.95s.12-46,.26-46,.26,20.58.26,46S353.36,354.12,353.22,354.12Z" style="fill:#263238"></path><path d="M369.84,353.46c-.15,0-.26-20.58-.26-46s.11-45.95.26-45.95.26,20.57.26,45.95S370,353.46,369.84,353.46Z" style="fill:#263238"></path><rect x="244.71" y="307.65" width="7.25" height="9.13" style="fill:#fafafa"></rect><path d="M243.32,385.47a1.6,1.6,0,0,1,0-.35l0-1c0-.93,0-2.26-.05-3.95,0-3.47-.05-8.45-.08-14.61,0-12.4,0-29.56-.08-48.74v-.26h9.73v.26c0,19.35-.06,36.69-.08,49.22,0,6.23-.06,11.26-.08,14.77,0,1.72,0,3.06,0,4,0,.44,0,.78,0,1a1.6,1.6,0,0,1,0,.35,1.35,1.35,0,0,1,0-.35c0-.26,0-.6,0-1,0-.94,0-2.28,0-4,0-3.51,0-8.54-.08-14.77,0-12.53,0-29.87-.08-49.22l.26.26h-9.21l.26-.26c0,19.18-.06,36.34-.08,48.74,0,6.16-.07,11.14-.09,14.61,0,1.7,0,3,0,3.95l0,1A2.37,2.37,0,0,1,243.32,385.47Z" style="fill:#263238"></path><rect x="323.85" y="316.79" width="9.64" height="68.68" style="fill:#e0e0e0"></rect><path d="M332.61,293.58a14.94,14.94,0,0,1-1.25-.82c-.66-.64-.68-1.72-1.29-2.41a2.23,2.23,0,0,0-2.14-.57A4.06,4.06,0,0,0,326,291a7.35,7.35,0,0,0-.65,9c-.42,1.19.51,2.39,1.28,3.4s.49,4.63.63,4.87l2.7.19a10.32,10.32,0,0,1-.07-3,6.08,6.08,0,0,1,1.17-1.86,15.38,15.38,0,0,0,2.17-5.83C333.56,296.31,333.77,294.51,332.61,293.58Z" style="fill:#fafafa"></path><rect x="325.24" y="307.65" width="7.25" height="9.13" style="fill:#fafafa"></rect><path d="M323.85,385.47a1.6,1.6,0,0,1,0-.35l0-1c0-.93,0-2.26-.05-3.95,0-3.47-.05-8.45-.08-14.61,0-12.4-.05-29.56-.08-48.74v-.26h9.73v.26c0,19.35-.06,36.69-.08,49.22,0,6.23-.06,11.26-.08,14.77,0,1.72,0,3.06-.05,4,0,.44,0,.78,0,1a1.6,1.6,0,0,1,0,.35,1.35,1.35,0,0,1,0-.35c0-.26,0-.6,0-1,0-.94,0-2.28-.05-4,0-3.51,0-8.54-.08-14.77,0-12.53-.05-29.87-.08-49.22l.26.26h-9.21l.26-.26c0,19.18-.06,36.34-.09,48.74,0,6.16-.06,11.14-.08,14.61l0,3.95,0,1A2.37,2.37,0,0,1,323.85,385.47Z" style="fill:#263238"></path><path d="M323.72,319.69c0,.14-15.9.26-35.51.26s-35.52-.12-35.52-.26,15.9-.26,35.52-.26S323.72,319.54,323.72,319.69Z" style="fill:#263238"></path><path d="M323.72,329.16c0,.14-15.9.26-35.51.26s-35.52-.12-35.52-.26,15.9-.26,35.52-.26S323.72,329,323.72,329.16Z" style="fill:#263238"></path><path d="M340,248.6c0,.14-22.15.26-49.46.26S241,248.74,241,248.6s22.15-.26,49.47-.26S340,248.46,340,248.6Z" style="fill:#263238"></path><path d="M343.07,239.56c0,.14-23.24.26-51.9.26s-51.9-.12-51.9-.26,23.23-.26,51.9-.26S343.07,239.41,343.07,239.56Z" style="fill:#263238"></path><path d="M253,286.74s8.47-13.11,22.21-15.35H253Z" style="fill:#fafafa"></path><path d="M253,286.74s0-.34,0-1,0-1.79-.05-3.07c0-2.66-.13-6.55-.15-11.24v-.22H253l17.28,0h4.93l0,.51a28.79,28.79,0,0,0-10.09,3.83,40.26,40.26,0,0,0-6.9,5.32,48.27,48.27,0,0,0-3.94,4.28c-.43.53-.75.95-1,1.23a4.09,4.09,0,0,1-.35.43,2.15,2.15,0,0,1,.27-.48c.19-.3.49-.74.91-1.29a39.78,39.78,0,0,1,3.85-4.41,38.18,38.18,0,0,1,6.9-5.47,28.85,28.85,0,0,1,10.24-3.95l0,.51h-4.93l-17.28,0,.22-.22c0,4.55-.1,8.33-.15,11C253,284.75,253,286,253,286.74Z" style="fill:#263238"></path><path d="M324.11,286.74s-8.47-13.11-22.21-15.35h22.21Z" style="fill:#fafafa"></path><path d="M324.11,286.74c0-.78,0-2-.08-4.32,0-2.7-.13-6.48-.15-11l.23.22-17.28,0H301.9l0-.51a28.85,28.85,0,0,1,10.24,3.95,38.53,38.53,0,0,1,6.9,5.47,40.88,40.88,0,0,1,3.85,4.41c.41.55.71,1,.91,1.29a4.11,4.11,0,0,1,.27.48,2.93,2.93,0,0,1-.35-.43c-.22-.28-.54-.7-1-1.23a46.76,46.76,0,0,0-3.94-4.28,39.49,39.49,0,0,0-6.9-5.32,28.73,28.73,0,0,0-10.08-3.83l0-.51h4.93l17.28,0h.22v.22c0,4.69-.11,8.58-.15,11.24,0,1.28,0,2.3-.05,3.07S324.11,286.76,324.11,286.74Z" style="fill:#263238"></path><path d="M342.59,264.19c0,.14-23.6.26-52.7.26s-52.72-.12-52.72-.26,23.6-.26,52.72-.26S342.59,264,342.59,264.19Z" style="fill:#263238"></path><path d="M278.8,72.3s5.89-7,6.18-10.44-1-15.66,3.19-16.23c4.54-.63,4.11,5.2,4.16,8.89,0,1.65,0,3.29,0,4.62a10.36,10.36,0,0,0,1.72,5.77,63.06,63.06,0,0,0,5.5,7.29Z" style="fill:#455a64"></path><path d="M292.07,42.59a3.46,3.46,0,1,1-3.46-3.46A3.46,3.46,0,0,1,292.07,42.59Z" style="fill:#455a64"></path><rect x="287.5" y="17.88" width="2.21" height="23.8" style="fill:#455a64"></rect><rect x="282.59" y="23.59" width="12.25" height="1.8" style="fill:#455a64"></rect><path d="M285.43,72.29a53.62,53.62,0,0,1,.39,7.42,54.25,54.25,0,0,1-.13,7.43,51.81,51.81,0,0,1-.39-7.42A54.25,54.25,0,0,1,285.43,72.29Z" style="fill:#263238"></path><path d="M293.67,72.19a53.21,53.21,0,0,1,.26,7.38,53.12,53.12,0,0,1-.26,7.37,53.12,53.12,0,0,1-.26-7.37A53.21,53.21,0,0,1,293.67,72.19Z" style="fill:#263238"></path><path d="M300.93,72.3c0,.14-5.18.26-11.56.26s-11.55-.12-11.55-.26S283,72,289.37,72,300.93,72.15,300.93,72.3Z" style="fill:#263238"></path></g><g id="freepik--Floor--inject-66"><path d="M725.34,385.41c0,.14-155.83.26-348,.26s-348-.12-348-.26,155.8-.26,348.05-.26S725.34,385.26,725.34,385.41Z" style="fill:#263238"></path><path d="M699.09,392.85c0,.14-149.13.26-333,.26S33,393,33,392.85s149.1-.26,333.09-.26S699.09,392.7,699.09,392.85Z" style="fill:#263238"></path></g><g id="freepik--Plants--inject-66"><path d="M132.39,428c-.09,0-.16-1-.46-2.7a28.6,28.6,0,0,0-5.09-11.92c-1-1.36-1.68-2.13-1.62-2.19a9.83,9.83,0,0,1,1.92,2,24.14,24.14,0,0,1,3.41,5.7,24.46,24.46,0,0,1,1.75,6.4A10.26,10.26,0,0,1,132.39,428Z" style="fill:#263238"></path><path d="M136.42,426.47a18.31,18.31,0,0,1-.62-2.87c-.35-1.78-.86-4.22-1.53-6.9s-1.4-5.07-1.94-6.8a20.43,20.43,0,0,1-.82-2.82,13.11,13.11,0,0,1,1.17,2.7,69.29,69.29,0,0,1,2.09,6.79,67.35,67.35,0,0,1,1.39,7A14.22,14.22,0,0,1,136.42,426.47Z" style="fill:#263238"></path><path d="M143.13,413a19.15,19.15,0,0,0-3,12.7,5.31,5.31,0,0,1-.43-1.94,14.56,14.56,0,0,1,2.2-9.22A5.52,5.52,0,0,1,143.13,413Z" style="fill:#263238"></path><path d="M195.75,452.16a58.63,58.63,0,0,0-1.92-6.57,56.87,56.87,0,0,0-3.16-6,6.27,6.27,0,0,1,1.32,1.54,21.91,21.91,0,0,1,3.64,9.05A6.57,6.57,0,0,1,195.75,452.16Z" style="fill:#263238"></path><path d="M198.61,450.67a51.21,51.21,0,0,1-1.7-7.05,50.41,50.41,0,0,1-1.19-7.15,101.15,101.15,0,0,1,2.89,14.2Z" style="fill:#263238"></path><path d="M203.45,442.1a40.08,40.08,0,0,0-1.93,4.88,38.24,38.24,0,0,0-.72,5.19,12.45,12.45,0,0,1,2.65-10.07Z" style="fill:#263238"></path><path d="M369.65,422.66a67.3,67.3,0,0,0-2.46-7,70.67,70.67,0,0,0-3.67-6.41,7.35,7.35,0,0,1,1.45,1.64,24.81,24.81,0,0,1,2.69,4.55,25.29,25.29,0,0,1,1.7,5A6.94,6.94,0,0,1,369.65,422.66Z" style="fill:#263238"></path><path d="M373.89,420.5a10.43,10.43,0,0,1-1.1-2.29c-.6-1.45-1.35-3.48-2.05-5.76s-1.21-4.4-1.52-5.93a10.39,10.39,0,0,1-.37-2.51,14.82,14.82,0,0,1,.73,2.42c.4,1.51,1,3.59,1.66,5.86s1.39,4.32,1.9,5.79A14.68,14.68,0,0,1,373.89,420.5Z" style="fill:#263238"></path><path d="M378.22,408.89c.15.06-1,3.17-1.58,7.2s-.33,7.34-.5,7.35a7.59,7.59,0,0,1-.27-2.17,28.11,28.11,0,0,1,.26-5.25,28.67,28.67,0,0,1,1.21-5.13A7,7,0,0,1,378.22,408.89Z" style="fill:#263238"></path><path d="M462.12,458.9c-.15.06-1.26-3-3.43-6.29s-4.48-5.58-4.36-5.7a7.55,7.55,0,0,1,1.6,1.4,26,26,0,0,1,3.19,4,26.29,26.29,0,0,1,2.38,4.55A6.35,6.35,0,0,1,462.12,458.9Z" style="fill:#263238"></path><path d="M466,460a97.41,97.41,0,0,1-3.85-9.4,98.14,98.14,0,0,1-3.36-9.59c.13-.05,1.85,4.16,3.85,9.41A100.77,100.77,0,0,1,466,460Z" style="fill:#263238"></path><path d="M470.47,442.87c.16,0-.69,3.22-.94,7.24s.17,7.28,0,7.3a7.52,7.52,0,0,1-.41-2.12,29.34,29.34,0,0,1-.12-5.21,30.16,30.16,0,0,1,.78-5.16A7.45,7.45,0,0,1,470.47,442.87Z" style="fill:#263238"></path><path d="M77.82,435.42a5.17,5.17,0,0,1,2.68,3,9.12,9.12,0,0,1,.36,4.12,16,16,0,0,1-3.46,7.5c-2.25-2-2.76-5.39-2.92-7.14-.24-2.77,1-7.93,3.34-7.52" style="fill:#FFC100"></path><path d="M80,454.49a4.42,4.42,0,0,1,1.43-4.2,5.87,5.87,0,0,1,4.32-1.35,2.48,2.48,0,0,1,1.9.85,1.89,1.89,0,0,1,0,1.92,3.79,3.79,0,0,1-1.42,1.39c-2,1.23-4.06,2-6.26,1.39" style="fill:#FFC100"></path><path d="M77.13,462.68a4.21,4.21,0,0,1,.08-.54c.07-.39.17-.89.28-1.49A15.14,15.14,0,0,1,79,455.91a9.48,9.48,0,0,1,3.4-3.61,6.1,6.1,0,0,1,1.39-.62l.4-.1.14,0a10.87,10.87,0,0,0-1.86.85,9.83,9.83,0,0,0-3.3,3.6,16.39,16.39,0,0,0-1.57,4.67c-.14.62-.25,1.13-.33,1.47A2.1,2.1,0,0,1,77.13,462.68Z" style="fill:#263238"></path><path d="M77.22,439.43a1.48,1.48,0,0,1,0,.24l0,.69c0,.6.06,1.46.1,2.54.07,2.14.12,5.1.11,8.36s-.1,6.23-.18,8.37c0,1.07-.09,1.94-.13,2.54,0,.28,0,.51,0,.68l0,.24a.87.87,0,0,1,0-.24c0-.17,0-.4,0-.69,0-.62,0-1.48.06-2.53,0-2.14.11-5.1.12-8.37s0-6.22,0-8.36c0-1,0-1.91,0-2.54v-.69A.93.93,0,0,1,77.22,439.43Z" style="fill:#263238"></path><path d="M76.13,456.12a10.34,10.34,0,0,0-5.65-7.57A1.72,1.72,0,0,0,68,450.86a8.84,8.84,0,0,0,8.12,5.48" style="fill:#FFC100"></path><path d="M70.85,451.08a3.09,3.09,0,0,1,.48.21,5.07,5.07,0,0,1,.54.29,7.33,7.33,0,0,1,.68.43,9,9,0,0,1,.79.59,9.54,9.54,0,0,1,.83.76,10.84,10.84,0,0,1,1.59,2,11.33,11.33,0,0,1,1,2.37,8.27,8.27,0,0,1,.26,1.1,7.31,7.31,0,0,1,.14,1,8.1,8.1,0,0,1,0,.81,5.44,5.44,0,0,1,0,.61,3.65,3.65,0,0,1-.06.52s0-.74-.1-1.92a9.43,9.43,0,0,0-.15-1,10.81,10.81,0,0,0-.28-1.08,11.7,11.7,0,0,0-1-2.32,12.23,12.23,0,0,0-1.55-2,9.64,9.64,0,0,0-.82-.77,9.45,9.45,0,0,0-.76-.6C71.51,451.43,70.83,451.12,70.85,451.08Z" style="fill:#263238"></path><path d="M513,410.31a5.18,5.18,0,0,1,2.69,3,9.11,9.11,0,0,1,.35,4.12,16.11,16.11,0,0,1-3.45,7.5c-2.25-2-2.77-5.39-2.92-7.14-.25-2.77,1-7.93,3.33-7.52" style="fill:#FFC100"></path><path d="M515.22,429.38a4.42,4.42,0,0,1,1.43-4.2,5.88,5.88,0,0,1,4.33-1.35,2.5,2.5,0,0,1,1.9.86,1.89,1.89,0,0,1,0,1.91,4,4,0,0,1-1.42,1.4c-2,1.22-4.06,2.05-6.27,1.38" style="fill:#FFC100"></path><path d="M512.34,437.58a2,2,0,0,1,.08-.55l.27-1.49a15.68,15.68,0,0,1,1.53-4.74,9.48,9.48,0,0,1,3.4-3.61,6.68,6.68,0,0,1,1.39-.61c.17-.06.31-.08.4-.11l.14,0a10.93,10.93,0,0,0-1.86.86,9.79,9.79,0,0,0-3.3,3.59,17.16,17.16,0,0,0-1.57,4.67c-.13.62-.24,1.13-.33,1.47A3.09,3.09,0,0,1,512.34,437.58Z" style="fill:#263238"></path><path d="M512.42,414.32a.83.83,0,0,1,0,.24c0,.18,0,.41,0,.69,0,.6.07,1.47.1,2.54.07,2.14.13,5.1.11,8.37s-.09,6.22-.18,8.37c0,1.07-.09,1.93-.12,2.53l0,.69a.83.83,0,0,1,0,.24.93.93,0,0,1,0-.24c0-.18,0-.41,0-.69,0-.63,0-1.49.06-2.54,0-2.14.11-5.1.13-8.36s0-6.23-.06-8.37c0-1.05,0-1.91,0-2.53v-.69C512.41,414.41,512.42,414.32,512.42,414.32Z" style="fill:#263238"></path><path d="M511.33,431a10.33,10.33,0,0,0-5.64-7.57,2.2,2.2,0,0,0-2.35,0,2.15,2.15,0,0,0-.18,2.35,8.82,8.82,0,0,0,8.12,5.48" style="fill:#FFC100"></path><path d="M506.05,426a3.39,3.39,0,0,1,.48.21,4.26,4.26,0,0,1,.54.29c.2.13.45.25.69.43a8.9,8.9,0,0,1,.78.59,11.32,11.32,0,0,1,.84.76,12.12,12.12,0,0,1,1.59,2,11,11,0,0,1,1,2.37,10.33,10.33,0,0,1,.27,1.1c.07.35.1.68.13,1s0,.58,0,.81a4,4,0,0,1,0,.62,1.77,1.77,0,0,1-.06.51s0-.74-.09-1.92a9.6,9.6,0,0,0-.16-1,10.81,10.81,0,0,0-.28-1.08,11.7,11.7,0,0,0-1-2.32,12.11,12.11,0,0,0-1.55-2c-.28-.28-.54-.54-.81-.76s-.53-.43-.76-.61C506.71,426.32,506,426,506.05,426Z" style="fill:#263238"></path></g><g id="freepik--character-2--inject-66"><path d="M674.45,259.11a52.45,52.45,0,0,0,2.35-8.56,18,18,0,0,0-.6-8.78c-.15-.43-1.45-3.27-1.9-3.23s.47,2.67.31,3a15.2,15.2,0,0,0-1.83,8.87,40.25,40.25,0,0,0,1.67,8.75" style="fill:#263238"></path><path d="M666.15,283.8a8.45,8.45,0,0,0,8.38-8.34l.35-27.65c.34-7.43-3.71-13.81-11.14-13.94l-.69,0a13.29,13.29,0,0,0-12.73,12.75c-.25,6.44-.45,13.56-.26,17,.38,7.12,7.55,7.93,7.55,7.93s0,1.66,0,3.75a8.45,8.45,0,0,0,8.52,8.47Z" style="fill:#ffbe9d"></path><path d="M657.61,271.58a17.24,17.24,0,0,0,9.17-3.12s-2,5.45-9.15,5.1Z" style="fill:#eb996e"></path><path d="M652.54,252.45a1,1,0,0,0,1,1,1,1,0,0,0,1-1,1,1,0,0,0-1-1A1,1,0,0,0,652.54,252.45Z" style="fill:#263238"></path><path d="M652,249.74c.13.13.88-.48,2-.52s1.92.47,2,.33-.08-.29-.44-.53a2.78,2.78,0,0,0-1.63-.43,2.7,2.7,0,0,0-1.57.57C652,249.44,651.9,249.68,652,249.74Z" style="fill:#263238"></path><path d="M662.46,252.21a1,1,0,0,0,1,1,1,1,0,0,0,1-1,1,1,0,0,0-1-1A1,1,0,0,0,662.46,252.21Z" style="fill:#263238"></path><path d="M662.71,249.55c.13.13.88-.48,2-.52s1.92.47,2,.34-.08-.3-.44-.54a2.83,2.83,0,0,0-1.64-.43,2.6,2.6,0,0,0-1.56.58C662.75,249.25,662.65,249.49,662.71,249.55Z" style="fill:#263238"></path><path d="M659.13,258.13a6.48,6.48,0,0,0-1.79-.25c-.28,0-.55-.06-.6-.25a1.4,1.4,0,0,1,.15-.84c.23-.69.48-1.41.74-2.16a37.91,37.91,0,0,0,1.63-5.65,35.35,35.35,0,0,0-2.08,5.5c-.25.76-.48,1.49-.71,2.18a1.63,1.63,0,0,0-.1,1.1.71.71,0,0,0,.48.39,1.7,1.7,0,0,0,.48.05A7.57,7.57,0,0,0,659.13,258.13Z" style="fill:#263238"></path><path d="M662.22,246.14c.16.27,1.21-.07,2.5-.15s2.38.08,2.5-.22c0-.14-.18-.38-.64-.59a4.4,4.4,0,0,0-1.94-.3,4.17,4.17,0,0,0-1.87.58C662.34,245.73,662.14,246,662.22,246.14Z" style="fill:#263238"></path><path d="M651.78,246.52c.24.24,1.12,0,2.2-.08s2,.12,2.18-.15-.06-.37-.46-.6a3.49,3.49,0,0,0-1.79-.36,3.37,3.37,0,0,0-1.74.55C651.8,246.14,651.68,246.4,651.78,246.52Z" style="fill:#263238"></path><path d="M674.52,253.11c.12-.06,4.84-1.65,4.88,3.23s-4.86,3.91-4.87,3.77S674.52,253.11,674.52,253.11Z" style="fill:#ffbe9d"></path><path d="M676,258.25s.09.06.23.12a.82.82,0,0,0,.64,0,2.08,2.08,0,0,0,1-1.89,2.8,2.8,0,0,0-.24-1.22,1,1,0,0,0-.65-.64.44.44,0,0,0-.5.23c-.06.14,0,.24-.06.25s-.1-.08-.07-.29a.56.56,0,0,1,.19-.3.63.63,0,0,1,.47-.13,1.18,1.18,0,0,1,.9.75,2.92,2.92,0,0,1,.3,1.35,2.19,2.19,0,0,1-1.22,2.12.92.92,0,0,1-.77-.12C676,258.37,676,258.26,676,258.25Z" style="fill:#eb996e"></path><path d="M653.47,238.57c-.79-.43,1.58-3,3.52-3.87,2.93-1.34,7.41-2.16,10.12-1.39,3.25.92,6,2.54,7.59,5.5a19.17,19.17,0,0,1,2.16,9.8,5.86,5.86,0,0,1-.68,3c-.69,1.08-2,1.76-1.93,3.24a2,2,0,0,1-.51,1.49c-.89.95-2,.06-2.49-.83-1.07-1.91-1.19-4.19-1.29-6.38a14.41,14.41,0,0,1,.31-4.64c.24-.82.62-1.58.81-2.41a2.93,2.93,0,0,0-.34-2.44l-.4-.4a5.07,5.07,0,0,0-5.05-.95c-2.74,1-7.44,2.42-8.66,1.49a7.68,7.68,0,0,1-2.19-2.21Z" style="fill:#263238"></path><path d="M662.44,258.21c-.17,0-.18,1.11-1.14,1.9s-2.16.66-2.16.82.26.22.76.23a2.75,2.75,0,0,0,1.81-.62,2.39,2.39,0,0,0,.88-1.59C662.64,258.48,662.51,258.2,662.44,258.21Z" style="fill:#263238"></path><path d="M655.84,447.89l-1.91,20.4-27.36-.87c.35-2.43,16-6.73,16-6.73L643.5,447Z" style="fill:#FFC100"></path><g style="opacity:0.6000000000000001"><path d="M650,459.74a1,1,0,0,1,.68,1.21,1.14,1.14,0,0,1-1.31.68,1,1,0,0,1-.71-1.29,1.19,1.19,0,0,1,1.44-.57" style="fill:#fff"></path></g><g style="opacity:0.6000000000000001"><path d="M653.93,468.29l.09-2.06-26.26-.07s-1.26.45-1.19,1.26Z" style="fill:#fff"></path></g><path d="M642.16,460.91c0,.12.65.2,1.28.62s.94,1,1.06.91,0-.77-.78-1.27S642.14,460.79,642.16,460.91Z" style="fill:#263238"></path><path d="M638.48,462c0,.12.52.35.94.89s.5,1.09.63,1.09.27-.7-.25-1.36S638.49,461.83,638.48,462Z" style="fill:#263238"></path><path d="M636.67,465c.12,0,.36-.59.06-1.28s-.89-1-1-.88.29.48.52,1.05S636.54,465,636.67,465Z" style="fill:#263238"></path><path d="M642.63,457.51c0,.11.68,0,1.43,0s1.32.31,1.4.21-.46-.57-1.34-.64S642.57,457.41,642.63,457.51Z" style="fill:#263238"></path><path d="M705.63,449l.54,20.36-26.42.54c.06-2.43,14.62-7.51,14.62-7.51l-.71-13.67Z" style="fill:#FFC100"></path><g style="opacity:0.6000000000000001"><path d="M701.39,461.08a1.07,1.07,0,0,1,.8,1.17A1,1,0,0,1,701,463a1.11,1.11,0,0,1-.83-1.24,1.06,1.06,0,0,1,1.32-.65" style="fill:#fff"></path></g><g style="opacity:0.6000000000000001"><path d="M706.17,469.38l-.16-2.06-25.27,1.29s-1.15.52-1,1.31Z" style="fill:#fff"></path></g><path d="M694,462.65c0,.12.66.17,1.31.55s1,.9,1.13.85-.11-.76-.91-1.22S694,462.54,694,462.65Z" style="fill:#263238"></path><path d="M690.57,463.87c0,.12.54.32,1,.84s.61,1.06.74,1.06.18-.71-.4-1.34S690.57,463.76,690.57,463.87Z" style="fill:#263238"></path><path d="M689.18,467c.12,0,.27-.6-.09-1.27s-1-.93-1-.83.34.46.62,1S689.05,467,689.18,467Z" style="fill:#263238"></path><path d="M694,459.25c.06.11.65-.07,1.38,0s1.31.24,1.37.14-.5-.54-1.36-.57S694,459.16,694,459.25Z" style="fill:#263238"></path><path d="M705.09,429.51a301.87,301.87,0,0,1,3.46,30.73c-4.2,1-18.11.95-18.11.95s-.88-7.64-3-19.18c-1.66-9.09-6.06-24.7-9.39-30.23-1.69-2.82-23.91-52.17-23.91-52.17v-6.45l36.38-4.58a17,17,0,0,1,3.21,7.45c.56,3,.89,5.71,1.08,7.64a16.08,16.08,0,0,1-.45,5.61l-.69,8.26s4,22,6.71,30.67A183.86,183.86,0,0,1,705.09,429.51Z" style="fill:#263238"></path><path d="M671.2,382.23l-.11-14.46L659,352.46l-7.53,1.15c0,.29-8.6,60.27-8.12,56.89l-3.05,48.2,16,2.74,8.24-46.06Z" style="fill:#263238"></path><path d="M680.34,364.76a14.5,14.5,0,0,1-.65,4.27s-7.35-3.71-8.8-6.53l1.94-2.75Z" style="fill:#ffbe9d"></path><path d="M681.49,369.81c0-.05-1-.43-2.43-1.18a32.58,32.58,0,0,1-5.41-3.44,31.5,31.5,0,0,1-4.53-4.4c-1-1.23-1.59-2.05-1.64-2a2.45,2.45,0,0,0,.34.61c.24.38.61.91,1.11,1.55a26.31,26.31,0,0,0,4.5,4.5,29,29,0,0,0,5.52,3.41,19.51,19.51,0,0,0,1.84.76A3.26,3.26,0,0,0,681.49,369.81Z" style="fill:#455a64"></path><path d="M657.75,366.5a1.52,1.52,0,0,0,.1.37l.34,1c.31.9.78,2.19,1.41,3.76,1.24,3.16,3.1,7.48,5.25,12.2s4.19,9,5.68,12l1.79,3.62.5,1a1.87,1.87,0,0,0,.19.33,1.5,1.5,0,0,0-.13-.35c-.12-.26-.26-.59-.44-1l-1.69-3.67c-1.45-3.12-3.41-7.37-5.59-12.07s-4-9-5.34-12.15c-.65-1.57-1.16-2.84-1.5-3.73-.17-.41-.3-.75-.41-1A1.68,1.68,0,0,0,657.75,366.5Z" style="fill:#455a64"></path><path d="M674.63,269.63c6.68.39,13.94,1,20.88,3.27,1.72.56,3.53,2.39,4.74,3.75,1.55,1.73,1.75,4.25,1.8,6.57.07,3,0,6.3-1.79,8.8s-5.7,2.44-7.89.32l-18.8-17.59Z" style="fill:#FFC100"></path><path d="M689.91,279.15l1.49,3.65c1.38,4.53,3.94,34.05,3.94,34.05s-.2,21.65-1,24.6a10.22,10.22,0,0,1-2.16,4.33l.59,5.65-41.38,3.84-.68-5.08c-.22-5.42,1.11-14.45,1.11-14.45a72.43,72.43,0,0,0,.7-9.11s.16-16.32.51-20.83c.52-6.62,1.2-18.25,1.69-24.35a19.35,19.35,0,0,1,2.46-7.5l.31-.35.25,3.89,17.36-7.3S688.11,277.44,689.91,279.15Z" style="fill:#FFC100"></path><path d="M689.75,279.8c7.44,1,9.1,36.42,9.33,42.6s-10.46,33.43-12,36.07-2.81,2.49-2.81,2.49L682,366.25c-5.13,1-9.76-5.79-9.76-5.79L682,325.05l-5.2-25.16" style="fill:#FFC100"></path><path d="M677,270.19a7.73,7.73,0,0,0,1,.29c.62.16,1.53.42,2.63.79a64.57,64.57,0,0,1,8.35,3.55c3.18,1.59,6,3.11,8.13,4.1a4.17,4.17,0,0,0,1.54.43,2.18,2.18,0,0,0,1.19-.29,1.44,1.44,0,0,0,.54-.54c.09-.15.1-.25.09-.25a1.73,1.73,0,0,1-.7.68,2,2,0,0,1-1.1.21,4.12,4.12,0,0,1-1.46-.45c-2.07-1-4.9-2.6-8.08-4.19a56.34,56.34,0,0,0-8.43-3.48c-1.11-.34-2-.56-2.67-.69A7,7,0,0,0,677,270.19Z" style="fill:#263238"></path><g style="opacity:0.30000000000000004"><path d="M678.6,337.09a43.84,43.84,0,0,0-.27-19.34c-.62-2.58-1.48-5.1-1.91-7.71s-.54-6.06.52-8.49c1.37,6.41,2.71,12.37,4.08,18.78l1,4.72s-2.7,8.12-3,11.76"></path></g><path d="M677,298.87a4.22,4.22,0,0,0,.78.2,18.53,18.53,0,0,0,2.15.33,26.91,26.91,0,0,0,7.16-.21,29,29,0,0,0,3.85-.92,26.63,26.63,0,0,0,3-1.19,19.23,19.23,0,0,0,1.92-1,3.09,3.09,0,0,0,.66-.45c0-.05-1,.52-2.68,1.25a29.16,29.16,0,0,1-6.81,2,30.38,30.38,0,0,1-7.09.31C678.08,299,677,298.81,677,298.87Z" style="fill:#fff"></path><path d="M677.36,301.57a3.93,3.93,0,0,0,.78.2,18.38,18.38,0,0,0,2.16.34,27.06,27.06,0,0,0,11.08-1.05,23.37,23.37,0,0,0,3-1.16,20,20,0,0,0,1.94-1,3.88,3.88,0,0,0,.67-.45c0-.05-1,.53-2.7,1.24a29.24,29.24,0,0,1-3,1.09,31.29,31.29,0,0,1-3.84.85,30.82,30.82,0,0,1-7.13.25C678.49,301.73,677.37,301.51,677.36,301.57Z" style="fill:#fff"></path><path d="M653.2,301.48a5.84,5.84,0,0,0,.91.34c.59.19,1.45.45,2.53.73a56.42,56.42,0,0,0,8.56,1.53,58.15,58.15,0,0,0,8.7.22c1.11-.06,2-.14,2.63-.21a6.66,6.66,0,0,0,1-.15,4.55,4.55,0,0,0-1,0c-.62,0-1.52.08-2.63.11a69,69,0,0,1-8.65-.31,67.38,67.38,0,0,1-8.54-1.43c-1.08-.25-2-.47-2.56-.63A5.08,5.08,0,0,0,653.2,301.48Z" style="fill:#fff"></path><path d="M653.2,298.45a5.07,5.07,0,0,0,.89.27c.58.16,1.43.36,2.47.58a72.72,72.72,0,0,0,16.65,1.52c1.07,0,1.94-.07,2.53-.12a4.47,4.47,0,0,0,.93-.11,5.17,5.17,0,0,0-.93,0h-2.53c-2.14,0-5.09-.08-8.34-.38s-6.16-.75-8.26-1.13l-2.49-.48A4.28,4.28,0,0,0,653.2,298.45Z" style="fill:#fff"></path><path d="M673,358.22a3.09,3.09,0,0,1,.1-.56c.1-.42.23-1,.38-1.59.37-1.44.87-3.41,1.49-5.81,1.32-4.95,3.12-11.68,5.1-19.11.58-2.13,1.14-4.21,1.68-6.17v.12c-1.26-6-2.35-11.28-3.15-15.12-.36-1.83-.65-3.32-.87-4.43-.08-.48-.15-.87-.21-1.19s-.06-.42,0-.42a1.49,1.49,0,0,1,.13.4c.08.32.17.7.29,1.17.26,1.1.6,2.58,1,4.41L682.25,325v.12c-.53,2-1.09,4-1.67,6.17l-5.24,19.08c-.69,2.38-1.24,4.33-1.65,5.76q-.29.94-.48,1.56A2.1,2.1,0,0,1,673,358.22Z" style="fill:#263238"></path><path d="M691.68,280.92a2.49,2.49,0,0,1,.54.62,12,12,0,0,1,1.12,2.07,54.67,54.67,0,0,1,2.71,8.23c.53,3.64,1,7.94,1.52,12.74s1.08,10.07,1.6,15.61a18.18,18.18,0,0,1,.08,4.17,29.68,29.68,0,0,1-.92,3.93c-.76,2.52-1.41,5-2.17,7.26-1.56,4.58-3.16,8.62-4.49,12s-2.47,6.12-3.26,8c-.38.91-.69,1.63-.92,2.16a3.94,3.94,0,0,1-.36.74s.08-.27.26-.78l.84-2.19,3.09-8.07c1.29-3.4,2.86-7.46,4.38-12,.74-2.27,1.39-4.74,2.13-7.25a29.28,29.28,0,0,0,.91-3.86,17.25,17.25,0,0,0-.09-4.05c-.51-5.54-1.06-10.81-1.56-15.61s-.92-9.13-1.4-12.71a61.07,61.07,0,0,0-2.54-8.23,13.35,13.35,0,0,0-1-2.1C691.86,281.13,691.66,280.94,691.68,280.92Z" style="fill:#263238"></path><path d="M686,278.89c0,.08-.78.31-2,.91a12.1,12.1,0,0,0-6.25,7.7c-.35,1.27-.4,2.1-.49,2.09a5.22,5.22,0,0,1,.13-2.17,11.1,11.1,0,0,1,6.45-7.95A5.05,5.05,0,0,1,686,278.89Z" style="fill:#263238"></path><path d="M691.49,279.48a16.14,16.14,0,0,1-2.2-1.52c-1.34-1-3.21-2.23-5.38-3.49s-4.2-2.25-5.69-2.94a18.73,18.73,0,0,1-2.41-1.16,11.59,11.59,0,0,1,2.55.82,42.85,42.85,0,0,1,5.81,2.83,43.47,43.47,0,0,1,5.34,3.65A11.38,11.38,0,0,1,691.49,279.48Z" style="fill:#263238"></path><path d="M675.21,350.1a29.78,29.78,0,0,1-3.52.42l-8.52.9c-3.33.35-6.35.63-8.55.75-1.09.06-2,.1-2.6.1a3.56,3.56,0,0,1-.95,0,28.24,28.24,0,0,1,3.52-.43l8.52-.89c3.33-.36,6.35-.63,8.55-.75,1.09-.07,2-.1,2.6-.11A3.25,3.25,0,0,1,675.21,350.1Z" style="fill:#263238"></path></g><g id="freepik--character-1--inject-66"><path d="M571.92,447.06l.83,14.53s-14.49,5.73-14.6,8.43l28.23-.6L586,446.73Z" style="fill:#FFC100"></path><g style="opacity:0.30000000000000004"><path d="M571.92,447.06l.83,14.53s-14.49,5.73-14.6,8.43l28.23-.6L586,446.73Z"></path></g><path d="M581.4,460.19a1.15,1.15,0,0,1,.83,1.3,1.11,1.11,0,0,1-1.28.82,1.2,1.2,0,0,1-.87-1.38,1.15,1.15,0,0,1,1.43-.71" style="fill:#e0e0e0"></path><path d="M586.49,469.49l-.11-2.2-27.2,1.27s-1.25.57-1.08,1.46Z" style="fill:#263238"></path><path d="M572.24,461.46c0,.14.69.19,1.38.61s1.06,1,1.19.95-.1-.85-.94-1.36S572.2,461.33,572.24,461.46Z" style="fill:#263238"></path><path d="M569.3,462.75c0,.13.57.35,1.05.93s.63,1.18.77,1.17.21-.79-.4-1.49S569.3,462.61,569.3,462.75Z" style="fill:#263238"></path><path d="M567.69,466.33c.13,0,.31-.67-.06-1.42s-1-1-1.08-.92.35.52.65,1.13S567.56,466.32,567.69,466.33Z" style="fill:#263238"></path><path d="M593.65,447.93l.82,14.54s-14.49,5.72-14.6,8.42l28.24-.59-.36-22.7Z" style="fill:#FFC100"></path><path d="M603.13,461.06a1.14,1.14,0,0,1,.82,1.3,1.11,1.11,0,0,1-1.28.83,1.21,1.21,0,0,1-.86-1.38,1.15,1.15,0,0,1,1.42-.72" style="fill:#e0e0e0"></path><path d="M608.22,470.36l-.11-2.19-27.2,1.26s-1.25.58-1.09,1.46Z" style="fill:#263238"></path><path d="M594,462.33c0,.14.7.19,1.39.62s1.06,1,1.18.94-.09-.85-.93-1.35S593.93,462.21,594,462.33Z" style="fill:#263238"></path><path d="M591,463.62c0,.13.57.36,1.05.93s.63,1.19.77,1.18.2-.79-.41-1.49S591,463.49,591,463.62Z" style="fill:#263238"></path><path d="M589.42,467.2c.12,0,.3-.67-.07-1.41s-1-1-1.08-.92.36.51.65,1.13S589.28,467.19,589.42,467.2Z" style="fill:#263238"></path><path d="M606.77,303.36a10,10,0,0,1,10.29,2.87c4.44,4.92,16.5,17.82,16.81,27.31s-2.53,16.15-9.19,17.57-9.68,0-9.68,0-10.93-17-10.7-19.46S606.77,303.36,606.77,303.36Z" style="fill:#263238"></path><path d="M626.81,349.55a8.54,8.54,0,0,0,.82-1.7,8.75,8.75,0,0,0-.19-5.05,152.55,152.55,0,0,0-6.17-16,166.12,166.12,0,0,0-7.87-15.24c-1.12-1.89-2-3.41-2.68-4.46-.3-.48-.54-.88-.74-1.21s-.24-.43-.22-.44a2,2,0,0,1,.31.38l.82,1.16c.69,1,1.67,2.51,2.82,4.38a137.25,137.25,0,0,1,8,15.22,129.18,129.18,0,0,1,6.06,16.1,8.68,8.68,0,0,1,0,5.21,4.65,4.65,0,0,1-.67,1.27A1.81,1.81,0,0,1,626.81,349.55Z" style="fill:#455a64"></path><path d="M627.88,319.49a9,9,0,0,1-9,.57,15.09,15.09,0,0,0,9-.57Z" style="fill:#455a64"></path><path d="M578,354.14c-.38.75-15.92,42.52-15.92,50.57s2.8,56.76,2.8,56.76,16,2,23.24-2.73,5.8-4.95,5.8-4.95l-8.18-90.47Z" style="fill:#455a64"></path><path d="M607.87,333.54s10.18,9.92,10.18,20-3.56,15.54-3.56,15.54l-3.21,91.45a60,60,0,0,1-10.57.87c-4-.09-13.07-1.95-13.07-1.95L581,410.71l-7.11-70.24Z" style="fill:#455a64"></path><path d="M587.48,458.74a1.23,1.23,0,0,1-.07-.26c0-.21-.08-.46-.14-.78-.12-.72-.28-1.72-.49-3-.41-2.65-1-6.4-1.72-11s-1.54-10.21-2.47-16.36c-.46-3.08-1-6.32-1.45-9.67-.25-1.67-.5-3.38-.76-5.11l-.39-2.61c-.13-.88-.17-1.77-.26-2.67-1.25-14.3-2.38-27.25-3.2-36.67-.38-4.66-.69-8.45-.91-11.11-.09-1.29-.17-2.3-.22-3,0-.32,0-.58,0-.79a1,1,0,0,1,0-.27,1.45,1.45,0,0,1,0,.27c0,.21.06.46.1.78.07.73.18,1.74.31,3,.26,2.66.63,6.44,1.08,11.1.86,9.41,2,22.35,3.34,36.64.1.9.13,1.79.27,2.67l.39,2.61c.25,1.73.5,3.44.75,5.11.49,3.35,1,6.58,1.41,9.67.89,6.15,1.69,11.69,2.37,16.37s1.18,8.39,1.55,11c.17,1.27.3,2.28.39,3,0,.32.07.57.09.78A1.1,1.1,0,0,1,587.48,458.74Z" style="fill:#263238"></path><path d="M605.28,349.14s-.22.22-.69.51a12.4,12.4,0,0,1-2.11,1,14.24,14.24,0,0,1-14.51-2.8,12.85,12.85,0,0,1-1.58-1.72c-.33-.44-.48-.71-.45-.73s.78.94,2.27,2.17a14.82,14.82,0,0,0,14.15,2.73C604.21,349.72,605.24,349.06,605.28,349.14Z" style="fill:#263238"></path><path d="M543.24,269.37l-22.57-14.76s-.85.28-.24,1.66,5,4.64,5,4.64a1.47,1.47,0,0,0-1.24,1.9,1.62,1.62,0,0,0-.87,1.48,3.08,3.08,0,0,0-.27,1.26,27.94,27.94,0,0,0,.57,3.79l2.79,1.38s.9-.11.78-.93c0,0,.95.7,1.41.29a1.67,1.67,0,0,0,.53-1s2.25,3.37,5.56,3.24l4.83,4Z" style="fill:#ffbe9d"></path><path d="M534.73,272.35l21.65,23.1a11.46,11.46,0,0,0,4,2.72l22.67,9.3,7.13-17.87-23-4.79-27.29-17.66Z" style="fill:#ffbe9d"></path><path d="M536,268.71a1.49,1.49,0,0,1-.63.27,5.33,5.33,0,0,1-1.91.13,5.28,5.28,0,0,1-2.67-1.13,5.56,5.56,0,0,1-1.92-3.09l.2.2-2-.43c-.6-.15-1.15-.23-1.75-.42s-1.27-1-.71-1.68l.06-.08h.11c2.18-.06,4.05-.11,5.38-.12a11.13,11.13,0,0,1,2.11.07,9.48,9.48,0,0,1-2.1.24c-1.32.1-3.19.2-5.37.31l.17-.08a.43.43,0,0,0,0,.48.88.88,0,0,0,.52.38c.49.16,1.12.26,1.69.4l2,.44.16,0,0,.16a5.19,5.19,0,0,0,1.7,2.84,5,5,0,0,0,2.44,1.14A8,8,0,0,0,536,268.71Z" style="fill:#eb996e"></path><path d="M525.23,265.63a5.24,5.24,0,0,1,1.43.93l1.46,1.12a6.18,6.18,0,0,1,.85.75,1.23,1.23,0,0,1,.3.65.91.91,0,0,1-.26.75,1.46,1.46,0,0,1-1.32.34,5.47,5.47,0,0,1-1.08-.34,6.16,6.16,0,0,1-1.62-1c-.81-.72-1.1-1.34-1-1.37s.46.48,1.28,1.08a6.5,6.5,0,0,0,1.56.84c.6.21,1.45.52,1.85.09.2-.2.16-.46-.06-.72a5.08,5.08,0,0,0-.76-.69c-.47-.42-.93-.82-1.39-1.21C525.64,266.14,525.18,265.68,525.23,265.63Z" style="fill:#eb996e"></path><path d="M527.9,264.5a5,5,0,0,1,1.12.95,4.08,4.08,0,0,1,.9,1.38,1.43,1.43,0,0,1,0,1.1,1,1,0,0,1-1.14.47,2.61,2.61,0,0,1-1-.51l-.75-.55-1.24-1c-.7-.56-1.11-.93-1.07-1s.53.21,1.28.69c.44.3.88.58,1.31.88l.77.52a2.18,2.18,0,0,0,.77.42.5.5,0,0,0,.59-.2,1,1,0,0,0,0-.7,4.06,4.06,0,0,0-.72-1.29C528.17,265,527.84,264.55,527.9,264.5Z" style="fill:#eb996e"></path><polygon points="572.18 285.87 565.62 302.35 573.23 305.11 588.29 288.28 572.18 285.87" style="fill:#FFC100"></polygon><path d="M604.37,262.61a18.23,18.23,0,0,0-3.79-8.94,12.8,12.8,0,0,0-3.75-2.93,26.25,26.25,0,0,0-7.86-3.25,12.37,12.37,0,0,0-8.3,1,9.74,9.74,0,0,0-4.69,5.93l18.48,21.49,1.63,4.74a19.75,19.75,0,0,0,4.26-5.64,5.18,5.18,0,0,0,2.26-2C603.61,270.85,604.51,265,604.37,262.61Z" style="fill:#263238"></path><path d="M577.33,251.53l4.64-.83c-2.53,6-3.22,19.84-4.67,26.23-1.71-2.48-5.68-10-5.47-13S571.82,251,577.33,251.53Z" style="fill:#263238"></path><path d="M599.32,261.58a7.92,7.92,0,0,0-6-7.29l-10.68-2.73c-4.61-.5-7.7,5.18-8,9.81-.33,5.15-.54,10.58.06,14.42,1.21,7.72,7.13,8.72,7.13,8.72v7.85l9.54,5.64,5.55-8.68,2.38-27.65C599.35,261.54,599.33,261.75,599.32,261.58Z" style="fill:#ffbe9d"></path><path d="M576.37,266.7a1,1,0,0,0,1,1,.94.94,0,0,0,1-.89,1,1,0,0,0-1-1A1,1,0,0,0,576.37,266.7Z" style="fill:#263238"></path><path d="M575.84,264.4c.12.13.88-.43,1.94-.42s1.85.54,2,.41-.06-.29-.4-.54a2.73,2.73,0,0,0-1.57-.49,2.59,2.59,0,0,0-1.55.49C575.89,264.1,575.78,264.34,575.84,264.4Z" style="fill:#263238"></path><path d="M585.73,266.76a1,1,0,0,0,.95,1,1,1,0,0,0,1-.89,1,1,0,0,0-1-1A.94.94,0,0,0,585.73,266.76Z" style="fill:#263238"></path><path d="M586,264.4c.12.13.88-.43,1.94-.42s1.85.54,2,.41-.06-.29-.4-.54a2.73,2.73,0,0,0-1.57-.49,2.59,2.59,0,0,0-1.55.49C586,264.1,585.9,264.34,586,264.4Z" style="fill:#263238"></path><path d="M582.63,272.77a7,7,0,0,0-1.73-.32c-.27,0-.53-.08-.57-.27a1.36,1.36,0,0,1,.18-.81q.39-1,.81-2.07a36,36,0,0,0,1.82-5.41,34.81,34.81,0,0,0-2.25,5.26l-.78,2.08a1.59,1.59,0,0,0-.14,1.07.65.65,0,0,0,.44.39,1.73,1.73,0,0,0,.47.07A7.08,7.08,0,0,0,582.63,272.77Z" style="fill:#263238"></path><path d="M592.11,281.76s-2.51,5.3-10.24,4.56v-1.81A19.5,19.5,0,0,0,592.11,281.76Z" style="fill:#eb996e"></path><path d="M586.3,260.55c.1.29,1.17.15,2.41.3s2.27.5,2.43.24-.1-.4-.51-.68a4,4,0,0,0-1.79-.63,4.06,4.06,0,0,0-1.9.22C586.48,260.18,586.25,260.41,586.3,260.55Z" style="fill:#263238"></path><path d="M576.19,261.14c.19.24.92,0,1.8,0s1.63.17,1.81-.09,0-.36-.37-.59A2.47,2.47,0,0,0,578,260a2.51,2.51,0,0,0-1.44.48C576.21,260.77,576.11,261,576.19,261.14Z" style="fill:#263238"></path><path d="M576.78,254.32a3.39,3.39,0,0,1,3-1.92,6.58,6.58,0,0,1,3.56,1c4.6,2.66,7,9.08,11.51,11.83,1.12.68,2.57.06,3.52,1a3.26,3.26,0,0,1,1,3.52,10.93,10.93,0,0,0,1.58-2.67,3.63,3.63,0,0,0-.13-3c-.39-.68-1.09-1.2-1.28-2a11.11,11.11,0,0,1,.07-2.07,4.51,4.51,0,0,0-.71-2,20,20,0,0,0-7.38-7.76,13,13,0,0,0-6.77-1.75,9.94,9.94,0,0,0-6.45,2.56c-1,.94-2.09,1.92-1.56,3.21" style="fill:#263238"></path><path d="M598.26,267.17c.08-.22,4.11-1.67,4.16,2.61s-4.14,3.34-4.15,3.22S598.26,267.17,598.26,267.17Z" style="fill:#ffbe9d"></path><path d="M599.54,271.41s.07,0,.19.11a.71.71,0,0,0,.54,0,1.77,1.77,0,0,0,.82-1.61,2.48,2.48,0,0,0-.21-1,.85.85,0,0,0-.55-.55.38.38,0,0,0-.43.2c0,.12,0,.2,0,.21s-.09-.07-.06-.24a.53.53,0,0,1,.16-.26.5.5,0,0,1,.4-.11,1,1,0,0,1,.77.64,2.38,2.38,0,0,1,.26,1.15,1.89,1.89,0,0,1-1,1.81.75.75,0,0,1-.66-.11C599.55,271.51,599.52,271.42,599.54,271.41Z" style="fill:#eb996e"></path><path d="M599.91,265l-.25-.14c-.16-.11-.4-.24-.69-.45a13.83,13.83,0,0,1-2.25-2,40.29,40.29,0,0,1-2.75-3.57,32.09,32.09,0,0,0-3.43-4.27,12.87,12.87,0,0,0-2.21-1.75,10.68,10.68,0,0,0-2.4-1.09,11.87,11.87,0,0,0-4.4-.54,11.29,11.29,0,0,0-2.95.58c-.34.1-.6.22-.77.28a1.27,1.27,0,0,1-.28.1,1.63,1.63,0,0,1,.26-.13,5.78,5.78,0,0,1,.76-.32,10.56,10.56,0,0,1,3-.64,11.74,11.74,0,0,1,4.47.5,10.93,10.93,0,0,1,2.43,1.1,12.94,12.94,0,0,1,2.26,1.77,32.28,32.28,0,0,1,3.44,4.31,44.76,44.76,0,0,0,2.7,3.58,14.9,14.9,0,0,0,2.19,2.07c.28.22.52.36.67.47S599.92,265,599.91,265Z" style="fill:#455a64"></path><path d="M600,272.15a.82.82,0,1,1-.19.06" style="fill:#fff"></path><path d="M599.82,272.21a1,1,0,0,0-.38.56.7.7,0,0,0,.16.65.79.79,0,0,0,.78.22.77.77,0,0,0,.5-.63.7.7,0,0,0-.24-.62,1.1,1.1,0,0,0-.63-.24s.06,0,.19,0a.9.9,0,0,1,.52.18.84.84,0,0,1,.34.75.9.9,0,0,1-1.59.51.87.87,0,0,1,.16-1.26C599.74,272.21,599.81,272.2,599.82,272.21Z" style="fill:#263238"></path><path d="M598.87,266.21a6.42,6.42,0,0,1-.41,3.35,2.21,2.21,0,0,1-2.84,1.13,3.16,3.16,0,0,1-1.18-2.41c-.39-2.65-.57-5.33-1-8Z" style="fill:#263238"></path><path d="M577.8,252.34s.37-.07,1-.09a7.12,7.12,0,0,1,2.75.5,9.5,9.5,0,0,1,1.73.89,20,20,0,0,1,1.77,1.36,21.44,21.44,0,0,1,3.49,3.75c.53.75,1,1.51,1.5,2.21a10.48,10.48,0,0,0,1.67,1.88,18.34,18.34,0,0,0,3.51,2.35c1.07.56,2,1,2.57,1.23l.71.3a.76.76,0,0,0,.26.09l-.24-.13-.69-.34c-.6-.3-1.48-.72-2.53-1.29a19.44,19.44,0,0,1-3.45-2.37,10.43,10.43,0,0,1-1.62-1.85c-.5-.7-1-1.46-1.5-2.21a20.88,20.88,0,0,0-3.54-3.79,17.31,17.31,0,0,0-1.81-1.35,8.82,8.82,0,0,0-1.77-.88,6.85,6.85,0,0,0-2.82-.44,4.83,4.83,0,0,0-.77.11Z" style="fill:#455a64"></path><path d="M599,263.64a2,2,0,0,0,.37.25l1,.62.36.2a1,1,0,0,0,.45.15.45.45,0,0,0,.29-.06.37.37,0,0,0,.15-.28.87.87,0,0,0-.2-.52l-1.22-2-.16.15a4.38,4.38,0,0,0,1.33.67,4.28,4.28,0,0,0,1.49.17,1.26,1.26,0,0,0,.38-.06.51.51,0,0,0,.32-.28.44.44,0,0,0-.07-.42,1.51,1.51,0,0,0-.23-.26,8.6,8.6,0,0,1-1.42-1.79,14,14,0,0,1-.9-1.91,2.36,2.36,0,0,0,.13.56,7.36,7.36,0,0,0,.63,1.43,8.15,8.15,0,0,0,1.41,1.86c.15.15.3.32.24.45s-.28.19-.5.2a4.29,4.29,0,0,1-1.41-.17,4.19,4.19,0,0,1-1.27-.63l-.49-.36.33.51c.44.7.86,1.35,1.25,1.94a.82.82,0,0,1,.17.41c0,.12-.1.19-.24.18a2.2,2.2,0,0,1-.74-.31l-1.09-.56A1.87,1.87,0,0,0,599,263.64Z" style="fill:#455a64"></path><path d="M586.68,274.73c-.14-.63-.65-1.35-1.3-1.29a4.82,4.82,0,0,0-2.23,1.24l1.06,1.63c.43.48,1.07.3,1.66,0A1.47,1.47,0,0,0,586.68,274.73Z" style="fill:#eb996e"></path><path d="M593.24,247.71h-9.42s-.76,3.61,1.16,5.59,5.64.79,6.85-.85A9.13,9.13,0,0,0,593.24,247.71Z" style="fill:#455a64"></path><path d="M580.94,247.71h-9.43s-.75,3.61,1.16,5.59,5.64.79,6.86-.85A9.13,9.13,0,0,0,580.94,247.71Z" style="fill:#455a64"></path><path d="M583.82,247.71h-3.05l-.14.88a3.89,3.89,0,0,1,3.41.11Z" style="fill:#455a64"></path><path d="M592.18,248.44h-7.34s-.59,2.82.91,4.35,4.39.62,5.34-.66A7.13,7.13,0,0,0,592.18,248.44Z" style="fill:#263238"></path><path d="M579.7,248.44h-7.34s-.59,2.82.9,4.35,4.39.62,5.34-.66A7.08,7.08,0,0,0,579.7,248.44Z" style="fill:#263238"></path><path d="M585.19,249.18c-.05,0-.12.28-.11.76a4,4,0,0,0,.47,1.81,2.89,2.89,0,0,0,1.38,1.29c.46.19.77.15.77.1s-.26-.14-.63-.37a3.27,3.27,0,0,1-1.14-1.23A17.48,17.48,0,0,1,585.19,249.18Z" style="fill:#fff"></path><path d="M572.46,248.33c-.05,0-.17.31-.19.85a4.54,4.54,0,0,0,.46,2,4.44,4.44,0,0,0,1.33,1.63c.44.32.76.42.78.37a9.49,9.49,0,0,1-1.73-2.19A9.86,9.86,0,0,1,572.46,248.33Z" style="fill:#fff"></path><path d="M593.18,248c0,.14,4.34,8.88,4.34,8.88l-1.07.42-4.27-5.8Z" style="fill:#455a64"></path><path d="M585.05,276.82c0-.08.39-.18.79-.63a1.76,1.76,0,0,0,.42-.9,1.79,1.79,0,0,0-.27-1.15,1.23,1.23,0,0,0-.41-.41.36.36,0,0,0-.4,0,9.11,9.11,0,0,1-1,.52c-.6.26-.95.43-1,.38s.26-.36.82-.7c.27-.18.61-.37.95-.6a.89.89,0,0,1,.39-.18.86.86,0,0,1,.48.07,1.61,1.61,0,0,1,.63.58,2.07,2.07,0,0,1,.31,1.52,1.9,1.9,0,0,1-.64,1.09C585.53,276.92,585.05,276.87,585.05,276.82Z" style="fill:#263238"></path><path d="M591.07,285s-17.94,14.08-21,19.48-.8,12.74-.8,12.74l4.53,23.24,34-6.93,2.21-1.14-5.23-29-4.6-12.85Z" style="fill:#FFC100"></path><path d="M619,342.9c-2.16-.34-52.93-8.39-57.29-12-2-1.64-3-3.13-3-4.42a2,2,0,0,1,.65-1.51l.63.78a1,1,0,0,0-.28.77c0,.55.35,1.75,2.58,3.61,3.33,2.75,38.62,8.91,56.82,11.79Z" style="fill:#263238"></path><path d="M562.17,317.51l-.83-.56c.88-1.32,21.81-32.27,32.47-33.07,8.82-.64,13.14,8,14.06,11.43.64,2.36,2.7,9.87,2.7,9.87l-1,.26s-2.05-7.5-2.69-9.87c-.86-3.18-4.85-11.31-13-10.69C583.7,285.64,562.38,317.19,562.17,317.51Z" style="fill:#263238"></path><path d="M588,299.2l3.42,21.12L566.72,320l-3.17,8.79a120.38,120.38,0,0,0,29.3,6.16c15.72,1.12,14.65-7.16,15-13.32s-1.49-22.47-1.49-22.47Z" style="fill:#ffbe9d"></path><path d="M593.85,284.38s-9.2.43-9,11.41a34.93,34.93,0,0,0,1.55,10.07s1.5-3.33,6.66-2.83,16,5.82,16,5.82-2-10.15-2.83-14.65S601.67,284.88,593.85,284.38Z" style="fill:#FFC100"></path><path d="M563.55,316.53s3.17,1.76,3.17,3.51l1,3.13-3.78,5.67-11-2s-1.07-1.17-.58-2.05c0,0-1.13-2.14-.13-3l1.1-1.36s-.68-1.85.39-2.53,8.07-.67,8.07-.67Z" style="fill:#ffbe9d"></path><path d="M601.76,305.64a8,8,0,0,1-1.21-.44,31.79,31.79,0,0,0-3.34-1.1c-.72-.19-1.51-.39-2.37-.55a15,15,0,0,0-2.75-.34,6.8,6.8,0,0,0-2.92.62,6.21,6.21,0,0,0-2.46,2l-.47.68v-.82c0-.26,0-.54,0-.82-.08-4.79-.46-9.16-.07-12.32a12.4,12.4,0,0,1,.87-3.65,5.23,5.23,0,0,1,.47-.91c.13-.2.2-.3.22-.29s-.22.44-.5,1.27a14,14,0,0,0-.7,3.61c-.28,3.12.15,7.46.24,12.28v.84l-.48-.14a7,7,0,0,1,5.83-2.84,15.83,15.83,0,0,1,2.82.4c.87.19,1.67.4,2.39.62a24,24,0,0,1,3.31,1.26A5.82,5.82,0,0,1,601.76,305.64Z" style="fill:#263238"></path><path d="M595.85,325.56a16.93,16.93,0,0,0-1.73-3.13,16,16,0,0,0-2.71-2.31,5.9,5.9,0,0,1,4.44,5.44Z" style="fill:#eb996e"></path></g><g id="freepik--speech-bubble--inject-66"><path d="M610.45,265.2l1.76-4.72a16.13,16.13,0,1,1,3.86,4.29h0Z" style="fill:#fff"></path><path d="M610.45,265.2l.37,0,1.08-.1,4.17-.34,0,.08h0a0,0,0,0,1,0-.07s0,0,.06,0a16.14,16.14,0,0,0,7.27,3.13,16.52,16.52,0,0,0,2.48.19,17.34,17.34,0,0,0,2.64-.23,15.95,15.95,0,0,0,10.14-6.13,16,16,0,0,0-6.93-24.5,16.41,16.41,0,0,0-7.28-1,15.91,15.91,0,0,0-6.59,2.13,16.07,16.07,0,0,0-7.33,9.52c0,.22-.11.44-.17.66a5.18,5.18,0,0,0-.14.66c-.07.44-.13.87-.2,1.3a21,21,0,0,0-.06,2.49,16,16,0,0,0,2.32,7.53s0,0,0,0c-.58,1.52-1,2.69-1.33,3.49l-.35.91-.12.31.1-.3c.08-.21.18-.51.32-.9.3-.81.73-2,1.29-3.54v0a16,16,0,0,1-2.39-7.57,23.86,23.86,0,0,1,.05-2.52c.07-.43.13-.87.2-1.31a3.8,3.8,0,0,1,.14-.67c.05-.22.11-.44.17-.67a16.12,16.12,0,0,1,2.57-5.3,16.35,16.35,0,0,1,4.82-4.35A15.91,15.91,0,0,1,624.4,236a16.42,16.42,0,0,1,7.38,1,16.13,16.13,0,0,1,6.37,4.5,7.25,7.25,0,0,1,.61.76l.59.79.5.83a6.92,6.92,0,0,1,.47.84l.42.87a8.61,8.61,0,0,1,.34.89c.11.3.23.59.32.9s.16.61.23.92a15.81,15.81,0,0,1,.07,7.3,16.26,16.26,0,0,1-7.7,10.47,16,16,0,0,1-5.48,1.94,17.73,17.73,0,0,1-2.67.23,16.74,16.74,0,0,1-2.5-.21,16.18,16.18,0,0,1-7.31-3.2l.07-.07h0a0,0,0,0,1,0,.07h0l-4.21.28-1.07.07Z" style="fill:#263238"></path><path d="M631.65,248.78c-2.24-2.74-5.47.42-5.47.42s-3-3.4-5.51-.86c-2.16,2.23.12,5.14,1.64,6.47a40.81,40.81,0,0,0,3.47,2.44h0v0a37.42,37.42,0,0,0,3.66-2.15C631.11,253.89,633.61,251.18,631.65,248.78Z" style="fill:#FFC100"></path></g></svg>