<svg xmlns="http://www.w3.org/2000/svg" viewBox="0 0 500 500"><g id="freepik--background-complete--inject-74"><path d="M89,82.23c.43-3.13-4-5.7-7.3-6-1.58-.13-3.22.11-4.72-.41-3.25-1.13-4.54-5.32-7.71-6.66-2.37-1-5.1-.11-7.39,1S57.27,72.85,54.71,73c-2.23.14-4.66-.68-6.61.41-1.45.81-2.22,2.48-3.56,3.47a8.38,8.38,0,0,1-4.65,1.26,13.1,13.1,0,0,0-4.79.79c-1.48.68-2.71,2.24-2.4,3.84Z" style="fill:#ebebeb"></path><path d="M271.18,53.31c.54-3.92-5-7.14-9.14-7.48-2-.16-4,.14-5.92-.51-4.07-1.42-5.69-6.67-9.66-8.35-3-1.25-6.38-.13-9.26,1.31s-5.71,3.27-8.93,3.48c-2.79.18-5.83-.86-8.27.51-1.83,1-2.78,3.11-4.46,4.35a10.63,10.63,0,0,1-5.82,1.58,16.42,16.42,0,0,0-6,1c-1.86.85-3.39,2.82-3,4.82Z" style="fill:#f5f5f5"></path><path d="M352.2,79.08c.42-3.08-3.93-5.61-7.19-5.87-1.56-.13-3.18.11-4.65-.4-3.2-1.12-4.48-5.25-7.6-6.56-2.33-1-5-.11-7.27,1s-4.5,2.57-7,2.73c-2.19.14-4.58-.68-6.5.4-1.43.8-2.18,2.45-3.5,3.42a8.34,8.34,0,0,1-4.58,1.24,13.1,13.1,0,0,0-4.72.77,3.74,3.74,0,0,0-2.37,3.79Z" style="fill:#f5f5f5"></path><path d="M468.94,100.06c.47-3.41-4.34-6.21-8-6.5-1.72-.14-3.51.12-5.14-.45-3.54-1.23-4.95-5.8-8.41-7.26-2.58-1.08-5.55-.11-8.05,1.14s-5,2.85-7.77,3c-2.43.15-5.07-.75-7.2.44-1.58.88-2.41,2.71-3.88,3.79a9.21,9.21,0,0,1-5.06,1.37,14.36,14.36,0,0,0-5.23.86c-1.61.74-2.95,2.44-2.61,4.19Z" style="fill:#f5f5f5"></path><path d="M296.77,317.67l-86.42.91A5.16,5.16,0,0,0,205.1,323c-.48,4.33,5.34,5.45,9.5,5.34,15.93-.41,35.07-1.25,48.83,5a5.74,5.74,0,0,1,3.52,5.85c-.24,3.53-7.21,6.49-10.32,6.57L208,346.9a8.36,8.36,0,0,0-6.71,3.45c-3.24,4.68,1.08,9.09,5.46,9.84,3.46.58,7-.42,10.44-1a30.58,30.58,0,0,1,16.14,2.05,5,5,0,0,1-1.65,9.62l-26.47.7a6.27,6.27,0,0,0-5.7,5.06c-.78,4.79,4.79,6.65,9.13,7.15a362.79,362.79,0,0,0,69.43,1.3c3.23-.25,6.6-.59,9.1-2.91a5.63,5.63,0,0,0,1.92-4.14c-.05-4-4.4-5.65-8-5.49-4,.17-8,1.7-11.83-.26a4.82,4.82,0,0,1-2.76-4.94c.42-2.64,3-3.64,5.36-4.21,12.48-3.05,26.15-3.37,39-2.77,9,.41,20.31-.51,28.65-2.86,5.35-1.5,4.31-9.36-1.24-9.44l-50.25-.67a11.64,11.64,0,0,1-4.82-1.65c-5.73-3.66-3.1-9.41.9-11.57,2.73-1.48,5.94-1.69,9-1.86l63.72-3.55c4.56-.26,9.49-.64,12.57-4.46a6.11,6.11,0,0,0,.46-7.33c-1.62-2.28-4.45-2.44-7-2.51-12.34-.32-25,.22-37.48.24a1.63,1.63,0,0,1-.56-3.15L329,310a3.68,3.68,0,0,0-.63-7.21A322.11,322.11,0,0,0,284,302c-2,.1-4.27.33-5.23,2.46a4.45,4.45,0,0,0,3,6c3.72,1.17,8.76.47,12.87.2,5.27-.34,9.35-.12,9.21,3.38,0,2.72-2.33,3.08-7,3.61" style="fill:#ebebeb"></path><path d="M38.32,181.42s-6,34.38-3.55,86h5.94s-5-61-.35-85.74Z" style="fill:#f5f5f5"></path><path d="M38.08,232.88a4.26,4.26,0,0,1-1.67.17,4.12,4.12,0,0,1-1.64-.34c0-.05.74.14,1.65.18S38.07,232.83,38.08,232.88Z" style="fill:#ebebeb"></path><path d="M37.39,226.42a4.27,4.27,0,0,1-1.4.16,4.27,4.27,0,0,1-1.4-.16,13.56,13.56,0,0,1,1.4,0A13.64,13.64,0,0,1,37.39,226.42Z" style="fill:#ebebeb"></path><path d="M37.92,218.8a3.52,3.52,0,0,1-1.28.22,3.27,3.27,0,0,1-1.29-.17s.58,0,1.29,0S37.91,218.75,37.92,218.8Z" style="fill:#ebebeb"></path><path d="M37.28,211.85a3,3,0,0,1-1.2.08,2.89,2.89,0,0,1-1.18-.27,9.63,9.63,0,0,1,1.19.11A8.89,8.89,0,0,1,37.28,211.85Z" style="fill:#ebebeb"></path><path d="M37.65,204.52a1.45,1.45,0,0,1-.81,0,1.48,1.48,0,0,1-.77-.27,4.33,4.33,0,0,1,.79.11A3.59,3.59,0,0,1,37.65,204.52Z" style="fill:#ebebeb"></path><path d="M38,196.37a1.57,1.57,0,0,1-.79.08,1.63,1.63,0,0,1-.77-.17,2.62,2.62,0,0,1,.78,0A3.19,3.19,0,0,1,38,196.37Z" style="fill:#ebebeb"></path><path d="M39.33,188.25a1.64,1.64,0,0,1-.75-.06,1.65,1.65,0,0,1-.69-.27s.34,0,.73.12A2.16,2.16,0,0,1,39.33,188.25Z" style="fill:#ebebeb"></path><path d="M37.33,240a4.5,4.5,0,0,1-1.23.08,4.45,4.45,0,0,1-1.22-.08A5.31,5.31,0,0,1,36.1,240,5.37,5.37,0,0,1,37.33,240Z" style="fill:#ebebeb"></path><path d="M39.09,246a4.4,4.4,0,0,1-1.22.08,4.5,4.5,0,0,1-1.23-.08,5,5,0,0,1,1.23-.08A4.91,4.91,0,0,1,39.09,246Z" style="fill:#ebebeb"></path><path d="M57.67,156.37l-.28.09a85.56,85.56,0,0,0-8,4.49l-.76-.87-.16,2.9-3.26,4.47-1.1-3.4c-.46.63-.29,5.61-.29,5.61l-1.13,4.21-1.94-4.47c-1,2.55.93,7.67.93,7.67l-2,4.87c-1.47-2.65-3.25-11.17,1.73-18.66S57.67,156.37,57.67,156.37Z" style="fill:#ebebeb"></path><path d="M57.22,156.58h-.09l-.27,0c-.24,0-.59,0-1,.08a20.87,20.87,0,0,0-3.75.73,19.73,19.73,0,0,0-5.13,2.37,19,19,0,0,0-2.61,2.08,17.8,17.8,0,0,0-2.28,2.77,18,18,0,0,0-2.48,6.43,22.36,22.36,0,0,0-.36,3c-.06.95-.05,1.83,0,2.64.06,1.62.2,2.92.3,3.82.05.45.11.8.13,1l0,.27a.62.62,0,0,1,0,.09s0,0,0-.09l-.05-.27c0-.23-.1-.58-.16-1-.12-.9-.28-2.2-.35-3.82,0-.81,0-1.7,0-2.66a22.66,22.66,0,0,1,.34-3,18.14,18.14,0,0,1,2.5-6.49,18.57,18.57,0,0,1,2.3-2.79,19.34,19.34,0,0,1,2.64-2.09,19.48,19.48,0,0,1,9-3c.45,0,.8,0,1,0h.36Z" style="fill:#e0e0e0"></path><path d="M38.39,182l-.21-.29s5.15-10.57,14.65-11.42A19.35,19.35,0,0,1,68.71,176c1.17,1.11,4.25,5.16,4.25,5.16l-6.32-1.77s-4.25-5.28-6.54-5.61c0,0,5.81,6,6.71,10.18,0,0-4.31-1.89-5.14-1.89,0,0-2.19-3.94-4.92-5l2.46,4-5.71-1.7-2-2.06L51.15,179S46.05,177.62,38.39,182Z" style="fill:#ebebeb"></path><path d="M38.39,182l.23,0a60.92,60.92,0,0,1,7.45.36l.22-1.06,1.18,2.38,4,2.38L51,182.64c.56.32,2.25,4.6,2.25,4.6l2.36,3.06-.23-4.6c1.63,1.75,2.13,6.87,2.13,6.87l3.3,3.81c.09-2.86-1.81-11.36-8.15-15.55S38.39,182,38.39,182Z" style="fill:#ebebeb"></path><path d="M38.42,181.92c-1-2-5-6-5-6l1.15-1-2.6.15-4.71-2.8,2.15-1.56c-.67-.4-4.65.51-4.65.51l-3.88-1,2.84-1.61c-2.65-.68-6.13.95-6.13.95L12,168.28c2.47-1.74,11.28-6.08,19.26-1.92s8.14,15.44,8.14,15.44" style="fill:#ebebeb"></path><path d="M38.93,181.71c-.07,0-.42.25-.51.21-1.86-.66-6.72.27-6.72.27V181l-1.83,2.16L25,184.65l1.27-3.32c-.68.2-3.53,4.18-3.53,4.18l-3.64,3.36,1.35-4.68c-.91,1.13-3.59,5.76-3.59,5.76l-4.48,3.1c.58-3,4-13.05,11.81-15.78S38.93,181.71,38.93,181.71Z" style="fill:#ebebeb"></path><path d="M58.78,172.9l-.23-.07a4.06,4.06,0,0,0-.65-.16,7.37,7.37,0,0,0-1.06-.09c-.41,0-.89,0-1.41,0a22.32,22.32,0,0,0-11.84,4.28l-.43.3-.4.32c-.26.22-.52.41-.76.62-.46.43-.92.81-1.29,1.21l-.54.55-.46.52a10.62,10.62,0,0,0-.72.85l-.44.55-.16.18a.94.94,0,0,1,.14-.2l.42-.57c.18-.25.42-.54.7-.87l.46-.53.54-.56c.36-.4.82-.79,1.28-1.22.24-.22.5-.42.76-.63l.4-.33.43-.31a22.46,22.46,0,0,1,4-2.33,21.2,21.2,0,0,1,8-1.93c.52,0,1,0,1.41,0a7.08,7.08,0,0,1,1.07.12,3.7,3.7,0,0,1,.65.18l.17.07Z" style="fill:#e0e0e0"></path><path d="M55.5,170a.77.77,0,0,1-.22,0h-.62a14.46,14.46,0,0,0-2.27.23,17.35,17.35,0,0,0-7,2.94A24,24,0,0,0,40,178.76c-.59.82-1,1.52-1.33,2l-.34.56-.12.19a1.1,1.1,0,0,1,.1-.21c.07-.13.17-.33.32-.58.28-.49.71-1.2,1.29-2a23,23,0,0,1,5.48-5.58,16.92,16.92,0,0,1,7-2.93,13.64,13.64,0,0,1,2.29-.18l.62,0Z" style="fill:#e0e0e0"></path><path d="M50.4,179.47a3,3,0,0,1-.49,0c-.31,0-.76-.06-1.32-.08s-1.23,0-2,0l-.57,0a4,4,0,0,0-.58.07c-.39.07-.8.17-1.22.26a7.45,7.45,0,0,0-1.19.34c-.38.13-.75.26-1.09.4-.69.26-1.31.52-1.83.74l-1.21.55a2.61,2.61,0,0,1-.45.19l.11-.07.32-.18c.28-.14.68-.35,1.19-.58s1.13-.51,1.82-.78c.34-.14.71-.27,1.09-.41a6.75,6.75,0,0,1,1.21-.34c.42-.09.82-.2,1.22-.27a4.2,4.2,0,0,1,.6-.06l.57,0c.75,0,1.42,0,2,0s1,.09,1.33.13l.35.06Z" style="fill:#e0e0e0"></path><path d="M38.8,179.85a.82.82,0,0,1-.08-.18l-.19-.53-.13-.39c0-.14-.12-.28-.18-.44-.14-.33-.27-.7-.47-1.09l-.29-.62c-.1-.21-.23-.43-.35-.65-.23-.46-.53-.92-.83-1.42a24.86,24.86,0,0,0-2.28-3A24.65,24.65,0,0,0,31.24,169c-.46-.34-.89-.68-1.33-.95-.22-.14-.42-.29-.62-.41l-.59-.35c-.37-.23-.73-.4-1-.56l-.43-.22-.37-.17-.51-.23-.18-.1.19.07.52.21.38.15.44.21c.31.16.68.32,1.05.55l.6.34c.21.12.41.26.63.4.44.27.88.6,1.35,1a23.07,23.07,0,0,1,2.78,2.55,24.18,24.18,0,0,1,2.29,3c.3.5.6,1,.83,1.43.12.23.24.45.34.67l.28.63c.2.39.32.77.45,1.09l.17.46q.06.21.12.39l.16.54A1.22,1.22,0,0,1,38.8,179.85Z" style="fill:#e0e0e0"></path><path d="M33.29,167.86a2.32,2.32,0,0,1,.39.34c.12.12.27.26.43.44s.35.36.54.6a15.55,15.55,0,0,1,1.27,1.68,18.79,18.79,0,0,1,1.25,2.25,19.73,19.73,0,0,1,.91,2.41,16.87,16.87,0,0,1,.46,2.06c.06.29.08.56.11.8a5,5,0,0,1,.05.61,4,4,0,0,1,0,.52,2.37,2.37,0,0,1-.08-.52c0-.16,0-.37-.08-.6s-.07-.5-.13-.79a18.31,18.31,0,0,0-.49-2,20.58,20.58,0,0,0-.91-2.39A20.12,20.12,0,0,0,35.8,171a18.77,18.77,0,0,0-1.23-1.69c-.19-.24-.37-.44-.52-.61s-.3-.33-.41-.45Z" style="fill:#e0e0e0"></path><path d="M19.1,183.23s0-.06.13-.16.21-.26.39-.45a13.59,13.59,0,0,1,1.65-1.46,13.76,13.76,0,0,1,6.7-2.65,13.9,13.9,0,0,1,7.11,1.17A12.28,12.28,0,0,1,37,180.76c.22.14.38.27.49.35l.16.13-.18-.1c-.12-.08-.28-.2-.5-.33a14.94,14.94,0,0,0-1.93-1,14.51,14.51,0,0,0-3.09-.95,14.22,14.22,0,0,0-4-.16,14.12,14.12,0,0,0-6.65,2.58,14.67,14.67,0,0,0-1.67,1.41c-.19.18-.32.33-.42.43S19.1,183.24,19.1,183.23Z" style="fill:#e0e0e0"></path><path d="M254.38,204.61s4.36,25.11,2.59,62.79h-4.34s3.67-44.52.26-62.61Z" style="fill:#f5f5f5"></path><path d="M254.55,242.19a3,3,0,0,0,1.22.13,3.2,3.2,0,0,0,1.2-.25s-.54.1-1.2.13S254.56,242.16,254.55,242.19Z" style="fill:#ebebeb"></path><path d="M255.06,237.47a4.4,4.4,0,0,0,2,0s-.46,0-1,0S255.06,237.44,255.06,237.47Z" style="fill:#ebebeb"></path><path d="M254.67,231.91a2.28,2.28,0,0,0,.93.16,2.31,2.31,0,0,0,.94-.12s-.42,0-.93,0A8.71,8.71,0,0,0,254.67,231.91Z" style="fill:#ebebeb"></path><path d="M255.13,226.83a2.11,2.11,0,0,0,.88.06,2.44,2.44,0,0,0,.86-.19,5.8,5.8,0,0,0-.87.08C255.53,226.82,255.14,226.8,255.13,226.83Z" style="fill:#ebebeb"></path><path d="M254.86,221.48a1.12,1.12,0,0,0,.6,0,1,1,0,0,0,.56-.19,2.59,2.59,0,0,0-.58.08A3.5,3.5,0,0,0,254.86,221.48Z" style="fill:#ebebeb"></path><path d="M254.61,215.53a1.85,1.85,0,0,0,1.14-.06s-.26,0-.57,0A2.18,2.18,0,0,0,254.61,215.53Z" style="fill:#ebebeb"></path><path d="M253.64,209.6a1.06,1.06,0,0,0,.54,0,1.11,1.11,0,0,0,.51-.2s-.25,0-.53.09A1.61,1.61,0,0,0,253.64,209.6Z" style="fill:#ebebeb"></path><path d="M255.1,247.42a3.53,3.53,0,0,0,.89.06,3.58,3.58,0,0,0,.9-.06,3.58,3.58,0,0,0-.9-.06A3.53,3.53,0,0,0,255.1,247.42Z" style="fill:#ebebeb"></path><path d="M253.81,251.75a3.91,3.91,0,0,0,.9.05,3.85,3.85,0,0,0,.89-.05,3.53,3.53,0,0,0-.89-.06A3.58,3.58,0,0,0,253.81,251.75Z" style="fill:#ebebeb"></path><path d="M240.24,186.32l.21.07a62.41,62.41,0,0,1,5.87,3.28l.55-.64.12,2.12,2.37,3.26.81-2.48c.34.46.21,4.09.21,4.09l.83,3.08,1.42-3.27c.7,1.87-.69,5.61-.69,5.61l1.47,3.55c1.07-1.93,2.37-8.16-1.27-13.63S240.24,186.32,240.24,186.32Z" style="fill:#ebebeb"></path><path d="M240.57,186.47h.07l.2,0,.76.05a15.66,15.66,0,0,1,2.73.54,13.73,13.73,0,0,1,5.66,3.25,12.09,12.09,0,0,1,3.48,6.72,17.81,17.81,0,0,1,.26,2.19c0,.7,0,1.34,0,1.93-.05,1.18-.14,2.14-.22,2.79,0,.33-.08.58-.1.76l0,.19V205a.28.28,0,0,1,0-.06l0-.2c0-.17.07-.42.11-.75.09-.66.21-1.61.26-2.79,0-.6,0-1.25,0-1.94a16.26,16.26,0,0,0-.25-2.21,12,12,0,0,0-3.5-6.78,13.48,13.48,0,0,0-1.93-1.53,14.08,14.08,0,0,0-6.54-2.22c-.33,0-.59,0-.76,0h-.27Z" style="fill:#e0e0e0"></path><path d="M254.33,205l.15-.21s-3.76-7.72-10.7-8.34a14.16,14.16,0,0,0-11.6,4.15c-.85.81-3.1,3.76-3.1,3.76l4.61-1.29s3.11-3.86,4.78-4.1c0,0-4.24,4.39-4.9,7.44a25.19,25.19,0,0,1,3.76-1.38s1.59-2.88,3.59-3.63l-1.8,2.91,4.17-1.24,1.47-1.5.24,1.22S248.74,201.84,254.33,205Z" style="fill:#ebebeb"></path><path d="M254.33,205l-.17,0a43.31,43.31,0,0,0-5.44.26l-.17-.77-.85,1.74-2.91,1.74.32-2.44c-.41.24-1.64,3.36-1.64,3.36l-1.73,2.24.17-3.36c-1.19,1.28-1.55,5-1.55,5L238,215.54c-.07-2.09,1.32-8.3,6-11.36S254.33,205,254.33,205Z" style="fill:#ebebeb"></path><path d="M254.31,205a28.94,28.94,0,0,1,3.65-4.39l-.84-.73,1.9.11,3.44-2.05-1.57-1.14c.49-.29,3.39.38,3.39.38l2.84-.76-2.07-1.18c1.93-.5,4.47.7,4.47.7l4.09-.91c-1.8-1.26-8.24-4.43-14.06-1.39s-6,11.27-6,11.27" style="fill:#ebebeb"></path><path d="M253.93,204.82s.31.18.38.16c1.36-.49,4.9.19,4.9.19v-.84l1.34,1.58,3.56,1.06-.93-2.42c.5.14,2.58,3,2.58,3l2.66,2.46-1-3.42c.66.82,2.62,4.2,2.62,4.2l3.27,2.26c-.43-2.16-2.89-9.52-8.63-11.52S253.93,204.82,253.93,204.82Z" style="fill:#ebebeb"></path><path d="M239.44,198.39s.05,0,.16,0a3.54,3.54,0,0,1,.48-.11,5.21,5.21,0,0,1,.77-.07c.3,0,.65,0,1,0a16.06,16.06,0,0,1,5.77,1.44,16.52,16.52,0,0,1,2.88,1.68l.31.23.29.23.56.45c.34.32.67.59.94.88l.4.41.33.37c.21.24.39.44.53.62l.32.41.12.13-.1-.15-.31-.41a7.37,7.37,0,0,0-.52-.64l-.33-.38-.39-.41c-.27-.3-.6-.58-.94-.9l-.56-.46-.29-.23-.31-.23a16.06,16.06,0,0,0-2.89-1.7,15.36,15.36,0,0,0-5.81-1.41c-.38,0-.73,0-1,0a5.22,5.22,0,0,0-.78.08,4.43,4.43,0,0,0-.48.14l-.11.05Z" style="fill:#e0e0e0"></path><path d="M241.83,196.31h.62a9.94,9.94,0,0,1,1.65.16,12.63,12.63,0,0,1,5.07,2.15,17.18,17.18,0,0,1,4,4c.43.6.76,1.11,1,1.46l.25.42.09.14a.84.84,0,0,0-.07-.16c-.06-.09-.13-.24-.24-.42-.2-.36-.52-.88-.94-1.49a17.06,17.06,0,0,0-4-4.08,12.36,12.36,0,0,0-5.12-2.13,10.86,10.86,0,0,0-1.66-.14l-.46,0Z" style="fill:#e0e0e0"></path><path d="M245.56,203.19l.35,0c.23,0,.56,0,1-.06a14.09,14.09,0,0,1,1.43,0l.42,0a3,3,0,0,1,.42,0c.29.05.59.13.9.19a6.22,6.22,0,0,1,.87.25l.79.29c.51.2,1,.38,1.33.55l.89.39a1.44,1.44,0,0,0,.33.14l-.08,0-.23-.13-.87-.42c-.38-.18-.83-.37-1.33-.57l-.8-.3a5,5,0,0,0-.88-.25c-.31-.07-.6-.14-.9-.19a3.15,3.15,0,0,0-.43,0l-.42,0a13.77,13.77,0,0,0-1.44,0,8.12,8.12,0,0,0-1,.1l-.26,0Z" style="fill:#e0e0e0"></path><path d="M254,203.47l.05-.14c0-.1.09-.22.14-.38l.1-.28.13-.33c.1-.24.2-.51.34-.79l.21-.46.26-.47c.17-.34.39-.68.61-1a17.93,17.93,0,0,1,1.66-2.17,19,19,0,0,1,2-1.86c.33-.25.65-.5,1-.7l.45-.29.43-.26c.27-.16.54-.29.76-.41l.32-.16.27-.12.37-.17.13-.07-.14,0-.38.15-.28.11-.32.16c-.23.11-.49.23-.77.39l-.43.25c-.16.09-.31.19-.46.29-.33.2-.65.45-1,.7a16.39,16.39,0,0,0-2,1.86,16.6,16.6,0,0,0-1.67,2.2c-.22.36-.44.7-.61,1-.08.17-.17.33-.25.49l-.2.45c-.14.29-.24.57-.33.81s-.09.22-.12.33l-.09.28-.12.4C254,203.42,254,203.47,254,203.47Z" style="fill:#e0e0e0"></path><path d="M258.05,194.71a1.49,1.49,0,0,0-.29.25c-.09.08-.19.19-.31.32a4.48,4.48,0,0,0-.39.44,11.65,11.65,0,0,0-.93,1.22,14.05,14.05,0,0,0-.91,1.65,14.51,14.51,0,0,0-.67,1.76,13.3,13.3,0,0,0-.34,1.5c0,.22-.05.41-.07.59a2.55,2.55,0,0,0,0,.44,1.58,1.58,0,0,0,0,.38,2.91,2.91,0,0,0,0-.38c0-.12,0-.27.06-.44s.05-.36.09-.58a13.84,13.84,0,0,1,.37-1.48,13.56,13.56,0,0,1,.66-1.74,14.72,14.72,0,0,1,.9-1.64,12,12,0,0,1,.9-1.23c.13-.17.27-.32.38-.45l.3-.33Z" style="fill:#e0e0e0"></path><path d="M268.41,205.94s0-.05-.09-.12l-.29-.33a9.48,9.48,0,0,0-1.2-1.07,10,10,0,0,0-4.89-1.93,10,10,0,0,0-6.6,1.64c-.15.1-.27.2-.35.26l-.12.09s0,0,.14-.07a3.15,3.15,0,0,1,.36-.24,9.51,9.51,0,0,1,1.41-.75,10.24,10.24,0,0,1,2.26-.7,10,10,0,0,1,5.68.61,10.57,10.57,0,0,1,2.06,1.16,11.16,11.16,0,0,1,1.22,1c.14.13.23.24.3.31Z" style="fill:#e0e0e0"></path><rect x="68.37" y="205.94" width="28.77" height="61.86" style="fill:#ebebeb"></rect><path d="M90.23,267.17V205.94h6.91V267.8H90.23Z" style="fill:#e0e0e0"></path><path d="M83.8,210.6a55.73,55.73,0,0,1-7.55.26,55.82,55.82,0,0,1-7.56-.26,53.93,53.93,0,0,1,7.56-.26A53.84,53.84,0,0,1,83.8,210.6Z" style="fill:#fff"></path><path d="M76.67,214.78a16.34,16.34,0,0,1-4.07.26,16.34,16.34,0,0,1-4.07-.26,15.79,15.79,0,0,1,4.07-.26A15.79,15.79,0,0,1,76.67,214.78Z" style="fill:#fff"></path><path d="M87.92,214.78a16.34,16.34,0,0,1-4.07.26,16.34,16.34,0,0,1-4.07-.26,15.79,15.79,0,0,1,4.07-.26A15.79,15.79,0,0,1,87.92,214.78Z" style="fill:#fff"></path><path d="M88.3,210.48c0,.15-.65.26-1.45.26s-1.44-.11-1.44-.26.64-.26,1.44-.26S88.3,210.34,88.3,210.48Z" style="fill:#fff"></path><path d="M83.8,218.81a55.73,55.73,0,0,1-7.55.26,55.82,55.82,0,0,1-7.56-.26,53.93,53.93,0,0,1,7.56-.26A53.84,53.84,0,0,1,83.8,218.81Z" style="fill:#fff"></path><path d="M76.67,223a15.79,15.79,0,0,1-4.07.26,15.79,15.79,0,0,1-4.07-.26,16.34,16.34,0,0,1,4.07-.26A16.34,16.34,0,0,1,76.67,223Z" style="fill:#fff"></path><path d="M87.92,223a15.79,15.79,0,0,1-4.07.26,15.79,15.79,0,0,1-4.07-.26,16.34,16.34,0,0,1,4.07-.26A16.34,16.34,0,0,1,87.92,223Z" style="fill:#fff"></path><path d="M88.3,218.69c0,.14-.65.26-1.45.26s-1.44-.12-1.44-.26.64-.26,1.44-.26S88.3,218.55,88.3,218.69Z" style="fill:#fff"></path><path d="M83.8,227a53.84,53.84,0,0,1-7.55.26,53.93,53.93,0,0,1-7.56-.26,55.82,55.82,0,0,1,7.56-.26A55.73,55.73,0,0,1,83.8,227Z" style="fill:#fff"></path><path d="M76.67,231.19a15.79,15.79,0,0,1-4.07.26,15.79,15.79,0,0,1-4.07-.26,16.34,16.34,0,0,1,4.07-.26A16.34,16.34,0,0,1,76.67,231.19Z" style="fill:#fff"></path><path d="M87.92,231.19a15.79,15.79,0,0,1-4.07.26,15.79,15.79,0,0,1-4.07-.26,16.34,16.34,0,0,1,4.07-.26A16.34,16.34,0,0,1,87.92,231.19Z" style="fill:#fff"></path><path d="M88.3,226.9c0,.14-.65.26-1.45.26s-1.44-.12-1.44-.26.64-.26,1.44-.26S88.3,226.75,88.3,226.9Z" style="fill:#fff"></path><path d="M83.8,235.22a53.84,53.84,0,0,1-7.55.26,53.93,53.93,0,0,1-7.56-.26,55.82,55.82,0,0,1,7.56-.26A55.73,55.73,0,0,1,83.8,235.22Z" style="fill:#fff"></path><path d="M76.67,239.4a15.79,15.79,0,0,1-4.07.26,15.79,15.79,0,0,1-4.07-.26,16.34,16.34,0,0,1,4.07-.26A16.34,16.34,0,0,1,76.67,239.4Z" style="fill:#fff"></path><path d="M87.92,239.4a15.79,15.79,0,0,1-4.07.26,15.79,15.79,0,0,1-4.07-.26,16.34,16.34,0,0,1,4.07-.26A16.34,16.34,0,0,1,87.92,239.4Z" style="fill:#fff"></path><path d="M88.3,235.11c0,.14-.65.26-1.45.26s-1.44-.12-1.44-.26.64-.26,1.44-.26S88.3,235,88.3,235.11Z" style="fill:#fff"></path><path d="M83.8,243.43a53.84,53.84,0,0,1-7.55.26,53.93,53.93,0,0,1-7.56-.26,55.82,55.82,0,0,1,7.56-.26A55.73,55.73,0,0,1,83.8,243.43Z" style="fill:#fff"></path><path d="M76.67,247.61a16.34,16.34,0,0,1-4.07.26,16.34,16.34,0,0,1-4.07-.26,16.34,16.34,0,0,1,4.07-.26A16.34,16.34,0,0,1,76.67,247.61Z" style="fill:#fff"></path><path d="M87.92,247.61a16.34,16.34,0,0,1-4.07.26,16.34,16.34,0,0,1-4.07-.26,16.34,16.34,0,0,1,4.07-.26A16.34,16.34,0,0,1,87.92,247.61Z" style="fill:#fff"></path><path d="M88.3,243.32c0,.14-.65.26-1.45.26s-1.44-.12-1.44-.26.64-.26,1.44-.26S88.3,243.17,88.3,243.32Z" style="fill:#fff"></path><path d="M83.8,251.64a55.73,55.73,0,0,1-7.55.26,55.82,55.82,0,0,1-7.56-.26,55.82,55.82,0,0,1,7.56-.26A55.73,55.73,0,0,1,83.8,251.64Z" style="fill:#fff"></path><path d="M76.67,255.82a16.34,16.34,0,0,1-4.07.26,16.34,16.34,0,0,1-4.07-.26,16.34,16.34,0,0,1,4.07-.26A16.34,16.34,0,0,1,76.67,255.82Z" style="fill:#fff"></path><path d="M87.92,255.82a16.34,16.34,0,0,1-4.07.26,16.34,16.34,0,0,1-4.07-.26,16.34,16.34,0,0,1,4.07-.26A16.34,16.34,0,0,1,87.92,255.82Z" style="fill:#fff"></path><path d="M88.3,251.52c0,.15-.65.26-1.45.26s-1.44-.11-1.44-.26.64-.26,1.44-.26S88.3,251.38,88.3,251.52Z" style="fill:#fff"></path><path d="M83.8,259.85a55.73,55.73,0,0,1-7.55.26,55.82,55.82,0,0,1-7.56-.26,53.93,53.93,0,0,1,7.56-.26A53.84,53.84,0,0,1,83.8,259.85Z" style="fill:#fff"></path><path d="M76.67,264a16.34,16.34,0,0,1-4.07.26,16.34,16.34,0,0,1-4.07-.26,15.79,15.79,0,0,1,4.07-.26A15.79,15.79,0,0,1,76.67,264Z" style="fill:#fff"></path><path d="M87.92,264a16.34,16.34,0,0,1-4.07.26,16.34,16.34,0,0,1-4.07-.26,15.79,15.79,0,0,1,4.07-.26A15.79,15.79,0,0,1,87.92,264Z" style="fill:#fff"></path><path d="M88.3,259.73c0,.15-.65.26-1.45.26s-1.44-.11-1.44-.26.64-.26,1.44-.26S88.3,259.59,88.3,259.73Z" style="fill:#fff"></path><rect x="71.68" y="202.31" width="22.98" height="3.63" style="fill:#ebebeb"></rect><path d="M97.14,205.94c0,.14-6.47.26-14.45.26s-14.44-.12-14.44-.26,6.47-.26,14.44-.26S97.14,205.79,97.14,205.94Z" style="fill:#e0e0e0"></path><path d="M90.44,267.93c-.14,0-.26-13.85-.26-30.92s.12-30.93.26-30.93.26,13.85.26,30.93S90.59,267.93,90.44,267.93Z" style="fill:#e0e0e0"></path><rect x="86.64" y="202.31" width="8.01" height="3.63" style="fill:#e0e0e0"></rect><rect x="351.33" y="116.37" width="47.99" height="151.56" style="fill:#ebebeb"></rect><path d="M387.79,266.39v-150h11.53V267.94H387.79Z" style="fill:#e0e0e0"></path><path d="M377.07,172.62c0,.14-5.64.26-12.6.26s-12.6-.12-12.6-.26,5.64-.26,12.6-.26S377.07,172.47,377.07,172.62Z" style="fill:#fff"></path><path d="M365.18,179.59a88.79,88.79,0,0,1-13.58,0,88.79,88.79,0,0,1,13.58,0Z" style="fill:#fff"></path><path d="M384,179.59a88.79,88.79,0,0,1-13.58,0,88.79,88.79,0,0,1,13.58,0Z" style="fill:#fff"></path><path d="M384.58,172.42a11.35,11.35,0,0,1-4.83,0,11.35,11.35,0,0,1,4.83,0Z" style="fill:#fff"></path><path d="M377.07,186.31c0,.15-5.64.26-12.6.26s-12.6-.11-12.6-.26,5.64-.26,12.6-.26S377.07,186.17,377.07,186.31Z" style="fill:#fff"></path><path d="M365.18,193.28a88.79,88.79,0,0,1-13.58,0,88.79,88.79,0,0,1,13.58,0Z" style="fill:#fff"></path><path d="M384,193.28a88.79,88.79,0,0,1-13.58,0,88.79,88.79,0,0,1,13.58,0Z" style="fill:#fff"></path><path d="M384.58,186.12a11.35,11.35,0,0,1-4.83,0,11.35,11.35,0,0,1,4.83,0Z" style="fill:#fff"></path><path d="M377.07,151.82c0,.14-5.64.26-12.6.26s-12.6-.12-12.6-.26,5.64-.26,12.6-.26S377.07,151.67,377.07,151.82Z" style="fill:#fff"></path><path d="M365.18,158.79a88.79,88.79,0,0,1-13.58,0,88.79,88.79,0,0,1,13.58,0Z" style="fill:#fff"></path><path d="M384,158.79a88.79,88.79,0,0,1-13.58,0,88.79,88.79,0,0,1,13.58,0Z" style="fill:#fff"></path><path d="M384.58,151.63a11.35,11.35,0,0,1-4.83,0,11.35,11.35,0,0,1,4.83,0Z" style="fill:#fff"></path><path d="M377.07,165.51c0,.15-5.64.26-12.6.26s-12.6-.11-12.6-.26,5.64-.26,12.6-.26S377.07,165.37,377.07,165.51Z" style="fill:#fff"></path><path d="M384.58,165.32a11.35,11.35,0,0,1-4.83,0,11.35,11.35,0,0,1,4.83,0Z" style="fill:#fff"></path><path d="M377.07,131c0,.14-5.64.26-12.6.26s-12.6-.12-12.6-.26,5.64-.26,12.6-.26S377.07,130.88,377.07,131Z" style="fill:#fff"></path><path d="M365.18,138a88.79,88.79,0,0,1-13.58,0,88.79,88.79,0,0,1,13.58,0Z" style="fill:#fff"></path><path d="M384,138a88.79,88.79,0,0,1-13.58,0A88.79,88.79,0,0,1,384,138Z" style="fill:#fff"></path><path d="M365.18,123.69a88.79,88.79,0,0,1-13.58,0,88.79,88.79,0,0,1,13.58,0Z" style="fill:#fff"></path><path d="M384,123.69a88.79,88.79,0,0,1-13.58,0,88.79,88.79,0,0,1,13.58,0Z" style="fill:#fff"></path><path d="M384.58,130.83a11.35,11.35,0,0,1-4.83,0,11.35,11.35,0,0,1,4.83,0Z" style="fill:#fff"></path><path d="M377.07,144.71c0,.15-5.64.26-12.6.26s-12.6-.11-12.6-.26,5.64-.26,12.6-.26S377.07,144.57,377.07,144.71Z" style="fill:#fff"></path><path d="M384.58,144.52a11.35,11.35,0,0,1-4.83,0,11.35,11.35,0,0,1,4.83,0Z" style="fill:#fff"></path><path d="M377.07,200c0,.14-5.64.26-12.6.26s-12.6-.12-12.6-.26,5.64-.26,12.6-.26S377.07,199.86,377.07,200Z" style="fill:#fff"></path><path d="M365.18,207a88.79,88.79,0,0,1-13.58,0,88.79,88.79,0,0,1,13.58,0Z" style="fill:#fff"></path><path d="M384,207a88.79,88.79,0,0,1-13.58,0A88.79,88.79,0,0,1,384,207Z" style="fill:#fff"></path><path d="M384.58,199.81a11.35,11.35,0,0,1-4.83,0,11.35,11.35,0,0,1,4.83,0Z" style="fill:#fff"></path><path d="M377.07,213.7c0,.14-5.64.26-12.6.26s-12.6-.12-12.6-.26,5.64-.26,12.6-.26S377.07,213.56,377.07,213.7Z" style="fill:#fff"></path><path d="M365.18,220.67a88.79,88.79,0,0,1-13.58,0,88.79,88.79,0,0,1,13.58,0Z" style="fill:#fff"></path><path d="M384,220.67a88.79,88.79,0,0,1-13.58,0,88.79,88.79,0,0,1,13.58,0Z" style="fill:#fff"></path><path d="M384.58,213.51a11.35,11.35,0,0,1-4.83,0,11.35,11.35,0,0,1,4.83,0Z" style="fill:#fff"></path><path d="M377.07,227.39c0,.15-5.64.27-12.6.27s-12.6-.12-12.6-.27,5.64-.26,12.6-.26S377.07,227.25,377.07,227.39Z" style="fill:#fff"></path><path d="M365.18,234.37a88.79,88.79,0,0,1-13.58,0,88.79,88.79,0,0,1,13.58,0Z" style="fill:#fff"></path><path d="M384,234.37a88.79,88.79,0,0,1-13.58,0,88.79,88.79,0,0,1,13.58,0Z" style="fill:#fff"></path><path d="M384.58,227.2a11.35,11.35,0,0,1-4.83,0,11.35,11.35,0,0,1,4.83,0Z" style="fill:#fff"></path><path d="M377.07,241.09c0,.14-5.64.26-12.6.26s-12.6-.12-12.6-.26,5.64-.26,12.6-.26S377.07,241,377.07,241.09Z" style="fill:#fff"></path><path d="M365.18,248.06a88.79,88.79,0,0,1-13.58,0,88.79,88.79,0,0,1,13.58,0Z" style="fill:#fff"></path><path d="M384,248.06a88.79,88.79,0,0,1-13.58,0,88.79,88.79,0,0,1,13.58,0Z" style="fill:#fff"></path><path d="M384.58,240.9a11.35,11.35,0,0,1-4.83,0,11.35,11.35,0,0,1,4.83,0Z" style="fill:#fff"></path><path d="M377.07,254.78c0,.15-5.64.26-12.6.26s-12.6-.11-12.6-.26,5.64-.26,12.6-.26S377.07,254.64,377.07,254.78Z" style="fill:#fff"></path><path d="M365.18,261.75a85.51,85.51,0,0,1-13.58,0,88.79,88.79,0,0,1,13.58,0Z" style="fill:#fff"></path><path d="M384,261.75a85.51,85.51,0,0,1-13.58,0,88.79,88.79,0,0,1,13.58,0Z" style="fill:#fff"></path><path d="M384.58,254.59a11.35,11.35,0,0,1-4.83,0,11.35,11.35,0,0,1,4.83,0Z" style="fill:#fff"></path><path d="M399.32,116.37c0,.15-10.79.26-24.09.26s-24.1-.11-24.1-.26,10.79-.26,24.1-.26S399.32,116.23,399.32,116.37Z" style="fill:#e0e0e0"></path><path d="M388.16,268.27c-.15,0-.27-33.93-.27-75.77s.12-75.77.27-75.77.26,33.92.26,75.77S388.3,268.27,388.16,268.27Z" style="fill:#e0e0e0"></path><rect x="139.96" y="129.59" width="42.07" height="138.18" style="fill:#ebebeb"></rect><polygon points="143.75 129.59 148.66 86.44 173.46 86.44 179.1 129.59 143.75 129.59" style="fill:#ebebeb"></polygon><polygon points="150.57 86.44 159.08 59.51 163.03 59.51 172.21 86.44 150.57 86.44" style="fill:#ebebeb"></polygon><rect x="159.98" y="15.6" width="1.44" height="43.9" style="fill:#ebebeb"></rect><path d="M182.31,140.33c0,.14-8.37.26-18.7.26s-18.7-.12-18.7-.26,8.37-.26,18.7-.26S182.31,140.18,182.31,140.33Z" style="fill:#fff"></path><path d="M182.31,149.33c0,.15-8.37.26-18.7.26s-18.7-.11-18.7-.26,8.37-.26,18.7-.26S182.31,149.19,182.31,149.33Z" style="fill:#fff"></path><path d="M182.31,158.34c0,.15-8.37.26-18.7.26s-18.7-.11-18.7-.26,8.37-.26,18.7-.26S182.31,158.2,182.31,158.34Z" style="fill:#fff"></path><path d="M182.31,167.35c0,.14-8.37.26-18.7.26s-18.7-.12-18.7-.26,8.37-.26,18.7-.26S182.31,167.21,182.31,167.35Z" style="fill:#fff"></path><path d="M182.31,176.36c0,.14-8.37.26-18.7.26s-18.7-.12-18.7-.26,8.37-.26,18.7-.26S182.31,176.21,182.31,176.36Z" style="fill:#fff"></path><path d="M182.31,185.36c0,.15-8.37.26-18.7.26s-18.7-.11-18.7-.26,8.37-.26,18.7-.26S182.31,185.22,182.31,185.36Z" style="fill:#fff"></path><path d="M182.31,194.37c0,.15-8.37.26-18.7.26s-18.7-.11-18.7-.26,8.37-.26,18.7-.26S182.31,194.23,182.31,194.37Z" style="fill:#fff"></path><path d="M182.31,203.38c0,.14-8.37.26-18.7.26s-18.7-.12-18.7-.26,8.37-.26,18.7-.26S182.31,203.23,182.31,203.38Z" style="fill:#fff"></path><path d="M182.31,212.39c0,.14-8.37.26-18.7.26s-18.7-.12-18.7-.26,8.37-.26,18.7-.26S182.31,212.24,182.31,212.39Z" style="fill:#fff"></path><path d="M182.31,221.39c0,.15-8.37.26-18.7.26s-18.7-.11-18.7-.26,8.37-.26,18.7-.26S182.31,221.25,182.31,221.39Z" style="fill:#fff"></path><path d="M182.31,230.4c0,.14-8.37.26-18.7.26s-18.7-.12-18.7-.26,8.37-.26,18.7-.26S182.31,230.26,182.31,230.4Z" style="fill:#fff"></path><path d="M182.31,239.41c0,.14-8.37.26-18.7.26s-18.7-.12-18.7-.26,8.37-.26,18.7-.26S182.31,239.26,182.31,239.41Z" style="fill:#fff"></path><path d="M182.31,248.42c0,.14-8.37.26-18.7.26s-18.7-.12-18.7-.26,8.37-.27,18.7-.27S182.31,248.27,182.31,248.42Z" style="fill:#fff"></path><path d="M182.31,257.42c0,.15-8.37.26-18.7.26s-18.7-.11-18.7-.26,8.37-.26,18.7-.26S182.31,257.28,182.31,257.42Z" style="fill:#fff"></path><rect x="93.7" y="168.45" width="46.18" height="99.3" style="fill:#ebebeb"></rect><path d="M128.79,266.74V168.45h11.09v99.3H128.79Z" style="fill:#e0e0e0"></path><path d="M118.47,175.94c0,.14-5.43.26-12.13.26s-12.12-.12-12.12-.26,5.42-.26,12.12-.26S118.47,175.79,118.47,175.94Z" style="fill:#fff"></path><path d="M107,182.64a40.3,40.3,0,0,1-6.53.26,40.3,40.3,0,0,1-6.53-.26,41.71,41.71,0,0,1,6.53-.26A41.71,41.71,0,0,1,107,182.64Z" style="fill:#fff"></path><path d="M125.08,182.64a40.3,40.3,0,0,1-6.53.26,40.3,40.3,0,0,1-6.53-.26,41.71,41.71,0,0,1,6.53-.26A41.71,41.71,0,0,1,125.08,182.64Z" style="fill:#fff"></path><path d="M125.69,175.75a10.48,10.48,0,0,1-4.64,0,10.48,10.48,0,0,1,4.64,0Z" style="fill:#fff"></path><path d="M118.47,189.11c0,.15-5.43.26-12.13.26s-12.12-.11-12.12-.26,5.42-.26,12.12-.26S118.47,189,118.47,189.11Z" style="fill:#fff"></path><path d="M107,195.82a41.71,41.71,0,0,1-6.53.26,41.71,41.71,0,0,1-6.53-.26,41.71,41.71,0,0,1,6.53-.26A41.71,41.71,0,0,1,107,195.82Z" style="fill:#fff"></path><path d="M125.08,195.82a41.71,41.71,0,0,1-6.53.26,41.71,41.71,0,0,1-6.53-.26,41.71,41.71,0,0,1,6.53-.26A41.71,41.71,0,0,1,125.08,195.82Z" style="fill:#fff"></path><path d="M125.69,188.93a10.48,10.48,0,0,1-4.64,0,10.48,10.48,0,0,1,4.64,0Z" style="fill:#fff"></path><path d="M118.47,202.29c0,.14-5.43.26-12.13.26s-12.12-.12-12.12-.26,5.42-.26,12.12-.26S118.47,202.14,118.47,202.29Z" style="fill:#fff"></path><path d="M107,209a41.71,41.71,0,0,1-6.53.26A41.71,41.71,0,0,1,94,209a40.3,40.3,0,0,1,6.53-.26A40.3,40.3,0,0,1,107,209Z" style="fill:#fff"></path><path d="M125.08,209a41.71,41.71,0,0,1-6.53.26A41.71,41.71,0,0,1,112,209a40.3,40.3,0,0,1,6.53-.26A40.3,40.3,0,0,1,125.08,209Z" style="fill:#fff"></path><path d="M125.69,202.1a10.48,10.48,0,0,1-4.64,0,10.48,10.48,0,0,1,4.64,0Z" style="fill:#fff"></path><path d="M118.47,215.46c0,.15-5.43.27-12.13.27s-12.12-.12-12.12-.27,5.42-.26,12.12-.26S118.47,215.32,118.47,215.46Z" style="fill:#fff"></path><path d="M107,222.17a40.3,40.3,0,0,1-6.53.26,40.3,40.3,0,0,1-6.53-.26,41.71,41.71,0,0,1,6.53-.26A41.71,41.71,0,0,1,107,222.17Z" style="fill:#fff"></path><path d="M125.08,222.17a40.3,40.3,0,0,1-6.53.26,40.3,40.3,0,0,1-6.53-.26,41.71,41.71,0,0,1,6.53-.26A41.71,41.71,0,0,1,125.08,222.17Z" style="fill:#fff"></path><path d="M125.69,215.28a10.48,10.48,0,0,1-4.64,0,10.48,10.48,0,0,1,4.64,0Z" style="fill:#fff"></path><path d="M118.47,228.64c0,.14-5.43.26-12.13.26s-12.12-.12-12.12-.26,5.42-.26,12.12-.26S118.47,228.5,118.47,228.64Z" style="fill:#fff"></path><path d="M107,235.35a41.71,41.71,0,0,1-6.53.26,41.71,41.71,0,0,1-6.53-.26,40.3,40.3,0,0,1,6.53-.26A40.3,40.3,0,0,1,107,235.35Z" style="fill:#fff"></path><path d="M125.08,235.35a41.71,41.71,0,0,1-6.53.26,41.71,41.71,0,0,1-6.53-.26,40.3,40.3,0,0,1,6.53-.26A40.3,40.3,0,0,1,125.08,235.35Z" style="fill:#fff"></path><path d="M125.69,228.46a10.48,10.48,0,0,1-4.64,0,10.1,10.1,0,0,1,4.64,0Z" style="fill:#fff"></path><path d="M118.47,241.82c0,.14-5.43.26-12.13.26s-12.12-.12-12.12-.26,5.42-.26,12.12-.26S118.47,241.67,118.47,241.82Z" style="fill:#fff"></path><path d="M107,248.53a41.71,41.71,0,0,1-6.53.26,41.71,41.71,0,0,1-6.53-.26,39.57,39.57,0,0,1,6.53-.27A39.57,39.57,0,0,1,107,248.53Z" style="fill:#fff"></path><path d="M125.08,248.53a41.71,41.71,0,0,1-6.53.26,41.71,41.71,0,0,1-6.53-.26,39.57,39.57,0,0,1,6.53-.27A39.57,39.57,0,0,1,125.08,248.53Z" style="fill:#fff"></path><path d="M125.69,241.63a10.48,10.48,0,0,1-4.64,0,10.48,10.48,0,0,1,4.64,0Z" style="fill:#fff"></path><path d="M118.47,255c0,.15-5.43.26-12.13.26s-12.12-.11-12.12-.26,5.42-.26,12.12-.26S118.47,254.85,118.47,255Z" style="fill:#fff"></path><path d="M107,261.7a40.3,40.3,0,0,1-6.53.26A40.3,40.3,0,0,1,94,261.7a41.71,41.71,0,0,1,6.53-.26A41.71,41.71,0,0,1,107,261.7Z" style="fill:#fff"></path><path d="M125.08,261.7a40.3,40.3,0,0,1-6.53.26,40.3,40.3,0,0,1-6.53-.26,41.71,41.71,0,0,1,6.53-.26A41.71,41.71,0,0,1,125.08,261.7Z" style="fill:#fff"></path><path d="M125.69,254.81a10.48,10.48,0,0,1-4.64,0,10.48,10.48,0,0,1,4.64,0Z" style="fill:#fff"></path><rect x="99.01" y="162.63" width="36.88" height="5.82" style="fill:#ebebeb"></rect><path d="M139.88,168.45c0,.15-10.38.26-23.19.26s-23.18-.11-23.18-.26,10.37-.26,23.18-.26S139.88,168.31,139.88,168.45Z" style="fill:#e0e0e0"></path><path d="M129.13,268c-.14,0-.26-22.23-.26-49.64s.12-49.64.26-49.64.26,22.22.26,49.64S129.28,268,129.13,268Z" style="fill:#e0e0e0"></path><rect x="123.03" y="162.63" width="12.86" height="5.82" style="fill:#e0e0e0"></rect><rect x="392.09" y="168.42" width="46.18" height="99.3" style="fill:#ebebeb"></rect><path d="M427.18,266.71V168.42h11.09v99.3H427.18Z" style="fill:#e0e0e0"></path><path d="M416.86,175.91c0,.14-5.43.26-12.13.26s-12.12-.12-12.12-.26,5.43-.26,12.12-.26S416.86,175.76,416.86,175.91Z" style="fill:#fff"></path><path d="M405.42,182.61a82.26,82.26,0,0,1-13.07,0,82.26,82.26,0,0,1,13.07,0Z" style="fill:#fff"></path><path d="M423.48,182.61a82.26,82.26,0,0,1-13.07,0,82.26,82.26,0,0,1,13.07,0Z" style="fill:#fff"></path><path d="M424.08,175.72a10.48,10.48,0,0,1-4.64,0,10.48,10.48,0,0,1,4.64,0Z" style="fill:#fff"></path><path d="M416.86,189.08c0,.15-5.43.26-12.13.26s-12.12-.11-12.12-.26,5.43-.26,12.12-.26S416.86,188.94,416.86,189.08Z" style="fill:#fff"></path><path d="M405.42,195.79a82.26,82.26,0,0,1-13.07,0,82.26,82.26,0,0,1,13.07,0Z" style="fill:#fff"></path><path d="M423.48,195.79a82.26,82.26,0,0,1-13.07,0,82.26,82.26,0,0,1,13.07,0Z" style="fill:#fff"></path><path d="M424.08,188.9a10.48,10.48,0,0,1-4.64,0,10.48,10.48,0,0,1,4.64,0Z" style="fill:#fff"></path><path d="M416.86,202.26c0,.14-5.43.26-12.13.26s-12.12-.12-12.12-.26S398,202,404.73,202,416.86,202.11,416.86,202.26Z" style="fill:#fff"></path><path d="M405.42,209a82.26,82.26,0,0,1-13.07,0,82.26,82.26,0,0,1,13.07,0Z" style="fill:#fff"></path><path d="M423.48,209a82.26,82.26,0,0,1-13.07,0,82.26,82.26,0,0,1,13.07,0Z" style="fill:#fff"></path><path d="M424.08,202.07a10.48,10.48,0,0,1-4.64,0,10.48,10.48,0,0,1,4.64,0Z" style="fill:#fff"></path><path d="M416.86,215.44c0,.14-5.43.26-12.13.26s-12.12-.12-12.12-.26,5.43-.27,12.12-.27S416.86,215.29,416.86,215.44Z" style="fill:#fff"></path><path d="M405.42,222.14a82.26,82.26,0,0,1-13.07,0,82.26,82.26,0,0,1,13.07,0Z" style="fill:#fff"></path><path d="M423.48,222.14a82.26,82.26,0,0,1-13.07,0,82.26,82.26,0,0,1,13.07,0Z" style="fill:#fff"></path><path d="M424.08,215.25a10.48,10.48,0,0,1-4.64,0,10.48,10.48,0,0,1,4.64,0Z" style="fill:#fff"></path><path d="M416.86,228.61c0,.15-5.43.26-12.13.26s-12.12-.11-12.12-.26,5.43-.26,12.12-.26S416.86,228.47,416.86,228.61Z" style="fill:#fff"></path><path d="M405.42,235.32a82.26,82.26,0,0,1-13.07,0,82.26,82.26,0,0,1,13.07,0Z" style="fill:#fff"></path><path d="M423.48,235.32a82.26,82.26,0,0,1-13.07,0,82.26,82.26,0,0,1,13.07,0Z" style="fill:#fff"></path><path d="M424.08,228.43a10.48,10.48,0,0,1-4.64,0,10.48,10.48,0,0,1,4.64,0Z" style="fill:#fff"></path><path d="M416.86,241.79c0,.14-5.43.26-12.13.26s-12.12-.12-12.12-.26,5.43-.26,12.12-.26S416.86,241.64,416.86,241.79Z" style="fill:#fff"></path><path d="M405.42,248.5a82.26,82.26,0,0,1-13.07,0,82.26,82.26,0,0,1,13.07,0Z" style="fill:#fff"></path><path d="M423.48,248.5a82.26,82.26,0,0,1-13.07,0,82.26,82.26,0,0,1,13.07,0Z" style="fill:#fff"></path><path d="M424.08,241.6a10.48,10.48,0,0,1-4.64,0,10.48,10.48,0,0,1,4.64,0Z" style="fill:#fff"></path><path d="M416.86,255c0,.15-5.43.26-12.13.26s-12.12-.11-12.12-.26,5.43-.26,12.12-.26S416.86,254.82,416.86,255Z" style="fill:#fff"></path><path d="M405.42,261.67a82.26,82.26,0,0,1-13.07,0,82.26,82.26,0,0,1,13.07,0Z" style="fill:#fff"></path><path d="M423.48,261.67a82.26,82.26,0,0,1-13.07,0,82.26,82.26,0,0,1,13.07,0Z" style="fill:#fff"></path><path d="M424.08,254.78a10.48,10.48,0,0,1-4.64,0,10.48,10.48,0,0,1,4.64,0Z" style="fill:#fff"></path><rect x="397.41" y="162.6" width="36.88" height="5.82" style="fill:#ebebeb"></rect><path d="M438.27,168.42c0,.15-10.38.26-23.18.26s-23.19-.11-23.19-.26,10.38-.26,23.19-.26S438.27,168.28,438.27,168.42Z" style="fill:#e0e0e0"></path><path d="M427.53,267.94c-.15,0-.26-22.23-.26-49.64s.11-49.64.26-49.64.26,22.22.26,49.64S427.67,267.94,427.53,267.94Z" style="fill:#e0e0e0"></path><rect x="421.42" y="162.6" width="12.86" height="5.82" style="fill:#e0e0e0"></rect><rect x="320.83" y="190.37" width="36.21" height="77.87" style="fill:#ebebeb"></rect><path d="M348.34,267.44V190.37H357v77.87h-8.7Z" style="fill:#e0e0e0"></path><path d="M340.25,196.24a88.33,88.33,0,0,1-9.51.26,88.06,88.06,0,0,1-9.5-.26,85.06,85.06,0,0,1,9.5-.26A85.32,85.32,0,0,1,340.25,196.24Z" style="fill:#fff"></path><path d="M331.28,201.5a50.64,50.64,0,0,1-10.25,0,50.64,50.64,0,0,1,10.25,0Z" style="fill:#fff"></path><path d="M345.44,201.5a50.54,50.54,0,0,1-10.24,0,50.54,50.54,0,0,1,10.24,0Z" style="fill:#fff"></path><path d="M345.92,196.09c0,.14-.82.26-1.82.26s-1.82-.12-1.82-.26.81-.26,1.82-.26S345.92,196,345.92,196.09Z" style="fill:#fff"></path><path d="M340.25,206.57a88.33,88.33,0,0,1-9.51.26,88.06,88.06,0,0,1-9.5-.26,88.06,88.06,0,0,1,9.5-.26A88.33,88.33,0,0,1,340.25,206.57Z" style="fill:#fff"></path><path d="M331.28,211.83a50.64,50.64,0,0,1-10.25,0,50.64,50.64,0,0,1,10.25,0Z" style="fill:#fff"></path><path d="M345.44,211.83a50.54,50.54,0,0,1-10.24,0,50.54,50.54,0,0,1,10.24,0Z" style="fill:#fff"></path><path d="M345.92,206.42c0,.15-.82.26-1.82.26s-1.82-.11-1.82-.26.81-.26,1.82-.26S345.92,206.28,345.92,206.42Z" style="fill:#fff"></path><path d="M340.25,216.9a85.32,85.32,0,0,1-9.51.26,85.06,85.06,0,0,1-9.5-.26,88.06,88.06,0,0,1,9.5-.26A88.33,88.33,0,0,1,340.25,216.9Z" style="fill:#fff"></path><path d="M331.28,222.16a50.64,50.64,0,0,1-10.25,0,50.64,50.64,0,0,1,10.25,0Z" style="fill:#fff"></path><path d="M345.44,222.16a50.54,50.54,0,0,1-10.24,0,50.54,50.54,0,0,1,10.24,0Z" style="fill:#fff"></path><path d="M345.92,216.76c0,.14-.82.26-1.82.26s-1.82-.12-1.82-.26.81-.26,1.82-.26S345.92,216.61,345.92,216.76Z" style="fill:#fff"></path><path d="M340.25,227.23a85.32,85.32,0,0,1-9.51.26,85.06,85.06,0,0,1-9.5-.26,88.06,88.06,0,0,1,9.5-.26A88.33,88.33,0,0,1,340.25,227.23Z" style="fill:#fff"></path><path d="M331.28,232.49a50.64,50.64,0,0,1-10.25,0,50.64,50.64,0,0,1,10.25,0Z" style="fill:#fff"></path><path d="M345.44,232.49a50.54,50.54,0,0,1-10.24,0,50.54,50.54,0,0,1,10.24,0Z" style="fill:#fff"></path><path d="M345.92,227.09c0,.14-.82.26-1.82.26s-1.82-.12-1.82-.26.81-.26,1.82-.26S345.92,226.94,345.92,227.09Z" style="fill:#fff"></path><path d="M340.25,237.57a88.33,88.33,0,0,1-9.51.26,88.06,88.06,0,0,1-9.5-.26,85.06,85.06,0,0,1,9.5-.26A85.32,85.32,0,0,1,340.25,237.57Z" style="fill:#fff"></path><path d="M331.28,242.83a50.64,50.64,0,0,1-10.25,0,50.64,50.64,0,0,1,10.25,0Z" style="fill:#fff"></path><path d="M345.44,242.83a50.54,50.54,0,0,1-10.24,0,50.54,50.54,0,0,1,10.24,0Z" style="fill:#fff"></path><path d="M345.92,237.42c0,.14-.82.26-1.82.26s-1.82-.12-1.82-.26.81-.26,1.82-.26S345.92,237.28,345.92,237.42Z" style="fill:#fff"></path><path d="M340.25,247.9a88.33,88.33,0,0,1-9.51.26,88.06,88.06,0,0,1-9.5-.26,88.06,88.06,0,0,1,9.5-.26A88.33,88.33,0,0,1,340.25,247.9Z" style="fill:#fff"></path><path d="M331.28,253.16a50.64,50.64,0,0,1-10.25,0,50.64,50.64,0,0,1,10.25,0Z" style="fill:#fff"></path><path d="M345.44,253.16a50.54,50.54,0,0,1-10.24,0,50.54,50.54,0,0,1,10.24,0Z" style="fill:#fff"></path><path d="M345.92,247.75c0,.15-.82.26-1.82.26s-1.82-.11-1.82-.26.81-.26,1.82-.26S345.92,247.61,345.92,247.75Z" style="fill:#fff"></path><path d="M340.25,258.23a85.32,85.32,0,0,1-9.51.26,85.06,85.06,0,0,1-9.5-.26,88.06,88.06,0,0,1,9.5-.26A88.33,88.33,0,0,1,340.25,258.23Z" style="fill:#fff"></path><path d="M331.28,263.49a50.64,50.64,0,0,1-10.25,0,50.64,50.64,0,0,1,10.25,0Z" style="fill:#fff"></path><path d="M345.44,263.49a50.54,50.54,0,0,1-10.24,0,50.54,50.54,0,0,1,10.24,0Z" style="fill:#fff"></path><path d="M345.92,258.09c0,.14-.82.26-1.82.26s-1.82-.12-1.82-.26.81-.26,1.82-.26S345.92,257.94,345.92,258.09Z" style="fill:#fff"></path><rect x="325" y="185.8" width="28.92" height="4.57" style="fill:#ebebeb"></rect><path d="M357,190.37c0,.14-8.14.26-18.18.26s-18.18-.12-18.18-.26,8.14-.26,18.18-.26S357,190.23,357,190.37Z" style="fill:#e0e0e0"></path><path d="M348.62,268.4c-.15,0-.26-17.42-.26-38.92s.11-38.92.26-38.92.26,17.42.26,38.92S348.76,268.4,348.62,268.4Z" style="fill:#e0e0e0"></path><rect x="343.83" y="185.8" width="10.09" height="4.57" style="fill:#e0e0e0"></rect><polygon points="66.23 457.17 22.41 457.17 30.83 447.63 74.66 447.63 66.23 457.17" style="fill:#ebebeb"></polygon><polygon points="54.99 470.63 11.17 470.63 19.6 461.1 63.42 461.1 54.99 470.63" style="fill:#ebebeb"></polygon><polygon points="117.92 457.17 74.1 457.17 82.52 447.63 126.35 447.63 117.92 457.17" style="fill:#ebebeb"></polygon><polygon points="106.68 470.63 62.86 470.63 71.29 461.1 115.11 461.1 106.68 470.63" style="fill:#ebebeb"></polygon><polygon points="91.69 485.63 47.87 485.63 56.3 476.1 100.12 476.1 91.69 485.63" style="fill:#ebebeb"></polygon><polygon points="144.04 485.63 100.22 485.63 108.65 476.1 152.47 476.1 144.04 485.63" style="fill:#ebebeb"></polygon><polygon points="195.19 485.63 151.36 485.63 159.79 476.1 203.61 476.1 195.19 485.63" style="fill:#ebebeb"></polygon><polygon points="246.33 485.63 202.5 485.63 210.93 476.1 254.75 476.1 246.33 485.63" style="fill:#ebebeb"></polygon><polygon points="297.47 485.63 253.64 485.63 262.07 476.1 305.89 476.1 297.47 485.63" style="fill:#ebebeb"></polygon><polygon points="348.61 485.63 304.79 485.63 313.21 476.1 357.04 476.1 348.61 485.63" style="fill:#ebebeb"></polygon><polygon points="399.75 485.63 355.93 485.63 364.35 476.1 408.18 476.1 399.75 485.63" style="fill:#ebebeb"></polygon><polygon points="191 457.17 147.17 457.17 155.6 447.63 199.42 447.63 191 457.17" style="fill:#ebebeb"></polygon><polygon points="179.76 470.63 135.94 470.63 144.36 461.1 188.19 461.1 179.76 470.63" style="fill:#ebebeb"></polygon><polygon points="242.68 457.17 198.86 457.17 207.29 447.63 251.11 447.63 242.68 457.17" style="fill:#ebebeb"></polygon><polygon points="231.45 470.63 187.62 470.63 196.05 461.1 239.88 461.1 231.45 470.63" style="fill:#ebebeb"></polygon><polygon points="295.54 457.17 251.71 457.17 260.14 447.63 303.96 447.63 295.54 457.17" style="fill:#ebebeb"></polygon><polygon points="284.3 470.63 240.47 470.63 248.9 461.1 292.73 461.1 284.3 470.63" style="fill:#ebebeb"></polygon><polygon points="347.22 457.17 303.4 457.17 311.83 447.63 355.65 447.63 347.22 457.17" style="fill:#ebebeb"></polygon><polygon points="335.99 470.63 292.16 470.63 300.59 461.1 344.42 461.1 335.99 470.63" style="fill:#ebebeb"></polygon><polygon points="398.77 457.17 354.95 457.17 363.38 447.63 407.2 447.63 398.77 457.17" style="fill:#ebebeb"></polygon><polygon points="387.54 470.63 343.71 470.63 352.14 461.1 395.97 461.1 387.54 470.63" style="fill:#ebebeb"></polygon><polygon points="450.46 457.17 406.64 457.17 415.07 447.63 458.89 447.63 450.46 457.17" style="fill:#ebebeb"></polygon><polygon points="439.23 470.63 395.4 470.63 403.83 461.1 447.65 461.1 439.23 470.63" style="fill:#ebebeb"></polygon></g><g id="freepik--Floor--inject-74"><path d="M464.27,441.42c0,.15-97.67.26-218.12.26S28,441.57,28,441.42s97.64-.26,218.14-.26S464.27,441.28,464.27,441.42Z" style="fill:#263238"></path><path d="M464.27,430c0,.14-97.67.26-218.12.26S28,430.16,28,430s97.64-.26,218.14-.26S464.27,429.88,464.27,430Z" style="fill:#263238"></path></g><g id="freepik--Bridge--inject-74"><path d="M461.31,275.64c0,.15-95.62.26-213.55.26s-213.57-.11-213.57-.26,95.6-.26,213.57-.26S461.31,275.5,461.31,275.64Z" style="fill:#263238"></path><polygon points="233.37 233.97 488.81 233.97 488.81 227.1 230.8 227.1 233.37 233.97" style="fill:#263238"></polygon><path d="M248.65,157.54c.3,0-25.05,69.84-25.05,69.84L212.36,268l-13.6-.18,2.48-32.22,34.69-75.06,4.29-3Z" style="fill:#FFC100"></path><path d="M248.65,157.54c.3,0-25.05,69.84-25.05,69.84L212.36,268l-13.6-.18,2.48-32.22,34.69-75.06,4.29-3Z" style="opacity:0.30000000000000004"></path><path d="M278.85,89.65h7.55l-20,55.06s27.77,55,36.51,70.55S342.38,268,342.38,268h-25.1L291,237.32l-34.42-85.95V136.72l17.69-43.16Z" style="fill:#FFC100"></path><path d="M278.85,89.65h7.55l-20,55.06s27.77,55,36.51,70.55S342.38,268,342.38,268h-25.1L291,237.32l-34.42-85.95V136.72l17.69-43.16Z" style="opacity:0.30000000000000004"></path><polygon points="231.35 89.65 237.23 89.65 248.15 138.62 243.17 138.62 231.35 89.65" style="fill:#FFC100"></polygon><polygon points="231.35 89.65 237.23 89.65 248.15 138.62 243.17 138.62 231.35 89.65" style="opacity:0.30000000000000004"></polygon><path d="M289.18,211.74c-5-10.33-29.89-65.37-29.89-65.37l19.56-56.72H268l-4.47,13.69H235l-3.63-13.69H218.5l17,54.48-62.3,123.7,25.52,0,43.77-110.25h10.05L296.14,268h24.5S294.21,222.08,289.18,211.74Zm-37.1-73.12h-8.91l-6.59-27.29h24.78Z" style="fill:#FFC100"></path><path d="M287.08,234H209.82L204,246.34s14.77-4,46.11-4,42.72,7.19,42.72,7.19Z" style="fill:#FFC100"></path><path d="M33.32,227.1c-.07-.12,52.4-31,117.18-68.94S267.88,89.53,268,89.65s-52.38,31-117.19,68.95S33.39,227.23,33.32,227.1Z" style="fill:#263238"></path><path d="M55.88,227.1C55.8,227,103,196.87,161.22,159.85S266.77,92.9,266.85,93s-47.08,30.23-105.35,67.26S56,227.22,55.88,227.1Z" style="fill:#263238"></path><path d="M76.72,227.1C76.64,227,118.84,197.83,171,162s94.46-64.8,94.55-64.68-42.11,29.26-94.25,65.11S76.8,227.22,76.72,227.1Z" style="fill:#263238"></path><path d="M94.77,227.1c-.08-.11,37.74-28.26,84.47-62.86s84.69-62.57,84.78-62.46S226.29,130,179.55,164.65,94.86,227.22,94.77,227.1Z" style="fill:#263238"></path><path d="M109.53,227.87c-.09-.11,34.17-27.44,76.51-61s76.76-60.74,76.85-60.63-34.17,27.44-76.52,61S109.62,228,109.53,227.87Z" style="fill:#263238"></path><path d="M125.34,227.1c-.09-.11,30.16-25.58,67.55-56.89s67.8-56.61,67.89-56.5-30.14,25.58-67.55,56.9S125.44,227.21,125.34,227.1Z" style="fill:#263238"></path><path d="M137,227.83c-.1-.11,27-24.35,60.48-54.14s60.75-53.86,60.84-53.75-27,24.34-60.49,54.14S137.07,227.94,137,227.83Z" style="fill:#263238"></path><path d="M150.64,227.1c-.1-.1,23.39-22.52,52.45-50.06s52.73-49.8,52.82-49.7-23.38,22.52-52.46,50.07S150.73,227.21,150.64,227.1Z" style="fill:#263238"></path><path d="M470.56,229.76c-.07.13-52.66-30.54-117.44-68.49s-117.26-68.84-117.19-69,52.65,30.54,117.45,68.51S470.63,229.64,470.56,229.76Z" style="fill:#263238"></path><path d="M448,229.76c-.08.13-47.37-29.79-105.62-66.81S237,95.81,237,95.69s47.36,29.79,105.63,66.82S448.08,229.64,448,229.76Z" style="fill:#263238"></path><path d="M427.16,229.76c-.08.12-42.41-28.84-94.54-64.68s-94.33-65-94.24-65.11,42.4,28.83,94.54,64.68S427.24,229.65,427.16,229.76Z" style="fill:#263238"></path><path d="M409.11,229.76c-.09.12-38.05-27.84-84.78-62.44s-84.55-62.76-84.47-62.88,38,27.84,84.78,62.46S409.19,229.65,409.11,229.76Z" style="fill:#263238"></path><path d="M394.35,230.54c-.09.11-34.49-27-76.84-60.63S240.9,109,241,108.87s34.49,27,76.85,60.63S394.44,230.42,394.35,230.54Z" style="fill:#263238"></path><path d="M378.54,229.76c-.1.11-30.49-25.18-67.89-56.49S243,116.48,243.1,116.37s30.48,25.18,67.89,56.5S378.63,229.65,378.54,229.76Z" style="fill:#263238"></path><path d="M366.9,230.49c-.09.11-27.33-24-60.83-53.75s-60.59-54-60.49-54.14,27.33,24,60.84,53.75S367,230.38,366.9,230.49Z" style="fill:#263238"></path><path d="M353.25,229.76c-.1.11-23.75-22.14-52.82-49.69S247.87,130.11,248,130s23.74,22.14,52.82,49.7S353.34,229.66,353.25,229.76Z" style="fill:#263238"></path><polygon points="280.02 227.1 10.52 227.1 10.52 233.97 282.73 233.97 280.02 227.1" style="fill:#263238"></polygon><path d="M461.31,268c0,.14-96,.26-214.3.26S32.69,268.11,32.69,268s95.94-.26,214.32-.26S461.31,267.82,461.31,268Z" style="fill:#263238"></path></g><g id="freepik--Sun--inject-74"><path d="M417.2,52.76a10.29,10.29,0,1,1-10.29-10.29A10.29,10.29,0,0,1,417.2,52.76Z" style="fill:#FFC100"></path><path d="M405.44,75.77a41.24,41.24,0,0,1-.11-4.24,41.36,41.36,0,0,1,.11-4.25,41.36,41.36,0,0,1,.11,4.25A41.24,41.24,0,0,1,405.44,75.77Z" style="fill:#FFC100"></path><path d="M399.51,64.89c.05,0-.91,1.8-2.16,4A44.9,44.9,0,0,1,395,72.7c-.05,0,.92-1.8,2.16-4S399.46,64.86,399.51,64.89Z" style="fill:#FFC100"></path><path d="M393.43,61.1a24.13,24.13,0,0,1-2.41,2A26,26,0,0,1,388.49,65a20.79,20.79,0,0,1,2.4-2.05A21.11,21.11,0,0,1,393.43,61.1Z" style="fill:#FFC100"></path><path d="M415.71,71.59a5.65,5.65,0,0,1-.27-1c-.15-.65-.36-1.55-.62-2.52s-.53-1.86-.73-2.49a5.84,5.84,0,0,1-.29-1,4.28,4.28,0,0,1,.43,1A24.8,24.8,0,0,1,415,68a26.11,26.11,0,0,1,.57,2.55A5.32,5.32,0,0,1,415.71,71.59Z" style="fill:#FFC100"></path><path d="M426.14,64.18a35.06,35.06,0,0,1-3-2.51A34.08,34.08,0,0,1,420.2,59a36.45,36.45,0,0,1,3,2.52A37.24,37.24,0,0,1,426.14,64.18Z" style="fill:#FFC100"></path><path d="M430.14,54a10.18,10.18,0,0,1-1.24-.18c-.76-.13-1.82-.29-3-.43s-2.23-.21-3-.26a7.22,7.22,0,0,1-1.25-.11,7.53,7.53,0,0,1,1.25,0,29.45,29.45,0,0,1,3,.2,28.67,28.67,0,0,1,3,.49A5.35,5.35,0,0,1,430.14,54Z" style="fill:#FFC100"></path><path d="M430.15,44c0,.06-2.21.65-5,1.32s-5,1.17-5,1.12,2.22-.66,5-1.33S430.14,43.94,430.15,44Z" style="fill:#FFC100"></path><path d="M418.53,32.34c.05,0-1,1.73-2.38,3.8s-2.51,3.71-2.56,3.67,1-1.73,2.38-3.79S418.48,32.31,418.53,32.34Z" style="fill:#FFC100"></path><path d="M407,29.9a9.4,9.4,0,0,1,0,1.42c0,.87,0,2.07,0,3.4s0,2.53,0,3.4a11.3,11.3,0,0,1,0,1.41,7.64,7.64,0,0,1-.14-1.4c-.06-.87-.1-2.08-.1-3.41s0-2.54.09-3.41A8,8,0,0,1,407,29.9Z" style="fill:#FFC100"></path><path d="M398.25,40.79A44.63,44.63,0,0,1,395.83,37c-1.29-2.1-2.29-3.83-2.24-3.86A41.55,41.55,0,0,1,396,36.92,43.35,43.35,0,0,1,398.25,40.79Z" style="fill:#FFC100"></path><path d="M393,45.22a4.77,4.77,0,0,1-1.09-.17c-.67-.14-1.59-.37-2.59-.66s-1.9-.61-2.53-.85a5.37,5.37,0,0,1-1-.45,6.7,6.7,0,0,1,1.07.3c.65.21,1.54.5,2.54.79l2.56.72A6.43,6.43,0,0,1,393,45.22Z" style="fill:#FFC100"></path><path d="M390.75,53.13a25.13,25.13,0,0,1-3.28.42,24.41,24.41,0,0,1-3.31.21,25.13,25.13,0,0,1,3.28-.42A24.41,24.41,0,0,1,390.75,53.13Z" style="fill:#FFC100"></path></g><g id="freepik--Plant--inject-74"><path d="M392,389.35a7.73,7.73,0,0,1,4,4.54,13.65,13.65,0,0,1,.53,6.16c-.45,4-2.72,8-5.16,11.21-3.37-2.93-4.14-8.05-4.37-10.68-.36-4.14,1.5-11.85,5-11.23" style="fill:#455a64"></path><path d="M395.31,417.85a6.59,6.59,0,0,1,2.13-6.27,8.72,8.72,0,0,1,6.47-2,3.7,3.7,0,0,1,2.84,1.27,2.81,2.81,0,0,1,0,2.86,5.67,5.67,0,0,1-2.12,2.09c-2.91,1.83-6.07,3.06-9.36,2.07" style="fill:#455a64"></path><path d="M391,430.1a5.26,5.26,0,0,1,.12-.82c.11-.58.25-1.32.41-2.22a23.08,23.08,0,0,1,2.29-7.08,14.24,14.24,0,0,1,5.08-5.41,9.71,9.71,0,0,1,2.08-.91c.25-.09.46-.12.59-.16l.22,0a13.87,13.87,0,0,0-2.78,1.27,14.65,14.65,0,0,0-4.94,5.37,24.9,24.9,0,0,0-2.34,7c-.2.93-.37,1.69-.5,2.2A3.77,3.77,0,0,1,391,430.1Z" style="fill:#263238"></path><path d="M391.12,395.34a2.19,2.19,0,0,1,0,.36c0,.27,0,.61.06,1,0,.9.1,2.19.15,3.79.11,3.2.19,7.62.17,12.51s-.14,9.31-.27,12.51c-.07,1.6-.13,2.89-.19,3.79,0,.42-.05.76-.07,1a2,2,0,0,1,0,.35,1.41,1.41,0,0,1,0-.36c0-.26,0-.6,0-1,0-.93,0-2.21.09-3.79.08-3.2.17-7.62.19-12.5s0-9.3-.08-12.5c0-1.58-.05-2.86-.06-3.79,0-.43,0-.77,0-1A1.48,1.48,0,0,1,391.12,395.34Z" style="fill:#263238"></path><path d="M389.49,420.29A15.44,15.44,0,0,0,381.05,409c-1.12-.54-2.59-.89-3.51-.05s-.72,2.34-.27,3.5a13.19,13.19,0,0,0,12.14,8.19" style="fill:#455a64"></path><path d="M381.6,412.76a3.51,3.51,0,0,1,.71.31,7.37,7.37,0,0,1,.81.43c.3.19.66.37,1,.64a13.53,13.53,0,0,1,1.18.89,15.76,15.76,0,0,1,1.25,1.13,17.2,17.2,0,0,1,2.37,3.06,16.65,16.65,0,0,1,1.57,3.53,14.44,14.44,0,0,1,.39,1.65,12.07,12.07,0,0,1,.21,1.45,10.63,10.63,0,0,1,.05,1.21,5.24,5.24,0,0,1,0,.92,3.68,3.68,0,0,1-.08.77c-.07,0,.05-1.11-.15-2.88-.06-.44-.11-.92-.23-1.43a14.81,14.81,0,0,0-.42-1.61,17.48,17.48,0,0,0-1.56-3.47,18.34,18.34,0,0,0-2.31-3c-.42-.41-.81-.81-1.22-1.14s-.78-.63-1.13-.9C382.58,413.28,381.57,412.82,381.6,412.76Z" style="fill:#263238"></path></g><g id="freepik--Sea--inject-74"><path d="M326.53,309.78c0,.15-23.17.26-51.74.26s-51.74-.11-51.74-.26,23.16-.26,51.74-.26S326.53,309.64,326.53,309.78Z" style="fill:#263238"></path><path d="M254.81,329.76c0,.14-6.65.26-14.85.26s-14.86-.12-14.86-.26,6.65-.26,14.86-.26S254.81,329.62,254.81,329.76Z" style="fill:#263238"></path><path d="M342.92,360c0,.15-27.87.26-62.23.26s-62.25-.11-62.25-.26,27.86-.26,62.25-.26S342.92,359.84,342.92,360Z" style="fill:#263238"></path><path d="M301.94,382.52c0,.15-12.16.26-27.15.26s-27.15-.11-27.15-.26,12.15-.26,27.15-.26S301.94,382.38,301.94,382.52Z" style="fill:#263238"></path><path d="M384.42,334.88c0,.15-21.41.26-47.8.26s-47.8-.11-47.8-.26,21.4-.26,47.8-.26S384.42,334.74,384.42,334.88Z" style="fill:#263238"></path></g><g id="freepik--Characters--inject-74"><path d="M118.26,440l2.41,19.69s-19.2,9.07-19.11,12.76l38.35-3.32-2.5-30.83Z" style="fill:#263238"></path><path d="M132.39,457a1.58,1.58,0,0,1,1.24,1.69A1.51,1.51,0,0,1,132,460a1.65,1.65,0,0,1-1.3-1.8,1.57,1.57,0,0,1,1.88-1.1" style="fill:#e0e0e0"></path><path d="M139.91,469.16l-.37-3.1-36.63,4.34s-1.65.89-1.35,2.08Z" style="fill:#455a64"></path><path d="M120,459.58c0,.19,1,.19,1.93.72s1.54,1.26,1.7,1.17-.2-1.14-1.39-1.75S120,459.41,120,459.58Z" style="fill:#fff"></path><path d="M116.16,461.59c0,.19.81.44,1.51,1.17s1,1.56,1.15,1.54.21-1.09-.68-2S116.15,461.42,116.16,461.59Z" style="fill:#fff"></path><path d="M114.29,466.61c.17,0,.35-.94-.22-1.92s-1.48-1.32-1.54-1.15.52.66,1,1.47S114.1,466.6,114.29,466.61Z" style="fill:#fff"></path><path d="M120,455c.1.17.93-.16,2-.18s1.92.24,2,.07-.77-.77-2-.73S119.88,454.9,120,455Z" style="fill:#fff"></path><path d="M183,435.72l2.63,23.86,7.52,18.27a2.46,2.46,0,0,1-1.49,3.27h0a2.46,2.46,0,0,1-2.23-.34c-4.1-3-19.1-14.11-19.2-15.86-.11-2-4.44-25-4.44-25Z" style="fill:#263238"></path><path d="M191.66,481.12,170,463.31l.13,1a3.74,3.74,0,0,0,1.19,2.26c1.75,1.58,6.67,5.82,18,14.21a2.48,2.48,0,0,0,2.3.33Z" style="fill:#455a64"></path><g style="opacity:0.6000000000000001"><path d="M173.88,455a1.49,1.49,0,0,1,.66,1.87,1.44,1.44,0,0,1-1.85.67,1.57,1.57,0,0,1-.69-2,1.49,1.49,0,0,1,2-.48" style="fill:#fff"></path></g><path d="M184.83,471.45a5.31,5.31,0,0,1,4.51-3c0-.06-.31-.2-.88-.21a3.94,3.94,0,0,0-3.49,2.33C184.76,471.08,184.77,471.44,184.83,471.45Z" style="fill:#fff"></path><path d="M187,474.41c.13.09.79-.79,2-1.31a18.59,18.59,0,0,1,2.29-.6,2.72,2.72,0,0,0-2.5.12C187.36,473.22,186.82,474.36,187,474.41Z" style="fill:#fff"></path><path d="M181.13,467.79a23.55,23.55,0,0,1,2.91-2.22,25,25,0,0,1,3.42-1.3,6.75,6.75,0,0,0-6.33,3.52Z" style="fill:#fff"></path><path d="M179.73,460.6c.08.13,1.32-.59,3-.88s3.12-.06,3.15-.21a6.08,6.08,0,0,0-6.17,1.09Z" style="fill:#fff"></path><path d="M178.78,453.62a11.36,11.36,0,0,1,3.12-1,11.76,11.76,0,0,1,3.26.37c0-.06-.26-.32-.85-.57a5.43,5.43,0,0,0-2.46-.33,5.27,5.27,0,0,0-2.34.81C179,453.25,178.74,453.57,178.78,453.62Z" style="fill:#fff"></path><path d="M181.69,451.29a2.07,2.07,0,0,0-.09-.9,6.25,6.25,0,0,0-1-2.26A2.83,2.83,0,0,0,179.2,447a1,1,0,0,0-1.07.37,1.6,1.6,0,0,0-.24,1.12,3.48,3.48,0,0,0,3.45,2.79,4,4,0,0,0,3.65-2.62,1.4,1.4,0,0,0-.09-1.16,1,1,0,0,0-1.08-.37,3.37,3.37,0,0,0-1.45,1,7,7,0,0,0-1.38,2.06,2.24,2.24,0,0,0-.26.87,11.65,11.65,0,0,1,1.9-2.67,3.29,3.29,0,0,1,1.29-.86.52.52,0,0,1,.59.2.93.93,0,0,1,0,.77,3.6,3.6,0,0,1-3.19,2.23,3,3,0,0,1-3-2.32,1.07,1.07,0,0,1,.13-.79.52.52,0,0,1,.59-.21,2.53,2.53,0,0,1,1.17,1A9.49,9.49,0,0,1,181.69,451.29Z" style="fill:#fff"></path><path d="M108.45,273.76a85.3,85.3,0,0,0-2.85,25c.2,5.34,12.3,153.3,12.3,153.3l24.25,1-1.31-138.67,2,.51S153.7,374.39,154.4,384c.63,8.63,9.31,71.48,9.31,71.48l22.17,1.14-3.8-82.83L177,294.25l-2.18-23.18Z" style="fill:#455a64"></path><path d="M55.08,183.6l23,5.46.49,18.38c-.55-.23-18.51,1.65-22.76-4.64-1.49-2.19-3.47-5.21-5-7.59a6.06,6.06,0,0,1,.5-7.27Z" style="fill:#FFC100"></path><path d="M119.27,176.16l-16.81,1.17s-1,27.16-1.29,29.11S104,277.17,104,277.17V290.4l17.6-1.06L172,287.25l-8.1-90.17-.21-17.16a78.45,78.45,0,0,0-17.12-2.78C138.64,177,119.27,176.16,119.27,176.16Z" style="fill:#FFC100"></path><path d="M130.06,197.49s-17.51-2.11-24.75,10.08c-5.84,9.8-18.7,38.06-17.06,46.47s8.45,9.8,12.42,9.33,19.38-9.81,19.38-9.81l-6.3-14.72-5.26,1.62Z" style="fill:#455a64"></path><path d="M175.16,443.63,174,463.79l3.7,16.2a2.07,2.07,0,0,1-1.69,2.5h0a2.06,2.06,0,0,1-1.8-.59c-3-3.06-13.89-14.35-13.73-15.82.2-1.7-.21-21.34-.21-21.34Z" style="fill:#FFC100"></path><path d="M176,482.49l-15.48-17.77,0,.85a3.13,3.13,0,0,0,.67,2c1.23,1.55,4.73,5.75,13,14.28a2.05,2.05,0,0,0,1.86.6Z" style="fill:#fafafa"></path><path d="M164.92,458.35a1.24,1.24,0,0,1,.28,1.64,1.19,1.19,0,0,1-1.62.3,1.32,1.32,0,0,1-.3-1.74,1.25,1.25,0,0,1,1.73-.13" style="fill:#e0e0e0"></path><path d="M171.72,473.52a6.27,6.27,0,0,1,1.82-1.51,6.63,6.63,0,0,1,2.34-.37s-.23-.21-.7-.29a3.18,3.18,0,0,0-1.82.26,3.14,3.14,0,0,0-1.4,1.19C171.71,473.21,171.67,473.5,171.72,473.52Z" style="fill:#fff"></path><path d="M173.07,476.27a17.55,17.55,0,0,1,1.81-.81c1.05-.28,1.94-.06,2-.19a2.31,2.31,0,0,0-2.09-.24C173.57,475.34,173,476.21,173.07,476.27Z" style="fill:#fff"></path><path d="M169.16,470a20.72,20.72,0,0,1,2.72-1.44,19.16,19.16,0,0,1,3-.59,5.66,5.66,0,0,0-5.73,2Z" style="fill:#fff"></path><path d="M169,463.81c0,.13,1.18-.3,2.63-.31s2.59.39,2.64.26a5.15,5.15,0,0,0-5.27.05Z" style="fill:#fff"></path><path d="M169.17,457.89a6.52,6.52,0,0,1,5.39.37c0-.05-.18-.31-.64-.59a4.49,4.49,0,0,0-2-.62,4.37,4.37,0,0,0-2.05.35C169.39,457.62,169.14,457.85,169.17,457.89Z" style="fill:#fff"></path><path d="M171.91,456.37a1.88,1.88,0,0,0,.05-.77,5.35,5.35,0,0,0-.54-2,2.35,2.35,0,0,0-1-1.16.83.83,0,0,0-.94.15,1.31,1.31,0,0,0-.35.9,2.91,2.91,0,0,0,2.47,2.79,3.36,3.36,0,0,0,3.38-1.66,1.15,1.15,0,0,0,.09-1,.81.81,0,0,0-.84-.46,2.94,2.94,0,0,0-1.35.65,6.19,6.19,0,0,0-1.43,1.52,2,2,0,0,0-.33.69,9.3,9.3,0,0,1,1.94-1.95,2.72,2.72,0,0,1,1.2-.54.43.43,0,0,1,.45.25.76.76,0,0,1-.09.64,3,3,0,0,1-3,1.4,2.55,2.55,0,0,1-2.14-2.33,1,1,0,0,1,.22-.64.44.44,0,0,1,.52-.09,2.07,2.07,0,0,1,.84,1A7.91,7.91,0,0,1,171.91,456.37Z" style="fill:#fff"></path><g style="opacity:0.30000000000000004"><path d="M175.16,443.63,174,463.79l3.7,16.2a2.07,2.07,0,0,1-1.69,2.5h0a2.06,2.06,0,0,1-1.8-.59c-3-3.06-13.89-14.35-13.73-15.82.2-1.7-.21-21.34-.21-21.34Z"></path></g><path d="M194,297.74s5.18,10.92,3.54,28.14-16.65,129.17-18.9,129.17-22.27-4.59-22.27-4.59,12-97.6,10.55-99.32S149.25,311,149.25,311l29.39-19Z" style="fill:#263238"></path><path d="M165,327.5s0-.26.1-.72a10.27,10.27,0,0,1,.63-1.89,14.88,14.88,0,0,1,1.43-2.58,21.17,21.17,0,0,1,2.32-2.77,35.88,35.88,0,0,1,5.08-4.11,12.16,12.16,0,0,1,2.31-1.39,14.55,14.55,0,0,1-2.09,1.69,48.71,48.71,0,0,0-4.93,4.18,24.53,24.53,0,0,0-2.3,2.67,16.52,16.52,0,0,0-1.49,2.47C165.36,326.52,165.11,327.53,165,327.5Z" style="fill:#455a64"></path><path d="M163.08,448.69l-5.47,15.65s14.06,10.82,13.33,13.81l-30.72-9.53,7.54-24.73Z" style="fill:#FFC100"></path><path d="M148.52,460.06a1.32,1.32,0,0,0-1.31,1.16,1.26,1.26,0,0,0,1.14,1.31,1.37,1.37,0,0,0,1.38-1.24c0-.64-.7-1.35-1.33-1.23" style="fill:#e0e0e0"></path><path d="M140.22,468.62l.68-2.37,29.31,10s1.18,1,.73,1.94Z" style="fill:#fafafa"></path><path d="M158.15,464.34c-.05.14-.82,0-1.71.23s-1.47.76-1.59.66.37-.9,1.45-1.18S158.23,464.21,158.15,464.34Z" style="fill:#fff"></path><path d="M161,466.67c0,.15-.74.21-1.45.68s-1.06,1.1-1.2,1,0-.93.91-1.5S161,466.52,161,466.67Z" style="fill:#fff"></path><path d="M161.59,471.09c-.14,0-.12-.82.52-1.53s1.44-.81,1.47-.66-.55.45-1.06,1S161.75,471.12,161.59,471.09Z" style="fill:#fff"></path><path d="M159,460.63c-.1.12-.72-.3-1.59-.51s-1.61-.14-1.65-.29.77-.49,1.78-.24S159.11,460.54,159,460.63Z" style="fill:#fff"></path><path d="M164.21,204c.26,1,8.17,46,8.17,46s21,40.43,22,47.68c0,0-29,12.18-39.66,13.48s-35.2,0-35.2,0-1.09-37.87-3.15-46.65c-2.15-9.11-5.25-35-5.25-35l18.91-32.08C150.54,201.69,147.78,199.94,164.21,204Z" style="fill:#455a64"></path><path d="M99.42,263.44l.44-.09a6.52,6.52,0,0,0,1.24-.25,28.41,28.41,0,0,0,4.46-1.64,139.81,139.81,0,0,0,14.36-7.66l-.1.32c-.83-1.88-1.71-3.85-2.61-5.88l-4.06-9.18.3.14c-5.38,1.6-10,3-13.22,4l-3.78,1.22a9.5,9.5,0,0,1-1.36.42,1.71,1.71,0,0,1,.33-.17c.22-.09.55-.24,1-.4.86-.35,2.13-.8,3.74-1.36,3.22-1.11,7.79-2.58,13.17-4.22l.2-.06.09.2,4.08,9.16c.9,2,1.77,4,2.61,5.88l.09.21-.19.12a124.48,124.48,0,0,1-14.5,7.52,25.21,25.21,0,0,1-4.55,1.51,5.09,5.09,0,0,1-1.28.17A1.23,1.23,0,0,1,99.42,263.44Z" style="fill:#263238"></path><polygon points="170.53 248.74 148.09 238.15 147.12 249.95 164.86 261.56 170.53 248.74" style="fill:#ffbe9d"></polygon><path d="M163.48,203.68c-.92-.22,8.79,2.25,12.05,8.56,2.62,5.07,18.38,35.74,20.58,39.74,4.62,8.4-.79,19.77-7.08,22.76s-24.55-12.24-24.55-12.24L170.85,248l2.87.63-3.87-3Z" style="fill:#455a64"></path><path d="M185,275.11a1.47,1.47,0,0,1-.45-.14,11.17,11.17,0,0,1-1.24-.57c-1.06-.54-2.56-1.39-4.41-2.49-3.69-2.21-8.78-5.43-14.53-9.19l-.18-.12.09-.2,2.39-5.45,4-9,.09-.2.21.07,13.8,4.41,4,1.32,1,.37a1.06,1.06,0,0,1,.35.15,1.59,1.59,0,0,1-.38-.07l-1.07-.3-4-1.18-13.86-4.23.3-.14-3.95,9.05c-.83,1.86-1.63,3.69-2.4,5.44l-.09-.31c5.72,3.79,10.77,7,14.41,9.34,1.83,1.14,3.3,2,4.32,2.62S185,275.08,185,275.11Z" style="fill:#263238"></path><path d="M162.86,238.3c-.42.42-19.37,19.09-20.76,19.23a3.71,3.71,0,0,1-2.37-.56s-2.79,2-3.9,1.48-1.68-2.45-1.68-2.45l1.68-3.57s-3.77,4.13-5.44,3.85-3.34-2.4-2.79-3.29,4.6-5.91,4.6-5.91-7.09,4.85-8.22,4a5.71,5.71,0,0,1-1.53-1.73l2.23-6.56,15.83-8.21,15.94-6.69Z" style="fill:#9f7362"></path><polygon points="102.45 177.33 77.52 183.16 78.2 207.42 102.4 206.04 103.96 190.35 102.45 177.33" style="fill:#FFC100"></polygon><path d="M111.55,134a4.66,4.66,0,0,1-1.51-9.14,4.84,4.84,0,0,1,4.63-7.94,5.8,5.8,0,0,1,9-4.3,6.52,6.52,0,0,1,8,.25,4.63,4.63,0,0,1,3.69,8.06" style="fill:#263238"></path><path d="M108.16,159.7c.19-5.12,1.44-15.62,2.68-25.11a19.75,19.75,0,0,1,20.57-17.16l1,0c11,1.19,16.1,11.18,14.61,22.13l-2.92,42.46-7.28,5.27a12.59,12.59,0,0,1-19.07-5.53h0l.5-9.34S107.76,170.29,108.16,159.7Z" style="fill:#9f7362"></path><path d="M118.18,172.45a25.77,25.77,0,0,0,14.08-3.37s-3.64,7.45-14.16,6Z" style="fill:#65463c"></path><path d="M113.44,145.07a1.5,1.5,0,0,0,1.38,1.59,1.45,1.45,0,0,0,1.63-1.28,1.51,1.51,0,0,0-1.38-1.6A1.45,1.45,0,0,0,113.44,145.07Z" style="fill:#263238"></path><path d="M112.86,139.88c.18.21,1.37-.58,3-.5s2.78,1,3,.77-.08-.45-.59-.85a4.1,4.1,0,0,0-2.36-.86,3.93,3.93,0,0,0-2.39.64C113,139.44,112.77,139.79,112.86,139.88Z" style="fill:#263238"></path><path d="M127.31,146.28a1.5,1.5,0,0,0,1.38,1.59,1.44,1.44,0,0,0,1.63-1.28,1.51,1.51,0,0,0-1.38-1.6A1.45,1.45,0,0,0,127.31,146.28Z" style="fill:#263238"></path><path d="M128.84,141c.17.21,1.36-.58,3-.5s2.78,1,3,.77-.08-.45-.58-.85a4.05,4.05,0,0,0-2.36-.86,3.91,3.91,0,0,0-2.39.64C128.94,140.54,128.75,140.89,128.84,141Z" style="fill:#263238"></path><path d="M122.33,152.75a10.63,10.63,0,0,0-2.61-.61c-.42-.06-.81-.16-.86-.45a2.06,2.06,0,0,1,.34-1.22l1.38-3.1c1.93-4.42,3.35-8.06,3.17-8.14s-1.89,3.45-3.82,7.87c-.46,1.09-.91,2.13-1.33,3.12a2.43,2.43,0,0,0-.3,1.62,1,1,0,0,0,.65.64,2.56,2.56,0,0,0,.71.13A10.24,10.24,0,0,0,122.33,152.75Z" style="fill:#263238"></path><path d="M127.07,154.12c-.27,0-.36,1.73-1.93,2.91s-3.45.89-3.47,1.14.4.36,1.19.42a4.37,4.37,0,0,0,2.89-.85,3.86,3.86,0,0,0,1.51-2.45C127.36,154.56,127.19,154.11,127.07,154.12Z" style="fill:#263238"></path><path d="M128.73,134.58c.14.45,1.78.33,3.67.65s3.42.92,3.69.54c.12-.19-.12-.62-.72-1.07a6.14,6.14,0,0,0-2.7-1.1,6.36,6.36,0,0,0-2.91.19C129.05,134,128.68,134.37,128.73,134.58Z" style="fill:#263238"></path><path d="M113.69,135.2c.27.39,1.41.06,2.76.11s2.48.37,2.76,0c.12-.18,0-.56-.52-.94a3.77,3.77,0,0,0-2.21-.71,3.72,3.72,0,0,0-2.23.63C113.75,134.64,113.58,135,113.69,135.2Z" style="fill:#263238"></path><path d="M112.1,129.79s3.12-6.5,6.4-7.88c4-1.68,5.42,2.65,9.15,1.8s7.53-2.46,11.16.58c4,3.32,1.92,5.41,1.95,10.12.08,19.1,3.29,24.66,4.73,15.74.16-1,2.92-1.63,3.53-5.76.79-5.36,1.33-11.88.31-15.76-.85-3.27-2.57-5.59-5.75-8.21-5-4.13-12.14-4.57-17-4.32S112.07,121.46,112.1,129.79Z" style="fill:#263238"></path><path d="M144.83,149.83a2.87,2.87,0,0,1,3.24-2.62c2,.29,4.1,1.52,3.77,5.59-.59,7.23-7.72,5.14-7.72,4.93S144.55,152.85,144.83,149.83Z" style="fill:#9f7362"></path><path d="M145.92,155.14s.12.1.32.22a1.28,1.28,0,0,0,.94.09,3.09,3.09,0,0,0,1.67-2.67,4.19,4.19,0,0,0-.21-1.83,1.46,1.46,0,0,0-.86-1,.63.63,0,0,0-.77.29c-.12.19-.08.34-.12.35s-.15-.14-.07-.43a.85.85,0,0,1,.33-.43.93.93,0,0,1,.71-.13,1.79,1.79,0,0,1,1.22,1.23,4.31,4.31,0,0,1,.27,2.05c-.16,1.45-1,2.76-2.09,3a1.4,1.4,0,0,1-1.14-.28C145.92,155.32,145.89,155.15,145.92,155.14Z" style="fill:#65463c"></path><path d="M145.38,135.8a6.94,6.94,0,0,1-3.13,1.26,2.38,2.38,0,0,1-2.54-1.79c-.06-.51.09-1.09-.22-1.49s-1.11-.38-1.72-.34a4.64,4.64,0,0,1-4.63-3.56,1.94,1.94,0,0,1-2.61.12,10.24,10.24,0,0,1-1.87-2.21,3,3,0,0,0-2.42-1.36,7.45,7.45,0,0,1-1.59.27c-1-.13-1.36-1.27-1.45-2.22s-.16-2.06-.94-2.61a3.77,3.77,0,0,0-2.58-.2c-.88.08-2-.18-2.18-1a1.7,1.7,0,0,1,.39-1.3,4.69,4.69,0,0,1,5.62-1.5,6.36,6.36,0,0,1,11.73-.65A6.45,6.45,0,0,1,145.43,120a4.68,4.68,0,0,1,4.93,7.06,4.44,4.44,0,0,1,2.27,3.66c0,1.5-1.58,2.92-3,2.45a2.59,2.59,0,0,1-4.6,2.36" style="fill:#263238"></path><path d="M122.86,119.93v.14a2.06,2.06,0,0,0,0,.38,4.78,4.78,0,0,0,.45,1.43,5.19,5.19,0,0,0,1.52,1.79,4.89,4.89,0,0,0,2.92,1l-.11-.17a2.6,2.6,0,0,0,0,2,7.16,7.16,0,0,0,1.15,1.84,5,5,0,0,0,.76.87,2.59,2.59,0,0,0,1.13.48,2.63,2.63,0,0,0,2.37-.72l-.27-.09a5.45,5.45,0,0,0,2.12,3.87,4,4,0,0,0,2.34.9,7.1,7.1,0,0,0,2.37-.4l-.19-.09a5.69,5.69,0,0,0,1.6,2.32,3,3,0,0,0,2.49.81,4,4,0,0,0,3.22-3l-.17.07a3.8,3.8,0,0,0,2.47.49,4,4,0,0,0,1.77-.69,3.42,3.42,0,0,0,.86-.84,2,2,0,0,0,.2-.37,4.5,4.5,0,0,1-1.12,1.11,4,4,0,0,1-1.73.61,3.56,3.56,0,0,1-2.33-.5l-.13-.08,0,.15a3.75,3.75,0,0,1-3,2.75,2.78,2.78,0,0,1-2.26-.77,5.27,5.27,0,0,1-1.5-2.2l-.06-.13-.13,0a7,7,0,0,1-2.27.38,3.65,3.65,0,0,1-2.16-.84,5.14,5.14,0,0,1-2-3.64l0-.35-.24.26a2.34,2.34,0,0,1-2.09.63,2.18,2.18,0,0,1-1-.42,5.28,5.28,0,0,1-.72-.82A7.19,7.19,0,0,1,128,126.4a2.4,2.4,0,0,1-.07-1.82l.07-.17h-.18a4.64,4.64,0,0,1-2.8-.91,5.13,5.13,0,0,1-1.52-1.7A6,6,0,0,1,122.86,119.93Z" style="fill:#455a64"></path><path d="M162.15,180.59s12.59,3.81,15.95,8.47,29.92,33,31.79,48.5a15.67,15.67,0,0,1-1.46,7.85c-3.37,7.67-12.64,7.63-21,4.66l-25.5-10.87-5.49-11.35h26.44l-19.41-24.17" style="fill:#FFC100"></path><path d="M186.49,184.48c-.35-2.49-1.66-14.65-2-16.49a10.26,10.26,0,0,0-3.61-6.44,6.44,6.44,0,0,0-7.06-.77h0A4.32,4.32,0,0,0,171,164c-3.63,18.65-1.35,44.66-2.07,63.69,0,0,13.92.12,21.11,1.13C188.85,213.81,188.75,200.65,186.49,184.48Z" style="fill:#263238"></path><path d="M185.78,210.4a3.06,3.06,0,0,1-.09-.48c-.05-.37-.11-.83-.18-1.39-.14-1.27-.34-3-.58-5.13-.45-4.39-1.07-10.35-1.75-16.93-.32-3.31-.63-6.46-.91-9.33-.13-1.43-.26-2.79-.38-4.07a21.21,21.21,0,0,0-.53-3.49,5.73,5.73,0,0,0-3-3.91,4.55,4.55,0,0,0-1.81-.39s0,0,.12,0a2.89,2.89,0,0,1,.37,0,3.64,3.64,0,0,1,1.39.29,5,5,0,0,1,1.8,1.34,6.88,6.88,0,0,1,1.38,2.64,20.42,20.42,0,0,1,.59,3.54c.13,1.28.28,2.64.42,4.07.3,2.87.61,6,1,9.32l1.62,17c.18,2.13.33,3.87.44,5.14,0,.57.07,1,.1,1.4A1.53,1.53,0,0,1,185.78,210.4Z" style="fill:#455a64"></path><path d="M179.13,204a5,5,0,0,1-.17-1.09c-.08-.7-.18-1.72-.28-3-.22-2.53-.45-6-.67-9.89s-.39-7.27-.54-9.89c-.06-1.2-.1-2.2-.14-3a5.17,5.17,0,0,1,0-1.1,5.21,5.21,0,0,1,.17,1.09c.08.7.18,1.73.28,3,.22,2.53.45,6,.67,9.89s.39,7.27.54,9.89c0,1.2.1,2.2.14,3A5.17,5.17,0,0,1,179.13,204Z" style="fill:#455a64"></path><path d="M167.48,163.52c-.13-2,.78-4,1.11-6,.73-4.44-1.62-8.93-5.06-11.83-3.2-2.71-7.81-3.79-12.71-3.75a17.84,17.84,0,0,0-9.56,2.68A14,14,0,0,0,135,155.84l22.76,3.67a25.35,25.35,0,0,0,5.23,6.41,4.77,4.77,0,0,0,2.15,1.08,2.15,2.15,0,0,0,2.14-.87A4.59,4.59,0,0,0,167.48,163.52Z" style="fill:#263238"></path><path d="M159,143.06c5,.69,8.63,3.84,11.8,7.79a25,25,0,0,1,5.26,14,29.83,29.83,0,0,1-4.3,16.78,15.5,15.5,0,0,1-12.47,7.12c-7.28.26-14.77-2.39-19-8.33s-5.22-13.86-3.3-20.88A24,24,0,0,1,144.94,147a18.37,18.37,0,0,1,14.08-4" style="fill:#263238"></path><path d="M134.69,196.45h0v0l-.33,1.26s-.05.12-.12.33c-.59,2.7-.92,8,4.93,10,7.35,2.4,15.47-4,16.71-5l12.94-40.37a3.72,3.72,0,0,0-2.22-4.51l-17.73-10c-5.93-2.31-12,4.1-14.08,10.11-2.28,6.69-4.8,14.94-5.37,20.23-1.16,10.64,6.31,14.07,6.31,14.07S135.42,193.66,134.69,196.45Z" style="fill:#ffbe9d"></path><path d="M134.86,166.53a1.36,1.36,0,0,0,.9,1.67,1.3,1.3,0,0,0,1.67-.81,1.36,1.36,0,0,0-.9-1.67A1.3,1.3,0,0,0,134.86,166.53Z" style="fill:#263238"></path><path d="M135,162.73c.12.21,1.31-.25,2.72.14s2.24,1.37,2.44,1.24,0-.41-.34-.86a3.79,3.79,0,0,0-1.9-1.21,3.56,3.56,0,0,0-2.22.11C135.19,162.36,135,162.63,135,162.73Z" style="fill:#263238"></path><path d="M147.43,170.14a1.34,1.34,0,0,0,.9,1.66A1.29,1.29,0,0,0,150,171a1.35,1.35,0,0,0-.9-1.66A1.29,1.29,0,0,0,147.43,170.14Z" style="fill:#263238"></path><path d="M148.34,166.54c.11.22,1.31-.25,2.71.14s2.25,1.37,2.45,1.24,0-.41-.35-.86a3.7,3.7,0,0,0-1.9-1.2,3.58,3.58,0,0,0-2.22.1C148.51,166.18,148.28,166.44,148.34,166.54Z" style="fill:#263238"></path><path d="M140.84,175.81a9.62,9.62,0,0,0-2.18-1c-.34-.13-.67-.29-.66-.56a1.92,1.92,0,0,1,.53-1l1.81-2.45c2.54-3.49,4.48-6.4,4.34-6.51s-2.32,2.65-4.86,6.15l-1.76,2.48a2.12,2.12,0,0,0-.57,1.36.91.91,0,0,0,.44.68,2.15,2.15,0,0,0,.59.25A9.37,9.37,0,0,0,140.84,175.81Z" style="fill:#263238"></path><path d="M135.33,192.2a26.83,26.83,0,0,0,14.66.08s-5.36,6.13-15.31,2.39Z" style="fill:#eb996e"></path><path d="M140.51,179.36A2.65,2.65,0,0,1,143,179a2.45,2.45,0,0,1,1.37,1.29,1.53,1.53,0,0,1-.35,1.71,1.77,1.77,0,0,1-2,0,5.65,5.65,0,0,1-1.51-1.57,1.57,1.57,0,0,1-.29-.52.49.49,0,0,1,.15-.53" style="fill:#eb996e"></path><path d="M144.72,177.91c-.23-.07-.65,1.45-2.25,2.18s-3.18.12-3.25.33.28.4,1,.6a3.89,3.89,0,0,0,2.69-.19,3.41,3.41,0,0,0,1.79-1.85C144.89,178.36,144.82,177.93,144.72,177.91Z" style="fill:#263238"></path><path d="M149.71,162.44c0,.42,1.49.62,3.09,1.27s2.81,1.46,3.12,1.18c.15-.14,0-.56-.42-1.08a5.85,5.85,0,0,0-4.74-1.87C150.09,162,149.7,162.24,149.71,162.44Z" style="fill:#263238"></path><path d="M137.11,156.68c.16.39,1.22.32,2.39.62s2.09.81,2.41.53c.15-.13.08-.49-.27-.92a3.5,3.5,0,0,0-1.8-1,3.39,3.39,0,0,0-2.07.13C137.27,156.2,137,156.5,137.11,156.68Z" style="fill:#263238"></path><path d="M171.88,161.68c-.15-6.4-6.27-17-12.53-18.36l-11.51,3a9.85,9.85,0,0,0,4.29,9.11c1.58,1,3.62,1.79,4.22,3.58s-.66,3.86-.14,5.72c.72,2.57,4.46,3.55,4.79,6.2.14,1.15-.45,2.31-.28,3.47.22,1.54,3.15,4.26,4.7,4.23s2.27-2.45,3.11-3.59a7,7,0,0,0,1.52-4.44C170.27,167.56,172,164.74,171.88,161.68Z" style="fill:#263238"></path><path d="M160.88,178.61c.21-.76,1.57-2.31,2.36-2.22,2.08.23,5.65,1.37,4.3,6.47-1.85,7-8.46,3.68-8.42,3.47S160.16,181.23,160.88,178.61Z" style="fill:#ffbe9d"></path><path d="M162,184.26s.1.11.28.26a1.21,1.21,0,0,0,.9.26c.81-.07,1.74-1.08,2.1-2.32a4,4,0,0,0,.12-1.83,1.45,1.45,0,0,0-.66-1.18.64.64,0,0,0-.81.15c-.14.17-.13.32-.18.32s-.11-.16,0-.43a.77.77,0,0,1,.39-.36.94.94,0,0,1,.72,0,1.77,1.77,0,0,1,1,1.41,4.28,4.28,0,0,1-.1,2.06c-.41,1.39-1.48,2.51-2.56,2.54a1.35,1.35,0,0,1-1.07-.48C161.91,184.43,161.92,184.26,162,184.26Z" style="fill:#eb996e"></path><path d="M175.25,172.79a6.82,6.82,0,0,0,.9-2,15.88,15.88,0,0,0,.77-5.21,16,16,0,0,0-1-5.17,6.75,6.75,0,0,0-1-2,19.85,19.85,0,0,1,.29,14.31Z" style="fill:#FFC100"></path><path d="M150.49,144.88c-1.51,2.6-6.89,4.85-9.44,6.44-4.87,3-5.74,3.44-9.63,16a31.18,31.18,0,0,1,1-13.34,15.73,15.73,0,0,1,7.08-8.6,12.27,12.27,0,0,1,11-.47" style="fill:#263238"></path><path d="M175.41,162.69a7,7,0,0,1-1.26-.08,12.23,12.23,0,0,1-1.46-.19c-.57-.1-1.23-.19-1.93-.37a34.19,34.19,0,0,1-4.89-1.48,39.14,39.14,0,0,1-5.62-2.75,40,40,0,0,1-5.05-3.69,35.64,35.64,0,0,1-3.59-3.64c-.48-.54-.86-1.08-1.22-1.53s-.63-.87-.85-1.21a7.25,7.25,0,0,1-.66-1.08,7.16,7.16,0,0,1,.79,1c.24.33.54.72.91,1.16s.76,1,1.26,1.48a39.77,39.77,0,0,0,3.62,3.54,42.22,42.22,0,0,0,5,3.62A40.63,40.63,0,0,0,166,160.2a38.82,38.82,0,0,0,4.81,1.56c.69.19,1.34.3,1.9.42s1.05.21,1.45.27A7.32,7.32,0,0,1,175.41,162.69Z" style="fill:#455a64"></path><path d="M174.58,167.84a3.29,3.29,0,0,1-.86-.05,21.36,21.36,0,0,1-2.3-.42A28.58,28.58,0,0,1,158,160.06a19.53,19.53,0,0,1-1.6-1.7,3.38,3.38,0,0,1-.52-.69c.06,0,.87.86,2.32,2.17a33.37,33.37,0,0,0,6.23,4.41,33.74,33.74,0,0,0,7.08,2.83C173.38,167.59,174.59,167.77,174.58,167.84Z" style="fill:#455a64"></path><path d="M176.26,168.56a4.41,4.41,0,0,1-.09,1.11,28.57,28.57,0,0,1-.62,3,42.79,42.79,0,0,1-1.34,4.28,29.22,29.22,0,0,1-2.34,5A14.45,14.45,0,0,1,164.1,188a14.06,14.06,0,0,1-3,.58,4.72,4.72,0,0,1-1.11,0,6.18,6.18,0,0,1,1.09-.19,18.89,18.89,0,0,0,2.91-.7,13.56,13.56,0,0,0,3.86-2.09,14.78,14.78,0,0,0,3.63-4,31.32,31.32,0,0,0,2.33-4.9c.6-1.57,1.07-3,1.42-4.22s.6-2.22.75-2.92A8,8,0,0,1,176.26,168.56Z" style="fill:#455a64"></path><path d="M163.3,226.56s-22.89-1.31-25.23,0L114.25,240l5.32,12.4,14.57-10.12s13.56,2.48,14,2.48,7.73,3.64,8.61,2.33.14-1.6.14-1.6-7.87-3.35-7.29-3.94,11.66,2,12.39,1.75,1.17-2,.3-2.48-9.77-2.62-9.77-3.49-.29-1.17.87-1.32,12.54-.14,13.12-1.45.15-2.19-.87-2.34-14.87,0-14.14-.87,11.51-2,12.1-2.48S164,226.6,163.3,226.56Z" style="fill:#ffbe9d"></path><path d="M112,238.6a4.38,4.38,0,0,1-.17-1.1c-.07-.71-.14-1.74-.18-3a63.54,63.54,0,0,1,2.6-19.77c.37-1.22.7-2.21,1-2.87a4.42,4.42,0,0,1,.44-1c.08,0-.4,1.53-1,4a82.33,82.33,0,0,0-1.92,9.75,81.06,81.06,0,0,0-.66,9.91C112,237,112,238.6,112,238.6Z" style="fill:#263238"></path><path d="M169,227.73a6.48,6.48,0,0,1,1.2-.09c.77,0,1.89,0,3.27,0,2.76,0,6.58.11,10.79.43a65.05,65.05,0,0,1,10.69,1.61,21.15,21.15,0,0,1,3.12,1.06,4.82,4.82,0,0,1,1.05.59,6,6,0,0,1-1.13-.4,26.16,26.16,0,0,0-3.12-.89,79.3,79.3,0,0,0-10.65-1.45c-4.19-.32-8-.48-10.76-.58l-3.26-.14A4.91,4.91,0,0,1,169,227.73Z" style="fill:#263238"></path><path d="M85.31,173.48c1.68,2.58,4.41,6.83,6.1,9.49a2.69,2.69,0,0,1-.92,3.8L66.14,200.94a2.39,2.39,0,0,1-3.25-.83l-5.83-9.67a2.4,2.4,0,0,1,.81-3.28l23.75-14.51A2.71,2.71,0,0,1,85.31,173.48Z" style="fill:#263238"></path><path d="M70.79,197.06a8.31,8.31,0,0,1,1.25-.84l3.5-2.12c3-1.77,7.1-4.18,11.67-6.82l1.7-1,.8-.46a1.25,1.25,0,0,0,.45-.63,2.53,2.53,0,0,0,0-1.63,6,6,0,0,0-.81-1.46c-1.23-1.9-2.34-3.63-3.29-5.11s-1.62-2.56-2.18-3.46a8.07,8.07,0,0,1-.74-1.31,8.68,8.68,0,0,1,.91,1.2l2.31,3.37,3.39,5c.15.24.32.48.48.73a3.22,3.22,0,0,1,.4.86,3,3,0,0,1,0,2,1.75,1.75,0,0,1-.65.87l-.85.49-1.69,1c-4.56,2.63-8.71,5-11.73,6.67l-3.58,2A8.74,8.74,0,0,1,70.79,197.06Z" style="fill:#455a64"></path><path d="M73,180.63a1.42,1.42,0,0,0-1.61-2.12,4.88,4.88,0,0,1-2.85,0c-1-.29-2-.63-2.9-.92a5.38,5.38,0,0,0-4.23.38l-6.19,3.34L51.28,184s-.37.48-.85,1.24a9.47,9.47,0,0,0-.26,9.71c.11.21.2.41.27.57.42,1.17,3.59,5.5,6.13,5.92s7.61,3.81,9.4,1.48l.53-.42S73.37,204,73.9,200c0,0,3.49,1.27,4.13.1s.63-2,0-2.74-13.75-7.1-13.75-7.1a2.51,2.51,0,0,1,2.54-.83c1.37.53,11.63,5.18,13.21,5s2.75-1.17,1.27-2.65-9.3-5.49-11.63-6.34-3.8-1.48-3.8-1.48-.74-1.58.42-1.58,4,1.17,6.13-1.05A4.48,4.48,0,0,0,73,180.63Z" style="fill:#9f7362"></path><path d="M60.92,194.16a9.07,9.07,0,0,1,2,.61c1.23.45,2.91,1.11,4.74,1.91s3.45,1.59,4.61,2.19A8,8,0,0,1,74.12,200a68.93,68.93,0,0,1-6.64-2.79A69.66,69.66,0,0,1,60.92,194.16Z" style="fill:#65463c"></path><path d="M58.26,198c.09-.12,2,1.29,4.49,2.62s4.74,2.08,4.7,2.22a13.84,13.84,0,0,1-5-1.76A14,14,0,0,1,58.26,198Z" style="fill:#65463c"></path><path d="M56,197.08c0,.15-1-.16-1.4-1.19s0-1.91.12-1.83,0,.8.36,1.63S56.05,197,56,197.08Z" style="fill:#65463c"></path><path d="M62.75,179.81c.14-.05.65,1.07,1.61,2.19s2,1.81,1.9,1.94a4.2,4.2,0,0,1-2.3-1.6A4.14,4.14,0,0,1,62.75,179.81Z" style="fill:#65463c"></path><circle cx="83.73" cy="180.07" r="1.16" style="fill:#fff"></circle><path d="M101.73,192.2a25.59,25.59,0,0,1,0,3.35c-.06,2.21-.13,5-.2,8.06s-.12,5.85-.16,8.07a22.49,22.49,0,0,1-.18,3.34,20,20,0,0,1-.19-3.34c0-2.07-.06-4.93,0-8.08s.19-6,.35-8.07c.08-1,.16-1.86.24-2.44A3.17,3.17,0,0,1,101.73,192.2Z" style="fill:#263238"></path><path d="M117.35,271.07a4.68,4.68,0,0,1,.11.76q.08.82.21,2.19c.17,2,.4,4.69.69,8.05.71,6.8.94,16.23,1.35,26.64,0,.85.07,1.69.1,2.48l-.25-.25,13.8.54c4.22.21,8,.06,11.17,0l7.49-.24,2-.05a3.4,3.4,0,0,1,.7,0,3.27,3.27,0,0,1-.7.09l-2,.15c-1.76.11-4.32.26-7.49.39s-7,.3-11.19.12l-13.81-.49h-.24v-.24c0-.79-.06-1.63-.1-2.48-.41-10.41-.58-19.83-1.2-26.63-.21-3.37-.39-6.11-.52-8.07l-.12-2.19A3.78,3.78,0,0,1,117.35,271.07Z" style="fill:#263238"></path><path d="M164.38,327.81s1.77,4.94,4.25,12.14c5.67,16.45,15.07,44.69,15.53,52.49.66,11.21-24.73,68.58-24.73,68.58L141,456.07s8-40.55,17-59.35c0,0-12.08-26.38-17-35.61s-21.36-32-19-49.82h33.8Z" style="fill:#263238"></path><path d="M143.85,325.27a2.75,2.75,0,0,1,.76-.47,13.8,13.8,0,0,1,2.23-1,18,18,0,0,1,3.52-.82,19.7,19.7,0,0,1,4.43-.06,20.24,20.24,0,0,1,4.33,1,18.59,18.59,0,0,1,3.27,1.54,14.25,14.25,0,0,1,2,1.4,3.62,3.62,0,0,1,.65.62c-.06.08-1-.73-2.81-1.7a21.6,21.6,0,0,0-3.25-1.41,22.07,22.07,0,0,0-4.22-.91,21.44,21.44,0,0,0-4.32,0,21.18,21.18,0,0,0-3.47.7C145,324.77,143.89,325.36,143.85,325.27Z" style="fill:#455a64"></path><path d="M159.43,461a2,2,0,0,1,.11-.35c.1-.24.22-.57.38-1l1.48-3.81c1.32-3.33,3.2-8.1,5.52-14S172,428.93,175,421.12c1.5-3.92,3.09-8,4.66-12.32.79-2.14,1.59-4.32,2.31-6.56a42.13,42.13,0,0,0,1.5-7,21.24,21.24,0,0,0,.26-7,24.14,24.14,0,0,0-.82-3.38c-.33-1.12-.65-2.22-1-3.31L178.08,369c-2.52-8-4.79-15.21-6.71-21.27s-3.44-10.93-4.52-14.34c-.52-1.68-.92-3-1.21-3.91-.12-.43-.22-.76-.3-1a1.9,1.9,0,0,1-.08-.35s.05.11.13.34l.35,1,1.31,3.87c1.11,3.41,2.71,8.28,4.67,14.3s4.26,13.24,6.82,21.23c1.27,4,2.59,8.21,3.92,12.58l1,3.31a28,28,0,0,1,.83,3.45,21.66,21.66,0,0,1-.25,7.22,42.51,42.51,0,0,1-1.53,7c-.73,2.25-1.53,4.44-2.32,6.58-1.58,4.29-3.18,8.39-4.69,12.31-3.05,7.82-5.86,14.84-8.23,20.73s-4.32,10.61-5.67,13.93c-.67,1.61-1.2,2.88-1.58,3.77-.17.41-.31.73-.42,1A2.29,2.29,0,0,1,159.43,461Z" style="fill:#455a64"></path></g></svg>