<svg xmlns="http://www.w3.org/2000/svg" viewBox="0 0 500 500"><g id="freepik--Plane--inject-99"><g style="opacity:0.6000000000000001"><path d="M243.5,342.24S71.2,379.75,54,350.46c-8-13.66,29.72-33.95,29.72-33.95s-25.1,17.88-13.65,24.92c21.35,13.11,139.21-16.66,139.21-16.66Z" style="fill:#ebebeb"></path><path d="M141,363.21l25.76-3.77c4.29-.65,8.58-1.21,12.86-1.9s8.56-1.29,12.84-2,8.55-1.35,12.81-2.1,8.51-1.52,12.79-2.22c8.51-1.6,17-3.32,25.49-5.16a217,217,0,0,1-25,7.45c-4.24,1-8.5,1.9-12.77,2.72s-8.56,1.54-12.85,2.27-8.6,1.28-12.92,1.81c-2.15.26-4.31.52-6.47.75s-4.33.48-6.49.66C158.33,362.56,149.65,363.15,141,363.21Z" style="fill:#ebebeb"></path><path d="M75.93,328.08a10.66,10.66,0,0,0-1.48,3.16,6.61,6.61,0,0,0-.2,1.63,3.7,3.7,0,0,0,.37,1.46,4.69,4.69,0,0,0,2.14,2.08,13.57,13.57,0,0,0,3,1.16,37.25,37.25,0,0,0,6.8.94c2.31.18,4.66.21,7,.19s4.7-.06,7.06-.15,4.72-.2,7.08-.3c4.74-.2,9.49-.51,14.29-.53A110.65,110.65,0,0,1,108,340.58c-1.18.19-2.37.34-3.56.45s-2.38.27-3.58.35c-2.39.19-4.8.28-7.21.32-4.82-.07-9.72-.26-14.5-1.9a14.07,14.07,0,0,1-3.43-1.75,6.31,6.31,0,0,1-2.45-3.22,5.36,5.36,0,0,1,.44-3.88A9.08,9.08,0,0,1,75.93,328.08Z" style="fill:#ebebeb"></path><path d="M217.23,192.16S389.82,156,393.55,122.29c1.74-15.74-41-18.86-41-18.86s28.76,5.21,22.64,17.17C362,146.4,217.23,192.16,217.23,192.16Z" style="fill:#ebebeb"></path><path d="M319.4,169.43c-8,3.49-16.13,6.5-24.36,9.3-2.05.72-4.12,1.39-6.19,2.05s-4.14,1.32-6.22,2c-4.16,1.28-8.35,2.43-12.53,3.62s-8.42,2.21-12.66,3.18-8.5,1.89-12.76,2.73a214.88,214.88,0,0,1-25.88,3.41c8.52-1.79,17-3.68,25.38-5.7,4.19-1.11,8.41-2,12.58-3.2s8.37-2.19,12.55-3.31,8.36-2.27,12.52-3.45,8.34-2.36,12.51-3.51Z" style="fill:#ebebeb"></path><path d="M364.41,110.8a6.14,6.14,0,0,1,3,2.2,5.34,5.34,0,0,1,.85,1.82,6.58,6.58,0,0,1,.13,2,9.72,9.72,0,0,1-1.25,3.76,19,19,0,0,1-2.19,3.17,51.84,51.84,0,0,1-11.52,9.49c-2.1,1.31-4.22,2.55-6.39,3.71-1.08.58-2.18,1.13-3.28,1.67s-2.2,1.1-3.33,1.58a113.74,113.74,0,0,1-13.71,5.28c4.17-2.6,8.44-4.93,12.64-7.36,2.1-1.23,4.23-2.38,6.29-3.65s4.16-2.45,6.17-3.76,4-2.6,6-4a49.7,49.7,0,0,0,5.45-4.52,22.25,22.25,0,0,0,2.25-2.62,8.6,8.6,0,0,0,1.47-3,5.8,5.8,0,0,0,.17-1.61,5.07,5.07,0,0,0-.42-1.59A6.46,6.46,0,0,0,364.41,110.8Z" style="fill:#ebebeb"></path></g><path d="M269.87,350.46c-1.3-1.5-19.41-14.15-20.77-15.1l3.09-.53S268.75,348.9,269.87,350.46Z" style="fill:#FFC100"></path><path d="M269.87,350.46c-1.3-1.5-19.41-14.15-20.77-15.1l3.09-.53S268.75,348.9,269.87,350.46Z" style="fill:#fff;opacity:0.5"></path><path d="M269.93,350.57v0s0,0,0,.06c-.14.32-1.38.6-2.77.79h-.05a12,12,0,0,1-3.88.08c-.39-.27-13.46-6.81-21.46-10.81l-.32-.15-.06,0h0l-1.13-.57-3.3-1.64-1.28-.64,13.45-2.3c.77.53,6.88,4.8,12.29,8.69l.56.4c.5.36,1,.72,1.48,1.06a77.45,77.45,0,0,1,6.44,4.94s0,.05,0,.07Z" style="fill:#FFC100"></path><g style="opacity:0.1"><path d="M269.93,350.57v0s0,0,0,.06c-.14.32-1.38.6-2.77.79h-.05a12,12,0,0,1-3.88.08c-.4-.27-13.81-7-21.78-11,1.31.64,18.51,8.91,22,5a77.45,77.45,0,0,1,6.44,4.94s0,.05,0,.07Z"></path></g><path d="M447.1,365.33h0c0,1.8-9.91,2.38-11.26,2s-109.35-42.88-109.35-42.88l39.69-15.71,1.15.79.5.35c7.32,5.06,29.17,20.21,48.25,33.54l1.13.79,1.5,1C431.94,354.51,443.41,362.58,447.1,365.33Z" style="fill:#FFC100"></path><path d="M447.1,365.33c-9.66-7.21-72.67-50.87-80.92-56.58l5-2s73.4,55.83,75.62,58.05A.82.82,0,0,1,447.1,365.33Z" style="fill:#FFC100"></path><path d="M447.1,365.33c-9.66-7.21-72.67-50.87-80.92-56.58l5-2s73.4,55.83,75.62,58.05A.82.82,0,0,1,447.1,365.33Z" style="fill:#fff;opacity:0.5"></path><g style="opacity:0.5"><path d="M447.1,365.33h0c0,1.8-9.91,2.38-11.26,2s-109.35-42.88-109.35-42.88l39.69-15.71s-9.81,11.22,13.48,28.49c15.87,11.77,32.77,14.21,39,8C431.94,354.51,443.41,362.58,447.1,365.33Z" style="opacity:0.1"></path></g><path d="M357.15,338.39c-3.07,1.49-6.4,2.65-6.65-.43-.09-1.26.89-2.61,5.82-5,1.15-.56,4-1.8,4.81.76S358.3,337.82,357.15,338.39Z" style="fill:#FFC100"></path><path d="M357.15,338.39c-3.07,1.49-6.4,2.65-6.65-.43-.09-1.26.89-2.61,5.82-5,1.15-.56,4-1.8,4.81.76S358.3,337.82,357.15,338.39Z" style="opacity:0.1"></path><path d="M382.18,348.63c-3.07,1.49-6.41,2.66-6.65-.42-.1-1.27.88-2.62,5.82-5,1.15-.56,4-1.79,4.81.77S383.33,348.07,382.18,348.63Z" style="fill:#FFC100"></path><path d="M382.18,348.63c-3.07,1.49-6.41,2.66-6.65-.42-.1-1.27.88-2.62,5.82-5,1.15-.56,4-1.79,4.81.77S383.33,348.07,382.18,348.63Z" style="opacity:0.1"></path><path d="M407.2,358.87c-3.06,1.49-6.4,2.66-6.64-.42-.1-1.26.88-2.61,5.81-5,1.16-.55,4-1.79,4.82.77S408.36,358.31,407.2,358.87Z" style="fill:#FFC100"></path><path d="M407.2,358.87c-3.06,1.49-6.4,2.66-6.64-.42-.1-1.26.88-2.61,5.81-5,1.16-.55,4-1.79,4.82.77S408.36,358.31,407.2,358.87Z" style="opacity:0.1"></path><path d="M399,332c-3,5.37-9.86,7.3-14.19,9-11.51,4.6-19.85,7.18-24-3.27a13.14,13.14,0,0,1-.92-3.78c-.68-7.88,7.49-11.82,11.63-14h0c5-2.64,8.54-4.34,11.18-5.45,4.3-1.82,6.22-2,8.19-2.11,2.33-.08,7.58.51,9.31,10.15A13.68,13.68,0,0,1,399,332Z" style="fill:#FFC100"></path><path d="M399.16,324.47c0,5.87-3.67,10.63-8.2,10.63s-8.2-4.76-8.2-10.63,3.67-10.63,8.2-10.63S399.16,318.6,399.16,324.47Z" style="fill:#263238"></path><path d="M398.2,324.47c0,5.19-3.24,9.39-7.24,9.39s-7.25-4.2-7.25-9.39,3.25-9.4,7.25-9.4S398.2,319.28,398.2,324.47Z" style="fill:#455a64"></path><path d="M227.3,321.65l-1.9.7-4.28,1.55-14.8-6.39C192,311.36,175,304.12,171.75,303l.41.12.38.12.5.16.28.1,1.13.36,1.16.38,3.25,1.07,1.12.37,1,.35.57.19,1.77.59,1.17.39,15.23,5.12,1.44.49,5.67,1.91,9.78,3.31,1.38.47c1.58.53,3,1,4.26,1.44h0l1.09.37.5.17.26.08C226.14,321.27,227.3,321.65,227.3,321.65Z" style="fill:#FFC100"></path><path d="M227.3,321.65l-1.9.7-4.28,1.55-14.8-6.39C192,311.36,175,304.12,171.75,303l.41.12.38.12.5.16.28.1,1.13.36,1.16.38,3.25,1.07,1.12.37,1,.35.57.19,1.77.59,1.17.39,15.23,5.12,1.44.49,5.67,1.91,9.78,3.31,1.38.47c1.58.53,3,1,4.26,1.44h0l1.09.37.5.17.26.08C226.14,321.27,227.3,321.65,227.3,321.65Z" style="fill:#fff;opacity:0.5"></path><path d="M221.12,323.9l-11.46,4.18s-25.6-11.88-40.87-19.33l-.16-.07-.21-.1L164,306.42c-3.95-2-6.45-3.32-6.35-3.5.42-.85,9.92-1.06,13.72,0l.11,0,.24.08c3.16,1.07,19.11,7.85,33.12,13.87l.32.13,1.13.49Z" style="fill:#FFC100"></path><g style="opacity:0.1"><path d="M221.12,323.9l-11.46,4.18s-25.6-11.88-40.87-19.33c2.53,1.08,28.44,12.49,34.82,10.9a3.65,3.65,0,0,0,2.71-2.14Z"></path></g><path d="M250.61,307.56,222.8,320.94s.28-23.85.5-41c0-.59,0-1.17,0-1.74s0-.94,0-1.4c.07-5.87.14-10.6.17-12.75.1-6.9.84-8.3,2.67-7.18s9.95,8.19,12.39,11.34c2,2.58,6.44,18.24,9.33,29,0,.1,0,.18.06.27.17.63.34,1.24.49,1.82C249.74,304.14,250.61,307.56,250.61,307.56Z" style="fill:#FFC100"></path><g style="opacity:0.1"><path d="M250.61,307.56,222.8,320.94s.28-23.85.5-41c4.09,9.14,12.18,21.62,25.15,19.36C249.74,304.14,250.61,307.56,250.61,307.56Z"></path></g><path d="M203.37,335.52c-2.86-7.16,9.29-13.66,23.09-19.85S376.28,249.49,396,244.14s42.68,2,46.56,13.23c5.82,16.9-18.71,31.06-106.82,67.59-11.55,4.79-63.19,17.19-92.23,17.28C212.45,342.34,204.78,339,203.37,335.52Z" style="fill:#FFC100"></path><path d="M203.37,335.52c-2.86-7.16,9.29-13.66,23.09-19.85S376.28,249.49,396,244.14s42.68,2,46.56,13.23c5.82,16.9-18.71,31.06-106.82,67.59-11.55,4.79-63.19,17.19-92.23,17.28C212.45,342.34,204.78,339,203.37,335.52Z" style="fill:#fff;opacity:0.5"></path><path d="M335.73,325c-11.55,4.79-63.19,17.18-92.23,17.28-31.05.1-38.72-3.2-40.13-6.72-1.5-3.74,1.11-7.31,5.92-10.75a5,5,0,0,0,.37,2.12c1.29,3.2,8.25,6.19,36.42,6.1,26.35-.09,64.25-21.43,74.72-25.77C400.75,274.07,432,271.31,426.69,256c-2.3-6.68-12-11.83-23.43-13.24,17.72-2.12,35.88,4.73,39.29,14.63C448.37,274.27,423.84,288.43,335.73,325Z" style="opacity:0.1"></path><polygon points="246.49 311.92 249.61 310.56 249.61 315.16 246.49 316.51 246.49 311.92" style="fill:#455a64"></polygon><polygon points="252.19 309.45 255.53 308 255.53 312.6 252.19 314.04 252.19 309.45" style="fill:#455a64"></polygon><polygon points="258.1 306.89 261.44 305.44 261.44 310.04 258.1 311.48 258.1 306.89" style="fill:#455a64"></polygon><polygon points="264.02 304.33 267.35 302.88 267.35 307.48 264.02 308.92 264.02 304.33" style="fill:#455a64"></polygon><polygon points="269.93 301.77 273.27 300.32 273.27 304.92 269.93 306.36 269.93 301.77" style="fill:#455a64"></polygon><polygon points="275.85 299.21 279.18 297.76 279.18 302.36 275.85 303.81 275.85 299.21" style="fill:#455a64"></polygon><polygon points="281.76 296.65 285.1 295.2 285.1 299.8 281.76 301.25 281.76 296.65" style="fill:#455a64"></polygon><polygon points="287.67 294.09 291.01 292.64 291.01 297.24 287.67 298.69 287.67 294.09" style="fill:#455a64"></polygon><polygon points="293.59 291.53 296.92 290.08 296.92 294.68 293.59 296.13 293.59 291.53" style="fill:#455a64"></polygon><polygon points="299.5 288.97 302.84 287.52 302.84 292.12 299.5 293.56 299.5 288.97" style="fill:#455a64"></polygon><polygon points="305.42 286.41 308.75 284.96 308.75 289.56 305.42 291 305.42 286.41" style="fill:#455a64"></polygon><polygon points="311.33 283.85 314.67 282.4 314.67 287 311.33 288.44 311.33 283.85" style="fill:#455a64"></polygon><polygon points="317.24 281.29 320.58 279.85 320.58 284.44 317.24 285.88 317.24 281.29" style="fill:#455a64"></polygon><polygon points="323.16 278.73 326.49 277.29 326.49 281.88 323.16 283.32 323.16 278.73" style="fill:#455a64"></polygon><polygon points="329.07 276.17 332.41 274.73 332.41 279.32 329.07 280.76 329.07 276.17" style="fill:#455a64"></polygon><polygon points="334.98 273.61 338.32 272.17 338.32 276.76 334.98 278.21 334.98 273.61" style="fill:#455a64"></polygon><polygon points="340.9 271.05 344.24 269.61 344.24 274.2 340.9 275.65 340.9 271.05" style="fill:#455a64"></polygon><polygon points="346.81 268.49 350.15 267.05 350.15 271.64 346.81 273.09 346.81 268.49" style="fill:#455a64"></polygon><polygon points="352.73 265.93 356.06 264.49 356.06 269.08 352.73 270.53 352.73 265.93" style="fill:#455a64"></polygon><polygon points="358.64 263.37 361.98 261.93 361.98 266.52 358.64 267.97 358.64 263.37" style="fill:#455a64"></polygon><polygon points="364.55 260.81 367.89 259.37 367.89 263.96 364.55 265.41 364.55 260.81" style="fill:#455a64"></polygon><polygon points="373.81 256.81 373.81 261.4 370.47 262.85 370.47 258.25 373.81 256.81" style="fill:#455a64"></polygon><polygon points="379.72 254.25 379.72 258.84 376.38 260.29 376.38 255.69 379.72 254.25" style="fill:#455a64"></polygon><polygon points="385.63 251.69 385.63 256.28 382.3 257.73 382.3 253.13 385.63 251.69" style="fill:#455a64"></polygon><polygon points="391.55 249.13 391.55 253.72 388.21 255.17 388.21 250.57 391.55 249.13" style="fill:#455a64"></polygon><path d="M407,247.25a16.09,16.09,0,0,1,6.2-2.89v3C411.22,247.34,409.18,247.29,407,247.25Z" style="fill:#455a64"></path><path d="M420.47,243.63v4.22c-1.56-.14-3.11-.23-4.68-.31v-3.69A24.36,24.36,0,0,1,420.47,243.63Z" style="fill:#455a64"></path><path d="M435.34,249.59c-1.31,0-2.51-.26-3.71-.4s-2.37-.36-3.54-.47c-1.7-.26-3.38-.44-5-.6V243.9a23.59,23.59,0,0,1,5.92,1.61,21.59,21.59,0,0,1,3.38,1.74,12.59,12.59,0,0,1,1.56,1.1C434.4,248.75,434.89,249.15,435.34,249.59Z" style="fill:#455a64"></path><path d="M329.07,287l-39.2,18.86s-62.3-33.4-107-57.8l-.1-.06h0c-23.86-13-42.08-23.16-41.78-23.55.75-1,12.75-.89,17.5-.24a8.8,8.8,0,0,1,1.36.24c2,.55,72.51,26.66,121.87,45Z" style="fill:#FFC100"></path><g style="opacity:0.1"><path d="M329.07,287l-39.2,18.86s-62.3-33.4-107-57.8c3.5,1.76,83.65,42.15,94.12,36.09,3.95-2.29,5-8.2,4.71-14.73Z"></path></g><path d="M334.79,284.45l-11.64,5.6c-29.78-12.48-153.65-61.45-164-65.56l-.32-.13-.26-.08-.09,0a8.8,8.8,0,0,1,1.36.24C162.92,225.34,334.79,284.45,334.79,284.45Z" style="fill:#FFC100"></path><path d="M334.79,284.45l-11.64,5.6c-29.78-12.48-153.65-61.45-164-65.56l-.32-.13-.26-.08-.09,0a8.8,8.8,0,0,1,1.36.24C162.92,225.34,334.79,284.45,334.79,284.45Z" style="fill:#fff;opacity:0.5"></path><path d="M250.84,285.36c-3.83,1.86-8,3.32-8.3-.53-.12-1.58,1.1-3.27,7.27-6.23,1.44-.7,5-2.25,6,1S252.29,284.66,250.84,285.36Z" style="fill:#FFC100"></path><path d="M250.84,285.36c-3.83,1.86-8,3.32-8.3-.53-.12-1.58,1.1-3.27,7.27-6.23,1.44-.7,5-2.25,6,1S252.29,284.66,250.84,285.36Z" style="opacity:0.1"></path><path d="M217.67,268.6c-3.83,1.86-8,3.32-8.3-.53-.12-1.58,1.1-3.26,7.27-6.23,1.44-.7,5-2.24,6,1S219.12,267.9,217.67,268.6Z" style="fill:#FFC100"></path><path d="M217.67,268.6c-3.83,1.86-8,3.32-8.3-.53-.12-1.58,1.1-3.26,7.27-6.23,1.44-.7,5-2.24,6,1S219.12,267.9,217.67,268.6Z" style="opacity:0.1"></path><path d="M184.4,251.64c-3.57,1.74-7.46,3.1-7.74-.49-.11-1.47,1-3,6.77-5.8,1.35-.65,4.64-2.09,5.6.89S185.74,251,184.4,251.64Z" style="fill:#FFC100"></path><path d="M184.4,251.64c-3.57,1.74-7.46,3.1-7.74-.49-.11-1.47,1-3,6.77-5.8,1.35-.65,4.64-2.09,5.6.89S185.74,251,184.4,251.64Z" style="opacity:0.1"></path><path d="M300.33,281.56c-3,5.37-9.86,7.3-14.19,9-11.51,4.6-19.85,7.19-24-3.27a13.14,13.14,0,0,1-.92-3.78c-.68-7.88,7.49-11.82,11.63-14h0c5-2.63,8.54-4.34,11.18-5.45,4.3-1.81,6.22-2,8.19-2.11,2.33-.08,7.58.51,9.31,10.15A13.68,13.68,0,0,1,300.33,281.56Z" style="fill:#FFC100"></path><ellipse cx="292.27" cy="274.07" rx="8.2" ry="10.63" style="fill:#263238"></ellipse><path d="M299.51,274.07c0,5.19-3.24,9.39-7.24,9.39s-7.25-4.2-7.25-9.39,3.25-9.39,7.25-9.39S299.51,268.88,299.51,274.07Z" style="fill:#455a64"></path><path d="M175.61,304.26l-1.16-.38Z" style="fill:#FFC100"></path></g></svg>