<svg xmlns="http://www.w3.org/2000/svg" viewBox="0 0 750 500"><g id="freepik--background-complete--inject-64"><path d="M695.5,85.43c.59-4.27-5.45-7.79-10-8.16-2.17-.17-4.41.16-6.46-.56-4.44-1.54-6.22-7.28-10.55-9.11-3.24-1.36-7-.15-10.11,1.43s-6.24,3.57-9.75,3.8c-3,.19-6.36-.94-9,.55-2,1.11-3,3.41-4.87,4.76s-4.13,1.6-6.36,1.72-4.53.15-6.56,1.07-3.7,3.07-3.28,5.26Z" style="fill:#f5f5f5"></path><path d="M584.36,52.34c.47-3.36-4.28-6.13-7.85-6.42-1.7-.13-3.46.13-5.07-.44-3.49-1.21-4.89-5.72-8.29-7.16-2.55-1.07-5.48-.12-7.95,1.13s-4.91,2.8-7.66,3c-2.4.15-5-.74-7.11.43-1.56.88-2.38,2.68-3.82,3.74a9.17,9.17,0,0,1-5,1.36,14,14,0,0,0-5.16.84c-1.59.73-2.91,2.42-2.58,4.14Z" style="fill:#ebebeb"></path><path d="M118.88,81.76c.46-3.36-4.28-6.13-7.85-6.42-1.7-.13-3.47.13-5.08-.44-3.49-1.21-4.88-5.72-8.29-7.16-2.54-1.07-5.48-.12-7.94,1.13s-4.91,2.8-7.67,3c-2.4.15-5-.74-7.1.43-1.56.88-2.38,2.68-3.83,3.74a9.16,9.16,0,0,1-5,1.36,14,14,0,0,0-5.16.84c-1.59.73-2.91,2.42-2.58,4.14Z" style="fill:#ebebeb"></path><path d="M316.41,46.11c.58-4.21-5.37-7.68-9.84-8-2.14-.17-4.35.15-6.37-.55-4.38-1.52-6.12-7.18-10.39-9-3.2-1.35-6.87-.15-10,1.41s-6.16,3.52-9.61,3.74c-3,.19-6.28-.92-8.91.55-2,1.09-3,3.35-4.79,4.68s-4.08,1.58-6.27,1.7-4.47.14-6.46,1.06-3.65,3-3.24,5.18Z" style="fill:#f5f5f5"></path><path d="M619.67,272.08a.85.85,0,0,1-.22.12l-.66.3a27.28,27.28,0,0,1-2.6,1A39.14,39.14,0,0,1,599,275.18a70.15,70.15,0,0,1-8-1.68,25.06,25.06,0,0,0-8.78-.93c-3.06.35-6,1.63-9.19,2.64a23.11,23.11,0,0,1-4.83,1,15.85,15.85,0,0,1-4.78-.4c-3.08-.7-5.84-1.93-8.58-2.68a19.49,19.49,0,0,0-4-.72,18.37,18.37,0,0,0-3.88.23,69,69,0,0,0-6.85,1.65c-4.17,1.18-7.8,1.35-10.18.76a9.91,9.91,0,0,1-2.62-1c-.28-.15-.47-.3-.61-.38l-.2-.15a12.41,12.41,0,0,0,3.47,1.32,21.46,21.46,0,0,0,10-.93c2.08-.56,4.35-1.29,6.88-1.72a19.17,19.17,0,0,1,4-.26,19.61,19.61,0,0,1,4.16.72c2.78.75,5.55,2,8.56,2.64a15.59,15.59,0,0,0,4.63.39,22.42,22.42,0,0,0,4.71-1c3.12-1,6.13-2.29,9.29-2.64a25.35,25.35,0,0,1,9,1,69.41,69.41,0,0,0,7.9,1.72,38.81,38.81,0,0,0,7,.3,39.58,39.58,0,0,0,10-1.75c1.16-.35,2-.67,2.63-.89l.68-.26Z" style="fill:#e0e0e0"></path><path d="M610.75,221.89l-.22.11-.66.3a27.28,27.28,0,0,1-2.6,1A39.11,39.11,0,0,1,590.11,225a69.24,69.24,0,0,1-8-1.68,25.09,25.09,0,0,0-8.79-.93c-3.06.35-6,1.63-9.19,2.64a23,23,0,0,1-4.82,1,15.89,15.89,0,0,1-4.79-.4c-3.07-.7-5.84-1.93-8.57-2.68a19.7,19.7,0,0,0-4.06-.72,18.41,18.41,0,0,0-3.88.23c-2.49.4-4.75,1.11-6.85,1.65-4.17,1.18-7.8,1.35-10.18.77a10.13,10.13,0,0,1-2.61-1,6.3,6.3,0,0,1-.62-.38l-.2-.15a12.59,12.59,0,0,0,3.48,1.32c2.35.51,5.9.3,10-.93,2.08-.56,4.34-1.29,6.87-1.72a19.22,19.22,0,0,1,4-.26,19.52,19.52,0,0,1,4.15.72c2.79.75,5.55,2,8.56,2.64a15.59,15.59,0,0,0,4.63.39,22.42,22.42,0,0,0,4.71-1c3.12-1,6.13-2.29,9.29-2.64a25.33,25.33,0,0,1,9,1,69.41,69.41,0,0,0,7.9,1.72,38.81,38.81,0,0,0,7,.3,39.67,39.67,0,0,0,10-1.75c1.15-.35,2-.67,2.62-.89l.68-.26Z" style="fill:#e0e0e0"></path><path d="M355.46,268.68a.85.85,0,0,1-.22.12l-.66.3c-.59.26-1.46.61-2.61,1a39.11,39.11,0,0,1-17.16,1.68,67.61,67.61,0,0,1-8-1.68,25.09,25.09,0,0,0-8.79-.92c-3.05.34-6,1.63-9.19,2.63a22.43,22.43,0,0,1-4.82,1,15.89,15.89,0,0,1-4.79-.41c-3.07-.7-5.83-1.92-8.57-2.67a19.61,19.61,0,0,0-4.06-.73,19,19,0,0,0-3.87.23c-2.5.41-4.76,1.11-6.86,1.65-4.17,1.19-7.8,1.35-10.17.77a9.73,9.73,0,0,1-2.62-1,4.81,4.81,0,0,1-.62-.38c-.13-.09-.2-.14-.19-.15a12.41,12.41,0,0,0,3.47,1.32c2.35.51,5.9.3,10-.92a68.36,68.36,0,0,1,6.88-1.72,17.8,17.8,0,0,1,4-.26,19.72,19.72,0,0,1,4.16.72c2.78.74,5.55,2,8.55,2.64a15.62,15.62,0,0,0,4.64.38,22.69,22.69,0,0,0,4.71-1c3.11-1,6.13-2.29,9.29-2.64a25.53,25.53,0,0,1,8.95,1,67,67,0,0,0,7.91,1.72,38.75,38.75,0,0,0,7,.31,40.59,40.59,0,0,0,10-1.75c1.15-.35,2-.67,2.63-.9l.68-.25C355.37,268.69,355.45,268.67,355.46,268.68Z" style="fill:#e0e0e0"></path><path d="M161.77,232.31a.85.85,0,0,1-.22.12l-.66.29a27.28,27.28,0,0,1-2.6,1,39.14,39.14,0,0,1-17.17,1.68,68,68,0,0,1-8-1.68,25.3,25.3,0,0,0-8.78-.93c-3.06.35-6,1.63-9.19,2.64a23.14,23.14,0,0,1-4.83,1,16.18,16.18,0,0,1-4.78-.41c-3.08-.7-5.84-1.93-8.58-2.67a19.52,19.52,0,0,0-4-.73,18.37,18.37,0,0,0-3.88.23c-2.49.41-4.76,1.11-6.85,1.65-4.17,1.19-7.8,1.35-10.18.77a9.87,9.87,0,0,1-2.62-1c-.28-.14-.47-.3-.61-.38s-.21-.14-.2-.15a12.41,12.41,0,0,0,3.47,1.32,21.56,21.56,0,0,0,10-.92A68.36,68.36,0,0,1,89,232.47a18.45,18.45,0,0,1,4-.27,20.27,20.27,0,0,1,4.16.72c2.78.75,5.55,2,8.56,2.64a15.59,15.59,0,0,0,4.63.39,22.42,22.42,0,0,0,4.71-1c3.12-1,6.13-2.29,9.29-2.64a25.59,25.59,0,0,1,9,1,69,69,0,0,0,7.9,1.72,37.89,37.89,0,0,0,7,.3,40.1,40.1,0,0,0,10-1.74c1.16-.35,2-.68,2.63-.9l.68-.25C161.69,232.32,161.77,232.3,161.77,232.31Z" style="fill:#e0e0e0"></path></g><g id="freepik--Fence--inject-64"><path d="M681.59,301.2H22.52v11.58H48.88s20.51,2.56,20.51,18.55v79.86H38.76v67.88h663V411.19H681.59V331.33h0c0-16,20.52-18.55,20.52-18.55h21.34V301.2Zm-593.45,27a15.36,15.36,0,0,1,4.23-8,18.61,18.61,0,0,1,21.72-3.41c4.66,2.74,9,7.24,9,14.55v79.86H88.14ZM142,329.59a15.36,15.36,0,0,1,4.89-9.85,18.3,18.3,0,0,1,20.54-3.12l.5.27c.32.17.64.34,1,.53s.76.49,1.13.76l.28.2a16.61,16.61,0,0,1,1.39,1.15,15.48,15.48,0,0,1,5.19,11.8h0v79.86H142Zm54.62-1.37a15.3,15.3,0,0,1,4.24-8,17.3,17.3,0,0,1,24.57-.58,15.48,15.48,0,0,1,5.1,11.72h.26v79.86H196.64Zm53.89,1.37a15.35,15.35,0,0,1,4.88-9.85,17.43,17.43,0,0,1,23.34-1,15.68,15.68,0,0,1,5.94,10.38v82.05H250.53Zm53.88-1.49a15.91,15.91,0,0,1,6-9.49,17.53,17.53,0,0,1,23.77,1.5,15.35,15.35,0,0,1,4.44,8.91v82.17H304.41Zm53.88,1.73a15.37,15.37,0,0,1,4.92-10.1,17.56,17.56,0,0,1,24.38-.07,15.38,15.38,0,0,1,4.87,9.23v82.3H358.29Zm53.89.29a15.57,15.57,0,0,1,5.63-11,18.32,18.32,0,0,1,8.65-4.11,18.12,18.12,0,0,1,14.79,4.68,15.47,15.47,0,0,1,5.05,11.67h0v79.86H412.18Zm53.88,1.21h.24a15.44,15.44,0,0,1,5.06-11.67,18.15,18.15,0,0,1,16.71-4.32,17.86,17.86,0,0,1,5.18,2.51,16.25,16.25,0,0,1,7,10.27v83.07H466.06Zm53.88-1.79c.58-5.62,3.81-9.4,7.54-11.93a18.1,18.1,0,0,1,4.75-2.29,18.73,18.73,0,0,1,11.13.6,17.92,17.92,0,0,1,3.54,1.93,16,16,0,0,1,7.21,11.87v81.47H519.94Zm53.89-.35a15.87,15.87,0,0,1,6.62-11,17.15,17.15,0,0,1,22.61,1.47,15.36,15.36,0,0,1,4.93,9.92v81.57H573.83Zm89,82H627.71V331.33h0a15.46,15.46,0,0,1,5.16-11.77,18.43,18.43,0,0,1,25,.14,15.32,15.32,0,0,1,4.93,9.92Z" style="fill:#ebebeb"></path><path d="M723.48,301.2c0,.14-156.37.26-349.21.26S25,301.34,25,301.2s156.33-.26,349.25-.26S723.48,301.06,723.48,301.2Z" style="fill:#263238"></path><path d="M123,411.19s0-.23,0-.66,0-1.08,0-1.9c0-1.68,0-4.13,0-7.28,0-6.31-.06-15.42-.09-26.66s0-24.62-.08-39.46V331l-.07-1.4a16.52,16.52,0,0,0-1.5-5.46,16.13,16.13,0,0,0-8.29-7.93,15.8,15.8,0,0,0-5.86-1.23,25.13,25.13,0,0,0-6.13.38,16.09,16.09,0,0,0-10,7,15.92,15.92,0,0,0-2.31,6,40.25,40.25,0,0,0-.25,6.41v12.64c0,8.29,0,16.26,0,23.84,0,15.16,0,28.72-.06,40l-.18-.18,25.52.1,6.94,0,1.81,0,.63,0-.59,0-1.78,0-6.9,0-25.63.1H88v-.18c0-11.24,0-24.8-.06-40,0-7.58,0-15.55,0-23.84q0-6.21,0-12.64a43.18,43.18,0,0,1,.25-6.5,16.57,16.57,0,0,1,12.71-13.39,26.38,26.38,0,0,1,6.25-.39,16.39,16.39,0,0,1,6,1.28,16.69,16.69,0,0,1,8.54,8.19,16.5,16.5,0,0,1,1.53,5.63l.08,1.44v1.42c0,.94,0,1.88,0,2.81,0,14.9,0,28.32-.07,39.6s-.07,20.33-.09,26.64c0,3.12,0,5.55,0,7.22,0,.81,0,1.43,0,1.87S123,411.19,123,411.19Z" style="fill:#263238"></path><path d="M176.93,411.19s0-.23,0-.66,0-1.08,0-1.9c0-1.68,0-4.13,0-7.28,0-6.31,0-15.42-.09-26.66s0-24.62-.07-39.46c0-.93,0-1.87,0-2.81V331l-.07-1.4a16.16,16.16,0,0,0-9.78-13.39A15.85,15.85,0,0,0,161,315a25.17,25.17,0,0,0-6.13.38,16.12,16.12,0,0,0-10,7,15.92,15.92,0,0,0-2.31,6,42.75,42.75,0,0,0-.25,6.41v12.64c0,8.29,0,16.26,0,23.84,0,15.16,0,28.72,0,40L142,411l25.53.1,6.94,0,1.81,0,.63,0-.6,0-1.78,0-6.89,0-25.64.1h-.18v-.18c0-11.24,0-24.8-.05-40,0-7.58,0-15.55,0-23.84V334.75a40.7,40.7,0,0,1,.25-6.5,16.53,16.53,0,0,1,12.7-13.39,26.38,26.38,0,0,1,6.25-.39,16.39,16.39,0,0,1,6.05,1.28,16.65,16.65,0,0,1,10.08,13.82l.07,1.44v4.23c0,14.9-.06,28.32-.08,39.6s-.06,20.33-.09,26.64c0,3.12,0,5.55,0,7.22,0,.81,0,1.43,0,1.87S176.93,411.19,176.93,411.19Z" style="fill:#263238"></path><path d="M230.81,411.19s0-.23,0-.66,0-1.08,0-1.9c0-1.68,0-4.13,0-7.28,0-6.31,0-15.42-.09-26.66s0-24.62-.07-39.46V331l-.07-1.4a16.09,16.09,0,0,0-9.78-13.39,15.84,15.84,0,0,0-5.86-1.23,25.22,25.22,0,0,0-6.14.38,16.07,16.07,0,0,0-12.3,13,41.46,41.46,0,0,0-.24,6.41q0,6.44,0,12.64c0,8.29,0,16.26,0,23.84,0,15.16-.05,28.72-.06,40l-.18-.18,25.52.1,6.94,0,1.81,0,.63,0-.59,0-1.78,0-6.9,0-25.63.1h-.18v-.18c0-11.24,0-24.8-.06-40,0-7.58,0-15.55,0-23.84V334.75a40.7,40.7,0,0,1,.25-6.5,16.58,16.58,0,0,1,12.7-13.39,26.5,26.5,0,0,1,6.26-.39,16.43,16.43,0,0,1,6,1.28,16.69,16.69,0,0,1,8.54,8.19,17,17,0,0,1,1.53,5.63l.07,1.44v4.23c0,14.9-.05,28.32-.07,39.6s-.07,20.33-.09,26.64c0,3.12,0,5.55,0,7.22,0,.81,0,1.43,0,1.87S230.81,411.19,230.81,411.19Z" style="fill:#263238"></path><path d="M285.25,411.19s0-.23,0-.66,0-1.08,0-1.9c0-1.68,0-4.13,0-7.28,0-6.31-.05-15.42-.09-26.66s0-24.62-.07-39.46V331l-.08-1.4a16.09,16.09,0,0,0-9.78-13.39,15.84,15.84,0,0,0-5.86-1.23,25.1,25.1,0,0,0-6.13.38,16.07,16.07,0,0,0-12.31,13,41.46,41.46,0,0,0-.24,6.41q0,6.44,0,12.64c0,8.29,0,16.26,0,23.84,0,15.16,0,28.72-.06,40l-.18-.18,25.52.1,6.94,0,1.81,0,.63,0-.59,0-1.78,0-6.9,0-25.63.1h-.18v-.18c0-11.24,0-24.8-.06-40,0-7.58,0-15.55,0-23.84V334.75a41.9,41.9,0,0,1,.25-6.5A16.58,16.58,0,0,1,263,314.86a26.5,26.5,0,0,1,6.26-.39,16.43,16.43,0,0,1,6.05,1.28,16.69,16.69,0,0,1,8.54,8.19,17,17,0,0,1,1.53,5.63l.07,1.44v4.23c0,14.9-.05,28.32-.07,39.6s-.07,20.33-.09,26.64c0,3.12,0,5.55,0,7.22,0,.81,0,1.43,0,1.87S285.25,411.19,285.25,411.19Z" style="fill:#263238"></path><path d="M338.87,410.9s0-.23,0-.67,0-1.07,0-1.9c0-1.68,0-4.13,0-7.27,0-6.32-.05-15.42-.09-26.67s0-24.61-.07-39.46v-4.21l-.07-1.41a16.47,16.47,0,0,0-1.5-5.45,16.19,16.19,0,0,0-8.29-7.94,16,16,0,0,0-5.86-1.23,26.13,26.13,0,0,0-6.13.38,16.05,16.05,0,0,0-12.3,13,40.33,40.33,0,0,0-.25,6.42V347.1c0,8.28,0,16.26,0,23.84,0,15.15,0,28.71-.06,40l-.18-.18,25.52.09,6.94.05,1.81,0c.41,0,.63,0,.63,0h-.59l-1.78,0-6.9.05-25.63.1h-.18v-.18c0-11.25,0-24.81-.06-40,0-7.58,0-15.56,0-23.84q0-6.21,0-12.64A43.08,43.08,0,0,1,304,328a16.55,16.55,0,0,1,12.7-13.39,26,26,0,0,1,6.26-.39,16.38,16.38,0,0,1,6.05,1.27A16.6,16.6,0,0,1,339,329.27l.07,1.44V335c0,14.9-.05,28.32-.07,39.6s-.07,20.33-.09,26.64c0,3.12,0,5.55,0,7.22,0,.8,0,1.42,0,1.86S338.87,410.9,338.87,410.9Z" style="fill:#263238"></path><path d="M392.75,410.91s0-.23,0-.67,0-1.07,0-1.9c0-1.68,0-4.13,0-7.27,0-6.32-.05-15.42-.09-26.67s-.05-24.61-.07-39.46c0-.93,0-1.86,0-2.8v-1.41l-.07-1.41a16.19,16.19,0,0,0-9.78-13.39,16.05,16.05,0,0,0-5.87-1.23,26.2,26.2,0,0,0-6.13.38,16.09,16.09,0,0,0-10,7,15.87,15.87,0,0,0-2.31,6,42.83,42.83,0,0,0-.25,6.42v12.64c0,8.28,0,16.26,0,23.84,0,15.15,0,28.71-.06,40l-.18-.19,25.53.1,6.94.05,1.81,0c.41,0,.63,0,.63,0h-.6l-1.78,0-6.89.05-25.64.1h-.18v-.18c0-11.25,0-24.81-.05-40,0-7.58,0-15.56,0-23.84V334.47a40.78,40.78,0,0,1,.25-6.51,16.51,16.51,0,0,1,12.7-13.38,25.87,25.87,0,0,1,6.25-.39,16.38,16.38,0,0,1,6,1.27,16.65,16.65,0,0,1,10.08,13.82l.07,1.44V335c0,14.9-.06,28.32-.08,39.59s-.07,20.34-.09,26.65c0,3.12,0,5.55,0,7.21,0,.81,0,1.43,0,1.87S392.75,410.91,392.75,410.91Z" style="fill:#263238"></path><path d="M446.34,410.91s0-.23,0-.66,0-1.08,0-1.9c0-1.67,0-4.11,0-7.25,0-6.29-.05-15.36-.09-26.56s0-24.51-.07-39.3a49.52,49.52,0,0,0-.16-5.58,16.24,16.24,0,0,0-1.64-5.4,17.19,17.19,0,0,0-29.86-1.67,17.45,17.45,0,0,0-2.41,5.92,32.11,32.11,0,0,0-.33,6.36v12.57c0,8.23,0,16.16,0,23.7,0,15.07,0,28.57-.06,39.77l-.18-.19,25.52.1,6.94.05,1.81,0c.41,0,.63,0,.63,0h-.59l-1.78,0-6.9.05-25.63.1h-.18v-.18c0-11.2,0-24.7-.06-39.77,0-7.54,0-15.47,0-23.7q0-6.18,0-12.57a32.76,32.76,0,0,1,.34-6.46,18,18,0,0,1,2.48-6.1,17.69,17.69,0,0,1,22.28-6.51,17.6,17.6,0,0,1,8.46,8.24,16.43,16.43,0,0,1,1.68,5.55,49.07,49.07,0,0,1,.16,5.66c0,14.84-.05,28.21-.07,39.45s-.07,20.25-.09,26.53c0,3.11,0,5.53,0,7.19,0,.81,0,1.43,0,1.86S446.34,410.91,446.34,410.91Z" style="fill:#263238"></path><path d="M500.23,410.91s0-.23,0-.66,0-1.08,0-1.9c0-1.67,0-4.11,0-7.25,0-6.29,0-15.36-.09-26.56S500,350,500,335.24a49.53,49.53,0,0,0-.17-5.58,16.24,16.24,0,0,0-1.64-5.4,17.19,17.19,0,0,0-20.05-8.92,17.2,17.2,0,0,0-12.21,13.17,32.12,32.12,0,0,0-.34,6.36v12.57c0,8.23,0,16.16,0,23.7,0,15.07,0,28.57-.06,39.77l-.18-.19,25.52.1,6.94.05,1.82,0c.41,0,.63,0,.63,0h-.6l-1.78,0L491,411l-25.63.1h-.18v-.18c0-11.2,0-24.7-.06-39.77,0-7.54,0-15.47,0-23.7q0-6.18,0-12.57a32.78,32.78,0,0,1,.35-6.46,17.71,17.71,0,0,1,24.76-12.61,17.58,17.58,0,0,1,8.45,8.24,16.68,16.68,0,0,1,1.69,5.55,51.43,51.43,0,0,1,.16,5.66c0,14.84-.06,28.21-.08,39.45s-.07,20.25-.09,26.53c0,3.11,0,5.53,0,7.19,0,.81,0,1.43,0,1.86S500.23,410.91,500.23,410.91Z" style="fill:#263238"></path><path d="M554.11,410.91s0-.23,0-.66,0-1.08,0-1.9c0-1.67,0-4.11,0-7.25,0-6.29,0-15.36-.09-26.56s0-24.51-.07-39.3a49.53,49.53,0,0,0-.17-5.58,16.24,16.24,0,0,0-1.64-5.4,17.18,17.18,0,0,0-20-8.92,17.2,17.2,0,0,0-12.21,13.17,32.11,32.11,0,0,0-.33,6.36q0,6.39,0,12.57c0,8.23,0,16.16,0,23.7,0,15.07-.05,28.57-.06,39.77l-.18-.19,25.52.1,6.94.05,1.81,0c.41,0,.63,0,.63,0h-.59l-1.78,0-6.9.05-25.63.1H519v-.18c0-11.2,0-24.7-.06-39.77,0-7.54,0-15.47,0-23.7V334.87a32.76,32.76,0,0,1,.34-6.46,17.61,17.61,0,0,1,2.48-6.1A17.68,17.68,0,0,1,552.51,324a16.89,16.89,0,0,1,1.68,5.55,51.43,51.43,0,0,1,.16,5.66c0,14.84-.05,28.21-.07,39.45s-.07,20.25-.09,26.53c0,3.11,0,5.53,0,7.19,0,.81,0,1.43,0,1.86S554.11,410.91,554.11,410.91Z" style="fill:#263238"></path><path d="M608,410.91s0-.23,0-.66,0-1.08,0-1.9c0-1.67,0-4.11,0-7.25,0-6.29,0-15.36-.09-26.56s0-24.51-.07-39.3a49.52,49.52,0,0,0-.16-5.58,16.47,16.47,0,0,0-1.64-5.4,17.21,17.21,0,0,0-32.27,4.25,32.11,32.11,0,0,0-.33,6.36v12.57c0,8.23,0,16.16,0,23.7,0,15.07,0,28.57-.06,39.77l-.18-.19,25.52.1,6.94.05,1.81,0c.41,0,.63,0,.63,0h-.59l-1.78,0-6.9.05-25.63.1h-.18v-.18c0-11.2,0-24.7-.06-39.77,0-7.54,0-15.47,0-23.7q0-6.18,0-12.57a32.76,32.76,0,0,1,.34-6.46,18,18,0,0,1,2.48-6.1,17.69,17.69,0,0,1,22.28-6.51,17.6,17.6,0,0,1,8.46,8.24,16.43,16.43,0,0,1,1.68,5.55,49.07,49.07,0,0,1,.16,5.66c0,14.84-.05,28.21-.07,39.45s-.07,20.25-.09,26.53c0,3.11,0,5.53,0,7.19,0,.81,0,1.43,0,1.86S608,410.91,608,410.91Z" style="fill:#263238"></path><path d="M662.73,410.91s0-.23,0-.66,0-1.08,0-1.9c0-1.67,0-4.11,0-7.25,0-6.29,0-15.36-.09-26.56s0-24.51-.07-39.3a49.53,49.53,0,0,0-.17-5.58,16.24,16.24,0,0,0-1.64-5.4,17.19,17.19,0,0,0-20-8.92,17.2,17.2,0,0,0-12.21,13.17,32.12,32.12,0,0,0-.34,6.36v12.57c0,8.23,0,16.16,0,23.7,0,15.07,0,28.57,0,39.77l-.18-.19,25.51.1,6.95.05,1.81,0c.41,0,.63,0,.63,0h-.6l-1.78,0-6.9.05-25.62.1h-.19v-.18c0-11.2,0-24.7,0-39.77,0-7.54,0-15.47,0-23.7V334.87a32,32,0,0,1,.34-6.46A17.69,17.69,0,0,1,661.13,324a16.89,16.89,0,0,1,1.68,5.55,51.43,51.43,0,0,1,.16,5.66c0,14.84-.06,28.21-.08,39.45s-.06,20.25-.09,26.53c0,3.11,0,5.53,0,7.19,0,.81,0,1.43,0,1.86S662.73,410.91,662.73,410.91Z" style="fill:#263238"></path><rect x="66.32" y="424.56" width="130.32" height="43.64" style="fill:#f5f5f5"></rect><rect x="223.49" y="424.56" width="130.32" height="43.64" style="fill:#f5f5f5"></rect><rect x="374.38" y="424.56" width="130.32" height="43.64" style="fill:#f5f5f5"></rect><rect x="525.27" y="424.56" width="130.32" height="43.64" style="fill:#f5f5f5"></rect></g><g id="freepik--Floor--inject-64"><path d="M716.36,479.2c0,.15-153.74.26-343.34.26s-343.38-.11-343.38-.26,153.71-.26,343.38-.26S716.36,479.06,716.36,479.2Z" style="fill:#263238"></path></g><g id="freepik--Sea--inject-64"><path d="M723.34,197.33c0,.15-156.26.26-349,.26s-349-.11-349-.26,156.23-.26,349-.26S723.34,197.19,723.34,197.33Z" style="fill:#263238"></path><path d="M365.63,229.67s-.09.06-.29.15l-.88.4c-.39.17-.88.37-1.46.58s-1.26.48-2,.73a52.38,52.38,0,0,1-22.88,2.2,89.81,89.81,0,0,1-10.61-2.25c-3.68-.88-7.66-1.72-11.75-1.24s-8.08,2.18-12.28,3.52a30.53,30.53,0,0,1-6.42,1.38,21.35,21.35,0,0,1-6.36-.54c-4.09-.93-7.78-2.57-11.44-3.56a25.75,25.75,0,0,0-5.43-1,24.61,24.61,0,0,0-5.19.31c-3.33.55-6.36,1.49-9.15,2.22a40.39,40.39,0,0,1-7.67,1.41,20.2,20.2,0,0,1-5.89-.37,13,13,0,0,1-3.49-1.29,9.14,9.14,0,0,1-1.09-.7,15.61,15.61,0,0,0,4.63,1.8,20.36,20.36,0,0,0,5.81.27,39.76,39.76,0,0,0,7.61-1.48,93.06,93.06,0,0,1,9.17-2.28,24.73,24.73,0,0,1,5.28-.35,27,27,0,0,1,5.54,1c3.7,1,7.39,2.63,11.42,3.53a20.76,20.76,0,0,0,6.21.52,30,30,0,0,0,6.3-1.36c4.17-1.32,8.18-3.06,12.38-3.53s8.23.39,11.92,1.28a89.67,89.67,0,0,0,10.56,2.29,52.83,52.83,0,0,0,22.76-2c.77-.23,1.45-.46,2-.67s1.08-.38,1.48-.54l.9-.35Z" style="fill:#263238"></path><path d="M186.93,270.85a.85.85,0,0,1-.22.12l-.66.3a27.78,27.78,0,0,1-2.6,1,38.74,38.74,0,0,1-17.17,1.68,66,66,0,0,1-8-1.68,25.06,25.06,0,0,0-8.78-.92c-3.06.34-6,1.63-9.19,2.63a22.39,22.39,0,0,1-4.83,1,16.18,16.18,0,0,1-4.78-.4c-3.08-.7-5.84-1.93-8.58-2.68a18.86,18.86,0,0,0-4-.72,18.37,18.37,0,0,0-3.88.23,69,69,0,0,0-6.85,1.65c-4.17,1.18-7.8,1.35-10.18.76a9.91,9.91,0,0,1-2.62-1,6.86,6.86,0,0,1-.61-.39.81.81,0,0,1-.2-.15,12.41,12.41,0,0,0,3.47,1.32c2.36.52,5.91.3,10-.92,2.08-.56,4.35-1.29,6.88-1.72a19.17,19.17,0,0,1,4-.26,19.61,19.61,0,0,1,4.16.72c2.78.75,5.55,2,8.56,2.64a15.58,15.58,0,0,0,4.63.38,21.78,21.78,0,0,0,4.71-1c3.12-1,6.13-2.3,9.29-2.65a25.35,25.35,0,0,1,9,1,67.2,67.2,0,0,0,7.9,1.71,38.86,38.86,0,0,0,7,.31,39.58,39.58,0,0,0,10-1.75c1.16-.35,2-.67,2.63-.9l.68-.25A1.21,1.21,0,0,1,186.93,270.85Z" style="fill:#263238"></path><path d="M696.43,247l-.22.11-.66.3c-.59.26-1.46.62-2.61,1a39.11,39.11,0,0,1-17.16,1.68,69.69,69.69,0,0,1-8-1.68,25.09,25.09,0,0,0-8.79-.93c-3,.35-6,1.63-9.19,2.64a23,23,0,0,1-4.82,1,15.89,15.89,0,0,1-4.79-.4c-3.07-.7-5.83-1.93-8.57-2.68a19.58,19.58,0,0,0-4.06-.72,18.27,18.27,0,0,0-3.87.23c-2.5.4-4.76,1.11-6.86,1.65-4.17,1.18-7.8,1.35-10.17.77a10.08,10.08,0,0,1-2.62-1c-.29-.15-.48-.3-.62-.38l-.19-.15a12.41,12.41,0,0,0,3.47,1.32c2.35.51,5.9.3,10-.93,2.08-.56,4.35-1.29,6.88-1.72a19.07,19.07,0,0,1,4-.26,19.72,19.72,0,0,1,4.16.72c2.78.75,5.55,2,8.55,2.64a15.63,15.63,0,0,0,4.64.39,22.69,22.69,0,0,0,4.71-1c3.11-1,6.13-2.29,9.29-2.64a25.3,25.3,0,0,1,8.95,1,69.1,69.1,0,0,0,7.91,1.72,38.7,38.7,0,0,0,7,.3,39.67,39.67,0,0,0,10-1.75c1.15-.35,2-.67,2.63-.89l.68-.26A.67.67,0,0,1,696.43,247Z" style="fill:#263238"></path><path d="M528.81,259s-.09.06-.29.15l-.89.39c-.38.18-.87.38-1.46.59s-1.25.48-2,.72a52,52,0,0,1-22.88,2.2,89.7,89.7,0,0,1-10.61-2.24c-3.69-.89-7.66-1.72-11.75-1.24s-8.08,2.18-12.29,3.51a29.83,29.83,0,0,1-6.41,1.38,21.42,21.42,0,0,1-6.37-.53c-4.09-.93-7.77-2.57-11.43-3.57a26.38,26.38,0,0,0-5.43-1,24.61,24.61,0,0,0-5.19.31c-3.33.54-6.36,1.48-9.15,2.21a39.78,39.78,0,0,1-7.68,1.42,20.11,20.11,0,0,1-5.88-.37,13.34,13.34,0,0,1-3.49-1.3,9.34,9.34,0,0,1-1.1-.69,15.79,15.79,0,0,0,4.63,1.79,20.41,20.41,0,0,0,5.82.28,41.12,41.12,0,0,0,7.6-1.48,93.89,93.89,0,0,1,9.18-2.29,25.4,25.4,0,0,1,5.28-.34,26.29,26.29,0,0,1,5.53,1c3.71,1,7.4,2.63,11.42,3.53a21.12,21.12,0,0,0,6.21.52,30.68,30.68,0,0,0,6.31-1.36c4.16-1.33,8.18-3.06,12.38-3.53s8.23.38,11.92,1.28a91.73,91.73,0,0,0,10.56,2.29,51.57,51.57,0,0,0,9.38.39,53.38,53.38,0,0,0,13.38-2.36c.77-.23,1.45-.46,2-.67s1.08-.39,1.47-.54l.91-.35A1.82,1.82,0,0,1,528.81,259Z" style="fill:#263238"></path></g><g id="freepik--Bridge--inject-64"><rect x="286.43" y="148.55" width="416.78" height="5.7" style="fill:#455a64"></rect><polygon points="672.24 123.48 671.81 197.33 707.83 197.33 697.25 139.06 690.5 125.84 687.39 125.84 687.39 123.48 672.24 123.48" style="fill:#455a64"></polygon><path d="M671.6,197.29c-.61-.54-61.88-54.18-105.38-73.57-19.89-8.87-73.12-29.52-137.64-29.65h-.31c-71,0-154.53,46.58-155.37,47.05l-2-3.48c.85-.48,85.31-47.57,157.34-47.57h.31c65.28.13,119.14,21,139.26,30,44,19.65,105.77,73.68,106.39,74.23Z" style="fill:#455a64"></path><path d="M661,185.46s.05-1.07.18-3.17.34-5.23.61-9.34c.55-8.25,1.36-20.45,2.41-36.32l.2.06-19.18,37-.32.61.05-.68c1-13,2.18-27.78,3.43-43.86l.32.1-18.61,32.26-.34.6V162c0-12.64,0-26.2,0-40.36l.37.12L610.5,148.68l-.5.69.12-.85c1.48-10.32,3.1-21.68,4.77-33.32l.4.16-18.22,24.17-.41.55v-.69c0-9.89,0-20.81,0-31.92l.43.14-16.76,21.28-.44.55V100.53l.44.17c-5.28,6.14-11.1,12.93-17,19.79l-.49.58,0-.76c.53-7.91,1.12-16.62,1.71-25.42l.45.19-17.4,19.42-.45.51V89.42l.45.18-17.21,18.56-.51.55L530,108c.46-7.18,1-15,1.47-22.85l.45.21-18.44,18.45-.49.48,0-.68c.29-7.11.59-14.8.9-22.52l.46.2-8.25,8.56-9.54,9.91-.46.48V78.78l.46.18L479.72,96.55l-.46.48V75.24l.46.17L462.91,94.22l-.46.51V73.47l.46.17L445.86,92.25l-.19.21-.19-.21-18-19.94.44-.17V92.72l-.44-.47L409.72,73.14l.43-.16c-.27,6.83-.54,13.52-.8,20.12l0,.6-.4-.44L392,74.93l.42-.16c0,7.09,0,13.94,0,20.7v.58l-.4-.42L374.47,77.5l.4-.16c.25,7.48.5,14.61.74,21.62l0,.57-.4-.41L357.05,80.73l.36-.15v23.8l-.36-.38L338.94,84.69l.34-.14c0,9,0,17.23,0,25.18v.49l-.33-.37-17.53-20,.3-.12c0,9.81,0,18.43,0,26.61v.44l-.27-.34c-6.89-8.35-12.8-15.54-18.31-22.22l.24-.08c-.15,11.08-.27,20.25-.38,28.51v.31l-.2-.24c-7.2-9-12.85-16.13-17.55-22l.15,0c0,10.81,0,18.77,0,24,0,2.63,0,4.58,0,5.88s0,1.94,0,1.94,0-.64,0-1.94,0-3.25,0-5.88c0-5.26,0-13.22,0-24v-.23l.15.18,17.6,22-.2.07c.1-8.26.21-17.42.34-28.51v-.37l.23.29c5.52,6.67,11.44,13.85,18.34,22.2l-.28.09c0-8.18,0-16.8,0-26.61v-.45l.3.34,17.55,20-.32.12c0-8,0-16.17,0-25.18v-.49l.33.36c5.78,6.14,11.72,12.48,18.13,19.29l-.36.15V80.05l.36.38c5.87,5.92,11.87,12,18.19,18.38l-.38.17c-.24-7-.49-14.14-.75-21.63l0-.59.41.43L392.36,95.3l-.4.17V74.15l.41.45,16.91,18.33-.42.16c.26-6.61.52-13.3.79-20.13l0-.6.4.44q8.79,9.42,17.79,19.1l-.44.18V71.48l.45.49,18,19.93h-.38l17-18.61.45-.5V94l-.46-.17,16.81-18.81.46-.52V96.36l-.46-.18,16.85-17.59.46-.48V99.55l-.46-.19,9.55-9.91L514,80.89l.49-.51,0,.71c-.3,7.71-.61,15.4-.89,22.51l-.46-.2L531.53,85l.5-.5,0,.7c-.51,7.86-1,15.67-1.47,22.85l-.46-.2,17.22-18.56.45-.49v25.57l-.45-.17,17.4-19.42.5-.55,0,.74c-.6,8.8-1.19,17.52-1.73,25.43l-.44-.19,17-19.79.44-.51v.67c0,9.79,0,19.46,0,28.21l-.44-.15,16.77-21.27.43-.54v.69c0,11.11,0,22,0,31.92l-.42-.14,18.24-24.16.52-.69-.12.86c-1.68,11.65-3.31,23-4.8,33.32l-.38-.15,19.63-26.92.36-.5v.62c0,14.16,0,27.72,0,40.36l-.35-.09,18.64-32.25.37-.64-.06.74c-1.28,16.07-2.46,30.87-3.49,43.85l-.26-.07c7.35-14.12,13.82-26.53,19.25-36.94l.23-.44,0,.5c-1.1,15.86-1.94,28.06-2.51,36.3q-.43,6.18-.66,9.35C661.11,184.39,661,185.46,661,185.46Z" style="fill:#263238"></path><path d="M263.58,106s.37.58,1.08,1.73l3.16,5.15c2.8,4.56,6.95,11.35,12.41,20.27l-.16,0c0-8.69,0-19.41,0-31.84V101l.21.26,17.59,22-.24.09c.1-8.86.22-18.4.34-28.51V94.4l.27.33,18.33,22.2-.3.11c0-8.22,0-17.25,0-26.61v-.49l.33.37,17.55,20-.34.13c0-7.74,0-16.35,0-25.18v-.52l.36.38c5.57,5.93,11.77,12.54,18.12,19.29l-.37.15c0-7.14,0-15.14,0-23.28v-.54l.38.39,18.19,18.38-.39.17c-.23-6.64-.49-14.08-.75-21.62l0-.61.42.44,17.56,18.12-.41.16c0-6.37,0-13.5,0-20.7v-.62l.43.46,16.91,18.32-.43.16c.24-6.22.52-13.15.79-20.13l0-.6.41.44c5.34,5.74,11.24,12.08,17.2,18.47l-.45.17c.19-6,.39-12.62.59-19.3l0-.62.43.45,18.41,19.46h-.39L457.4,72.9l.49-.58,0,.76c-.25,6.36-.53,13.32-.81,20.31l-.45-.19,18-18.72.47-.49v.68c-.12,6.58-.24,13.73-.37,20.9l-.46-.18,17.23-18.62.49-.53,0,.72c-.15,3.92-.32,8.16-.48,12.41-.12,3-.23,6.07-.35,9l-.46-.2,18.28-18.36.48-.49,0,.68q-.45,11.19-.89,22.26l-.45-.2,18.48-18.23.5-.49,0,.69q-.75,11.53-1.48,22.9l-.46-.19,17.11-19,.44-.5V88q.18,12.45.36,24.66l-.45-.16,17.2-19.37.51-.57-.06.76q-1,12.63-2,25l-.44-.19q8.88-9.73,17.54-19.24l.43-.47V99q.14,13.78.26,27.16l-.43-.15L592,105.33l.41-.5,0,.65c.26,10.68.52,21.09.78,31.3l-.42-.13,17.43-23.36.5-.67-.11.83c-1.41,11.06-2.77,21.66-4.09,32l-.37-.15,19.24-25.68.36-.49v.61c-.06,13.87-.11,27-.16,39.48l-.34-.1L644,127.71l.37-.62-.07.72q-2,23-3.75,42l-.25-.08,19.77-35,.22-.4,0,.46c-1.12,15.31-2,27.15-2.57,35.17-.3,4-.53,7.06-.68,9.11s-.25,3.09-.25,3.09.06-1.05.2-3.1.35-5.1.62-9.11c.57-8,1.4-19.86,2.47-35.18l.2.06-19.71,35-.32.55.06-.63c1.12-12.73,2.35-26.7,3.7-42l.3.1-18.73,31.41-.34.57v-.66c0-12.5.09-25.61.13-39.49l.36.13-19.23,25.69-.47.64.1-.79c1.31-10.32,2.66-20.92,4.06-32l.4.16-17.41,23.36-.39.53,0-.66c-.26-10.21-.53-20.62-.8-31.3l.42.14-16.49,20.68-.43.53v-.68q-.12-13.38-.26-27.16l.43.16-17.53,19.25-.5.55.06-.74q1-12.36,2-25l.44.19-17.2,19.37-.44.5v-.67q-.18-12.21-.36-24.66l.46.17-17.1,19-.51.56L525,107q.72-11.37,1.47-22.9l.45.2-18.48,18.24-.48.47,0-.67q.43-11.07.88-22.26l.46.2L491,98.6l-.48.48,0-.68c.11-3,.23-6,.34-9.05.17-4.25.33-8.49.48-12.41l.47.19L474.63,95.75l-.47.51v-.7c.13-7.17.25-14.32.37-20.9l.45.19L457,93.56l-.49.51,0-.7c.28-7,.56-14,.81-20.31l.47.18L441.18,92.52l-.19.22-.2-.21L422.38,73.07l.45-.17c-.21,6.67-.41,13.3-.59,19.3l0,.62-.43-.46L404.6,73.88l.44-.16c-.28,7-.56,13.91-.8,20.13l0,.6L403.8,94,386.9,75.68l.42-.17v21.3l-.41-.43L369.35,78.25l.41-.17c.25,7.54.51,15,.74,21.63l0,.58-.42-.42L351.93,81.48l.38-.16c0,8.14,0,16.14,0,23.28v.54l-.37-.39c-6.35-6.76-12.55-13.37-18.11-19.31l.35-.14c0,8.83,0,17.44,0,25.18V111l-.34-.39L316.28,90.55l.32-.12c0,9.36,0,18.39,0,26.61v.48l-.3-.37L298,94.93l.28-.1c-.14,10.12-.27,19.66-.39,28.51v.39l-.24-.3-17.56-22,.21-.07c0,12.43,0,23.15,0,31.84v.3l-.15-.26-12.34-20.31-3.13-5.17C263.92,106.58,263.58,106,263.58,106Z" style="fill:#263238"></path><path d="M321.14,149.15c-.15,0-.27-7.17-.27-16s.12-16,.27-16,.27,7.17.27,16S321.29,149.15,321.14,149.15Z" style="fill:#263238"></path><path d="M316.83,149.15c-.14,0-.26-7.17-.26-16s.12-16,.26-16,.26,7.17.26,16S317,149.15,316.83,149.15Z" style="fill:#263238"></path><path d="M338.32,149.24c-.15,0-.27-8.66-.27-19.34s.12-19.34.27-19.34.27,8.66.27,19.34S338.47,149.24,338.32,149.24Z" style="fill:#263238"></path><path d="M334,149.24c-.15,0-.27-8.66-.27-19.34s.12-19.34.27-19.34.27,8.66.27,19.34S334.16,149.24,334,149.24Z" style="fill:#263238"></path><path d="M356.45,149.24c-.15,0-.27-10-.27-22.29s.12-22.3.27-22.3.26,10,.26,22.3S356.59,149.24,356.45,149.24Z" style="fill:#263238"></path><path d="M352.14,149.24c-.15,0-.27-10-.27-22.29s.12-22.3.27-22.3.26,10,.26,22.3S352.28,149.24,352.14,149.24Z" style="fill:#263238"></path><path d="M374.13,149.24c-.15,0-.27-10.92-.27-24.39s.12-24.4.27-24.4.26,10.92.26,24.4S374.27,149.24,374.13,149.24Z" style="fill:#263238"></path><path d="M369.81,149.24c-.14,0-.26-10.92-.26-24.39s.12-24.4.26-24.4.27,10.92.27,24.4S370,149.24,369.81,149.24Z" style="fill:#263238"></path><path d="M391.21,150c-.15,0-.27-12.12-.27-27.07s.12-27.07.27-27.07.27,12.11.27,27.07S391.36,150,391.21,150Z" style="fill:#263238"></path><path d="M386.9,150c-.15,0-.27-12.12-.27-27.07s.12-27.07.27-27.07.27,12.11.27,27.07S387.05,150,386.9,150Z" style="fill:#263238"></path><path d="M408.74,150c-.15,0-.27-12.68-.27-28.3s.12-28.31.27-28.31.27,12.67.27,28.31S408.89,150,408.74,150Z" style="fill:#263238"></path><path d="M404.43,150c-.15,0-.27-12.68-.27-28.3s.12-28.31.27-28.31.27,12.67.27,28.31S404.58,150,404.43,150Z" style="fill:#263238"></path><path d="M425.38,150c-.15,0-.27-13-.27-28.92s.12-28.93.27-28.93.27,13,.27,28.93S425.53,150,425.38,150Z" style="fill:#263238"></path><path d="M421.07,150c-.15,0-.27-13-.27-28.92s.12-28.93.27-28.93.27,13,.27,28.93S421.22,150,421.07,150Z" style="fill:#263238"></path><path d="M442.17,150.88c-.15,0-.27-12.95-.27-28.92S442,93,442.17,93s.27,13,.27,28.93S442.32,150.88,442.17,150.88Z" style="fill:#263238"></path><path d="M437.86,150.88c-.15,0-.27-12.95-.27-28.92s.12-28.93.27-28.93.27,13,.27,28.93S438,150.88,437.86,150.88Z" style="fill:#263238"></path><path d="M459.7,150.88c-.15,0-.27-12.87-.27-28.75s.12-28.75.27-28.75.27,12.87.27,28.75S459.85,150.88,459.7,150.88Z" style="fill:#263238"></path><path d="M455.39,150.88c-.15,0-.27-12.87-.27-28.75s.12-28.75.27-28.75.27,12.87.27,28.75S455.54,150.88,455.39,150.88Z" style="fill:#263238"></path><path d="M488.36,152.67c-.15,0-.27-12.32-.27-27.52s.12-27.53.27-27.53.26,12.33.26,27.53S488.5,152.67,488.36,152.67Z" style="fill:#263238"></path><path d="M494.82,150.88c-.15,0-.27-11.63-.27-26s.12-26,.27-26,.27,11.63.27,26S495,150.88,494.82,150.88Z" style="fill:#263238"></path><path d="M505.67,152.67c-.15,0-.27-11.67-.27-26.06s.12-26.06.27-26.06.27,11.67.27,26.06S505.82,152.67,505.67,152.67Z" style="fill:#263238"></path><path d="M512.13,150.88c-.14,0-.26-10.75-.26-24s.12-24,.26-24,.27,10.74.27,24S512.28,150.88,512.13,150.88Z" style="fill:#263238"></path><path d="M525.13,152.67c-.15,0-.27-10.31-.27-23s.12-23,.27-23,.27,10.31.27,23S525.28,152.67,525.13,152.67Z" style="fill:#263238"></path><path d="M531.59,151.17c-.15,0-.27-9.67-.27-21.59s.12-21.6.27-21.6.27,9.67.27,21.6S531.74,151.17,531.59,151.17Z" style="fill:#263238"></path><path d="M542.43,152.67c-.15,0-.27-8.87-.27-19.82s.12-19.81.27-19.81.26,8.87.26,19.81S542.57,152.67,542.43,152.67Z" style="fill:#263238"></path><path d="M548.89,151.38c-.15,0-.27-8.32-.27-18.58s.12-18.58.27-18.58.27,8.32.27,18.58S549,151.38,548.89,151.38Z" style="fill:#263238"></path><path d="M557.71,152.67c-.15,0-.27-7.55-.27-16.86s.12-16.86.27-16.86.27,7.55.27,16.86S557.86,152.67,557.71,152.67Z" style="fill:#263238"></path><path d="M564.17,151.57c-.15,0-.27-7.07-.27-15.8S564,120,564.17,120s.27,7.08.27,15.81S564.32,151.57,564.17,151.57Z" style="fill:#263238"></path><path d="M575.22,150.88c-.15,0-.27-5.43-.27-12.14s.12-12.13.27-12.13.26,5.43.26,12.13S575.36,150.88,575.22,150.88Z" style="fill:#263238"></path><path d="M580.37,150.12c-.15,0-.27-5.09-.27-11.38s.12-11.37.27-11.37.27,5.09.27,11.37S580.52,150.12,580.37,150.12Z" style="fill:#263238"></path><path d="M471.88,150.88c-.15,0-.27-12.47-.27-27.84s.12-27.84.27-27.84.27,12.46.27,27.84S472,150.88,471.88,150.88Z" style="fill:#263238"></path><path d="M671.68,145.05c0,.15-86.51.27-193.19.27s-193.21-.12-193.21-.27,86.48-.27,193.21-.27S671.68,144.9,671.68,145.05Z" style="fill:#263238"></path><path d="M679.89,145.68c-.89-.39-89-39.36-108.47-46.36-32-11.5-82.16-25.2-139.68-25.2-94.1,0-158.59,31.67-159.23,32l-.11,0L227.76,125l-1.56-3.69,44.59-18.85c2.37-1.17,67.15-32.38,161-32.38h0c58.1,0,108.76,13.83,141,25.43,19.6,7,107.84,46.08,108.73,46.47Z" style="fill:#455a64"></path></g><g id="freepik--Building--inject-64"><path d="M80,149.45s-16.16-1.15-28.26,8.8L70.4,172.54l6.22-.14Z" style="fill:#f5f5f5"></path><rect x="75.84" y="160.97" width="129.03" height="11.46" style="fill:#263238"></rect><path d="M233.31,102.5s-7.62-.27-8.43,0-7.35,11.42-7.35,11.42V138.4l15.78-23.93Z" style="fill:#e0e0e0"></path><path d="M205.57,74.76c-.82,0-50,5.77-75.29,53.61l-17.23,34.75h90.88Z" style="fill:#e0e0e0"></path><path d="M75.9,169.43,64.14,118s41.24-6.79,67.35,12.25L109.56,170Z" style="fill:#e0e0e0"></path><path d="M163.14,138.4s-26.65-15.23-55.48-8.16L127.78,170h9.79Z" style="fill:#f5f5f5"></path><path d="M236.3,80.47s-52,13.33-70.44,59.83l38.62,32.1H214a243.12,243.12,0,0,1,9.79-55.68C232.76,86.73,236.3,80.47,236.3,80.47Z" style="fill:#f5f5f5"></path><path d="M299.94,126.43s-15.14,14.46-22.75,35.67L271.38,161l-14.46-32.6a64.68,64.68,0,0,1,25.34-4.11C296.67,124.8,299.94,126.43,299.94,126.43Z" style="fill:#f5f5f5"></path><polygon points="268.66 120.39 254.25 118.94 246.36 166.37 272.74 160.97 268.66 120.39" style="fill:#f5f5f5"></polygon><path d="M262.14,107.12s-28.83,3.24-36.72,11.82l-5.17,44.18,20.94,6h5.72Z" style="fill:#f5f5f5"></path><rect x="42.38" y="190.45" width="316.82" height="7.44" style="fill:#455a64"></rect><path d="M65.87,118.94l11.52,48.75H97S88.79,125.85,65.87,118.94Z" style="fill:#263238"></path><polygon points="137.57 169.95 163.14 138.4 166.64 138.4 202.15 170.3 137.57 169.95" style="fill:#f5f5f5"></polygon><path d="M163.14,138.4a2.08,2.08,0,0,1-.54-.22l-1.51-.7c-.65-.32-1.45-.7-2.4-1.1s-2-.91-3.21-1.36-2.51-1-3.95-1.47-3-1-4.62-1.47A83.34,83.34,0,0,0,125,128.86c-1.71,0-3.33,0-4.85.08s-2.92.16-4.21.27-2.44.27-3.46.38-1.9.24-2.61.36l-1.65.24a2.31,2.31,0,0,1-.58.05,2.29,2.29,0,0,1,.56-.15l1.63-.34c.71-.15,1.58-.32,2.61-.45s2.17-.35,3.46-.46,2.71-.28,4.23-.33,3.16-.12,4.87-.13a84.55,84.55,0,0,1,11.13.85,85.66,85.66,0,0,1,10.9,2.39c1.64.51,3.2,1,4.62,1.52s2.76,1,4,1.54,2.26,1,3.2,1.44,1.72.83,2.36,1.18l1.47.79A2.25,2.25,0,0,1,163.14,138.4Z" style="fill:#263238"></path><path d="M163.14,138.4c.11.09-5.52,7.23-12.58,15.94s-12.87,15.7-13,15.61,5.52-7.23,12.59-15.94S163,138.31,163.14,138.4Z" style="fill:#263238"></path><path d="M127.81,170.3a12,12,0,0,1-.4-1.76c-.23-1.14-.57-2.78-1-4.81a81,81,0,0,0-5-15.37,48.73,48.73,0,0,0-8.84-13.42,42.88,42.88,0,0,0-3.57-3.36,12.79,12.79,0,0,1-1.37-1.17,1.82,1.82,0,0,1,.4.24c.25.17.64.41,1.1.77a33.74,33.74,0,0,1,3.7,3.26,46.37,46.37,0,0,1,9.06,13.47,73.61,73.61,0,0,1,4.85,15.5c.42,2,.7,3.7.87,4.85.09.58.14,1,.18,1.33A1.52,1.52,0,0,1,127.81,170.3Z" style="fill:#263238"></path><path d="M118.31,152.51a20.71,20.71,0,0,1-1.2,2.66c-.78,1.62-1.81,3.88-3,6.38s-2.22,4.75-3.09,6.34a13.5,13.5,0,0,1-1.53,2.49,18.83,18.83,0,0,1,1.21-2.66c.77-1.62,1.8-3.88,2.94-6.39s2.22-4.75,3.09-6.33A13.06,13.06,0,0,1,118.31,152.51Z" style="fill:#263238"></path><polygon points="163.69 138.4 166.36 170.1 168.05 169.95 166.64 138.4 163.69 138.4" style="fill:#e0e0e0"></polygon><polyline points="225.42 118.94 217.53 120.36 214 172.4 241.19 167 226.66 118.94" style="fill:#f5f5f5"></polyline><path d="M217.91,169.47a.75.75,0,0,1,0-.24c0-.18,0-.41,0-.69,0-.65-.08-1.54-.13-2.67s-.12-2.57-.1-4.22,0-3.53.07-5.6.15-4.35.37-6.78.47-5,.78-7.75c.71-5.44,1.73-11.39,3.12-17.57a262.78,262.78,0,0,1,9.38-31c1.43-3.89,2.64-7,3.52-9.17.42-1,.76-1.86,1-2.47l.27-.64.11-.21s0,.08-.06.23-.13.4-.22.66c-.23.61-.54,1.45-.92,2.51-.82,2.16-2,5.31-3.36,9.22a285.69,285.69,0,0,0-9.22,31c-1.39,6.17-2.42,12.1-3.16,17.52-.32,2.72-.65,5.3-.82,7.73s-.33,4.69-.43,6.75-.11,3.94-.15,5.59,0,3.06,0,4.22,0,2,0,2.67c0,.28,0,.5,0,.69A.64.64,0,0,1,217.91,169.47Z" style="fill:#263238"></path><path d="M236.3,80.47a1.17,1.17,0,0,1-.23.1l-.68.25-2.65.89c-2.32.71-5.58,2-9.58,3.64a121.08,121.08,0,0,0-13.54,6.9c-2.51,1.4-5,3.1-7.58,4.81s-5.16,3.69-7.67,5.83A109.66,109.66,0,0,0,181,115.79q-.71.81-1.41,1.59L178.28,119c-.84,1.06-1.68,2.07-2.45,3.08-1.45,2.09-2.92,4-4,5.82l-1.65,2.61c-.52.82-.93,1.65-1.36,2.39-.84,1.51-1.58,2.79-2.07,3.9l-1.23,2.51-.33.64a1.53,1.53,0,0,1-.12.22s0-.09.08-.24l.28-.67c.28-.62.65-1.47,1.13-2.55s1.19-2.43,2-3.95c.42-.75.82-1.59,1.33-2.42s1.06-1.71,1.63-2.64c1.09-1.88,2.55-3.77,4-5.87.76-1,1.6-2,2.44-3.12l1.28-1.63,1.41-1.59a106.86,106.86,0,0,1,13.42-13c2.52-2.16,5.18-4,7.71-5.85s5.11-3.41,7.62-4.8A115.13,115.13,0,0,1,223,85a102.65,102.65,0,0,1,9.67-3.5l2.68-.8.7-.2A.84.84,0,0,1,236.3,80.47Z" style="fill:#263238"></path><path d="M262.14,107.12a5.16,5.16,0,0,1-.77.14l-2.2.34c-1.92.3-4.7.76-8.14,1.45a110.81,110.81,0,0,0-12,3.08,41,41,0,0,0-13.46,7.27l.08-.15c-.38,2-.74,4.19-1,6.39a107.8,107.8,0,0,0,.56,32.12,28.9,28.9,0,0,0,3.19,9.16,19.74,19.74,0,0,0,1.48,2.2l.43.54c.09.13.14.19.13.2a12.83,12.83,0,0,1-2.21-2.84,27.81,27.81,0,0,1-3.38-9.19,104.14,104.14,0,0,1-.71-32.25c.29-2.21.65-4.38,1-6.43v-.09l.07,0a41.1,41.1,0,0,1,13.66-7.32,108.17,108.17,0,0,1,12.09-3c3.46-.65,6.25-1.06,8.18-1.3,1-.13,1.71-.21,2.22-.25A5.61,5.61,0,0,1,262.14,107.12Z" style="fill:#263238"></path><path d="M262.28,108.48c.14,0-3,13-7,29s-7.39,28.91-7.53,28.88,3-13,7-29S262.14,108.44,262.28,108.48Z" style="fill:#263238"></path><path d="M245.32,170.41a4.46,4.46,0,0,1-.07-.67c0-.49-.07-1.13-.11-1.92s-.09-1.85-.09-3,0-2.54,0-4,.1-3.13.25-4.88.34-3.62.56-5.58a109.8,109.8,0,0,1,6.18-24.9c.73-1.84,1.39-3.6,2.12-5.2s1.4-3.09,2.06-4.43,1.3-2.53,1.85-3.58,1.07-1.93,1.5-2.65l1-1.64a3.75,3.75,0,0,1,.37-.55,3.17,3.17,0,0,1-.28.6l-.91,1.69c-.41.73-.9,1.63-1.42,2.69s-1.17,2.24-1.78,3.6-1.33,2.82-2,4.44-1.36,3.36-2.07,5.19c-1.34,3.7-2.66,7.83-3.77,12.23a126.21,126.21,0,0,0-2.38,12.57c-.24,2-.49,3.81-.6,5.56s-.26,3.37-.32,4.86-.09,2.83-.12,4,0,2.2,0,3,0,1.43,0,1.92A2.88,2.88,0,0,1,245.32,170.41Z" style="fill:#263238"></path><polygon points="303.48 190.45 303.48 170.53 294.83 170.53 251.62 190.45 303.48 190.45" style="fill:#455a64"></polygon><path d="M296.09,164.51h-14s-7-4.71-13-3.26-35.84,6.32-43.67,8.3-12.15,2.88-12.15,2.88H50.5v18H295.65l.44-25.94" style="fill:#455a64"></path><path d="M359.2,190.45c0,.15-70.73.26-158,.26s-158-.11-158-.26,70.72-.26,158-.26S359.2,190.31,359.2,190.45Z" style="fill:#263238"></path><path d="M53.48,197.89c-.14,0-.26-5.67-.26-12.67s.12-12.68.26-12.68.26,5.68.26,12.68S53.63,197.89,53.48,197.89Z" style="fill:#263238"></path><path d="M50.62,197.53a24.23,24.23,0,0,1,0-7.08,24.23,24.23,0,0,1,0,7.08Z" style="fill:#263238"></path><path d="M47.88,197.53a24.23,24.23,0,0,1,0-7.08,24.23,24.23,0,0,1,0,7.08Z" style="fill:#263238"></path><path d="M45.14,197.53a24.23,24.23,0,0,1,0-7.08,24.23,24.23,0,0,1,0,7.08Z" style="fill:#263238"></path><path d="M56.61,197.89c-.15,0-.26-5.67-.26-12.67s.11-12.68.26-12.68.26,5.68.26,12.68S56.75,197.89,56.61,197.89Z" style="fill:#263238"></path><path d="M59.73,197.89c-.14,0-.26-5.67-.26-12.67s.12-12.68.26-12.68.26,5.68.26,12.68S59.88,197.89,59.73,197.89Z" style="fill:#263238"></path><path d="M62.86,197.89c-.15,0-.26-5.67-.26-12.67s.11-12.68.26-12.68.26,5.68.26,12.68S63,197.89,62.86,197.89Z" style="fill:#263238"></path><path d="M66,197.89c-.14,0-.26-5.67-.26-12.67s.12-12.68.26-12.68.26,5.68.26,12.68S66.13,197.89,66,197.89Z" style="fill:#263238"></path><path d="M69.11,197.89c-.15,0-.26-5.67-.26-12.67s.11-12.68.26-12.68.26,5.68.26,12.68S69.25,197.89,69.11,197.89Z" style="fill:#263238"></path><path d="M72.23,197.89c-.14,0-.26-5.67-.26-12.67s.12-12.68.26-12.68.26,5.68.26,12.68S72.38,197.89,72.23,197.89Z" style="fill:#263238"></path><path d="M75.36,197.89c-.15,0-.26-5.67-.26-12.67s.11-12.68.26-12.68.26,5.68.26,12.68S75.5,197.89,75.36,197.89Z" style="fill:#263238"></path><path d="M78.48,197.89c-.14,0-.26-5.67-.26-12.67s.12-12.68.26-12.68.26,5.68.26,12.68S78.63,197.89,78.48,197.89Z" style="fill:#263238"></path><path d="M81.61,197.89c-.15,0-.26-5.67-.26-12.67s.11-12.68.26-12.68.26,5.68.26,12.68S81.75,197.89,81.61,197.89Z" style="fill:#263238"></path><path d="M84.73,197.89c-.14,0-.26-5.67-.26-12.67s.12-12.68.26-12.68.26,5.68.26,12.68S84.88,197.89,84.73,197.89Z" style="fill:#263238"></path><path d="M87.86,197.89c-.15,0-.26-5.67-.26-12.67s.11-12.68.26-12.68.26,5.68.26,12.68S88,197.89,87.86,197.89Z" style="fill:#263238"></path><path d="M91,197.89c-.14,0-.26-5.67-.26-12.67s.12-12.68.26-12.68.26,5.68.26,12.68S91.13,197.89,91,197.89Z" style="fill:#263238"></path><path d="M94.11,197.89c-.15,0-.26-5.67-.26-12.67s.11-12.68.26-12.68.26,5.68.26,12.68S94.25,197.89,94.11,197.89Z" style="fill:#263238"></path><path d="M97.23,197.89c-.14,0-.26-5.67-.26-12.67s.12-12.68.26-12.68.26,5.68.26,12.68S97.38,197.89,97.23,197.89Z" style="fill:#263238"></path><path d="M100.36,197.89c-.15,0-.26-5.67-.26-12.67s.11-12.68.26-12.68.26,5.68.26,12.68S100.5,197.89,100.36,197.89Z" style="fill:#263238"></path><path d="M103.48,197.89c-.14,0-.26-5.67-.26-12.67s.12-12.68.26-12.68.26,5.68.26,12.68S103.63,197.89,103.48,197.89Z" style="fill:#263238"></path><path d="M106.61,197.89c-.15,0-.26-5.67-.26-12.67s.11-12.68.26-12.68.26,5.68.26,12.68S106.75,197.89,106.61,197.89Z" style="fill:#263238"></path><path d="M109.73,197.89c-.14,0-.26-5.67-.26-12.67s.12-12.68.26-12.68.26,5.68.26,12.68S109.88,197.89,109.73,197.89Z" style="fill:#263238"></path><path d="M112.86,197.89c-.15,0-.26-5.67-.26-12.67s.11-12.68.26-12.68.26,5.68.26,12.68S113,197.89,112.86,197.89Z" style="fill:#263238"></path><path d="M116,197.89c-.14,0-.26-5.67-.26-12.67s.12-12.68.26-12.68.26,5.68.26,12.68S116.12,197.89,116,197.89Z" style="fill:#263238"></path><path d="M119.11,197.89c-.15,0-.26-5.67-.26-12.67s.11-12.68.26-12.68.26,5.68.26,12.68S119.25,197.89,119.11,197.89Z" style="fill:#263238"></path><path d="M122.23,197.89c-.14,0-.26-5.67-.26-12.67s.12-12.68.26-12.68.26,5.68.26,12.68S122.37,197.89,122.23,197.89Z" style="fill:#263238"></path><path d="M125.36,197.89c-.15,0-.26-5.67-.26-12.67s.11-12.68.26-12.68.26,5.68.26,12.68S125.5,197.89,125.36,197.89Z" style="fill:#263238"></path><path d="M128.48,197.89c-.14,0-.26-5.67-.26-12.67s.12-12.68.26-12.68.26,5.68.26,12.68S128.62,197.89,128.48,197.89Z" style="fill:#263238"></path><path d="M131.61,197.89c-.15,0-.26-5.67-.26-12.67s.11-12.68.26-12.68.26,5.68.26,12.68S131.75,197.89,131.61,197.89Z" style="fill:#263238"></path><path d="M134.73,197.89c-.14,0-.26-5.67-.26-12.67s.12-12.68.26-12.68.26,5.68.26,12.68S134.87,197.89,134.73,197.89Z" style="fill:#263238"></path><path d="M137.86,197.89c-.15,0-.26-5.67-.26-12.67s.11-12.68.26-12.68.26,5.68.26,12.68S138,197.89,137.86,197.89Z" style="fill:#263238"></path><path d="M141,197.89c-.14,0-.26-5.67-.26-12.67s.12-12.68.26-12.68.26,5.68.26,12.68S141.12,197.89,141,197.89Z" style="fill:#263238"></path><path d="M144.11,197.89c-.15,0-.27-5.67-.27-12.67s.12-12.68.27-12.68.26,5.68.26,12.68S144.25,197.89,144.11,197.89Z" style="fill:#263238"></path><path d="M147.23,197.89c-.14,0-.26-5.67-.26-12.67s.12-12.68.26-12.68.26,5.68.26,12.68S147.37,197.89,147.23,197.89Z" style="fill:#263238"></path><path d="M150.36,197.89c-.15,0-.27-5.67-.27-12.67s.12-12.68.27-12.68.26,5.68.26,12.68S150.5,197.89,150.36,197.89Z" style="fill:#263238"></path><path d="M153.48,197.89c-.14,0-.26-5.67-.26-12.67s.12-12.68.26-12.68.26,5.68.26,12.68S153.62,197.89,153.48,197.89Z" style="fill:#263238"></path><path d="M156.6,197.89c-.14,0-.26-5.67-.26-12.67s.12-12.68.26-12.68.27,5.68.27,12.68S156.75,197.89,156.6,197.89Z" style="fill:#263238"></path><path d="M159.73,197.89c-.14,0-.26-5.67-.26-12.67s.12-12.68.26-12.68.26,5.68.26,12.68S159.87,197.89,159.73,197.89Z" style="fill:#263238"></path><path d="M162.85,197.89c-.14,0-.26-5.67-.26-12.67s.12-12.68.26-12.68.27,5.68.27,12.68S163,197.89,162.85,197.89Z" style="fill:#263238"></path><path d="M166,197.89c-.14,0-.26-5.67-.26-12.67s.12-12.68.26-12.68.26,5.68.26,12.68S166.12,197.89,166,197.89Z" style="fill:#263238"></path><path d="M169.1,197.89c-.14,0-.26-5.67-.26-12.67s.12-12.68.26-12.68.26,5.68.26,12.68S169.25,197.89,169.1,197.89Z" style="fill:#263238"></path><path d="M172.23,197.89c-.14,0-.26-5.67-.26-12.67s.12-12.68.26-12.68.26,5.68.26,12.68S172.37,197.89,172.23,197.89Z" style="fill:#263238"></path><path d="M175.35,197.89c-.14,0-.26-5.67-.26-12.67s.12-12.68.26-12.68.26,5.68.26,12.68S175.5,197.89,175.35,197.89Z" style="fill:#263238"></path><path d="M178.48,197.89c-.14,0-.26-5.67-.26-12.67s.12-12.68.26-12.68.26,5.68.26,12.68S178.62,197.89,178.48,197.89Z" style="fill:#263238"></path><path d="M181.6,197.89c-.14,0-.26-5.67-.26-12.67s.12-12.68.26-12.68.26,5.68.26,12.68S181.75,197.89,181.6,197.89Z" style="fill:#263238"></path><path d="M184.73,197.89c-.14,0-.26-5.67-.26-12.67s.12-12.68.26-12.68.26,5.68.26,12.68S184.87,197.89,184.73,197.89Z" style="fill:#263238"></path><path d="M187.85,197.89c-.14,0-.26-5.67-.26-12.67s.12-12.68.26-12.68.26,5.68.26,12.68S188,197.89,187.85,197.89Z" style="fill:#263238"></path><path d="M191,197.89c-.14,0-.26-5.67-.26-12.67s.12-12.68.26-12.68.26,5.68.26,12.68S191.12,197.89,191,197.89Z" style="fill:#263238"></path><path d="M194.1,197.89c-.14,0-.26-5.67-.26-12.67s.12-12.68.26-12.68.26,5.68.26,12.68S194.25,197.89,194.1,197.89Z" style="fill:#263238"></path><path d="M197.23,197.89c-.14,0-.26-5.67-.26-12.67s.12-12.68.26-12.68.26,5.68.26,12.68S197.37,197.89,197.23,197.89Z" style="fill:#263238"></path><path d="M200.35,197.89c-.14,0-.26-5.67-.26-12.67s.12-12.68.26-12.68.26,5.68.26,12.68S200.5,197.89,200.35,197.89Z" style="fill:#263238"></path><path d="M203.48,197.89c-.15,0-.26-5.67-.26-12.67s.11-12.68.26-12.68.26,5.68.26,12.68S203.62,197.89,203.48,197.89Z" style="fill:#263238"></path><path d="M206.6,197.89c-.14,0-.26-5.67-.26-12.67s.12-12.68.26-12.68.26,5.68.26,12.68S206.75,197.89,206.6,197.89Z" style="fill:#263238"></path><path d="M209.73,197.89c-.15,0-.26-5.67-.26-12.67s.11-12.68.26-12.68.26,5.68.26,12.68S209.87,197.89,209.73,197.89Z" style="fill:#263238"></path><path d="M212.85,197.89c-.14,0-.26-5.67-.26-12.67s.12-12.68.26-12.68.26,5.68.26,12.68S213,197.89,212.85,197.89Z" style="fill:#263238"></path><path d="M216,172.54c.14,0,.26,5.68.26,12.68s-.12,12.67-.26,12.67-.26-5.67-.26-12.67S215.83,172.54,216,172.54Z" style="fill:#263238"></path><path d="M219.1,197.89c-.14,0-.26-5.67-.26-12.67s.12-12.68.26-12.68.26,5.68.26,12.68S219.25,197.89,219.1,197.89Z" style="fill:#263238"></path><path d="M222.23,197.89c-.15,0-.26-5.67-.26-12.67s.11-12.68.26-12.68.26,5.68.26,12.68S222.37,197.89,222.23,197.89Z" style="fill:#263238"></path><path d="M225.35,197.89c-.14,0-.26-6.44-.26-14.38s.12-14.38.26-14.38.26,6.44.26,14.38S225.5,197.89,225.35,197.89Z" style="fill:#263238"></path><path d="M228.48,197.89c-.15,0-.26-6.5-.26-14.52s.11-14.52.26-14.52.26,6.5.26,14.52S228.62,197.89,228.48,197.89Z" style="fill:#263238"></path><path d="M231.6,197.89c-.14,0-.26-6.58-.26-14.7s.12-14.7.26-14.7.26,6.58.26,14.7S231.75,197.89,231.6,197.89Z" style="fill:#263238"></path><path d="M234.73,197.89c-.15,0-.26-6.78-.26-15.14s.11-15.13.26-15.13.26,6.77.26,15.13S234.87,197.89,234.73,197.89Z" style="fill:#263238"></path><path d="M237.85,197.89c-.14,0-.26-6.91-.26-15.43s.12-15.43.26-15.43.26,6.91.26,15.43S238,197.89,237.85,197.89Z" style="fill:#263238"></path><path d="M241,197.89c-.15,0-.26-7-.26-15.72s.11-15.72.26-15.72.26,7,.26,15.72S241.12,197.89,241,197.89Z" style="fill:#263238"></path><path d="M244.1,197.89c-.14,0-.26-7.16-.26-16s.12-16,.26-16,.26,7.17.26,16S244.25,197.89,244.1,197.89Z" style="fill:#263238"></path><path d="M247.23,197.89c-.15,0-.26-7.31-.26-16.32s.11-16.33.26-16.33.26,7.31.26,16.33S247.37,197.89,247.23,197.89Z" style="fill:#263238"></path><path d="M250.35,197.89c-.14,0-.26-7.43-.26-16.59s.12-16.59.26-16.59.26,7.42.26,16.59S250.5,197.89,250.35,197.89Z" style="fill:#263238"></path><path d="M253.48,197.89c-.15,0-.26-7.53-.26-16.82s.11-16.82.26-16.82.26,7.53.26,16.82S253.62,197.89,253.48,197.89Z" style="fill:#263238"></path><path d="M256.6,197.89c-.14,0-.26-7.66-.26-17.12s.12-17.11.26-17.11.26,7.66.26,17.11S256.75,197.89,256.6,197.89Z" style="fill:#263238"></path><path d="M259.73,197.89c-.15,0-.26-7.79-.26-17.39s.11-17.39.26-17.39.26,7.79.26,17.39S259.87,197.89,259.73,197.89Z" style="fill:#263238"></path><path d="M262.85,197.89c-.14,0-.26-7.79-.26-17.39s.12-17.39.26-17.39.26,7.79.26,17.39S263,197.89,262.85,197.89Z" style="fill:#263238"></path><path d="M266,197.89c-.15,0-.26-7.79-.26-17.39s.11-17.39.26-17.39.26,7.79.26,17.39S266.12,197.89,266,197.89Z" style="fill:#263238"></path><path d="M269.1,197.89c-.14,0-.26-8.17-.26-18.25s.12-18.25.26-18.25.26,8.17.26,18.25S269.25,197.89,269.1,197.89Z" style="fill:#263238"></path><path d="M272.23,197.89c-.15,0-.26-8.17-.26-18.25s.11-18.25.26-18.25.26,8.17.26,18.25S272.37,197.89,272.23,197.89Z" style="fill:#263238"></path><path d="M275.35,197.89c-.14,0-.26-8.17-.26-18.25s.12-18.25.26-18.25.26,8.17.26,18.25S275.5,197.89,275.35,197.89Z" style="fill:#263238"></path><path d="M278.48,197.89c-.15,0-.26-7.88-.26-17.59s.11-17.59.26-17.59.26,7.87.26,17.59S278.62,197.89,278.48,197.89Z" style="fill:#263238"></path><path d="M281.6,197.89c-.14,0-.26-7.47-.26-16.69s.12-16.69.26-16.69.26,7.47.26,16.69S281.75,197.89,281.6,197.89Z" style="fill:#263238"></path><path d="M284.73,197.89c-.15,0-.26-7.47-.26-16.69s.11-16.69.26-16.69S285,172,285,181.2,284.87,197.89,284.73,197.89Z" style="fill:#263238"></path><path d="M287.85,197.89c-.14,0-.26-7.47-.26-16.69s.12-16.69.26-16.69.26,7.47.26,16.69S288,197.89,287.85,197.89Z" style="fill:#263238"></path><path d="M291,197.89c-.15,0-.26-7.47-.26-16.69s.11-16.69.26-16.69.26,7.47.26,16.69S291.12,197.89,291,197.89Z" style="fill:#263238"></path><path d="M294.1,197.89c-.14,0-.26-7.47-.26-16.69s.12-16.69.26-16.69.26,7.47.26,16.69S294.24,197.89,294.1,197.89Z" style="fill:#263238"></path><path d="M297.23,197.89c-.15,0-.26-6.15-.26-13.74s.11-13.74.26-13.74.26,6.15.26,13.74S297.37,197.89,297.23,197.89Z" style="fill:#263238"></path><path d="M300.35,197.89c-.14,0-.26-6.15-.26-13.74s.12-13.74.26-13.74.26,6.15.26,13.74S300.49,197.89,300.35,197.89Z" style="fill:#263238"></path><path d="M303.48,197.89c-.15,0-.26-6.15-.26-13.74s.11-13.74.26-13.74.26,6.15.26,13.74S303.62,197.89,303.48,197.89Z" style="fill:#263238"></path><path d="M308.88,197.89a26.74,26.74,0,0,1,0-7.44,26.74,26.74,0,0,1,0,7.44Z" style="fill:#263238"></path><path d="M306.14,197.89a26.74,26.74,0,0,1,0-7.44,26.74,26.74,0,0,1,0,7.44Z" style="fill:#263238"></path><path d="M314.39,197.89a26.74,26.74,0,0,1,0-7.44,26.74,26.74,0,0,1,0,7.44Z" style="fill:#263238"></path><path d="M311.65,197.89a26.74,26.74,0,0,1,0-7.44,26.74,26.74,0,0,1,0,7.44Z" style="fill:#263238"></path><path d="M319.9,197.89a26.74,26.74,0,0,1,0-7.44,26.74,26.74,0,0,1,0,7.44Z" style="fill:#263238"></path><path d="M317.16,197.89a26.74,26.74,0,0,1,0-7.44,26.74,26.74,0,0,1,0,7.44Z" style="fill:#263238"></path><path d="M325.41,197.89a26.74,26.74,0,0,1,0-7.44,26.74,26.74,0,0,1,0,7.44Z" style="fill:#263238"></path><path d="M322.68,197.89a25.76,25.76,0,0,1,0-7.44,26.74,26.74,0,0,1,0,7.44Z" style="fill:#263238"></path><path d="M330.93,197.89a26.74,26.74,0,0,1,0-7.44,26.74,26.74,0,0,1,0,7.44Z" style="fill:#263238"></path><path d="M328.19,197.89a26.74,26.74,0,0,1,0-7.44,26.74,26.74,0,0,1,0,7.44Z" style="fill:#263238"></path><path d="M336.44,197.89a26.74,26.74,0,0,1,0-7.44,26.74,26.74,0,0,1,0,7.44Z" style="fill:#263238"></path><path d="M333.7,197.89a26.74,26.74,0,0,1,0-7.44,26.74,26.74,0,0,1,0,7.44Z" style="fill:#263238"></path><path d="M342,197.89a26.74,26.74,0,0,1,0-7.44,26.74,26.74,0,0,1,0,7.44Z" style="fill:#263238"></path><path d="M339.21,197.89a26.74,26.74,0,0,1,0-7.44,26.74,26.74,0,0,1,0,7.44Z" style="fill:#263238"></path><path d="M347.47,197.89a26.74,26.74,0,0,1,0-7.44,26.74,26.74,0,0,1,0,7.44Z" style="fill:#263238"></path><path d="M344.73,197.89a26.74,26.74,0,0,1,0-7.44,26.74,26.74,0,0,1,0,7.44Z" style="fill:#263238"></path><path d="M353,197.89a26.74,26.74,0,0,1,0-7.44,26.74,26.74,0,0,1,0,7.44Z" style="fill:#263238"></path><path d="M350.24,197.89a26.74,26.74,0,0,1,0-7.44,26.74,26.74,0,0,1,0,7.44Z" style="fill:#263238"></path><path d="M355.75,197.89a26.74,26.74,0,0,1,0-7.44,26.74,26.74,0,0,1,0,7.44Z" style="fill:#263238"></path><g style="opacity:0.2"><polygon points="145.88 190.45 213.27 172.43 140.98 172.35 140.98 190.45 145.88 190.45"></polygon></g></g><g id="freepik--Plants--inject-64"><path d="M210.06,430.46a9.12,9.12,0,0,1,4.71,5.34,15.91,15.91,0,0,1,.62,7.23c-.53,4.69-3.19,9.43-6.07,13.18-3.95-3.45-4.86-9.47-5.13-12.55-.42-4.87,1.77-13.93,5.87-13.2" style="fill:#FFC100"></path><path d="M213.92,464a7.76,7.76,0,0,1,2.51-7.38,10.3,10.3,0,0,1,7.6-2.37,4.33,4.33,0,0,1,3.33,1.49,3.33,3.33,0,0,1,0,3.37,6.73,6.73,0,0,1-2.49,2.45c-3.42,2.15-7.13,3.6-11,2.44" style="fill:#FFC100"></path><path d="M208.85,478.35a6,6,0,0,1,.14-1c.13-.67.29-1.55.48-2.6a27.4,27.4,0,0,1,2.69-8.33,16.7,16.7,0,0,1,6-6.35,12,12,0,0,1,2.44-1.08c.3-.1.54-.14.7-.18a.79.79,0,0,1,.25,0,18.09,18.09,0,0,0-3.26,1.5,17.14,17.14,0,0,0-5.8,6.31,29,29,0,0,0-2.75,8.21c-.24,1.09-.44,2-.59,2.58A5.68,5.68,0,0,1,208.85,478.35Z" style="fill:#263238"></path><path d="M209,437.5a2.14,2.14,0,0,1,.05.43c0,.31,0,.71.07,1.21.06,1.05.12,2.57.18,4.45.12,3.76.21,9,.19,14.7s-.17,10.94-.32,14.7c-.08,1.88-.15,3.4-.22,4.45,0,.49-.06.89-.08,1.21a2.1,2.1,0,0,1-.05.42,2.06,2.06,0,0,1,0-.43c0-.31,0-.71,0-1.21,0-1.09.06-2.6.11-4.45.09-3.76.19-9,.22-14.69s0-10.94-.09-14.7c0-1.85-.06-3.36-.07-4.45,0-.5,0-.9,0-1.21A2.06,2.06,0,0,1,209,437.5Z" style="fill:#263238"></path><path d="M207.08,466.81a18.14,18.14,0,0,0-9.91-13.29c-1.32-.64-3-1-4.13-.07s-.85,2.75-.31,4.12A15.5,15.5,0,0,0,207,467.2" style="fill:#FFC100"></path><path d="M197.81,458a5,5,0,0,1,.84.36c.26.13.59.29.95.51s.78.44,1.2.76a15.37,15.37,0,0,1,1.38,1,18.79,18.79,0,0,1,6.1,9.08,18.55,18.55,0,0,1,.47,1.93,14.6,14.6,0,0,1,.23,1.72,12.22,12.22,0,0,1,.07,1.42,8.69,8.69,0,0,1,0,1.07,6.2,6.2,0,0,1-.1.91c-.08,0,.05-1.3-.18-3.38-.07-.52-.13-1.08-.27-1.68s-.3-1.23-.49-1.89a20.72,20.72,0,0,0-1.83-4.08,21.16,21.16,0,0,0-2.72-3.54,19.35,19.35,0,0,0-1.43-1.34c-.45-.41-.92-.74-1.34-1.06C199,458.58,197.77,458,197.81,458Z" style="fill:#263238"></path><path d="M300,451.6a4.35,4.35,0,0,1,.76.88,31.3,31.3,0,0,1,1.83,2.59,46.77,46.77,0,0,1,7.12,19.54c.17,1.33.25,2.41.27,3.16a5.67,5.67,0,0,1,0,1.17c-.09,0-.2-1.65-.61-4.28a53.39,53.39,0,0,0-7.07-19.4C300.87,453,299.89,451.65,300,451.6Z" style="fill:#263238"></path><path d="M315,438.06c.14,0,.19,9.27.09,20.69s-.28,20.7-.43,20.69-.18-9.26-.09-20.69S314.85,438.06,315,438.06Z" style="fill:#263238"></path><path d="M330.24,459.6c.06,0-.71,1-1.86,2.69a54,54,0,0,0-4,6.76,52.26,52.26,0,0,0-2.88,7.3,32,32,0,0,1-1,3.11,3,3,0,0,1,.1-.87c.09-.56.27-1.37.52-2.35a41.13,41.13,0,0,1,2.78-7.42,40.71,40.71,0,0,1,4.14-6.75c.61-.8,1.13-1.44,1.52-1.85S330.21,459.58,330.24,459.6Z" style="fill:#263238"></path><path d="M619.56,451.6a4.54,4.54,0,0,1,.77.88,31.3,31.3,0,0,1,1.83,2.59,46.77,46.77,0,0,1,7.12,19.54c.16,1.33.25,2.41.26,3.16a4.9,4.9,0,0,1,0,1.17c-.09,0-.19-1.65-.61-4.28a54.49,54.49,0,0,0-2.58-10.05,56.06,56.06,0,0,0-4.48-9.35C620.47,453,619.49,451.65,619.56,451.6Z" style="fill:#263238"></path><path d="M634.6,438.06c.14,0,.18,9.27.09,20.69s-.29,20.7-.43,20.69-.19-9.26-.09-20.69S634.45,438.06,634.6,438.06Z" style="fill:#263238"></path><path d="M649.85,459.6c.06,0-.72,1-1.86,2.69a52.8,52.8,0,0,0-4,6.76,53.76,53.76,0,0,0-2.89,7.3c-.6,1.92-.89,3.13-1,3.11a2.6,2.6,0,0,1,.1-.87c.09-.56.26-1.37.52-2.35a41.12,41.12,0,0,1,6.91-14.17c.62-.8,1.14-1.44,1.52-1.85S649.82,459.58,649.85,459.6Z" style="fill:#263238"></path><path d="M84.91,451.6a4.35,4.35,0,0,1,.76.88,31.3,31.3,0,0,1,1.83,2.59,46.77,46.77,0,0,1,7.12,19.54c.17,1.33.25,2.41.27,3.16a5.67,5.67,0,0,1,0,1.17c-.09,0-.2-1.65-.61-4.28a53.39,53.39,0,0,0-7.07-19.4C85.82,453,84.84,451.65,84.91,451.6Z" style="fill:#263238"></path><path d="M99.94,438.06c.14,0,.18,9.27.09,20.69s-.28,20.7-.43,20.69-.18-9.26-.09-20.69S99.8,438.06,99.94,438.06Z" style="fill:#263238"></path><path d="M115.19,459.6c.06,0-.71,1-1.86,2.69a54,54,0,0,0-4,6.76,52.26,52.26,0,0,0-2.88,7.3,32,32,0,0,1-1,3.11,3,3,0,0,1,.1-.87c.09-.56.27-1.37.52-2.35A41.6,41.6,0,0,1,113,462.07c.62-.8,1.14-1.44,1.53-1.85S115.16,459.58,115.19,459.6Z" style="fill:#263238"></path></g><g id="freepik--Characters--inject-64"><path d="M532.06,436.75l22.82,18.72L531.74,484c-2.59-2.38,3.91-21.57,3.91-21.57L520.54,451Z" style="fill:#455a64"></path><g style="opacity:0.6000000000000001"><path d="M541.57,452.6a1.51,1.51,0,0,1,2,.27,1.45,1.45,0,0,1-.26,2,1.58,1.58,0,0,1-2.09-.3,1.49,1.49,0,0,1,.49-2" style="fill:#fff"></path></g><g style="opacity:0.6000000000000001"><path d="M554.79,455.39l-2.29-1.9-21.21,28.27s-.47,1.72.54,2.3Z" style="fill:#fff"></path></g><path d="M535.13,462.76c.15.11.77-.54,1.78-.86s1.88-.21,1.93-.38-.92-.62-2.13-.21S535,462.69,535.13,462.76Z" style="fill:#263238"></path><path d="M533.94,466.76c.11.14.84-.27,1.81-.27s1.71.38,1.81.23-.61-.87-1.82-.85S533.81,466.65,533.94,466.76Z" style="fill:#263238"></path><path d="M536.14,471.36c.14-.1-.4-.86-1.46-1.12s-1.88.14-1.81.29.8.09,1.66.31S536,471.49,536.14,471.36Z" style="fill:#263238"></path><path d="M532,459.78c.17.05.5-.75,1.19-1.49s1.44-1.16,1.38-1.33-1,0-1.84.91S531.81,459.76,532,459.78Z" style="fill:#263238"></path><path d="M529.14,456.36c.06.05.59-.44,1.16-1.44a8.36,8.36,0,0,0,.75-1.86,8.22,8.22,0,0,0,.23-1.18,2.29,2.29,0,0,0,0-.7.78.78,0,0,0-.68-.67,1,1,0,0,0-.82.36,2.23,2.23,0,0,0-.36.59,5.79,5.79,0,0,0-.41,1.14,6.17,6.17,0,0,0-.21,2,3.13,3.13,0,0,0,.48,1.79c.1,0-.08-.71,0-1.79a7.26,7.26,0,0,1,.32-1.86,6.59,6.59,0,0,1,.41-1c.17-.37.37-.63.57-.59s.1,0,.13.16a1.77,1.77,0,0,1,0,.51,9.19,9.19,0,0,1-.18,1.11,10.13,10.13,0,0,1-.59,1.81A13.32,13.32,0,0,0,529.14,456.36Z" style="fill:#263238"></path><path d="M529.49,456.34c.06,0-.21-.72-1.07-1.5a5.89,5.89,0,0,0-1.72-1.07,5.3,5.3,0,0,0-1.17-.34,1.52,1.52,0,0,0-1.46.32.85.85,0,0,0-.08.92,2.13,2.13,0,0,0,.4.57,3.92,3.92,0,0,0,1,.79,4.22,4.22,0,0,0,2,.58c1.19.05,1.83-.4,1.79-.45a14.73,14.73,0,0,1-1.75,0,4.28,4.28,0,0,1-1.71-.63,4,4,0,0,1-.8-.7c-.27-.29-.42-.6-.3-.69a1.08,1.08,0,0,1,.88-.12,6.18,6.18,0,0,1,2.71,1.15C529,455.82,529.41,456.4,529.49,456.34Z" style="fill:#263238"></path><path d="M542.4,452l-.28,29.52-36.72-.16c.23-3.5,19.26-10.47,19.26-10.47l-.6-18.92Z" style="fill:#455a64"></path><g style="opacity:0.6000000000000001"><path d="M536,469.39a1.5,1.5,0,0,1,1,1.72,1.44,1.44,0,0,1-1.69,1,1.57,1.57,0,0,1-1.08-1.82,1.49,1.49,0,0,1,1.88-.88" style="fill:#fff"></path></g><g style="opacity:0.6000000000000001"><path d="M542.13,481.44l0-3-35.32,1.2s-1.64.71-1.45,1.86Z" style="fill:#fff"></path></g><path d="M524.06,470.74c0,.18.9.27,1.78.85s1.35,1.33,1.52,1.26-.1-1.1-1.18-1.79S524,470.58,524.06,470.74Z" style="fill:#263238"></path><path d="M520.2,472.32c0,.17.74.48,1.34,1.24s.78,1.57,1,1.56.3-1-.47-1.95S520.21,472.15,520.2,472.32Z" style="fill:#263238"></path><path d="M518,476.92c.16,0,.41-.86,0-1.84s-1.3-1.38-1.37-1.23.44.68.8,1.49S517.82,476.9,518,476.92Z" style="fill:#263238"></path><path d="M524.4,466.42c.08.16.9-.08,1.92,0s1.8.4,1.89.24-.66-.79-1.86-.86S524.32,466.27,524.4,466.42Z" style="fill:#263238"></path><path d="M525.3,462.06a3.34,3.34,0,0,0,1.84,0,8.2,8.2,0,0,0,1.92-.58,9,9,0,0,0,1.06-.56,2.47,2.47,0,0,0,.56-.43.79.79,0,0,0,.09-.95,1,1,0,0,0-.79-.42,2.34,2.34,0,0,0-.69.1,6.32,6.32,0,0,0-2.84,1.49c-.86.79-1.15,1.45-1.09,1.49s.5-.5,1.36-1.15a7.88,7.88,0,0,1,1.65-.92,6.57,6.57,0,0,1,1.06-.32c.39-.1.72-.1.82.07s0,.1,0,.21a1.5,1.5,0,0,1-.4.31,9,9,0,0,1-1,.56,10,10,0,0,1-1.78.67A14.21,14.21,0,0,0,525.3,462.06Z" style="fill:#263238"></path><path d="M525.53,462.32a2.94,2.94,0,0,0,.49-1.77,5.78,5.78,0,0,0-.24-2,5.88,5.88,0,0,0-.46-1.12,1.54,1.54,0,0,0-1.17-.93.84.84,0,0,0-.77.51,2.5,2.5,0,0,0-.2.67,4.29,4.29,0,0,0,0,1.24,4.18,4.18,0,0,0,.78,1.9c.71,1,1.46,1.18,1.47,1.12s-.56-.44-1.11-1.36a4.25,4.25,0,0,1-.57-1.73,3.46,3.46,0,0,1,0-1.06c.06-.39.2-.71.35-.67s.49.3.64.61a5.51,5.51,0,0,1,.45,1,6.37,6.37,0,0,1,.35,1.83C525.63,461.62,525.43,462.29,525.53,462.32Z" style="fill:#263238"></path><path d="M484.36,213.47s9.08-3,15.61-1.24a28.53,28.53,0,0,1,8.92,4.19l-19.3,26.94-4.7-16Z" style="fill:#FFC100"></path><path d="M539.25,281.05s5.44,4.09,8,9.37,7.47,18.43,7.47,18.43,3.49,16.7,2.41,24.8-8.32,63.49-8.32,63.49.36,53.85-4.77,63.45l-1.14,5.18-20.71-3.67h0l.13-3.11L517.4,353.41l-12.46-71.88Z" style="fill:#263238"></path><path d="M493.56,296.75s-12.38,68.15-13.47,80,41,74.2,41,74.2l19.27-20.06-27.65-51.41,9-51.8-12.51-45.77-13.13.46Z" style="fill:#263238"></path><path d="M547.22,443.83s0,.52-.14,1.51-.37,2.43-.72,4.31c-.69,3.75-1.8,9.19-3.3,16l0,.14-.15,0-20.71-3.63-.16,0v-.16c-.58-14.21-1.27-31.19-2-49.41-.77-19.6-1.48-37.77-2.06-52.68v0c-1.55-12-2.83-21.88-3.73-28.81-.43-3.44-.78-6.15-1-8-.11-.91-.19-1.61-.25-2.1s-.07-.73-.07-.73.06.24.13.72.17,1.19.31,2.1c.25,1.86.63,4.55,1.11,8,.93,6.93,2.27,16.82,3.89,28.79h0c.6,14.91,1.34,33.08,2.13,52.68.71,18.21,1.38,35.2,1.93,49.41l-.16-.19,20.7,3.72-.18.12c1.54-6.79,2.7-12.21,3.44-15.95.37-1.87.64-3.32.79-4.3.09-.49.13-.86.17-1.11S547.22,443.83,547.22,443.83Z" style="fill:#455a64"></path><path d="M445.67,443.91l-6.06,21s19.28,13.2,18.54,17.18l-41.07-10.27,8.09-33.06Z" style="fill:#455a64"></path><path d="M427.36,459.92a1.73,1.73,0,0,0-1.64,1.62,1.67,1.67,0,0,0,1.6,1.64,1.81,1.81,0,0,0,1.72-1.73,1.72,1.72,0,0,0-1.85-1.52" style="fill:#e0e0e0"></path><g style="opacity:0.6000000000000001"><path d="M417.08,471.78l.94-3.3,39,11.08s1.63,1.26,1.1,2.49Z" style="fill:#fff"></path></g><path d="M440.33,464.83c-.05.2-1.08,0-2.23.44s-1.88,1.11-2.05,1,.43-1.21,1.82-1.66S440.42,464.66,440.33,464.83Z" style="fill:#263238"></path><path d="M444.19,467.69c0,.21-.95.33-1.85,1s-1.31,1.53-1.51,1.47,0-1.23,1.09-2.05S444.24,467.5,444.19,467.69Z" style="fill:#263238"></path><path d="M445.35,473.46c-.19,0-.22-1.07.57-2s1.84-1.18,1.88-1-.68.63-1.32,1.44S445.56,473.49,445.35,473.46Z" style="fill:#263238"></path><path d="M441.18,459.9c-.13.16-1-.34-2.13-.55s-2.13-.07-2.19-.27,1-.7,2.32-.44S441.32,459.77,441.18,459.9Z" style="fill:#263238"></path><path d="M431.27,448.85l-1,21.8s21.84,8.29,22.06,12.33L410,482.65l.09-34Z" style="fill:#455a64"></path><path d="M417.24,468.71a1.72,1.72,0,0,0-1.21,2,1.66,1.66,0,0,0,1.93,1.22,1.81,1.81,0,0,0,1.27-2.09,1.72,1.72,0,0,0-2.15-1" style="fill:#e0e0e0"></path><g style="opacity:0.6000000000000001"><path d="M410,482.65l.15-3.43,40.54,1.6s1.87.84,1.65,2.16Z" style="fill:#fff"></path></g><path d="M431,470.44c0,.2-1,.29-2.06.95s-1.57,1.52-1.76,1.43.12-1.27,1.38-2S431.05,470.25,431,470.44Z" style="fill:#263238"></path><path d="M435.43,472.31c0,.2-.85.54-1.56,1.41s-.92,1.79-1.13,1.78-.33-1.18.58-2.24S435.43,472.11,435.43,472.31Z" style="fill:#263238"></path><path d="M437.91,477.64c-.19,0-.47-1,.07-2.12s1.51-1.57,1.6-1.4-.52.78-.95,1.71S438.12,477.62,437.91,477.64Z" style="fill:#263238"></path><path d="M430.67,465.44c-.09.19-1-.1-2.2,0s-2.09.43-2.19.25.77-.91,2.15-1S430.77,465.28,430.67,465.44Z" style="fill:#263238"></path><path d="M405.08,289.32v17.24l4.63,67.15s-2.88,32.58-4.65,51c-1.54,16,1,43.78,1,43.78h27l9.64-92.75,6-57.85L459,291.53Z" style="fill:#263238"></path><path d="M475.43,298.55l-4.32,83a27.91,27.91,0,0,1-1.86,8.7L443.68,456c0,.12-.08.23-.11.35h0a4.44,4.44,0,0,1-5.31,3.05l-8.34-2a4.43,4.43,0,0,1-3.38-4.64l11.37-157.68a4.44,4.44,0,0,1,4.88-4.1l28.65,2.94A4.44,4.44,0,0,1,475.43,298.55Z" style="fill:#263238"></path><path d="M448.53,318.55a2.29,2.29,0,0,1,0,.39c0,.28,0,.66,0,1.14,0,1-.08,2.51-.14,4.39-.1,3.82-.38,9.33-.77,16.15-.81,13.62-2.32,32.42-4.69,53.1s-4.9,39.38-6.78,52.89c-.95,6.73-1.73,12.19-2.26,16-.28,1.86-.49,3.32-.64,4.34-.08.48-.14.85-.18,1.13a3.1,3.1,0,0,1-.08.38,1.92,1.92,0,0,1,0-.39c0-.28.07-.65.13-1.13.12-1,.31-2.49.54-4.36.5-3.81,1.22-9.28,2.11-16,1.79-13.52,4.3-32.2,6.63-52.89s3.94-39.47,4.84-53.08c.43-6.8.76-12.31.93-16.12.1-1.89.17-3.36.23-4.39,0-.48.05-.86.07-1.14A2.33,2.33,0,0,1,448.53,318.55Z" style="fill:#455a64"></path><path d="M405.68,287.06c-7.75-.78-13.65-7.95-15.36-15.55s-.1-15.51,1.79-23.06l19-8.84Z" style="fill:#263238"></path><path d="M453.49,154.52l-7.66,39.61c-1.44,6.74-3.54,16.72,7.21,18.51h0c9.45.86,13.67-7.4,15-13.69.63-3,1.17-5.47,1.25-5.77,0,0,10.29,1.21,13.16-8.61,1.39-4.75,3.44-14.77,5.2-23.85a19.06,19.06,0,0,0-13.61-22l-1-.27C462.67,136.22,455.45,144,453.49,154.52Z" style="fill:#ffcbb3"></path><path d="M469.33,193.18a24.65,24.65,0,0,1-11.78-7.37s1.13,8.08,11.21,9.93Z" style="fill:#ff996c"></path><path d="M470.22,162.11c-.23,0-1.07-.94-2.61-1.69s-2.89-.88-3-1.06.22-.18.82-.14a7.38,7.38,0,0,1,2.48.73,6.42,6.42,0,0,1,2,1.47C470.27,161.85,470.33,162.11,470.22,162.11Z" style="fill:#263238"></path><path d="M469.55,165.2a1.38,1.38,0,0,1-1.65,1,1.32,1.32,0,0,1-1-1.58,1.38,1.38,0,0,1,1.66-1A1.31,1.31,0,0,1,469.55,165.2Z" style="fill:#263238"></path><path d="M471.86,173.93a10.22,10.22,0,0,1,2.58.24c.4.07.79.09.93-.15a2.15,2.15,0,0,0,.06-1.22c-.11-1-.21-2.12-.33-3.26-.42-4.64-.61-8.41-.42-8.43s.68,3.73,1.1,8.37c.09,1.14.19,2.23.27,3.27a2.32,2.32,0,0,1-.22,1.57,1,1,0,0,1-.8.39,2.73,2.73,0,0,1-.68-.09A9.73,9.73,0,0,1,471.86,173.93Z" style="fill:#263238"></path><path d="M470.56,155c-.24.34-1.52-.21-3.14-.45s-3-.15-3.13-.55c-.05-.18.27-.48.88-.7a5.35,5.35,0,0,1,4.78.76C470.46,154.45,470.67,154.83,470.56,155Z" style="fill:#263238"></path><path d="M485.85,161.3c-.24.27-1.48-.33-3.05-.7s-2.93-.43-3-.78c0-.17.27-.39.88-.51a5.46,5.46,0,0,1,2.42.08,5.84,5.84,0,0,1,2.21,1C485.76,160.83,486,161.17,485.85,161.3Z" style="fill:#263238"></path><path d="M452.23,162.19c-.16-.12-6.63-3.91-8.18,3.27s6,7.26,6,7.06S452.23,162.19,452.23,162.19Z" style="fill:#ffcbb3"></path><path d="M448.47,169.32s-.14.06-.37.12a1.29,1.29,0,0,1-.94-.19,3.15,3.15,0,0,1-.83-3.09,4.09,4.09,0,0,1,.74-1.71,1.48,1.48,0,0,1,1.15-.76.65.65,0,0,1,.66.51c.05.22,0,.35,0,.37s.18-.09.19-.39a.86.86,0,0,0-.19-.52,1,1,0,0,0-.65-.33,1.81,1.81,0,0,0-1.55.83,4.36,4.36,0,0,0-.87,1.91c-.26,1.46.18,3,1.16,3.5a1.33,1.33,0,0,0,1.18.05C448.42,169.49,448.5,169.34,448.47,169.32Z" style="fill:#ff996c"></path><path d="M471.16,178.75c.06-.18-1.34-.48-2.4-1.69a7.81,7.81,0,0,1-1.11-1.75c-.24-.49-.42-.79-.5-.76s0,.37.13.91a5.26,5.26,0,0,0,1.06,2,4.15,4.15,0,0,0,1.89,1.22C470.78,178.83,471.14,178.81,471.16,178.75Z" style="fill:#263238"></path><path d="M484.93,164.68c-.19.13-1.4-.23-3.1-.07s-2.94.72-3.12.63.1-.26.64-.52a7.52,7.52,0,0,1,2.49-.64,7,7,0,0,1,2.48.19C484.85,164.44,485,164.62,484.93,164.68Z" style="fill:#263238"></path><path d="M483.53,168.21a1.38,1.38,0,0,1-1.65,1,1.32,1.32,0,0,1-1-1.58,1.37,1.37,0,0,1,1.65-1A1.31,1.31,0,0,1,483.53,168.21Z" style="fill:#263238"></path><path d="M503,154.48a1.67,1.67,0,0,0-.57-1.1,5.11,5.11,0,0,0-2.47-.93,14.59,14.59,0,0,1-5.94-2.83,7.71,7.71,0,0,0,2.1-.92,4.39,4.39,0,0,0,2.09-4,.94.94,0,0,0-.41-.76c-.41-.23-.89.13-1.27.42a3.76,3.76,0,0,1-3.77.77,6.28,6.28,0,0,1-2.44-1.29.75.75,0,0,1-.07-.12l-.83-1.26h0c-2.06-3.07-3.91-5.28-6-6.66a23.73,23.73,0,0,0-12.2-3.47c-3.66.22-7.35,2.41-8.55,5.88-1.62-2.05-4.55-2.62-7.12-2.15l-.05,0c-2.84.41-4.91,2.9-6.23,5.44l-.21.42a10.65,10.65,0,0,1-4.26,2.76c-.29.1-.62.22-.71.51a.88.88,0,0,0,.31.8,5.47,5.47,0,0,0,2,1.32,12,12,0,0,1-1.25,1.68c-.4.45-.88,1-.73,1.56a1.16,1.16,0,0,0,1.07.75,3.5,3.5,0,0,0,1.34-.31l-1.31,1.94a6.44,6.44,0,0,0,2.92.39,68.89,68.89,0,0,0,.35,7.82c1.1.22,2.2.17,2.76.92.76,1,.86,2.67,2.52,2.39.84-.15,1.89-1.65,2.31-2.39a39.84,39.84,0,0,0,5-16.18,12.73,12.73,0,0,1,4.43-2l-.14.09c3-.41,6.34-.73,8.73,1.12,1.85,1.43,2.63,3.81,3.83,5.82a15.11,15.11,0,0,0,9.76,7.32c-.22,3.1-1.31,6.86-1.73,9.7l3.52-4v0a10,10,0,0,0,.71-.9l.08-.09h0c.35-.48.7-1,1.11-1.44l0,0a1.79,1.79,0,0,0,3-1.84,3.87,3.87,0,0,0-.68-1,2.84,2.84,0,0,0,2.51,1.22,2.23,2.23,0,0,0,2-1.85,1.89,1.89,0,0,0-.8-1.71,6.37,6.37,0,0,0,3.72-.07C502.24,155.93,503.07,155.41,503,154.48Z" style="fill:#263238"></path><path d="M465.59,140a8.23,8.23,0,0,0-1.19.71,7.44,7.44,0,0,0-2.21,3,12.79,12.79,0,0,0-.76,2.49c-.19.92-.32,1.93-.46,3a25.6,25.6,0,0,1-.58,3.29,10.89,10.89,0,0,1-.58,1.69,3.73,3.73,0,0,1-1,1.54,1.55,1.55,0,0,1-1.51.19,2.29,2.29,0,0,1-1.12-1,5.28,5.28,0,0,1-.45-2.73l.2.06a8.36,8.36,0,0,1-1.64,1.85,3,3,0,0,1-2.16.67,2,2,0,0,1-1-.39,1.67,1.67,0,0,1-.56-.83,1.74,1.74,0,0,1,0-.93,1.28,1.28,0,0,1,.48-.71l.09.12a6.71,6.71,0,0,1-2.47,1.18,7,7,0,0,1-.72.12h-.25l.24-.05c.16,0,.4-.08.71-.16a6.91,6.91,0,0,0,2.4-1.22l.09.12a1.3,1.3,0,0,0-.37,1.47,1.57,1.57,0,0,0,.51.74,1.77,1.77,0,0,0,.91.34,2.83,2.83,0,0,0,2-.64,8.32,8.32,0,0,0,1.59-1.82l.21-.29v.36a5.08,5.08,0,0,0,.43,2.61,2,2,0,0,0,1,.87,1.26,1.26,0,0,0,1.28-.16,3.47,3.47,0,0,0,1-1.44,11.06,11.06,0,0,0,.56-1.65,26.47,26.47,0,0,0,.6-3.26c.14-1,.27-2.06.47-3a12.75,12.75,0,0,1,.81-2.51,7.2,7.2,0,0,1,2.3-3A4.2,4.2,0,0,1,465.59,140Z" style="fill:#455a64"></path><path d="M494.57,155.93l-.1,0-.28.13a4,4,0,0,1-.48.19,6.43,6.43,0,0,1-.68.19,8.89,8.89,0,0,1-4.43-.09A11.49,11.49,0,0,1,483,153a19.94,19.94,0,0,1-4-7c-.49-1.36-.83-2.72-1.25-4a13.48,13.48,0,0,0-1.62-3.49,6.91,6.91,0,0,0-2.53-2.33,4.63,4.63,0,0,0-1.49-.48,5.36,5.36,0,0,0-1.44,0,6.06,6.06,0,0,0-2.34.84,5.78,5.78,0,0,0-1.42,1.24,6.8,6.8,0,0,0-.82,1.39s0,0,0-.1.06-.18.11-.3a4.87,4.87,0,0,1,.6-1.05,5.56,5.56,0,0,1,1.43-1.29,5.85,5.85,0,0,1,2.39-.89,5.7,5.7,0,0,1,1.49,0,5.36,5.36,0,0,1,1.55.49,7.14,7.14,0,0,1,2.62,2.38,13.62,13.62,0,0,1,1.66,3.55c.43,1.29.77,2.64,1.25,4a20.13,20.13,0,0,0,3.92,6.95,11.5,11.5,0,0,0,5.47,3.43,9.06,9.06,0,0,0,4.37.16C494,156.18,494.55,155.89,494.57,155.93Z" style="fill:#455a64"></path><path d="M496.36,151.71s-.14.08-.41.18a7.42,7.42,0,0,1-1.17.33,10.75,10.75,0,0,1-1.79.21,11.18,11.18,0,0,1-4.34-.73,10.36,10.36,0,0,1-1.63-.79,7.19,7.19,0,0,1-1-.69,1.78,1.78,0,0,1-.33-.3s.53.36,1.41.85a15,15,0,0,0,1.62.73,13.1,13.1,0,0,0,2.1.55,12.8,12.8,0,0,0,2.16.16,11.05,11.05,0,0,0,1.77-.16C495.75,151.88,496.35,151.67,496.36,151.71Z" style="fill:#455a64"></path><path d="M397.4,222.1S412.19,187,426,188.88l20.61,1.1s3.06,10.83,10.55,12.17,10.87-3.2,10.87-3.2,20.77,10.28,22.69,19.5-2.11,33-2.11,33l-14.68-2-.69,19.28,3,34.49-72.49,1,6.35-59.91,3.65-16.33Z" style="fill:#455a64"></path><path d="M420.29,203.61a4.44,4.44,0,0,1-.23,1.12l-.81,3c-.69,2.52-1.64,6-2.62,9.84s-1.8,7.35-2.39,9.89q-.42,1.77-.72,3a4.26,4.26,0,0,1-.32,1.09,4.93,4.93,0,0,1,.13-1.13c.11-.72.3-1.76.55-3,.5-2.56,1.27-6.08,2.25-9.94s2-7.32,2.77-9.81c.39-1.24.72-2.25,1-2.93A5.68,5.68,0,0,1,420.29,203.61Z" style="fill:#263238"></path><path d="M429.88,189.08c-.81.54,4.64,21.53,4.64,21.53l9.33-.12-4.63-20.91A7.78,7.78,0,0,0,429.88,189.08Z" style="fill:#263238"></path><path d="M406.87,266.83s20.94-5.67,30-25.28a92.19,92.19,0,0,0,7-24.49l-7-1.23s-7.12,20.46-13.94,28.52c-5.15,6.1-19.42,11.86-19.42,11.86Z" style="fill:#263238"></path><g style="opacity:0.30000000000000004"><path d="M447.89,217c-.55-.81-1.69-.9-2.67-.92a14.06,14.06,0,0,0-6,.77c-2.47,1.11-4.05,3.51-5.58,5.73a105.57,105.57,0,0,1-30.16,29.06l.8,1.44a18.21,18.21,0,0,0,11-1.76c3.41-1.61,7.76-3.2,10.56-5.73,5.29-4.77,8.67-11,12.72-16.84a11.39,11.39,0,0,1,3.23-3.56c.92-.55,2-.81,2.87-1.4a9.36,9.36,0,0,0,2.79-3.59C448,219.16,448.54,217.89,447.89,217Z"></path></g><path d="M437.8,205.45s-3.7,1-4,2.61-4.68,12-4.68,12l-15.94,7.81-15.59-6.15s-8.53,13.56-9.9,17.79c-1.07,3.28-1.26,13.51,3,15.24,5.77,2.35,15-1.39,20.13-5,7.51-5.26,22.87-17.9,25.21-22a68.47,68.47,0,0,0,4-8.51Z" style="fill:#ffcbb3"></path><path d="M437.8,205.45s9-1.35,9.62-.85,3.91,5.23,3.82,6.06a8,8,0,0,1-1.33,2.49s.92,4-2.24,5.07c0,0-2,4-3.15,4.32a9.38,9.38,0,0,1-3.16,0v-2.25l.83-.91-.74-.42-1.73.91-3.26-6.28Z" style="fill:#ffcbb3"></path><path d="M447.38,218.21a2.91,2.91,0,0,0-.35-1.28,4.72,4.72,0,0,0-2.75-1.63,23.31,23.31,0,0,1-4.49-1.84,22.38,22.38,0,0,1,4.66,1.35,9.16,9.16,0,0,1,1.77.76,2.82,2.82,0,0,1,1.13,1.18C447.78,217.64,447.43,218.26,447.38,218.21Z" style="fill:#ff996c"></path><path d="M448.18,217.73a7.25,7.25,0,0,1,.06-1.91,6,6,0,0,0,0-1.95c-.2-.62-1.09-.81-1.94-1.07a40.78,40.78,0,0,1-6.13-2.19,41.74,41.74,0,0,1,6.29,1.69c.42.14.84.24,1.27.43a1.68,1.68,0,0,1,1,1,2.54,2.54,0,0,1,0,1.19q-.08.5-.15,1A7,7,0,0,1,448.18,217.73Z" style="fill:#ff996c"></path><path d="M450,213.15c-.07,0-.4-.6-.54-1.67a5.75,5.75,0,0,0-.47-1.73,2,2,0,0,0-1.66-1.08,36.26,36.26,0,0,1-5.82-.83,31.06,31.06,0,0,1,5.92.32,3,3,0,0,1,1.2.44,2.31,2.31,0,0,1,.78.94,5.34,5.34,0,0,1,.42,1.9C449.89,212.5,450.07,213.11,450,213.15Z" style="fill:#ff996c"></path><path d="M474,249.49s-2.11,15.24,3.61,20.08c2.66,2.24,15.39,3.25,15.39,3.25l-4.32-21.34Z" style="fill:#ffcbb3"></path><path d="M417.43,226a23.87,23.87,0,0,1-3.08,1.36l-7.48,3.13-7.44,3.25a23.46,23.46,0,0,1-3.11,1.27,20.72,20.72,0,0,1,3-1.61c1.86-.92,4.46-2.14,7.38-3.39s5.6-2.28,7.56-3A18.46,18.46,0,0,1,417.43,226Z" style="fill:#ff996c"></path><g style="opacity:0.30000000000000004"><path d="M473.54,260.45a242.4,242.4,0,0,0,8.51-28.14c-2.27,3.1-5.08,10.23-7.19,14.88-1.65,3.64-1.32,7.68-1.29,12.93"></path></g><path d="M484,228.66a29.27,29.27,0,0,1-1.58,3.12c-1,1.9-2.38,4.54-3.8,7.5S476,245,475.14,247a29,29,0,0,1-1.43,3.19,3,3,0,0,1,.23-.91c.19-.58.48-1.41.86-2.42.75-2,1.9-4.78,3.32-7.76s2.85-5.6,3.95-7.46c.55-.94,1-1.68,1.34-2.18A3.16,3.16,0,0,1,484,228.66Z" style="fill:#263238"></path><path d="M460.76,262.49a5,5,0,0,1-.92.77c-.61.46-1.51,1.12-2.63,1.91-2.24,1.58-5.37,3.72-8.9,6s-6.79,4.21-9.17,5.57c-1.19.69-2.16,1.23-2.84,1.59a4.93,4.93,0,0,1-1.08.51,6.74,6.74,0,0,1,1-.69L439,276.4c2.33-1.45,5.55-3.45,9.08-5.7s6.69-4.33,9-5.84l2.72-1.77A5.4,5.4,0,0,1,460.76,262.49Z" style="fill:#263238"></path><path d="M579.71,137.06a.61.61,0,0,0-.77.75c1.6,5.66,9.06,31.81,10.59,32.25,1.72.49,10.05,1,10.05,1l-9.88-30.39a1.24,1.24,0,0,0-.82-.8Z" style="fill:#263238"></path><path d="M571.82,203.49l-25.42,3.29s-2.07,7.74-1.24,13.37,1.65,7.15,1.65,7.15,26.73-3.64,32.11-5.92S603,182,603,182L594.77,178l-22.95,25.47" style="fill:#bf6e65"></path><path d="M501.08,159.86c-2.38-1-3.43-4.08-2.64-6.54a8.41,8.41,0,0,1,5.46-5.08,11.9,11.9,0,0,1,10.65,1.65c1.63,1.19,3.06,2.86,5.05,3.2,1.75.3,3.49-.53,5.27-.6a8,8,0,0,1,6.18,3,17.18,17.18,0,0,1,3.09,6.37c.61,2.09,1.17,4.41,2.92,5.72s4,1.21,6,2a7.68,7.68,0,0,1,4,10c-.54,1.16-1.4,2.28-1.27,3.55s1,2.06,1.56,3.09a5.18,5.18,0,0,1-3.3,7.08c-1.47.34-3.17,0-4.39.92s-1.44,2.57-2.09,3.93a6.46,6.46,0,0,1-7.45,3.32c-1.18-.35-2.37-1.06-3.57-.77s-2,1.48-3.15,1.92c-1.51.56-3.2-.34-4.35-1.48s-2-2.55-3.43-3.41c-1.79-1.13-4-1.1-6.13-1.45a16.4,16.4,0,0,1-12.95-21.11" style="fill:#263238"></path><path d="M528.54,184.11a4.47,4.47,0,0,1,1.55-1.44H530a2.53,2.53,0,0,1,.36-.12,1.73,1.73,0,0,1,1.39-.06h0a3.28,3.28,0,0,1,2,1.23,3.86,3.86,0,0,1,.21,4,3.23,3.23,0,0,1-2.94,1.84,3.27,3.27,0,0,1-2.58-1.94A3.69,3.69,0,0,1,528.54,184.11Z" style="fill:#455a64"></path><path d="M505.24,219.74l-10.53-49.52a3.61,3.61,0,0,1,2.45-4.22L515,157.54c5.89-1.83,11.35,4.79,12.92,10.75,1.75,6.62,3.63,14.77,3.83,19.93.39,10.37-7.07,13.18-7.07,13.18s1.73,9.08,2.41,12.74l1.46,12.77Z" style="fill:#bf6e65"></path><path d="M527.49,177.1a1.31,1.31,0,0,1-1,1.55,1.26,1.26,0,0,1-1.56-.9,1.31,1.31,0,0,1,1-1.55A1.26,1.26,0,0,1,527.49,177.1Z" style="fill:#263238"></path><path d="M527,172.9c-.13.2-1.25-.32-2.63-.05s-2.27,1.18-2.46,1,0-.4.4-.81a3.58,3.58,0,0,1,1.92-1,3.47,3.47,0,0,1,2.14.26C526.85,172.54,527.05,172.81,527,172.9Z" style="fill:#263238"></path><path d="M514.15,179.35a1.3,1.3,0,0,1-1,1.54,1.25,1.25,0,0,1-1.56-.9,1.3,1.3,0,0,1,1-1.54A1.26,1.26,0,0,1,514.15,179.35Z" style="fill:#263238"></path><path d="M513.4,175.87c-.13.2-1.25-.33-2.64-.06s-2.27,1.18-2.45,1,0-.4.39-.81a3.66,3.66,0,0,1,1.92-1,3.45,3.45,0,0,1,2.14.26C513.25,175.5,513.46,175.77,513.4,175.87Z" style="fill:#263238"></path><path d="M520.47,185.16a10.2,10.2,0,0,1,2.18-.85c.34-.11.67-.24.68-.5a1.83,1.83,0,0,0-.45-1l-1.58-2.49c-2.22-3.56-3.9-6.51-3.75-6.6s2.06,2.72,4.27,6.28l1.54,2.52a2,2,0,0,1,.46,1.35.88.88,0,0,1-.48.63,2.43,2.43,0,0,1-.58.21A9.13,9.13,0,0,1,520.47,185.16Z" style="fill:#263238"></path><path d="M524.68,201.4a26,26,0,0,1-14.18-.93s4.75,6.23,14.63,3.3Z" style="fill:#8b4a41"></path><path d="M520.92,188.5a3.49,3.49,0,0,0-3.11-.93,2.27,2.27,0,0,0-1.63,1.36,2.08,2.08,0,0,0,2.89,2.6,5.22,5.22,0,0,0,1.8-1.67,1.51,1.51,0,0,0,.33-.61.71.71,0,0,0-.19-.69" style="fill:#8b4a41"></path><path d="M516.58,186.93c.22-.06.52,1.45,2,2.26s3.08.34,3.13.54-.3.37-1,.52a3.91,3.91,0,0,1-2.6-.36,3.34,3.34,0,0,1-1.6-1.92C516.38,187.35,516.47,186.94,516.58,186.93Z" style="fill:#263238"></path><path d="M512.88,170c-.06.4-1.49.5-3.08,1s-2.81,1.22-3.1.93c-.13-.15,0-.55.49-1a5.42,5.42,0,0,1,2.18-1.28,5.34,5.34,0,0,1,2.53-.2C512.54,169.6,512.9,169.84,512.88,170Z" style="fill:#263238"></path><path d="M525.56,168.22c-.19.37-1.21.23-2.36.44s-2.08.63-2.37.35c-.13-.14,0-.49.33-.87a3.36,3.36,0,0,1,1.8-.9,3.26,3.26,0,0,1,2,.27C525.44,167.75,525.63,168.05,525.56,168.22Z" style="fill:#263238"></path><path d="M534.38,165a7.08,7.08,0,0,0-3.31-3.37,26.12,26.12,0,0,1-2.47-.93c-1.66-.93-2.35-2.93-3.52-4.42a7.75,7.75,0,0,0-6.47-2.88c-2,.13-4,1.08-6,.92-1.5-.12-2.92-.85-4.43-.88-2.94-.06-5.24,2.43-7,4.81.34,2,2.19,3.13,4,4.18a7.17,7.17,0,0,0,6,.54c1.51-.55,3.08-1.62,4.57-1s2,2.76,3.42,3.64c2.06,1.25,4.66-.69,7.06-.4,1.84.23,3.23,1.72,4.63,2.94s3.39,2.27,5.06,1.45A21,21,0,0,0,534.38,165Z" style="fill:#263238"></path><path d="M511.55,160c-1.34-.15-4.09-.53-5-1.52a7.9,7.9,0,0,0-7.45-2.76,6.55,6.55,0,0,0-4.94,6.07,9.4,9.4,0,0,0-7.09,6.46,9.16,9.16,0,0,0-.3,1.28,7.15,7.15,0,0,0,.52,6c.64,1.08,1.61,2.23,1.2,3.42s-1.94,1.49-3.06,2.1a4.74,4.74,0,0,0-2.07,5.72,5.74,5.74,0,0,1,.76,2.24,5,5,0,0,1-1,2.22,5.91,5.91,0,0,0,5,8.9,7.64,7.64,0,0,1,2.79.16c1,.4,1.57,1.42,2.35,2.16a4.81,4.81,0,0,0,6.73.05c.75.74.24,1.2,1.87.92l-2.41-21.29a1.8,1.8,0,0,0,1.46.79c3.55.2,2.87-6.93,1.78-8.72a19.79,19.79,0,0,0,2.82-4.18,14.54,14.54,0,0,0,.41-7.18C507.18,162.69,512.14,160.07,511.55,160Z" style="fill:#263238"></path><path d="M500.69,183.69c-.47-2.15-3.2-2.16-4.89-.76-.93.77-1.52,2.1-1,4.38,1.29,6.1,7.14,3.55,7.11,3.37S501.25,186.21,500.69,183.69Z" style="fill:#bf6e65"></path><path d="M499.53,188.77s-.1.09-.26.21a1.07,1.07,0,0,1-.79.19,2.69,2.69,0,0,1-1.71-2.1,3.52,3.52,0,0,1,0-1.58,1.26,1.26,0,0,1,.62-1,.56.56,0,0,1,.69.16c.12.15.1.28.14.29s.11-.13,0-.37a.68.68,0,0,0-.32-.33.78.78,0,0,0-.62,0,1.49,1.49,0,0,0-.91,1.17,3.69,3.69,0,0,0,0,1.78,2.82,2.82,0,0,0,2.1,2.3,1.19,1.19,0,0,0,.94-.36C499.55,188.92,499.55,188.77,499.53,188.77Z" style="fill:#8b4a41"></path><path d="M502.83,159.77a3.72,3.72,0,0,0-1.06,1.23,5.77,5.77,0,0,0,.27,4.32l.06.15-.15.06a6,6,0,0,0-3.36,4.15,4.74,4.74,0,0,0-.07,1.55,9.19,9.19,0,0,0,.47,1.59,14.08,14.08,0,0,1,.53,1.7,2.93,2.93,0,0,1-.18,1.89,7.56,7.56,0,0,1-2.66,2.8,10.41,10.41,0,0,0-2.53,2.35,7.75,7.75,0,0,0-1.43,5.52,8.13,8.13,0,0,0,1.45,3.66c.55.77,1,1.11.93,1.14a1.32,1.32,0,0,1-.31-.23,6.34,6.34,0,0,1-.76-.81,7.87,7.87,0,0,1-.21-9.52,10.68,10.68,0,0,1,2.6-2.45,7.19,7.19,0,0,0,2.51-2.63c.53-1.05,0-2.21-.35-3.28a9.39,9.39,0,0,1-.47-1.67,5.07,5.07,0,0,1,.08-1.7,6.34,6.34,0,0,1,3.63-4.36l-.08.22a5.84,5.84,0,0,1-.13-4.53,2.65,2.65,0,0,1,.83-.94A1.85,1.85,0,0,1,502.83,159.77Z" style="fill:#455a64"></path><path d="M497.62,191.45a4.38,4.38,0,0,1,1.55-1.44H499a2.17,2.17,0,0,1,.36-.12,1.73,1.73,0,0,1,1.39-.07h0a3.24,3.24,0,0,1,2,1.23,3.88,3.88,0,0,1,.21,4,3.23,3.23,0,0,1-2.94,1.84,3.27,3.27,0,0,1-2.58-1.94A3.66,3.66,0,0,1,497.62,191.45Z" style="fill:#455a64"></path><path d="M525.73,207.14S530.6,202.36,536,203c2.68.34,7.38.91,11.3,1.46l9.84,1.39-5.32,23L545,232.31l-4.57,40.51,9.51,21.91L491.26,306,493,281.89s-3.35-21.68-4.78-25.35c-3.89-10,1.53-20.67,2.36-22.94s13.62-20.25,13.62-20.25,4.22,4,8.88,2.94C522.94,214,525.73,207.14,525.73,207.14Z" style="fill:#FFC100"></path><path d="M589.53,146.05c.37.37,12.93,7.47,13.51,8.45s2.66,21.19,2.17,23.52A8.41,8.41,0,0,1,603,182L594.77,178l1.62-2.57A22.87,22.87,0,0,1,596,171c.13-1.72.13-3.68.13-3.68l-5.39-2.81-4.66.73s-1.59-1.84,0-2.45,3.68-1.47,5.64-1.1,3.6.73,3.6.73l-4.22-4-6.24.25s-1.1-1.47,0-2a31.79,31.79,0,0,1,6.61-1.35c.49.12,6.25,2.33,6.25,2.33l-15.19-5.51s-1.1-1.35,0-1.72,9.92,1,9.92,1S586,147,586,146.05v-1Z" style="fill:#bf6e65"></path><path d="M529.7,254.36a4.14,4.14,0,0,1-.81.8,13.56,13.56,0,0,1-2.57,1.72,15.29,15.29,0,0,1-18.77-3.52,13.53,13.53,0,0,1-1.78-2.55,4.3,4.3,0,0,1-.46-1,28.53,28.53,0,0,0,2.51,3.34,15.48,15.48,0,0,0,18.33,3.44A30.27,30.27,0,0,0,529.7,254.36Z" style="fill:#263238"></path><g style="opacity:0.30000000000000004"><path d="M507.19,252.62c.26,2.51,1.62,4.18,3.69,5.63a14.67,14.67,0,0,0,7.08,2.39,12.33,12.33,0,0,0,5.66-.57,6.73,6.73,0,0,0,4-3.84c-3.55,1.44-6.65,2.4-10.47,2.09s-7.55-2.77-10-5.7"></path></g><path d="M547.53,221.16c0,.09-.9,0-2.32.23a13.57,13.57,0,0,0-5.21,1.85,13.41,13.41,0,0,0-4,3.82c-.82,1.17-1.17,2-1.25,2a5.71,5.71,0,0,1,.94-2.17,12.25,12.25,0,0,1,9.48-5.84A6,6,0,0,1,547.53,221.16Z" style="fill:#263238"></path><path d="M497.26,223.86c.07.06-.89,1.11-2.26,2.95a44.17,44.17,0,0,0-7.56,16c-.54,2.23-.74,3.63-.83,3.62a3.31,3.31,0,0,1,.05-1,26.35,26.35,0,0,1,.42-2.7,38.38,38.38,0,0,1,7.63-16.19c.73-.9,1.35-1.59,1.81-2.05S497.23,223.83,497.26,223.86Z" style="fill:#263238"></path></g></svg>